<svg xmlns="http://www.w3.org/2000/svg" viewBox="0 0 190.27 217.86"><g id="OBJECTS"><path d="M5.71,217.86A5.71,5.71,0,0,1,0,212.15v-117A95.18,95.18,0,0,1,133.15,7.9h29a5.71,5.71,0,0,1,5.71,5.71V33.86a95,95,0,0,1,22.37,61.27v117a5.71,5.71,0,0,1-5.71,5.71Z" fill="#fff"/><path d="M5.71,217.86A5.71,5.71,0,0,1,0,212.15v-117A95.18,95.18,0,0,1,133.15,7.9h29a5.71,5.71,0,0,1,5.71,5.71V33.86a95,95,0,0,1,22.37,61.27v117a5.71,5.71,0,0,1-5.71,5.71Z" fill="#fff"/><path d="M184.09,95.13v117H5.24v-117A89.49,89.49,0,0,1,131.47,13.6c1.18.54,2.34,1.1,3.5,1.68l.14.07a87.74,87.74,0,0,1,8.16,4.71A89.71,89.71,0,0,1,157.9,31.9q2,2,3.82,4.06v0A89,89,0,0,1,184.09,95.13Z" fill="#a7cbcc"/><g opacity="0.41"><path d="M184.09,95.13v117H5.24v-117A89.49,89.49,0,0,1,131.47,13.6c1.18.54,2.34,1.1,3.5,1.68l.14.07a87.74,87.74,0,0,1,8.16,4.71A89.71,89.71,0,0,1,157.9,31.9q2,2,3.82,4.06v0A89,89,0,0,1,184.09,95.13Z" fill="#26575e"/></g><path d="M111.45,65a26.13,26.13,0,0,1,3,9.39c-6.13,2.25-12.44,4.11-18.71,6.06-5.55,1.7-11.07,3.47-16.41,5.62-1.73.69-3.45,1.43-5.13,2.21l-.33-.85c-.32-.78-.63-1.57-.94-2.36-1-2.47-2-4.94-2.92-7.43l-1.82-4.68a291.28,291.28,0,0,1-9.63-28.85.61.61,0,0,1,0-.11c-.27-1-.54-2.06-.8-3.09a84.87,84.87,0,0,1-2.13-12.77c0-.34-.06-.7-.08-1.05,1.18-.36,2.37-.72,3.57-1.05A41.79,41.79,0,0,1,74.13,24.2a32,32,0,0,1,3.38.51l.14,0c.77.17,1.53.36,2.29.57l.14.05a25.36,25.36,0,0,1,11,6.46c3.4,3.49,5.59,8,7.29,12.59.81,2.19,1.67,4.59,3.67,5.72,1.76,1,3.91.71,5.92.8a18.38,18.38,0,0,1,12.24,5.87A28.18,28.18,0,0,1,126.75,69,93.38,93.38,0,0,1,118,73,21.87,21.87,0,0,0,111.45,65Z" fill="#44182c"/><path d="M77.83,85.44c-1.32.67-2.65,1.33-4,2Q70.43,89.07,67,90.59c-1.24.54-2.47,1.07-3.72,1.58-5.4,2.22-10.91,4.18-16.42,6.13-2.9,1-5.82,2-8.75,3a40.91,40.91,0,0,1-6-8.17,15.26,15.26,0,0,0,1.73,9.58c-2.92,1-5.83,2-8.72,3-3.8-6-7-12.87-6.54-20,.56-9.1,7.12-17,15.1-21.23-2.65-4.31-5.39-8.87-5.6-13.95a17.21,17.21,0,0,1,4-11.41,23.47,23.47,0,0,1,9.51-6.72l.47-.18a20.66,20.66,0,0,1,4.67,1.48A28.51,28.51,0,0,1,57.89,43.1c.21.29.42.58.62.88a.39.39,0,0,1,.08.1,61.17,61.17,0,0,1,5.14,9.36c.75,1.61,1.45,3.25,2.15,4.89.34.8.67,1.61,1,2.42l.84,2c.43,1,.87,2,1.31,3.07q1,2.34,2,4.67,1.23,2.82,2.5,5.61c.09.21.17.41.27.61,1,2.25,2,4.51,3.07,6.76Z" fill="#44182c"/><polygon points="96.87 84.7 68.94 95.85 67.52 92.08 63.43 81.2 62.23 78.01 88.95 55.22 96.87 84.7" fill="#fe99bf"/><g opacity="0.54"><path d="M88.23,70.18a30,30,0,0,1-7.76,14.76,27.11,27.11,0,0,1-13,7.14L63.43,81.2a60.29,60.29,0,0,1,9-4.67C77.56,74.33,83.37,72.92,88.23,70.18Z" fill="#44182c"/></g><path d="M91.14,69.34a17.84,17.84,0,0,1-.53,5c-.49,1.45-2.8,3.35-6.08,5.29a78.16,78.16,0,0,1-18.8,7.67C60.82,88.57,56.42,89,53.9,88a6.34,6.34,0,0,1-1.63-1c-3.33-2.81-6.55-9.71-8.92-16.36a91.82,91.82,0,0,1-3.47-11.94,25.73,25.73,0,0,1-.83-8,25.22,25.22,0,0,1,26.43-24c11.82.66,21.12,8.12,23.17,19.41L89,47.39s.26,1.65.59,4.15c.38,2.81.86,6.71,1.17,10.55C91,64.65,91.14,67.18,91.14,69.34Z" fill="#fe99bf"/><path d="M52,66.45a2.37,2.37,0,1,1-2.45-2.32A2.38,2.38,0,0,1,52,66.45Z" fill="#44182c"/><path d="M69.37,60.36A2.37,2.37,0,1,1,66.93,58,2.39,2.39,0,0,1,69.37,60.36Z" fill="#44182c"/><path d="M58.55,70a3,3,0,0,1-1-.18,3.05,3.05,0,0,1-1.73-1.58,4.46,4.46,0,0,1-.33-1.13A7.75,7.75,0,0,1,55.62,64a.38.38,0,0,1,.47-.28.4.4,0,0,1,.28.48A6.85,6.85,0,0,0,56.24,67a3.73,3.73,0,0,0,.26.93,2.33,2.33,0,0,0,1.29,1.18A2.28,2.28,0,0,0,59.53,69a.4.4,0,0,1,.52.18.39.39,0,0,1-.19.52A3,3,0,0,1,58.55,70Z" fill="#44182c"/><path d="M60.12,73.17A4.35,4.35,0,0,1,58.79,73a.43.43,0,0,1,.27-.82,3.58,3.58,0,0,0,3.09-.46,4,4,0,0,0,1.68-2.83.43.43,0,0,1,.49-.38.44.44,0,0,1,.37.49,4.94,4.94,0,0,1-2.06,3.44A4.42,4.42,0,0,1,60.12,73.17Z" fill="#44182c"/><path d="M43.31,62.4a.41.41,0,0,1-.16,0,.43.43,0,0,1-.24-.57,5.41,5.41,0,0,1,4.74-3.32.43.43,0,1,1,0,.86,4.55,4.55,0,0,0-4,2.79A.43.43,0,0,1,43.31,62.4Z" fill="#44182c"/><path d="M62.27,54.65a.43.43,0,0,1-.25-.78A6.16,6.16,0,0,1,67.71,53a.44.44,0,0,1-.3.82,5.32,5.32,0,0,0-4.88.73A.47.47,0,0,1,62.27,54.65Z" fill="#44182c"/><g opacity="0.31"><ellipse cx="77.93" cy="68.31" rx="9.23" ry="9.34" fill="#bc606d"/></g><g opacity="0.31"><path d="M56.68,79a9.38,9.38,0,0,1-4.41,8c-3.33-2.81-6.55-9.71-8.92-16.36A9.23,9.23,0,0,1,56.68,79Z" fill="#bc606d"/></g><path d="M94.77,49.51A5.93,5.93,0,0,1,97.5,50a6.45,6.45,0,0,1,2.82,2.84,11.24,11.24,0,0,1,.75,8.87,12.14,12.14,0,0,1-5.77,6.78,6.07,6.07,0,0,1-4.71.73C86.26,67.75,85.51,60.91,86,57S91,49.67,94.77,49.51Z" fill="#fe99bf"/><path d="M91.71,63.67a.4.4,0,0,1-.4-.34,14.27,14.27,0,0,1,6.9-14.14.41.41,0,0,1,.55.16.4.4,0,0,1-.15.54A13.61,13.61,0,0,0,92.1,63.22a.39.39,0,0,1-.33.45Z" fill="#44182c"/><path d="M87.29,58.33c-2.42-1.16-4.69-4.31-5.59-6.6a15.1,15.1,0,0,1-11.27-.23,15.39,15.39,0,0,1-8-8.07c-5.3,1.24-11,1.37-15.79-2.15a10.35,10.35,0,0,1-3.55-5,35,35,0,0,1-1.49-4,83.69,83.69,0,0,1,16.58-6.08c2.52-.58,5.08-1,7.65-1.3,5.83-.77,12.12-1.2,17.22,1.76a19.21,19.21,0,0,1,6.73,7.13,51.32,51.32,0,0,1,3.91,9.14c.74,2.14,1.66,4.52,2.38,6.68a6.45,6.45,0,0,0-3.06.31,6.2,6.2,0,0,0-3.52,3.19,9.49,9.49,0,0,0-.78,4.28A1,1,0,0,1,87.29,58.33Z" fill="#44182c"/><path d="M167.35,209.15c0,.34,0,.68,0,1,0,.8,0,1.47,0,2h-132c-1.06-10.14-6.7-65.58-3.83-79.67,3.39-16.72,29.87-25.32,29.87-25.32L59.14,95.3a4.2,4.2,0,0,1,0-1.5,4.08,4.08,0,0,1,2.54-3.14L66.35,89,67,90.59l.13.33.07.16.08.23.05.13.25.64.31.82s4.78-1.19,10.56-3.28h0c1.47-.53,3-1.12,4.55-1.76,4.85-2,9.73-4.53,12.72-7.43l-.27-1.07,0-.13-.08-.3,0-.06,0-.14-.07-.25,0-.11-.36-1.45s3.08-1.66,5.29-.72a2.94,2.94,0,0,1,1.14.84A10.87,10.87,0,0,1,102,78.1c.07.1.13.21.2.32a73,73,0,0,1,3.48,6.51c.64,1.33,1.13,2.37,1.31,2.76a1,1,0,0,0,.06.17s3,.4,7.51,1.3l2.87.6,1.57.35c8.58,2,19.85,5.3,26.89,10.33.7.5,1.37,1,2,1.55.24.21.48.44.72.68a19.67,19.67,0,0,1,1.66,1.83c4.82,6,8.28,16,10.76,27.63a.14.14,0,0,1,0,.06h0c1,4.91,1.93,10.11,2.66,15.4.06.43.12.86.18,1.27,0,0,0,0,0,0,.26,2,.52,4.06.74,6.09.41,3.53.75,7.06,1,10.54.05.55.09,1.1.14,1.64,0,.35.06.7.07,1,.13,1.59.24,3.16.35,4.72.09,1.38.18,2.74.25,4.08q0,.8.09,1.56c.09,1.66.17,3.28.25,4.87,0,.33,0,.66,0,1s0,.76,0,1.13l0,.81c.14,3.54.25,6.87.32,9.91v.21c0,.32,0,.64,0,.95C167.35,202.29,167.37,206.32,167.35,209.15Z" fill="#26575e"/><path d="M62.14,183.05a.4.4,0,0,1-.39-.36l-3.24-34.33a.39.39,0,0,1,.78-.07l3.24,34.33a.39.39,0,0,1-.35.42Z" fill="#44182c"/><path d="M52.67,184a.39.39,0,0,1-.39-.38.38.38,0,0,1,.38-.4L94,182a.4.4,0,0,1,.4.38.38.38,0,0,1-.38.4L52.68,184Z" fill="#44182c"/><rect x="73.16" y="132.19" width="102.09" height="79.96" fill="#f56a58"/><path d="M79,132.19l-1.22.6a51.53,51.53,0,0,0-4.58,2.61v-1.12c1.11-.7,2.32-1.4,3.67-2.09Z" fill="#f7f0e7"/><path d="M133.52,132.19a47.46,47.46,0,0,1-5.07,2.94c-8.81,4.47-14.4,4.56-19.79,4.65s-10.76.17-19.38,4.55-11.93,8.72-15.13,12.95c-.32.42-.65.86-1,1.29V157l.23-.3c3.26-4.3,6.64-8.76,15.45-13.23s14.4-4.56,19.8-4.64,10.77-.18,19.39-4.55c1.38-.7,2.61-1.4,3.74-2.09Z" fill="#f7f0e7"/><path d="M156.4,132.19h0l-.67.88-.28.36c-3.26,4.3-6.63,8.76-15.45,13.23s-14.4,4.55-19.79,4.64-10.76.18-19.39,4.55-11.92,8.73-15.12,12.95c-2.87,3.78-5.84,7.69-12.53,11.62v-1.1c6.2-3.76,9-7.48,11.77-11.1,3.26-4.3,6.63-8.75,15.45-13.22s14.4-4.56,19.8-4.65,10.76-.17,19.39-4.55,11.93-8.72,15.12-12.95l.52-.67Z" fill="#f7f0e7"/><path d="M175.25,135.06v1.2A40.59,40.59,0,0,0,167,145c-2.68,3.54-5.45,7.19-11.26,10.85-1.25.79-2.64,1.58-4.19,2.37-8.82,4.47-14.4,4.56-19.79,4.65S121,163,112.35,167.4s-11.93,8.73-15.13,12.95-6.63,8.75-15.45,13.22A44.74,44.74,0,0,1,73.16,197v-1a42.63,42.63,0,0,0,8.18-3.24C90,188.35,93.27,184,96.47,179.77s6.63-8.75,15.45-13.22,14.4-4.57,19.8-4.65,10.76-.17,19.38-4.55a49.65,49.65,0,0,0,4.62-2.64,38.69,38.69,0,0,0,10.5-10.31A40.64,40.64,0,0,1,175.25,135.06Z" fill="#f7f0e7"/><path d="M175.25,159.14v1.47a38.4,38.4,0,0,1-12.19,9.13,46,46,0,0,1-7.34,3,40.89,40.89,0,0,1-12.45,1.63c-5.29.09-10.76.17-19.38,4.55s-11.93,8.73-15.13,12.94-6.63,8.76-15.45,13.22-14.4,4.57-19.8,4.65h-.35v-.95h.34c5.28-.09,10.76-.17,19.38-4.55S104.8,195.53,108,191.3s6.64-8.74,15.46-13.21,14.39-4.57,19.8-4.65a39.79,39.79,0,0,0,12.46-1.69,44.64,44.64,0,0,0,6.92-2.86A37.18,37.18,0,0,0,175.25,159.14Z" fill="#f7f0e7"/><path d="M175.25,179.87v1.07c-.21.12-.43.22-.65.34a46.79,46.79,0,0,1-7.75,3.15,40,40,0,0,1-11.14,1.48l-.91,0c-5.29.08-10.76.17-19.38,4.55s-11.93,8.72-15.12,12.94a52,52,0,0,1-5.18,6.09,33,33,0,0,1-3,2.64h-1.6a33.65,33.65,0,0,0,4.64-4,53.84,53.84,0,0,0,4.42-5.32c3.26-4.3,6.64-8.75,15.45-13.22s14.4-4.56,19.8-4.64l.92,0a38.65,38.65,0,0,0,11.1-1.53,44.8,44.8,0,0,0,7.36-3Z" fill="#f7f0e7"/><path d="M175.25,195.75v1a43.89,43.89,0,0,1-8,.71l-.91,0A38.58,38.58,0,0,0,147,202,37,37,0,0,0,134,212.15h-1.21a37.71,37.71,0,0,1,13.71-11,44.61,44.61,0,0,1,9.19-3.54,44.07,44.07,0,0,1,10.61-1.11l.92,0A42.68,42.68,0,0,0,175.25,195.75Z" fill="#f7f0e7"/><path d="M175.25,208.11v.95a36.25,36.25,0,0,0-7.9,1.07,37.63,37.63,0,0,0-5.86,2h-2.3a40.08,40.08,0,0,1,8.16-3A37.91,37.91,0,0,1,175.25,208.11Z" fill="#f7f0e7"/><rect x="155.71" y="132.2" width="19.53" height="79.95" fill="#44182c"/><rect x="108.94" y="132.2" width="6.18" height="79.95" fill="#f7f0e7"/><rect x="121.24" y="124.82" width="5.64" height="101.85" transform="translate(299.81 51.68) rotate(90)" fill="#f7f0e7"/><rect x="82.79" y="90.11" width="84.53" height="42.02" fill="#a7cbcc"/><polygon points="92.58 99.05 94.2 99.05 90.88 92.65 87.56 99.05 89.19 99.05 85.94 105.15 89.34 105.15 89.34 107.93 90.71 107.93 91.34 107.93 92.43 107.93 92.43 105.15 95.82 105.15 92.58 99.05" fill="#ffc97d"/><polygon points="106.34 113.14 107.97 113.14 104.65 106.73 101.33 113.14 102.95 113.14 99.71 119.23 103.1 119.23 103.1 122.01 104.47 122.01 105.11 122.01 106.19 122.01 106.19 119.23 109.58 119.23 106.34 113.14" fill="#ffc97d"/><polygon points="135.17 113.14 136.79 113.14 133.47 106.73 130.15 113.14 131.77 113.14 128.53 119.23 131.93 119.23 131.93 122.01 133.3 122.01 133.93 122.01 135.01 122.01 135.01 119.23 138.41 119.23 135.17 113.14" fill="#ffc97d"/><polygon points="120.76 98.4 122.38 98.4 119.06 92 115.74 98.4 117.36 98.4 114.12 104.5 117.52 104.5 117.52 107.28 118.88 107.28 119.52 107.28 120.6 107.28 120.6 104.5 124 104.5 120.76 98.4" fill="#ffc97d"/><polygon points="150.39 98.4 152.01 98.4 148.69 92 145.37 98.4 146.99 98.4 143.75 104.5 147.15 104.5 147.15 107.28 148.52 107.28 149.15 107.28 150.23 107.28 150.23 104.5 153.63 104.5 150.39 98.4" fill="#ffc97d"/><polygon points="144.73 132.13 147 127.87 145.37 127.87 148.69 121.47 152.01 127.87 150.39 127.87 152.66 132.13 144.73 132.13" fill="#ffc97d"/><polygon points="120.76 129.66 122.07 132.13 116.05 132.13 117.36 129.66 115.74 129.66 119.06 123.25 122.38 129.66 120.76 129.66" fill="#ffc97d"/><polygon points="91.12 129.66 92.44 132.13 86.42 132.13 87.73 129.66 86.11 129.66 89.42 123.25 92.74 129.66 91.12 129.66" fill="#ffc97d"/><rect x="148.61" y="90.11" width="18.7" height="42.02" fill="#44182c"/><rect x="78.41" y="61.21" width="89.14" height="28.9" fill="#ffc97d"/><polygon points="90.39 61.21 78.41 77.73 78.41 73.18 87.09 61.21 90.39 61.21" fill="#f7f0e7"/><polygon points="102.32 61.21 81.37 90.11 78.41 90.11 78.41 89.66 99.03 61.21 102.32 61.21" fill="#f7f0e7"/><polygon points="114.27 61.21 93.32 90.11 90.02 90.11 110.97 61.21 114.27 61.21" fill="#f7f0e7"/><polygon points="126.21 61.21 105.26 90.11 101.96 90.11 122.91 61.21 126.21 61.21" fill="#f7f0e7"/><polygon points="138.14 61.21 117.2 90.11 113.9 90.11 134.85 61.21 138.14 61.21" fill="#f7f0e7"/><polygon points="150.09 61.21 146.62 66 129.14 90.11 125.85 90.11 146.62 61.45 146.79 61.21 150.09 61.21" fill="#f7f0e7"/><polygon points="162.04 61.21 146.62 82.48 141.09 90.11 137.78 90.11 146.62 77.92 158.72 61.21 162.04 61.21" fill="#f7f0e7"/><rect x="146.61" y="61.21" width="20.94" height="28.9" fill="#44182c"/><rect x="84" y="13.61" width="77.72" height="47.6" fill="#f56a58"/><path d="M99.8,21.32l-.1-.14L94.48,13.6h-.2l5.32,7.72,0,.07,0,.05L92,31.47,84.27,21.39l5.37-7.79h-.2l-5.35,7.75s0,0,0,.08l7.76,10.2,0,0a.11.11,0,0,0,.08,0,.09.09,0,0,0,.06,0l0,0,7.65-10,.1-.15h0s0-.06,0-.08Z" fill="#f7f0e7"/><path d="M115.24,21.26,110,13.6h-.2l5.36,7.79-7.69,10.08-7.64-10,0-.05,0-.07,5.32-7.72h-.2L99.7,21.18l-.1.14,0,0a.08.08,0,0,0,0,.08h0l.1.15,7.65,10,0,0,.06,0a.08.08,0,0,0,.07,0l0,0,7.69-10.11.06-.08s0-.06,0-.08Z" fill="#f7f0e7"/><path d="M130.85,21.24l-5.27-7.64h-.2l5.36,7.79-7.4,9.71-.28.37-1.5-2-6.19-8.12,5.36-7.79h-.21l-5.28,7.66,0,.09s0,0,0,.08l0,.08,6.32,8.28,1.4,1.83,0,0a.09.09,0,0,0,.07,0,.11.11,0,0,0,.07,0l0,0,.19-.25,7.51-9.85.06-.1a.06.06,0,0,0,0-.08Z" fill="#f7f0e7"/><path d="M143.27,25.39h0l-4.62,6.07L131,21.39l4.16-6,1.21-1.75h-.2L135,15.28l-4.12,6-.08.11a.11.11,0,0,0,0,.08l.08.1,7.69,10.1,0,0a.08.08,0,0,0,.07,0s.06,0,.06,0l0,0,4.53-5.94h0L145,23.45v-.29Zm0-8.74h0l-2.09-3H141l2.3,3.34h0L145,19.42v-.31Z" fill="#f7f0e7"/><path d="M99.8,42.2l-.1-.14-1.76-2.55-1.22-1.78-4.24-6.16h-.22l4.25,6.16,1.23,1.78L99.6,42.2l0,.07,0,0-1.34,1.76L95.42,47.8l-1.34,1.77-.07.09L92,52.35l-1-1.24-.24-.33-1.52-2-5-6.52,1.9-2.76.16-.24,1.07-1.54,2.52-3.65,1.4-2,.32-.48h-.21l-.23.35-1.37,2-2.64,3.82-.94,1.37-.29.41-1.87,2.72a.06.06,0,0,0,0,.09l5.19,6.83,1.32,1.72.27.35,1,1.29,0,0a.11.11,0,0,0,.08,0,.09.09,0,0,0,.06,0l0,0,2.2-2.88.06-.07L95.49,48l2.84-3.73,1.37-1.79.1-.15h0a.06.06,0,0,0,0-.09Z" fill="#f7f0e7"/><path d="M115.24,42.14l-1.81-2.63-1.22-1.78L108,31.57h-.21L112,37.73l1.23,1.78,1.9,2.76L108.51,51l-1.07,1.4-1.11-1.46L99.8,42.32l0,0,0-.07,1.86-2.69,1.23-1.78,4.24-6.16h-.2l-4.24,6.16-1.23,1.78L99.7,42.06l-.1.14,0,0a.1.1,0,0,0,0,.09h0l.1.15,6.41,8.42,1.24,1.62,0,0,.06,0a.08.08,0,0,0,.07,0l0,0L108.72,51l6.52-8.57.06-.07a.06.06,0,0,0,0-.09Z" fill="#f7f0e7"/><path d="M130.85,42.12l-1.8-2.61-1.23-1.78-4.24-6.16h-.21l4.24,6.16,1.23,1.78,1.9,2.76L123.34,52l-.28.37-1.5-2-6.19-8.12,1.9-2.76,1.23-1.78,3.06-4.43,1.19-1.73h-.21l-1,1.42-3.27,4.74-1.23,1.78-1.82,2.63,0,.09a.06.06,0,0,0,0,.09l0,.07,6.32,8.28L123,52.5l0,0a.09.09,0,0,0,.07,0,.11.11,0,0,0,.07,0l0,0,.19-.24,7.51-9.86.06-.09a.07.07,0,0,0,0-.09Z" fill="#f7f0e7"/><path d="M143.27,46.27h0l-4.62,6.07L131,42.27l1.9-2.76,1.23-1.78,4.24-6.16h-.2l-4.24,6.16-1.23,1.78-1.8,2.61-.08.11a.14.14,0,0,0,0,.09l.08.09,7.69,10.1,0,0a.08.08,0,0,0,.07,0s.06,0,.06,0l0,0,4.53-5.94h0L145,44.33v-.28Zm1.36-6.76-1.23-1.78-.13-.19h0l-4.11-6H139l4.24,6.16.07.09h0l1.15,1.68.54.79V40Z" fill="#f7f0e7"/><path d="M91.43,52.46,90,54.53l-.89,1.28-.4.57h0l-1.34,2-1.45,2.1-.52.76h.21l.33-.49,1.6-2.32,1.16-1.68v0h0l.47-.63L90,54.8h0l1.6-2.33Zm2.5,2.11-.51-.75-.94-1.36h-.22L93.32,54l.51.75,4.47,6.47h.21Z" fill="#f7f0e7"/><path d="M106.93,52.46l-5.54,8-.49.71h.2l.19-.27h0l5.83-8.46Zm1,0h-.21l6,8.75h.2Z" fill="#f7f0e7"/><path d="M122.54,52.46l-1,1.41-1.74,2.52-3.32,4.82h.21l3.23-4.69,1.62-2.34,1.19-1.72Zm1,0h-.21l6,8.75h.21Z" fill="#f7f0e7"/><path d="M138.12,52.46l-6,8.75h.21l6-8.75Zm5.15,6h0l-4.11-5.95H139l4.31,6.25h0L145,61.18v-.3Z" fill="#f7f0e7"/><rect x="143.27" y="13.6" width="18.46" height="47.61" fill="#44182c"/><rect x="84" y="37.73" width="77.56" height="1.78" fill="#f7f0e7"/><rect x="121.57" y="13.61" width="1.78" height="47.6" fill="#f7f0e7"/><path d="M33.34,176A24,24,0,0,0,20,174.49a0,0,0,0,1,0,0,11,11,0,0,0-7.32-10.63s0,0,0,0c1.24-4.9,2-8.76-.18-13.46,0,0,0-.05,0-.05,3.64.91,7.38.09,11-.78l0,0c1.95,5.47,6.14,8.33,10.46,9.9,0,0,0,0,0,0C31.93,165.74,31.46,169.6,33.34,176Z" fill="#a7cbcc"/><path d="M41,195.66a24,24,0,0,0-12.24,5.54s0,0,0,0A11,11,0,0,0,17,195.78s0,0,0,0c-1.43-4.84-2.75-8.54-7-11.49,0,0,0,0,0-.06,3.61-1.07,6.41-3.69,9.12-6.29h0c4.46,3.71,9.52,4,14,3.19,0,0,0,0,0,0C34.6,187.59,36.16,191.15,41,195.66Z" fill="#a7cbcc"/><path d="M50.77,210.13a.4.4,0,0,1-.37-.26,164.39,164.39,0,0,0-31.64-52.55.38.38,0,0,1,0-.55.39.39,0,0,1,.55,0,165,165,0,0,1,31.8,52.81.39.39,0,0,1-.23.5Z" fill="#44182c"/><path d="M47,201.14a.35.35,0,0,1-.27-.11A61.56,61.56,0,0,0,26.4,188.21a.41.41,0,0,1-.23-.51.39.39,0,0,1,.51-.22,62.14,62.14,0,0,1,20.6,13,.38.38,0,0,1,0,.55A.39.39,0,0,1,47,201.14Z" fill="#44182c"/><path d="M42.73,179.91a24,24,0,0,0-8.6-10.33,0,0,0,0,1,0-.05,11,11,0,0,0,2.11-12.73s0,0,0,0c4.3-2.66,8.54-5.27,10.26-10.16a.48.48,0,0,1,.23-.07A20.86,20.86,0,0,0,54,154.06s0,0,0,0c-2.39,5.28-1.37,10.25.66,14.38a0,0,0,0,1,0,0C48.8,171.58,45.79,174,42.73,179.91Z" fill="#a7cbcc"/><path d="M42.19,190.27h0a.39.39,0,0,1-.38-.39,123.13,123.13,0,0,1,2.88-25.31l1.94-11.95a.39.39,0,0,1,.45-.32.39.39,0,0,1,.32.44l-1.94,12a122,122,0,0,0-2.87,25.17A.39.39,0,0,1,42.19,190.27Z" fill="#44182c"/><path d="M53.12,186a7,7,0,1,1-6.48-7.55A7,7,0,0,1,53.12,186Z" fill="#f56a58"/><path d="M50.67,181.35c-.16.39-1.21.32-2.33-.15s-1.9-1.17-1.74-1.55,1.2-.32,2.33.15S50.83,181,50.67,181.35Z" fill="#44182c"/><path d="M38.47,193.17A7,7,0,1,1,30,198.43,7,7,0,0,1,38.47,193.17Z" fill="#f56a58"/><path d="M33.52,194.89c.36.22.13,1.24-.5,2.28s-1.44,1.7-1.8,1.49-.13-1.24.51-2.28S33.17,194.68,33.52,194.89Z" fill="#44182c"/><path d="M150.22,181.45A24.11,24.11,0,0,0,145.13,169s0,0,0,0a11,11,0,0,0,5.84-11.5s0,0,0,0c4.9-1.25,8.64-2.43,11.75-6.57,0,0,0,0,.05,0,.94,3.64,3.45,6.53,5.95,9.34,0,0,0,0,0,0-3.87,4.32-4.39,9.36-3.7,13.91a0,0,0,0,1,0,0C158.51,175.34,154.9,176.77,150.22,181.45Z" fill="#a7cbcc"/><path d="M136.55,197.59a24,24,0,0,0-10.71-8.11,0,0,0,0,1,0,0,11,11,0,0,0-.82-12.87,0,0,0,0,1,0,0c3.57-3.57,6.19-6.5,6.76-11.64a0,0,0,0,1,0,0c2.66,2.65,6.3,3.87,9.88,5,0,0,0,0,0,0-1.13,5.69,1,10.3,3.89,13.86a0,0,0,0,1,0,0C140.58,188.11,138.2,191.17,136.55,197.59Z" fill="#a7cbcc"/><path d="M160.37,160c-1.39,3.91-2.94,7.79-4.66,11.6a.51.51,0,0,1-.07.17c-.17.38-.34.77-.52,1.15v0c-.87,1.9-1.77,3.77-2.72,5.62-.25.54-.53,1.06-.8,1.59-.89,1.73-1.81,3.43-2.76,5.12l-.58,1c-1.71,3-3.5,5.92-5.4,8.78-.25.39-.51.78-.77,1.17A161,161,0,0,1,130,212.15h-1q2.91-3.32,5.62-6.8c.38-.49.76-1,1.13-1.48a166.28,166.28,0,0,0,11.59-17.43l.6-1c.79-1.39,1.56-2.8,2.31-4.21l1.35-2.63c.89-1.76,1.76-3.55,2.59-5.35,0-.1.09-.19.13-.29.13-.28.27-.57.39-.85.36-.8.72-1.6,1.06-2.41q2.13-4.89,3.91-9.91a.41.41,0,0,1,.51-.24A.4.4,0,0,1,160.37,160Z" fill="#44182c"/><path d="M134.94,205.69l-.11,0a.38.38,0,0,1-.27-.47,61.53,61.53,0,0,0,1.57-24,.38.38,0,0,1,.34-.43.38.38,0,0,1,.43.33,62.29,62.29,0,0,1-1.59,24.31A.39.39,0,0,1,134.94,205.69Z" fill="#44182c"/><path d="M151.22,191.59a24,24,0,0,0,5-12.48s0,0,0,0a11,11,0,0,0,12.2-4.21s0,0,0,0c4.39,2.5,8.7,5,13.82,4.17,0,0,.19.14.17.17a20.89,20.89,0,0,0-3.14,10l0,0c-5.79.41-9.67,3.68-12.33,7.43,0,0,0,0,0,0C161.43,193,157.84,191.47,151.22,191.59Z" fill="#a7cbcc"/><path d="M142.19,196.26a.39.39,0,0,1-.18-.73A123.07,123.07,0,0,1,165.63,186l11.42-4a.38.38,0,0,1,.5.23.39.39,0,0,1-.24.5l-11.44,4a122.2,122.2,0,0,0-23.5,9.49A.39.39,0,0,1,142.19,196.26Z" fill="#44182c"/><path d="M30.49,124.37a.36.36,0,0,1-.25-.11l-9.73-9.73a.34.34,0,0,1,0-.49.35.35,0,0,1,.5,0l9.73,9.72a.37.37,0,0,1,0,.5A.36.36,0,0,1,30.49,124.37Z" fill="#f7f0e7"/><path d="M25.62,126.38a.35.35,0,0,1-.35-.35V112.27a.36.36,0,0,1,.71,0V126A.36.36,0,0,1,25.62,126.38Z" fill="#f7f0e7"/><path d="M20.76,124.37a.36.36,0,0,1-.25-.11.35.35,0,0,1,0-.5L30.24,114a.35.35,0,0,1,.5,0,.36.36,0,0,1,0,.49L21,124.26A.36.36,0,0,1,20.76,124.37Z" fill="#f7f0e7"/><path d="M32.5,119.5H18.74a.35.35,0,0,1,0-.7H32.5a.35.35,0,1,1,0,.7Z" fill="#f7f0e7"/><path d="M74.37,26.35a.35.35,0,0,1-.25-.1l-9.73-9.73a.35.35,0,0,1,.5-.5l9.73,9.73a.35.35,0,0,1-.25.6Z" fill="#f7f0e7"/><path d="M69.5,28.37a.35.35,0,0,1-.35-.35V14.26a.36.36,0,1,1,.71,0V28A.36.36,0,0,1,69.5,28.37Z" fill="#f7f0e7"/><path d="M64.64,26.35a.35.35,0,0,1-.25-.6L74.12,16a.35.35,0,0,1,.5.5l-9.73,9.73A.35.35,0,0,1,64.64,26.35Z" fill="#f7f0e7"/><path d="M76.38,21.49H62.63a.36.36,0,1,1,0-.71H76.38a.36.36,0,1,1,0,.71Z" fill="#f7f0e7"/><path d="M176.71,115.56a.39.39,0,0,1-.25-.1l-9.73-9.73a.35.35,0,0,1,.5-.5L177,115a.37.37,0,0,1,0,.5A.39.39,0,0,1,176.71,115.56Z" fill="#f7f0e7"/><path d="M171.84,117.57a.35.35,0,0,1-.35-.35V103.46a.36.36,0,0,1,.71,0v13.76A.35.35,0,0,1,171.84,117.57Z" fill="#f7f0e7"/><path d="M167,115.56a.39.39,0,0,1-.25-.1.35.35,0,0,1,0-.5l9.73-9.73a.35.35,0,0,1,.5,0,.37.37,0,0,1,0,.5l-9.73,9.73A.39.39,0,0,1,167,115.56Z" fill="#f7f0e7"/><path d="M178.72,110.69H165a.35.35,0,0,1-.35-.35A.35.35,0,0,1,165,110h13.76a.35.35,0,0,1,.35.35A.34.34,0,0,1,178.72,110.69Z" fill="#f7f0e7"/><circle cx="23.38" cy="64.06" r="3.59" fill="#f7f0e7"/><circle cx="162.71" cy="59.41" r="3.59" fill="#f7f0e7"/><path d="M174.56,201.31a3.59,3.59,0,1,1-3.58-3.59A3.58,3.58,0,0,1,174.56,201.31Z" fill="#f7f0e7"/><circle cx="17.38" cy="205.65" r="3.63" fill="#f7f0e7"/></g></svg>