<svg xmlns="http://www.w3.org/2000/svg" viewBox="0 0 202.25 207.73"><g id="OBJECTS"><path d="M6,207.73a6,6,0,0,1-6-6V99.85A102.12,102.12,0,0,1,37,21.64l.23-.18a3.47,3.47,0,0,1,.37-.3c1.65-1.33,3.15-2.48,4.57-3.5l.28-.2c1.6-1.13,3-2.1,4.48-3,.22-.16.46-.31.7-.45C94.08-13.34,157.79.34,186.92,46.35a100.49,100.49,0,0,1,15.33,53.5V201.73a6,6,0,0,1-6,6Z" fill="#fff"/><path d="M196.76,99.33v.26c.18,14.14,0,28.3,0,42.44v59.18H6.51V149.6c0-29.76-4.25-61.95,8.61-89.86C40,5.8,110.79-11.92,158.36,23.18,182.58,41,196.31,69.55,196.76,99.33Z" fill="#26575e"/><rect x="30.49" y="76.54" width="143.24" height="124.59" fill="#bc606d"/><path d="M152.45,109.89h21.28v-.5H152.45a1.7,1.7,0,0,0-1.7,1.7v6.47a1.7,1.7,0,0,0,1.7,1.69h21.28v-.5H152.45a1.19,1.19,0,0,1-1.2-1.19v-6.47A1.2,1.2,0,0,1,152.45,109.89Z" fill="#f7f0e7"/><path d="M114.79,118.75h-1.65c.57.15,1.14.32,1.7.5h1.45C115.79,119.07,115.29,118.91,114.79,118.75Zm-6.26-1.19v-.24l-.5-.07v.31a.76.76,0,0,0,0,.15l.51.07A1.5,1.5,0,0,1,108.53,117.56Zm24.34-8.17H114.16c.69.15,1.37.32,2,.5h16.66a1.2,1.2,0,0,1,1.2,1.2v6.47a1.22,1.22,0,0,1-.08.43,1.17,1.17,0,0,1-.31.45l.4.3a1.25,1.25,0,0,0,.31-.44,1.53,1.53,0,0,0,.18-.74v-6.47A1.7,1.7,0,0,0,132.87,109.39Z" fill="#f7f0e7"/><path d="M51.17,128.12a1.7,1.7,0,0,0-1.7,1.69v6.47a1.7,1.7,0,0,0,1.7,1.7h4.07c.07-.17.15-.33.23-.5h-4.3a1.2,1.2,0,0,1-1.2-1.2v-6.47a1.19,1.19,0,0,1,1.2-1.19h9.56c.12-.17.24-.34.37-.5Zm22.33,0-.53.5h.66l.54-.5Zm-7.61,9.36-.3.5h.54c.09-.17.19-.34.29-.5Z" fill="#f7f0e7"/><path d="M165,130.15h8.69v-.5H165a1.69,1.69,0,0,0-1.69,1.69v6.47a1.7,1.7,0,0,0,1.69,1.7h8.69V139H165a1.2,1.2,0,0,1-1.19-1.2v-6.47A1.2,1.2,0,0,1,165,130.15Z" fill="#f7f0e7"/><path d="M166.49,151.35H153.12c0,.17,0,.33.07.5h13.3a1.2,1.2,0,0,1,1.2,1.2v6.47a1.19,1.19,0,0,1-1.2,1.19H153.63v.5h12.86a1.7,1.7,0,0,0,1.7-1.69v-6.47A1.7,1.7,0,0,0,166.49,151.35Zm-22.35,9.86h.45v-.5h-.45Zm-.74-9.86.09.5H144l-.09-.5Z" fill="#f7f0e7"/><path d="M163.26,173.89h10.47v-.5H163.26a1.7,1.7,0,0,0-1.7,1.7v6.47a1.7,1.7,0,0,0,1.7,1.69h10.47v-.5H163.26a1.19,1.19,0,0,1-1.2-1.19v-6.47A1.2,1.2,0,0,1,163.26,173.89Z" fill="#f7f0e7"/><path d="M42.83,109.39H30.49v.5H42.83a1.2,1.2,0,0,1,1.2,1.2v6.47a1.19,1.19,0,0,1-1.2,1.19H30.49v.5H42.83a1.7,1.7,0,0,0,1.7-1.69v-6.47A1.7,1.7,0,0,0,42.83,109.39Z" fill="#f7f0e7"/><path d="M42.83,144.46H30.49v.5H42.83a1.19,1.19,0,0,1,1.2,1.19v6.47a1.2,1.2,0,0,1-1.2,1.2H30.49v.5H42.83a1.7,1.7,0,0,0,1.7-1.7v-6.47A1.7,1.7,0,0,0,42.83,144.46Z" fill="#f7f0e7"/><path d="M43,185.48H30.49v.5H43a1.2,1.2,0,0,1,1.2,1.2v6.46a1.2,1.2,0,0,1-1.2,1.2H30.49v.5H43a1.7,1.7,0,0,0,1.7-1.7v-6.46A1.7,1.7,0,0,0,43,185.48Z" fill="#f7f0e7"/><path d="M59.88,174.07v.5h.46v-.5Zm0-9.36v.5h.46v-.5Zm-19.26.5H50.85v-.5H40.62a1.7,1.7,0,0,0-1.7,1.7v6.47a1.7,1.7,0,0,0,1.7,1.69H50.85v-.5H40.62a1.19,1.19,0,0,1-1.2-1.19v-6.47A1.2,1.2,0,0,1,40.62,165.21Z" fill="#f7f0e7"/><polygon points="173.72 81.21 173.72 81.25 30.48 86.1 30.48 79.54 173.72 81.21" fill="#44182c"/><rect x="26.57" y="77.31" width="149.11" height="4.09" fill="#f7f0e7"/><path d="M169.42,99.51H34.53a.25.25,0,0,1-.25-.25,1.76,1.76,0,0,0-1.75-1.75.25.25,0,0,1-.25-.25V87a.25.25,0,0,1,.25-.25A1.76,1.76,0,0,0,34.28,85a.25.25,0,0,1,.25-.25H169.42a.25.25,0,0,1,.25.25,1.76,1.76,0,0,0,1.75,1.75.25.25,0,0,1,.25.25V97.26a.25.25,0,0,1-.25.25,1.76,1.76,0,0,0-1.75,1.75A.25.25,0,0,1,169.42,99.51ZM34.77,99H169.19a2.23,2.23,0,0,1,2-2V87.2a2.23,2.23,0,0,1-2-2H34.77a2.25,2.25,0,0,1-2,2V97A2.25,2.25,0,0,1,34.77,99Z" fill="#44182c"/><path d="M173.64,102.58H30.83a.25.25,0,0,1,0-.5H173.64a.25.25,0,0,1,0,.5Z" fill="#44182c"/><rect x="22.83" y="72.2" width="159.83" height="6.64" fill="#f7f0e7"/><path d="M182.66,79.09H22.83a.25.25,0,0,1,0-.5H182.66a.25.25,0,0,1,0,.5Z" fill="#44182c"/><path d="M153.73,151.85c0-.17,0-.33-.07-.5a50.86,50.86,0,0,0-19.27-33L134,118a50.67,50.67,0,0,0-15.8-8.1c-.58-.18-1.16-.34-1.74-.5a50.91,50.91,0,0,0-13.14-1.72h-2.15a50.81,50.81,0,0,0-40.74,20.45l-.37.5a50.83,50.83,0,0,0-5.18,8.86c-.08.17-.15.33-.22.5a50.55,50.55,0,0,0-4.34,20.55v42.6h.54v-42.6A50.06,50.06,0,0,1,55.24,138c.07-.17.15-.33.23-.5a49.63,49.63,0,0,1,5.26-8.86c.12-.17.24-.34.37-.5a50.26,50.26,0,0,1,40.06-19.91h2.15a50.45,50.45,0,0,1,10.85,1.18c.69.15,1.37.32,2,.5a50.06,50.06,0,0,1,17.47,8.55l.4.3a50.36,50.36,0,0,1,19,32.61c0,.17,0,.33.07.5a50.87,50.87,0,0,1,.44,6.68v42.6h.54v-42.6A50.87,50.87,0,0,0,153.73,151.85Z" fill="#44182c"/><path d="M144,151.85l-.09-.5a42.49,42.49,0,0,0-27.57-32.1c-.5-.18-1-.34-1.5-.5a42.13,42.13,0,0,0-6.26-1.43l-.5-.07a41,41,0,0,0-5.79-.4A42.21,42.21,0,0,0,73.5,128.12l-.53.5a42.43,42.43,0,0,0-7.08,8.86l-.3.5a42.11,42.11,0,0,0-5.71,21.23v41.92h.46V159.21A41.62,41.62,0,0,1,66.13,138c.09-.17.19-.34.29-.5a42.51,42.51,0,0,1,7.21-8.86l.54-.5a41.79,41.79,0,0,1,28.07-10.81,42.69,42.69,0,0,1,5.8.4l.51.07a41.08,41.08,0,0,1,4.59,1c.57.15,1.14.32,1.7.5a42,42,0,0,1,28.56,32.1l.09.5a41.54,41.54,0,0,1,.65,7.36v41.92h.45V159.21A42.5,42.5,0,0,0,144,151.85Z" fill="#44182c"/><path d="M138.75,159.53v41.35H66.07V159.53a36.1,36.1,0,0,1,36.1-36.1h.47A36.11,36.11,0,0,1,138.75,159.53Z" fill="#44182c"/><path d="M127.92,197.38a19.62,19.62,0,0,1-6.19,3.5H91.06a33.12,33.12,0,0,1-14.83-12.24,30.5,30.5,0,0,1-3.6-23.3.91.91,0,0,1,1.78,0,22.8,22.8,0,0,0,1.92,4.76c1.68,3,4.65,5.36,8,4.63a4.82,4.82,0,0,0,3-2.09c1.58-2.41.64-4.86-.23-7.13a46.07,46.07,0,0,1-3-10.55,17.87,17.87,0,0,1,1.6-10.67,17,17,0,0,1,3.84-4.58,17.91,17.91,0,0,1,6-3.64c.74-.25,1.39.6,1.1,1.39a25.89,25.89,0,0,0-1.73,10.22,10.27,10.27,0,0,0,.76,3.74,4.27,4.27,0,0,0,2.57,2.48c1.81.49,3.61-.83,4.8-2.39a14.55,14.55,0,0,0,2.53-11,1,1,0,0,1,1.13-1.18,14,14,0,0,1,8.06,6.18,16.85,16.85,0,0,1,1.82,12.17c-.76,3.25-2.5,6.18-3,9.49a4.66,4.66,0,0,0,.84,3.9,2.89,2.89,0,0,0,3.28.43,7.14,7.14,0,0,0,2.57-2.47,23.22,23.22,0,0,0,3.74-9.05.9.9,0,0,1,1.31-.73,9.57,9.57,0,0,1,3.81,5.4,19.72,19.72,0,0,1-2.12,16.82,9.59,9.59,0,0,0-1.33,2.27c-.42,1.24-.16,2.9,1.45,3.15a2.63,2.63,0,0,0,2-.61,24,24,0,0,0,2.6-2.36.92.92,0,0,1,1.56.68A15.33,15.33,0,0,1,127.92,197.38Z" fill="#ffc97d"/><path d="M119.89,192.19a16.47,16.47,0,0,1-2.47,8.69h-25a17.63,17.63,0,0,1-2-3,14.61,14.61,0,0,1-1.94-7.28,9.77,9.77,0,0,1,2-5.79.41.41,0,0,1,.7.32,5,5,0,0,0,1.34,3.56,4.06,4.06,0,0,0,4.4,1c2-.83,3.09-3.21,3.22-5.53a19.84,19.84,0,0,0-1.23-6.82,21.4,21.4,0,0,1-1.34-6.79,9.88,9.88,0,0,1,3.82-7.56c.28-.22.66,0,.63.42-.48,5.36,0,11.7,3.06,15.87a6.38,6.38,0,0,0,1.93,1.84c2.65,1.57,5,0,6.61-2a1.65,1.65,0,0,1,2.58-.07,5.36,5.36,0,0,1,.78,1.24A27.14,27.14,0,0,1,119.89,192.19Z" fill="#f7f0e7"/><path d="M103.82,80.68a95.61,95.61,0,0,0-9.63,16.58A102,102,0,0,0,89,113.64l5-5,3.51,5.48,8.09-32.77Z" fill="#f56a58"/><path d="M106.94,79.6a95.32,95.32,0,0,1,9.63,16.57,101.75,101.75,0,0,1,5.23,16.38l-5-5-3.51,5.48L105.16,80.3Z" fill="#f56a58"/><path d="M105.16,80.43l-.44.09h0l0-.06a42.26,42.26,0,0,0-14.53-6.31,40.88,40.88,0,0,0-4.77-.73c.71,3.12,14,6.37,18.21,7.32-4.75.93-18.77,3.59-22.14,3.38S72,83,71,78.11a8.73,8.73,0,0,1,.34-4.19c2.56-8.54,6-9,12.62-8.54a13.26,13.26,0,0,1,5.13,2c5.9,3.43,13.13,10.24,15.35,12.41Z" fill="#f56a58"/><path d="M103.59,80.74c-4.75.93-18.77,3.59-22.14,3.38S72,83,71,78.11c.09-4.18,7.2-5.37,14.35-4.69C86.09,76.54,99.35,79.79,103.59,80.74Z" fill="#44182c"/><path d="M104.66,80.43l.44.09h0l0-.06a42.26,42.26,0,0,1,14.53-6.31,40.88,40.88,0,0,1,4.77-.73c-.71,3.12-14,6.37-18.21,7.32,4.75.93,18.77,3.59,22.14,3.38s9.49-1.15,10.42-6a8.73,8.73,0,0,0-.34-4.19c-2.56-8.54-6-9-12.62-8.54a13.32,13.32,0,0,0-5.13,2c-5.9,3.43-13.13,10.24-15.35,12.41Z" fill="#f56a58"/><path d="M106.23,80.74c4.75.93,18.77,3.59,22.14,3.38s9.49-1.15,10.42-6c-.09-4.18-7.2-5.37-14.35-4.69C123.73,76.54,110.47,79.79,106.23,80.74Z" fill="#44182c"/><path d="M102.41,80a1.77,1.77,0,0,0,.6,1.36,2.36,2.36,0,0,0,1.26.34,17.11,17.11,0,0,0,2.58-.07,1.81,1.81,0,0,0,1-.33,1.79,1.79,0,0,0,.48-1.18,2.15,2.15,0,0,0-2.72-2.55,6.28,6.28,0,0,0-2.26.46A2.33,2.33,0,0,0,102.41,80Z" fill="#f56a58"/><path d="M80,53.84c-.22.73-2.08,1.93-4.86,3.29A142.29,142.29,0,0,1,58.2,63.8c-7.39,2.38-14,3.88-15,2.61-2.23-2.85,2.68-8.69,5.18-12.2A6.8,6.8,0,0,0,49.05,53a7.68,7.68,0,0,0,.73-4l-.71-8.86-.22-2.86-.13-1.58-.45-5.51,28.48-7.46S77.34,26,78,30.44h0a1.66,1.66,0,0,1,0,.22c.58,3.68,1.21,8.13,1.65,12.19C80.24,47.78,80.48,52.14,80,53.84Z" fill="#f56a58"/><polygon points="78.12 30.42 78.03 30.44 49.07 40.14 48.72 35.7 78.03 30.43 78.12 30.42" fill="#44182c"/><path d="M45.27,31.92l.82,3.88a2,2,0,0,0,2.43,1.56L78.8,30.49A2,2,0,0,0,80.32,28l-1.22-5a2,2,0,0,0-2.49-1.48l-29.88,8A2,2,0,0,0,45.27,31.92Z" fill="#f7f0e7"/><path d="M58.2,63.8c-7.39,2.38-14,3.88-15,2.61-2.23-2.85,2.68-8.69,5.18-12.2A6.8,6.8,0,0,0,49.05,53a13.62,13.62,0,0,1,8.34,7.29A6.81,6.81,0,0,1,58.2,63.8Z" fill="#f7f0e7"/><path d="M80,53.84c-.22.73-2.08,1.93-4.86,3.29A9.69,9.69,0,0,1,74.71,54a16.53,16.53,0,0,1,2.48-8.41,8.65,8.65,0,0,1,2.52-2.7C80.24,47.78,80.48,52.14,80,53.84Z" fill="#f7f0e7"/><path d="M67.94,48.69a.24.24,0,0,1-.16-.07l-6.49-6.49a.24.24,0,0,1,0-.33.25.25,0,0,1,.34,0l6.48,6.48a.25.25,0,0,1,0,.34A.28.28,0,0,1,67.94,48.69Z" fill="#f7f0e7"/><path d="M64.7,50a.23.23,0,0,1-.23-.24V40.62a.23.23,0,0,1,.23-.23.23.23,0,0,1,.24.23v9.17A.24.24,0,0,1,64.7,50Z" fill="#f7f0e7"/><path d="M61.46,48.69a.28.28,0,0,1-.17-.07.25.25,0,0,1,0-.34l6.49-6.48a.23.23,0,0,1,.33.33l-6.48,6.49A.28.28,0,0,1,61.46,48.69Z" fill="#f7f0e7"/><path d="M69.29,45.44H60.12a.23.23,0,0,1-.24-.23.24.24,0,0,1,.24-.24h9.17a.23.23,0,0,1,.23.24A.23.23,0,0,1,69.29,45.44Z" fill="#f7f0e7"/><path d="M76,25.34h0a.27.27,0,0,1-.23-.2c-.07-.38-1.87-9.32,0-11.69a1.53,1.53,0,0,1,1.15-.61,1.19,1.19,0,0,1,1.07.51c1.61,2.17-1.58,11.43-1.71,11.82A.25.25,0,0,1,76,25.34Zm1-12h0a1,1,0,0,0-.78.42c-1.38,1.76-.47,8,0,10.33,1-3.07,2.57-9,1.48-10.45A.7.7,0,0,0,77,13.34Z" fill="#f7f0e7"/><path d="M121.39,51.29c.22.73,2.08,1.92,4.86,3.29a142.37,142.37,0,0,0,16.9,6.66c7.39,2.39,14,3.89,15,2.61,2.23-2.85-2.68-8.68-5.18-12.19a6.88,6.88,0,0,1-.71-1.23,7.64,7.64,0,0,1-.73-4l.71-8.86.22-2.86.13-1.58.45-5.52L124.6,20.18s-.59,3.27-1.28,7.7h0c0,.07,0,.15,0,.22-.57,3.68-1.21,8.13-1.64,12.19C121.11,45.22,120.87,49.58,121.39,51.29Z" fill="#f56a58"/><polygon points="123.23 27.86 123.32 27.89 152.28 37.59 152.63 33.15 123.32 27.88 123.23 27.86" fill="#44182c"/><path d="M156.08,29.37l-.82,3.88a2,2,0,0,1-2.43,1.56l-30.28-6.87A2,2,0,0,1,121,25.48l1.22-5A2,2,0,0,1,124.74,19l29.88,8A2,2,0,0,1,156.08,29.37Z" fill="#f7f0e7"/><path d="M143.15,61.24c7.39,2.39,14,3.89,15,2.61,2.23-2.85-2.68-8.68-5.18-12.19a6.88,6.88,0,0,1-.71-1.23,13.64,13.64,0,0,0-8.34,7.3A6.77,6.77,0,0,0,143.15,61.24Z" fill="#f7f0e7"/><path d="M121.39,51.29c.22.73,2.08,1.92,4.86,3.29a9.75,9.75,0,0,0,.39-3.18A16.59,16.59,0,0,0,124.16,43a8.52,8.52,0,0,0-2.52-2.69C121.11,45.22,120.87,49.58,121.39,51.29Z" fill="#f7f0e7"/><path d="M133.41,46.13a.2.2,0,0,0,.16-.07l6.49-6.48a.24.24,0,0,0,0-.33.25.25,0,0,0-.34,0l-6.48,6.48a.24.24,0,0,0,.17.4Z" fill="#f7f0e7"/><path d="M136.65,47.47a.23.23,0,0,0,.23-.23V38.07a.23.23,0,0,0-.23-.23.23.23,0,0,0-.24.23v9.17A.23.23,0,0,0,136.65,47.47Z" fill="#f7f0e7"/><path d="M139.89,46.13a.24.24,0,0,0,.17-.4l-6.49-6.48a.23.23,0,0,0-.33.33l6.48,6.48A.23.23,0,0,0,139.89,46.13Z" fill="#f7f0e7"/><path d="M132.06,42.89h9.17a.24.24,0,1,0,0-.47h-9.17a.24.24,0,0,0,0,.47Z" fill="#f7f0e7"/><path d="M126,23.49a.26.26,0,0,1-.22-.13c-.18-.34-4.46-8.4-3.35-11.19a1.5,1.5,0,0,1,.92-.92,1.24,1.24,0,0,1,1.18.18c2.16,1.62,1.74,11.41,1.72,11.82a.25.25,0,0,1-.19.24ZM123.8,11.67a1,1,0,0,0-.28.05,1,1,0,0,0-.62.63c-.82,2.08,1.82,7.75,2.9,9.92.07-3.23-.11-9.35-1.56-10.44A.68.68,0,0,0,123.8,11.67Z" fill="#f7f0e7"/><path d="M177.36,175.16s-8.65-26.84-5.58-27.61,6.27,24.9,5.63,28" fill="#a7cbcc"/><path d="M173.05,185.46s-11.61-22.34-8-24.12S174.53,177.36,173.05,185.46Z" fill="#a7cbcc"/><path d="M172.89,185.83c-.27.21,16.92-14.32,19.67-10.89S176.45,183.15,172.89,185.83Z" fill="#a7cbcc"/><path d="M164.19,200.91a.3.3,0,0,1-.16,0,.28.28,0,0,1-.07-.39,115.26,115.26,0,0,0,19.64-51,.28.28,0,1,1,.55.07,115.84,115.84,0,0,1-19.73,51.29A.29.29,0,0,1,164.19,200.91Z" fill="#44182c"/><path d="M174.63,182.66a.28.28,0,0,1-.18-.06.27.27,0,0,1,0-.39L189,164.66a.27.27,0,0,1,.39,0,.28.28,0,0,1,0,.39l-14.61,17.54A.26.26,0,0,1,174.63,182.66Z" fill="#44182c"/><path d="M185.57,152.46a4,4,0,1,0-5.15-2.31A4,4,0,0,0,185.57,152.46Z" fill="#f56a58"/><path d="M188.44,167.83a4,4,0,1,0-2-5.28A4,4,0,0,0,188.44,167.83Z" fill="#f56a58"/><path d="M27,175.16s8.65-26.84,5.58-27.61-6.27,24.9-5.63,28" fill="#a7cbcc"/><path d="M31.33,185.46s11.61-22.34,8-24.12S29.84,177.36,31.33,185.46Z" fill="#a7cbcc"/><path d="M31.49,185.83c.27.21-16.93-14.32-19.67-10.89S27.93,183.15,31.49,185.83Z" fill="#a7cbcc"/><path d="M40.19,200.91a.29.29,0,0,1-.23-.12A115.84,115.84,0,0,1,20.23,149.5a.28.28,0,0,1,.24-.31.29.29,0,0,1,.31.24,115.26,115.26,0,0,0,19.64,51,.29.29,0,0,1-.07.39A.33.33,0,0,1,40.19,200.91Z" fill="#44182c"/><path d="M29.75,182.66a.25.25,0,0,1-.21-.1L14.93,165a.28.28,0,0,1,0-.39.27.27,0,0,1,.39,0L30,182.21a.27.27,0,0,1,0,.39A.28.28,0,0,1,29.75,182.66Z" fill="#44182c"/><path d="M18.8,152.46A4,4,0,1,1,24,150.15,4,4,0,0,1,18.8,152.46Z" fill="#f56a58"/><path d="M15.94,167.83a4,4,0,1,1,2-5.28A4,4,0,0,1,15.94,167.83Z" fill="#f56a58"/><path d="M109,32.81a.39.39,0,0,1-.28-.12l-11-11a.4.4,0,0,1,0-.57.42.42,0,0,1,.57,0l11,11a.41.41,0,0,1-.29.69Z" fill="#f7f0e7"/><path d="M103.51,35.09a.4.4,0,0,1-.4-.4V19.07a.4.4,0,1,1,.8,0V34.69A.4.4,0,0,1,103.51,35.09Z" fill="#f7f0e7"/><path d="M98,32.81a.41.41,0,0,1-.28-.69l11-11a.4.4,0,0,1,.57.57l-11,11A.4.4,0,0,1,98,32.81Z" fill="#f7f0e7"/><path d="M111.32,27.28H95.69a.4.4,0,1,1,0-.8h15.63a.4.4,0,0,1,0,.8Z" fill="#f7f0e7"/><path d="M190.56,107.87a.39.39,0,0,1-.28-.12l-11.05-11a.4.4,0,0,1,0-.56.4.4,0,0,1,.57,0l11,11a.4.4,0,0,1,0,.56A.4.4,0,0,1,190.56,107.87Z" fill="#f7f0e7"/><path d="M185,110.16a.4.4,0,0,1-.4-.4V94.13a.4.4,0,1,1,.8,0v15.63A.4.4,0,0,1,185,110.16Z" fill="#f7f0e7"/><path d="M179.52,107.87a.4.4,0,0,1-.29-.12.4.4,0,0,1,0-.56l11.05-11a.4.4,0,0,1,.57,0,.4.4,0,0,1,0,.56l-11,11A.39.39,0,0,1,179.52,107.87Z" fill="#f7f0e7"/><path d="M192.85,102.34H177.23a.4.4,0,1,1,0-.8h15.62a.4.4,0,0,1,0,.8Z" fill="#f7f0e7"/><path d="M23.76,107.87a.4.4,0,0,1-.29-.12l-11-11a.4.4,0,0,1,0-.56.4.4,0,0,1,.57,0l11,11a.39.39,0,0,1,0,.56A.39.39,0,0,1,23.76,107.87Z" fill="#f7f0e7"/><path d="M18.23,110.16a.4.4,0,0,1-.4-.4V94.13a.4.4,0,0,1,.8,0v15.63A.4.4,0,0,1,18.23,110.16Z" fill="#f7f0e7"/><path d="M12.71,107.87a.4.4,0,0,1-.29-.12.4.4,0,0,1,0-.56l11-11a.4.4,0,0,1,.57,0,.39.39,0,0,1,0,.56l-11,11A.39.39,0,0,1,12.71,107.87Z" fill="#f7f0e7"/><path d="M26,102.34H10.42a.4.4,0,1,1,0-.8H26a.4.4,0,1,1,0,.8Z" fill="#f7f0e7"/><circle cx="104.53" cy="54.11" r="2.72" fill="#f7f0e7"/><circle cx="172.95" cy="54.11" r="2.72" fill="#f7f0e7"/><circle cx="187.93" cy="128.67" r="2.72" fill="#f7f0e7"/><circle cx="16.36" cy="128.67" r="2.72" fill="#f7f0e7"/><circle cx="25.89" cy="54.11" r="2.72" fill="#f7f0e7"/></g></svg>