<svg xmlns="http://www.w3.org/2000/svg" viewBox="0 0 190.27 217.85"><g id="OBJECTS"><path d="M5.71,217.85A5.71,5.71,0,0,1,0,212.15v-117A95.19,95.19,0,0,1,134.29,8.4c1.15.52,2.33,1.09,3.61,1.73l.39.2a94.1,94.1,0,0,1,8.56,4.95A95.85,95.85,0,0,1,157,22.84c1.84,1.57,3.66,3.26,5.42,5,.72.72,1.42,1.45,2.12,2.18s1.32,1.44,2,2.16l.15.18a95,95,0,0,1,23.64,62.75v117a5.71,5.71,0,0,1-5.71,5.7Z" fill="#fff"/><path d="M184.6,95.26v117H5.75v-117a89.26,89.26,0,0,1,32.66-69.1l.5-.4A89.6,89.6,0,0,1,127,11.67l.59.22c1.47.58,2.93,1.19,4.36,1.84l.14.07.58.26h0c.93.43,1.86.88,2.77,1.34l.15.07a90.42,90.42,0,0,1,8.16,4.71A89.19,89.19,0,0,1,158.41,32c1.31,1.31,2.59,2.66,3.81,4.06v0A89,89,0,0,1,184.6,95.26Z" fill="#a7cbcc"/><rect x="93.31" y="181.35" width="1" height="30.93" fill="#44182c"/><path d="M27.77,202.46l5.8-11.9-3.25,1.86,8.73-16.12.24-.45,6.93-12.79.29-.54L54,148.61l4.11-8.45H44.79L51,127.25l-3.69,2.19,7.76-14.12.24-.44,4.2-7.64.3-.55,9.37-17L72,83.9h0l2.47-5h-14l3.94-7.25L62,72.93l14.23-23,2.35-4.33.25-.46,13.3-24.45L96.7,29l-.25-.52,16,25.92-2.21-.85,4.66,8.48.29.53,8.66,15.76.24.44.06.11h-14L114,85.73l.24.44L135.34,124l-3.91-1.07,3.93,8.13.24.49,2.65,5.47.21.45,1.31,2.7H128.11l.09.17h.34l-.33,0,.71,1.4.23.44,1.7,3.35L155.78,188l.27.46.4.69-1.47-.54h0l-1-.37-1.67-.62.4.78.24.47,6.91,13.56Z" fill="#26575e"/><path d="M115.15,62.58a57.94,57.94,0,0,1-36.59-17l.25-.46a57.35,57.35,0,0,0,36.05,16.93Z" fill="#f7f0e7"/><path d="M114.21,86.17a129.44,129.44,0,0,1-54.67,21.07l.3-.55a128.93,128.93,0,0,0,54.13-21Z" fill="#f7f0e7"/><path d="M108.76,129.69c-21.59-3.29-38.89-7.92-53.66-14.37l.24-.44c14.72,6.43,32,11,53.5,14.32,8.71,1.33,17.72,2.35,26.52,1.85l.24.49C126.68,132.07,117.56,131,108.76,129.69Z" fill="#f7f0e7"/><path d="M138.46,137.46c-1.66.95-3.34,1.84-5,2.7q-2.11,1.05-4.27,2c-15.22,6.93-31.6,10.76-48.6,14.74a262.32,262.32,0,0,1-34.33,6.13l.29-.54a261.39,261.39,0,0,0,33.92-6.08c17-4,33.31-7.79,48.49-14.69,1.14-.51,2.26-1,3.38-1.59,2-1,4-2,5.95-3.15Z" fill="#f7f0e7"/><path d="M156.05,188.49l-1.07.15h0l-2,.26a243.92,243.92,0,0,1-30.33,1.88A247.9,247.9,0,0,1,39.05,176.3l.24-.45a247.46,247.46,0,0,0,113.42,12.58l1.27-.16,1.8-.24Z" fill="#f7f0e7"/><polygon points="74.41 78.89 110.15 78.89 72.71 82.12 74.41 78.89" fill="#44182c"/><polygon points="58.24 140.16 128.71 140.16 56.54 143.4 58.24 140.16" fill="#44182c"/><path d="M105.05,40.5a5.88,5.88,0,1,1-5.87-5.87A5.87,5.87,0,0,1,105.05,40.5Z" fill="#ffc97d"/><path d="M125,111a5.87,5.87,0,1,1-5.87-5.87A5.87,5.87,0,0,1,125,111Z" fill="#ffc97d"/><path d="M70.07,168.67a5.88,5.88,0,1,1-5.87-5.87A5.87,5.87,0,0,1,70.07,168.67Z" fill="#ffc97d"/><path d="M102.75,84.67a5.87,5.87,0,1,1-5.87-5.87A5.87,5.87,0,0,1,102.75,84.67Z" fill="#f56a58"/><path d="M107.09,151.82a5.87,5.87,0,1,1-5.87-5.87A5.87,5.87,0,0,1,107.09,151.82Z" fill="#f56a58"/><path d="M83.18,61.86A5.88,5.88,0,1,1,77.3,56,5.88,5.88,0,0,1,83.18,61.86Z" fill="#fe99bf"/><path d="M72.2,128a5.88,5.88,0,1,1-5.88-5.87A5.87,5.87,0,0,1,72.2,128Z" fill="#fe99bf"/><path d="M143.3,189.91a5.87,5.87,0,1,1-5.87-5.88A5.87,5.87,0,0,1,143.3,189.91Z" fill="#fe99bf"/><path d="M169.22,120.6a.36.36,0,0,1-.35-.27,188.53,188.53,0,0,0-21-53.3.36.36,0,0,1,.62-.36,189.52,189.52,0,0,1,21,53.5.37.37,0,0,1-.27.43Z" fill="#44182c"/><path d="M141.69,64.63a4.21,4.21,0,1,0,2.64-5.33A4.2,4.2,0,0,0,141.69,64.63Z" fill="#f7f0e7"/><path d="M150.52,69a4.21,4.21,0,1,0,2.64-5.34A4.2,4.2,0,0,0,150.52,69Z" fill="#f7f0e7"/><path d="M145.07,76.65a4.21,4.21,0,1,0,2.64-5.33A4.19,4.19,0,0,0,145.07,76.65Z" fill="#f7f0e7"/><path d="M169.39,83.9a50.78,50.78,0,0,0,3-7.83,24.1,24.1,0,0,0,1.11-9.56c-.22-1.82-1-3.88-2.82-4.31a3.59,3.59,0,0,0-3.55,1.58,10.25,10.25,0,0,0-1.43,3.83,141,141,0,0,0-2.4,14.72c-.52,4.81-1.3,10.18-.76,15,1.39-1.73,2.11-4.54,3.19-6.54C167,88.5,168.26,86.25,169.39,83.9Z" fill="#44182c"/><path d="M155.76,92.36a51.11,51.11,0,0,0-5.81-6,24.23,24.23,0,0,0-8.19-5.07c-1.74-.58-4-.71-5.1.72a3.58,3.58,0,0,0-.07,3.88,9.91,9.91,0,0,0,2.85,2.92,139.54,139.54,0,0,0,12.31,8.44c4.13,2.52,8.66,5.5,13.25,7.06-1-2-3.21-3.84-4.57-5.66C158.88,96.52,157.4,94.38,155.76,92.36Z" fill="#44182c"/><path d="M14.93,143.92h-.08a.37.37,0,0,1-.27-.43,189.23,189.23,0,0,1,21-53.5.36.36,0,0,1,.48-.13.35.35,0,0,1,.13.49,188.5,188.5,0,0,0-20.94,53.3A.36.36,0,0,1,14.93,143.92Z" fill="#44182c"/><path d="M42.46,88a4.21,4.21,0,1,1-2.64-5.33A4.21,4.21,0,0,1,42.46,88Z" fill="#f7f0e7"/><circle cx="29.64" cy="90.97" r="4.21" transform="matrix(0, -1, 1, 0, -61.47, 120.18)" fill="#f7f0e7"/><circle cx="35.09" cy="98.62" r="4.21" fill="#f7f0e7"/><path d="M14.76,107.22a49.77,49.77,0,0,1-3-7.83,24.11,24.11,0,0,1-1.12-9.56c.23-1.82,1-3.89,2.83-4.31A3.57,3.57,0,0,1,17,87.1a9.92,9.92,0,0,1,1.43,3.83,138.06,138.06,0,0,1,2.41,14.72c.52,4.81,1.3,10.18.75,15-1.38-1.73-2.11-4.54-3.18-6.54C17.2,111.82,15.89,109.57,14.76,107.22Z" fill="#44182c"/><path d="M28.39,115.68a51.11,51.11,0,0,1,5.81-6.05,24.19,24.19,0,0,1,8.18-5.07c1.74-.58,4-.71,5.11.72a3.6,3.6,0,0,1,.07,3.88,9.91,9.91,0,0,1-2.85,2.92,139.54,139.54,0,0,1-12.31,8.44c-4.13,2.52-8.66,5.5-13.25,7.06,1-2,3.21-3.84,4.57-5.66C25.27,119.84,26.75,117.69,28.39,115.68Z" fill="#44182c"/><path d="M167.75,157a24,24,0,0,0-8.29-10.57,0,0,0,0,1,0-.05,11,11,0,0,0,2.49-12.66,0,0,0,0,1,0,0c4.37-2.54,7.64-4.7,9.5-9.54,0,0,0,0,.06,0,1.89,3.24,5.1,5.34,8.28,7.35a.06.06,0,0,1,0,0c-2.55,5.22-1.67,10.21.23,14.4,0,0,0,0,0,0C174.06,148.89,171,151.25,167.75,157Z" fill="#ffc97d"/><path d="M159,176.3a24,24,0,0,0-12.52-4.87s0,0,0,0a11,11,0,0,0-4.31-12.16.06.06,0,0,1,0,0c2.47-4.42,4.19-7.94,3.33-13.05,0,0,0,0,0,0,3.29,1.82,7.11,2,10.87,2.11,0,0,0,0,0,0,.46,5.79,3.76,9.64,7.53,12.27a0,0,0,0,1,0,0C160.31,166.08,158.85,169.68,159,176.3Z" fill="#ffc97d"/><path d="M155.77,193.51a.45.45,0,0,1-.16,0,.39.39,0,0,1-.19-.52,164.2,164.2,0,0,0,15.45-59.37.41.41,0,0,1,.42-.36.39.39,0,0,1,.36.41,165.07,165.07,0,0,1-15.52,59.65A.4.4,0,0,1,155.77,193.51Z" fill="#44182c"/><path d="M159.58,184.55a.38.38,0,0,1-.39-.39,61.64,61.64,0,0,0-5.05-23.52.38.38,0,0,1,.2-.51.4.4,0,0,1,.51.2A62.42,62.42,0,0,1,160,184.15a.4.4,0,0,1-.39.4Z" fill="#44182c"/><path d="M184.6,146v20.13a21.4,21.4,0,0,0-12.22.16c-.29.07-.59.16-.89.25a8.21,8.21,0,0,0,.29-.78,23.89,23.89,0,0,0,1.08-12.59,0,0,0,0,1,0,0,11,11,0,0,0,10.58-7.39s0,0,0,0Z" fill="#ffc97d"/><path d="M184.6,156.64v1l-.35.25a120.23,120.23,0,0,0-11.87,8.43c-.89.69-1.76,1.41-2.63,2.16-1.11.93-2.21,1.9-3.28,2.88-.76.68-1.5,1.38-2.23,2.08a.41.41,0,0,1-.25.11h0a.39.39,0,0,1-.27-.67l.7-.66q3.56-3.36,7.38-6.43a124.91,124.91,0,0,1,12-8.55Z" fill="#44182c"/><path d="M176.62,180.62a7,7,0,1,1,1.65-9.82A7,7,0,0,1,176.62,180.62Z" fill="#f56a58"/><path d="M178.6,175.77c-.4.12-1-.72-1.37-1.89s-.32-2.21.08-2.33,1,.72,1.37,1.89S179,175.65,178.6,175.77Z" fill="#44182c"/><path d="M161.72,174a7,7,0,1,1-9.45-3.12A7,7,0,0,1,161.72,174Z" fill="#f56a58"/><path d="M157.23,171.26c.06.41-.87.89-2.08,1.06s-2.23,0-2.29-.43.87-.89,2.07-1.07S157.17,170.84,157.23,171.26Z" fill="#44182c"/><path d="M28.38,184.11a24.06,24.06,0,0,1,8.3-10.58,0,0,0,0,0,0-.05,11,11,0,0,1-2.48-12.66s0,0,0,0c-4.37-2.54-7.65-4.7-9.51-9.53,0,0,0,0-.05,0-1.9,3.24-5.1,5.34-8.28,7.36,0,0,0,0,0,0,2.54,5.21,1.66,10.2-.24,14.39,0,0,0,0,0,0C22.07,176,25.16,178.32,28.38,184.11Z" fill="#ffc97d"/><path d="M37.11,203.37a24,24,0,0,1,12.52-4.88s0,0,0,0A11,11,0,0,1,54,186.29s0,0,0,0c-2.47-4.41-4.18-7.94-3.32-13.05a0,0,0,0,0,0,0c-3.28,1.83-7.11,2-10.87,2.12a0,0,0,0,0,0,0c-.46,5.78-3.76,9.63-7.53,12.26,0,0,0,0,0,0C35.83,193.14,37.28,196.74,37.11,203.37Z" fill="#ffc97d"/><path d="M37.28,212.28h-.84c-.88-2.14-1.71-4.29-2.5-6.47q-.94-2.61-1.8-5.25c-.14-.45-.28-.89-.43-1.34l-.45-1.48c-1.53-5-2.82-10.14-3.86-15.29a160.65,160.65,0,0,1-2.92-21.75.39.39,0,0,1,.37-.41.4.4,0,0,1,.41.36,160.43,160.43,0,0,0,3.23,23.2c.91,4.3,2,8.57,3.25,12.78q1.48,5,3.25,9.78c.4,1.08.8,2.15,1.22,3.21.23.59.46,1.17.7,1.76C37,211.68,37.15,212,37.28,212.28Z" fill="#44182c"/><path d="M36.56,211.61h0a.39.39,0,0,1-.38-.39,62.37,62.37,0,0,1,5.11-23.82.4.4,0,0,1,.52-.21.41.41,0,0,1,.2.52,61.42,61.42,0,0,0-5,23.52A.39.39,0,0,1,36.56,211.61Z" fill="#44182c"/><path d="M24.64,193.59c-.3-.09-.59-.18-.88-.25l-.33-.09a24.92,24.92,0,0,0-3.91-.77,19.08,19.08,0,0,0-2.81-.11,29.88,29.88,0,0,0-8.55,1.79s0,0,0,0a20.47,20.47,0,0,0-2.37-4.75V174.12a47.48,47.48,0,0,0,6.88-1.35l0,0a11,11,0,0,0,10.58,7.39s0,0,0,0A24.14,24.14,0,0,0,24,191.88a9.25,9.25,0,0,0,.32.93C24.44,193.07,24.54,193.33,24.64,193.59Z" fill="#ffc97d"/><path d="M32.44,200.44a.39.39,0,0,1-.28.12h0a.41.41,0,0,1-.25-.11c-.33-.31-.66-.63-1-.92q-1.61-1.53-3.26-2.95-1.91-1.68-3.88-3.24a1.19,1.19,0,0,0-.18-.15c-.54-.44-1.09-.87-1.64-1.3l-1.08-.82c-2.89-2.18-5.89-4.24-9-6.15l-6.15-4.33v-1l6.58,4.63a122.11,122.11,0,0,1,10.07,7c.66.51,1.31,1,2,1.55.94.74,1.86,1.51,2.78,2.3q2,1.68,3.9,3.47c.23.2.45.41.68.64s.48.44.72.67A.39.39,0,0,1,32.44,200.44Z" fill="#44182c"/><path d="M40.52,206.54a7,7,0,1,1,3.93-9.14A7,7,0,0,1,40.52,206.54Z" fill="#f56a58"/><path d="M43.6,202.31c-.42,0-.81-.95-.88-2.16s.21-2.22.63-2.25.81.94.88,2.16S44,202.28,43.6,202.31Z" fill="#44182c"/><path d="M27.63,196.53a7,7,0,1,1-8.44-5.28A7,7,0,0,1,27.63,196.53Z" fill="#f56a58"/><path d="M23.91,192.84c0,.42-1.06.66-2.27.55s-2.16-.55-2.12-1,1.05-.66,2.27-.54S24,192.42,23.91,192.84Z" fill="#44182c"/><circle cx="129.98" cy="38.84" r="17.62" fill="#bc606d"/><path d="M135.06,20.17l-.74-4.23h-9.55c-.39,1.75-.78,3.49-1.22,5.23a16,16,0,0,0-.44,2.17c0,.34-.19,1.09.14,1.35.68.53,3.26-2.2,3.26-2.2s-.84,3,.34,3.34,2.61-3,2.61-3-.34,3.33,1.4,3.37,2-3.29,2-3.29,1.55,3.48,2.65,3.11S135.35,21.2,135.06,20.17Z" fill="#ffc97d"/><path d="M124.77,15.93a6.27,6.27,0,0,0,4.57,1.42,9.82,9.82,0,0,0,5-1.41Z" fill="#44182c"/><path d="M132.12,13.8a2.6,2.6,0,0,1-1.24,2.14h0a2.61,2.61,0,0,1-2.71,0h0a2.61,2.61,0,0,1-.52-4l-.59-.22a3.15,3.15,0,0,0-.73,2,3.21,3.21,0,0,0,.91,2.23,2.76,2.76,0,0,0,.56.45,3,3,0,0,0,1.73.53,3.16,3.16,0,0,0,1.75-.52,3.56,3.56,0,0,0,.56-.45,3.11,3.11,0,0,0,.89-1.87h0Z" fill="#ffc97d"/><circle cx="39.13" cy="63.35" r="17.62" transform="translate(-29.63 91.92) rotate(-80.85)" fill="#f56a58"/><path d="M44.21,44.68l-.74-4.23H33.92c-.39,1.75-.78,3.49-1.22,5.23a14.64,14.64,0,0,0-.44,2.17c0,.34-.19,1.09.14,1.35.68.53,3.26-2.2,3.26-2.2s-.84,3,.33,3.34,2.62-3,2.62-3-.34,3.33,1.4,3.37,2.05-3.29,2.05-3.29,1.55,3.48,2.65,3.11S44.49,45.71,44.21,44.68Z" fill="#ffc97d"/><path d="M33.92,40.44a6.24,6.24,0,0,0,4.57,1.42,9.82,9.82,0,0,0,5-1.41Z" fill="#44182c"/><path d="M38.91,35l-.25,0h-.27l-.28,0a3.21,3.21,0,0,0-1.75,5.4,3,3,0,0,0,.55.45,3.16,3.16,0,0,0,3.49,0,3.56,3.56,0,0,0,.56-.45A3.21,3.21,0,0,0,38.91,35ZM40,40.45h0a2.61,2.61,0,0,1-1.35.38,2.69,2.69,0,0,1-1.36-.38h0a2.62,2.62,0,1,1,4-2.22A2.64,2.64,0,0,1,40,40.45Z" fill="#ffc97d"/><path d="M38.91,25.76V35h-.5V26.16Z" fill="#ffc97d"/><path d="M71.79,35.59a.32.32,0,0,1-.25-.1l-9.73-9.73a.35.35,0,0,1,.5-.5L72,35a.35.35,0,0,1,0,.5A.31.31,0,0,1,71.79,35.59Z" fill="#f7f0e7"/><path d="M66.92,37.61a.36.36,0,0,1-.35-.36V23.49a.35.35,0,0,1,.35-.35.35.35,0,0,1,.35.35V37.25A.35.35,0,0,1,66.92,37.61Z" fill="#f7f0e7"/><path d="M62.06,35.59a.33.33,0,0,1-.25-.1.35.35,0,0,1,0-.5l9.73-9.73a.34.34,0,0,1,.49,0,.35.35,0,0,1,0,.5l-9.72,9.73A.35.35,0,0,1,62.06,35.59Z" fill="#f7f0e7"/><path d="M73.8,30.73H60A.36.36,0,0,1,60,30H73.8a.36.36,0,0,1,0,.71Z" fill="#f7f0e7"/><path d="M148,115.93a.35.35,0,0,1-.25-.1l-9.73-9.73a.35.35,0,0,1,.5-.5l9.73,9.73a.35.35,0,0,1-.25.6Z" fill="#f7f0e7"/><path d="M143.18,118a.36.36,0,0,1-.36-.36V103.84a.36.36,0,1,1,.71,0v13.75A.36.36,0,0,1,143.18,118Z" fill="#f7f0e7"/><path d="M138.31,115.93a.35.35,0,0,1-.25-.6l9.73-9.73a.35.35,0,0,1,.5.5l-9.73,9.73A.35.35,0,0,1,138.31,115.93Z" fill="#f7f0e7"/><path d="M150.06,111.07H136.3a.36.36,0,1,1,0-.71h13.76a.36.36,0,0,1,0,.71Z" fill="#f7f0e7"/><path d="M174.25,200.36a.36.36,0,0,1-.25-.11l-9.73-9.73a.36.36,0,0,1,0-.49.35.35,0,0,1,.5,0l9.73,9.73a.34.34,0,0,1,0,.49A.36.36,0,0,1,174.25,200.36Z" fill="#f7f0e7"/><path d="M169.39,202.37A.34.34,0,0,1,169,202V188.26a.35.35,0,0,1,.35-.35.35.35,0,0,1,.35.35V202A.35.35,0,0,1,169.39,202.37Z" fill="#f7f0e7"/><path d="M164.52,200.36a.36.36,0,0,1-.25-.6L174,190a.35.35,0,0,1,.5,0,.34.34,0,0,1,0,.49l-9.73,9.73A.36.36,0,0,1,164.52,200.36Z" fill="#f7f0e7"/><path d="M176.27,195.49H162.51a.34.34,0,0,1-.35-.35.35.35,0,0,1,.35-.35h13.76a.35.35,0,0,1,.35.35A.35.35,0,0,1,176.27,195.49Z" fill="#f7f0e7"/><path d="M38.76,149a.35.35,0,0,1-.25-.1l-9.72-9.73a.35.35,0,0,1,0-.5.34.34,0,0,1,.49,0L39,148.35a.35.35,0,0,1-.25.6Z" fill="#f7f0e7"/><path d="M33.9,151a.35.35,0,0,1-.35-.35V136.86a.35.35,0,0,1,.35-.36.36.36,0,0,1,.35.36v13.76A.35.35,0,0,1,33.9,151Z" fill="#f7f0e7"/><path d="M29,149a.31.31,0,0,1-.24-.1.35.35,0,0,1,0-.5l9.72-9.73a.35.35,0,0,1,.5.5l-9.73,9.73A.33.33,0,0,1,29,149Z" fill="#f7f0e7"/><path d="M40.78,144.09H27a.36.36,0,0,1,0-.71H40.78a.36.36,0,0,1,0,.71Z" fill="#f7f0e7"/></g></svg>