<svg xmlns="http://www.w3.org/2000/svg" viewBox="0 0 195.62 216.76"><g id="OBJECTS"><path d="M6.11,216.76A6.11,6.11,0,0,1,0,210.65V97.8c0-2.29.08-4.65.25-7A97,97,0,0,1,33.61,24c.25-.23.56-.49.88-.76l.47-.4A97.87,97.87,0,0,1,97.81,0c2.91,0,5.79.13,8.57.37A97.81,97.81,0,0,1,195.62,97.8V210.65a6.11,6.11,0,0,1-6.11,6.11Z" fill="#fff"/><path d="M189.51,97.29V210.13H6.11V97.29c0-2.21.09-4.4.24-6.57a91.43,91.43,0,0,1,31.27-62.6c.31-.28.61-.53.92-.79a2.32,2.32,0,0,1,.25-.21,91.35,91.35,0,0,1,59-21.53c2.7,0,5.38.11,8,.35a91.69,91.69,0,0,1,83.67,91.35Z" fill="#a7cbcc"/><g opacity="0.27"><path d="M189.51,97.29V210.13H6.11V97.29c0-2.21.09-4.4.24-6.57a91.43,91.43,0,0,1,31.27-62.6c.31-.28.61-.53.92-.79a2.32,2.32,0,0,1,.25-.21,91.35,91.35,0,0,1,59-21.53c2.7,0,5.38.11,8,.35a91.69,91.69,0,0,1,83.67,91.35Z" fill="#26575e"/></g><path d="M131.91,210.13H65.22l5.1-10.66.23-.46L73,193.79l3.22-6.71,0-.05.34-.71,16-33.36,4.7-9.8,3.29-6.87,3,7.17,4,9.5,5.19,12.24.2.48.73,1.7h0l1,2.24,16.8,39.57.21.51Z" fill="#26575e"/><polygon points="105.83 136.36 104.55 135.66 106.76 143.61 109.36 152.96 91 152.96 94.5 143.03 97.35 134.97 96.83 135.22 78.21 144.59 82.86 120.13 65.36 102.44 90.05 99.31 101.47 77.2 112.08 99.71 136.64 103.73 118.5 120.77 122.27 145.38 105.83 136.36" fill="#ffc97d"/><path d="M122.26,145.64a.23.23,0,0,1-.2-.11L101,115.22,78.41,144.74a.25.25,0,0,1-.35,0,.26.26,0,0,1,0-.36l22.78-29.8a.32.32,0,0,1,.21-.1.29.29,0,0,1,.2.11l21.27,30.6a.25.25,0,0,1-.06.35A.27.27,0,0,1,122.26,145.64Z" fill="#bc606d"/><path d="M101,115h-.08L65.27,102.68a.25.25,0,0,1,.17-.48l35.3,12.23V79a.26.26,0,0,1,.25-.26.26.26,0,0,1,.26.26v35.81a.26.26,0,0,1-.11.21A.24.24,0,0,1,101,115Z" fill="#bc606d"/><path d="M101,115a.26.26,0,0,1-.24-.18.26.26,0,0,1,.17-.32l35.64-11.05a.25.25,0,0,1,.32.17.26.26,0,0,1-.17.32l-35.64,11Z" fill="#bc606d"/><g opacity="0.3"><polygon points="94.5 143.03 97.35 134.97 96.83 135.22 100.68 132.72 105.83 136.36 104.55 135.66 106.76 143.61 94.5 143.03" fill="#bc606d"/></g><path d="M147.32,46.11a2.28,2.28,0,0,0-.52-.39l0,0-10.83-5.93-.83-.45-9.86-5.4h0L123.54,33s-4.15-6-8.32-8.32c-1.58-.88-6.58-1.55-12.18-2l-2-.18-.38,0h0l-.74-.05h-.28c-2.39-.17-4.8-.31-7-.42-3.93-.21-7.2-.32-8.6-.37h-.14l-.6,0a18.58,18.58,0,0,0-7-2.6c-3.9-.52-10.14,2.08-22.88,5.21-4.2,1-9.41,2.1-14.81,3.19-.31.26-.61.51-.92.79A91.43,91.43,0,0,0,6.35,90.72c7.23-9,14.48-17.17,17.87-18.49,8.07-3.11,11.18,1.56,21.33,3.9s14.81.79,20.27.79a5.75,5.75,0,0,1,1.1.12C72.86,78.2,87.16,87.32,94.65,90.4c.68.28,1.3.51,1.85.68a9.43,9.43,0,0,0,4.24.41,4.17,4.17,0,0,0,.51-.09,7.82,7.82,0,0,0,5-4,12.51,12.51,0,0,0,.8-1.77c.08-.23.11-.36.11-.36l.08,0a4,4,0,0,0,1-.42,5,5,0,0,0,.61-.41c2.47-1.92,4.52-6.57,5.92-11.49.07-.2.12-.38.17-.58a58.29,58.29,0,0,0,1.34-6.06c1.29-7.81-3.25-24.18-3.25-24.18l.86.69,3.31,2.7.28.23,6.07,4.95a21.38,21.38,0,0,0,.19,4.16c0,.17,0,.35.08.52a21.54,21.54,0,0,0,.53,2.55c0,.19.09.38.15.57a22.66,22.66,0,0,0,1.66,4.16,18.35,18.35,0,0,0,6.78,6.76,2.58,2.58,0,0,0,3.88-1.71,2.52,2.52,0,0,0,0-.62l-.54-10.84,0-.54L136,50.39l.15.07a11.58,11.58,0,0,0,10.39-.13A2.6,2.6,0,0,0,147.32,46.11ZM99.75,54.17c1.1,2.43-.54,17.25,1.59,22.46a4.5,4.5,0,0,0,.49.93l-.28-.21-.12-.09a66.86,66.86,0,0,0-10-5.8c-6.7-3.23-21.93-11-21.84-13.21,0,0,0,0,0-.06.39-2.08,7-13.51,16.37-13.51C86,44.68,98.58,51.56,99.75,54.17Z" fill="#fe99bf"/><path d="M116.78,64.87c-.44,3.67-3.51,18.88-9.5,20.73h-.11l-.11,0a.36.36,0,0,1-.25-.24.37.37,0,0,1,.25-.48.84.84,0,0,0,.2-.08,2.75,2.75,0,0,0,.73-.36,3.27,3.27,0,0,0,.62-.43c2.51-2,4.38-6.74,5.62-11,.09-.27.16-.53.23-.8A59.54,59.54,0,0,0,116,64.78c.38-3.21-2-19.49-3-22-.72-1.82-18.34-13.49-30-20.89a30.8,30.8,0,0,0-6.89-2.54c-2.13-.45-8.91,1.45-16.08,3.48-4.67,1.31-9.48,2.68-13.54,3.55-2.58.54-5.64,1.15-8.91,1.78.31-.28.61-.53.92-.79a2.32,2.32,0,0,1,.25-.21c2.77-.55,5.35-1.06,7.59-1.54,4-.85,8.83-2.21,13.47-3.52,7.59-2.14,14.14-4,16.46-3.5a31.29,31.29,0,0,1,7.12,2.63l.48.31h0s0,0,.07.05l1,.64h0c6.47,4.13,27.81,17.89,28.77,20.27,0,.09.07.19.11.31a.66.66,0,0,1,0,.15c.1.32.2.71.31,1.17h0C115.39,49.1,117.14,61.91,116.78,64.87Z" fill="#44182c"/><path d="M134.48,70a2.83,2.83,0,0,1-1.07-.21A13.48,13.48,0,0,1,126.59,64a33.46,33.46,0,0,1-3.24-12.64l-9.74-7.78a.37.37,0,0,1-.06-.54.38.38,0,0,1,.53-.06L124,50.88a.39.39,0,0,1,.15.28c0,.07.29,7.09,3.16,12.49a12.71,12.71,0,0,0,6.43,5.46,2,2,0,0,0,1.92-.2,2,2,0,0,0,.83-1.7c-.25-5.44-.92-18.34-1.57-20.61s-2.15-3.83-6.62-8.45c-1.25-1.29-2.72-2.81-4.47-4.65-7.62-8-9.24-8.81-9.31-8.84-5.67-2.37-30.12-2.48-30.37-2.48a.38.38,0,0,1-.38-.38.43.43,0,0,1,.39-.38c1,0,24.84.11,30.65,2.54.14.05,1.77.78,9.58,9,1.74,1.83,3.21,3.35,4.46,4.64,4.44,4.59,6.11,6.31,6.81,8.77.64,2.27,1.28,14,1.6,20.78a2.71,2.71,0,0,1-1.16,2.36A2.74,2.74,0,0,1,134.48,70Z" fill="#44182c"/><path d="M100,91.73a17.71,17.71,0,0,1-7.15-1.9c-2-.91-4.85-2.47-7.87-4.12-6.34-3.46-14.24-7.77-17.83-8.06a.38.38,0,1,1,.07-.76c3.74.3,11.38,4.47,18.13,8.15,3,1.64,5.85,3.19,7.82,4.1,5.2,2.38,8.93,2.44,11.09.17,1.74-1.82,3.27-3.9,1.25-7.61s-9.61-7.5-16.3-10.85c-7.43-3.71-16.82-9-19.59-11.41-3-2.63-1.82-8.28-1.77-8.52a.38.38,0,0,1,.75.17s-1.13,5.44,1.52,7.78,12,7.61,19.42,11.3c7.13,3.56,14.5,7.24,16.64,11.16s.62,6.43-1.36,8.51A6.38,6.38,0,0,1,100,91.73Z" fill="#44182c"/><path d="M108.5,84.91a.39.39,0,0,1-.32-.16,7.35,7.35,0,0,1-.53-6.38,10.08,10.08,0,0,1,2.48-4.2,6.89,6.89,0,0,1,4.48-2,.35.35,0,0,1,.39.37.37.37,0,0,1-.36.39,6.16,6.16,0,0,0-4,1.79,9.38,9.38,0,0,0-2.29,3.88,6.61,6.61,0,0,0,.44,5.71.37.37,0,0,1-.1.53A.33.33,0,0,1,108.5,84.91Z" fill="#44182c"/><path d="M136.64,68.38h-.08A4.93,4.93,0,0,1,133,64.88a9.51,9.51,0,0,1,0-5c.4-1.72,1-3.6,2.86-4.32a.38.38,0,1,1,.27.71c-1.53.59-2,2.19-2.39,3.78a8.9,8.9,0,0,0-.06,4.58,4.15,4.15,0,0,0,3,3,.38.38,0,0,1,.3.45A.38.38,0,0,1,136.64,68.38Z" fill="#44182c"/><path d="M145,46.77a10.25,10.25,0,0,1-3.46-.69,12.16,12.16,0,0,1-4.14-2.41,7.43,7.43,0,0,1-2.35-4.23.38.38,0,0,1,.76-.11A6.58,6.58,0,0,0,138,43.11a11.41,11.41,0,0,0,3.88,2.25,7.23,7.23,0,0,0,5,.35.38.38,0,1,1,.26.72A5.9,5.9,0,0,1,145,46.77Z" fill="#44182c"/><path d="M104.48,81.39a19.73,19.73,0,0,0-1.76-1.57h0a14.36,14.36,0,0,0-1.92-1.3,10,10,0,0,0-6-1.54A5.26,5.26,0,0,0,92,78c-1.88,1.47-1.89,4.33-.8,6.26a11.3,11.3,0,0,0,4.57,4l.36.19c.8.43,2.07,1,3.45,1.63a1.66,1.66,0,0,0,.74.17,1.75,1.75,0,0,0,.4,0,1.89,1.89,0,0,0,.51-.21,1.64,1.64,0,0,0,.51-.44,19.14,19.14,0,0,0,1.33-1.93A15.42,15.42,0,0,0,104.68,84h0c.11-.31.2-.61.28-.91A1.81,1.81,0,0,0,104.48,81.39Zm-2,5.78a19.76,19.76,0,0,1-1.18,1.73l-.09.13a1,1,0,0,1-.42.3,1,1,0,0,1-.4.08,1.11,1.11,0,0,1-.43-.09c-1.37-.6-2.61-1.19-3.41-1.61l-.36-.2a10.61,10.61,0,0,1-4.26-3.68c-.91-1.6-.93-4.07.61-5.28a4.42,4.42,0,0,1,2.4-.82c.21,0,.43,0,.65,0a9.71,9.71,0,0,1,4.91,1.48l.29.17.51.34a17.6,17.6,0,0,1,2.25,1.81h0l.43.42a1,1,0,0,1,.27,1s0,0,0,.06A15.21,15.21,0,0,1,102.43,87.17Z" fill="#44182c"/><path d="M112.85,165.2l.2.48A208.34,208.34,0,0,1,76.28,187l.34-.71A208.07,208.07,0,0,0,112.85,165.2Z" fill="#fe99bf"/><path d="M102.84,180.14A4.16,4.16,0,1,1,98.68,176,4.16,4.16,0,0,1,102.84,180.14Z" fill="#fe99bf"/><path d="M80.48,191.24A4.16,4.16,0,0,1,73,193.79l3.22-6.71h.06A4.16,4.16,0,0,1,80.48,191.24Z" fill="#fe99bf"/><path d="M131.74,209.71c-2.14,0-4.27-.1-6.41-.2h0c-.88,0-1.76-.08-2.64-.13h0a209.73,209.73,0,0,1-43.79-7.32h0c-1-.28-2-.57-3-.87-1.86-.55-3.7-1.12-5.55-1.72l.23-.46a208,208,0,0,0,61,10.19Z" fill="#fe99bf"/><path d="M104.62,210.13H96.56a4,4,0,0,1,.84-1.65,4.17,4.17,0,0,1,5.86-.53A4.13,4.13,0,0,1,104.62,210.13Z" fill="#fe99bf"/><path d="M126.39,210.13H121.2a3.88,3.88,0,0,1,1.47-.75h0a3.93,3.93,0,0,1,2.64.13h0A3.55,3.55,0,0,1,126.39,210.13Z" fill="#fe99bf"/><path d="M79.51,208a4.16,4.16,0,1,1-.53-5.86A4.16,4.16,0,0,1,79.51,208Z" fill="#fe99bf"/><path d="M186.55,117.48c.42,5.37-2.25,10.56-6,14.56-.15.17-.32.34-.48.51a28.54,28.54,0,0,1-2.92,2.62,3.75,3.75,0,0,1-.33.26c-10.89,8.28-13.76,11.91-14,13.69a.77.77,0,0,1,0,.15l-.07-.13c-.9-1.57-4.86-3.95-18-7.85-.63-.18-1.26-.38-1.9-.59s-1-.35-1.51-.54c-.85-.31-1.69-.65-2.51-1l-.67-.33a19.17,19.17,0,0,1-5.33-3.67l-.17-.16-.27-.29a13.49,13.49,0,0,1-3.16-5.62,14.81,14.81,0,0,1,.64-9.55c.06-.17.12-.34.19-.51a19.69,19.69,0,0,1,.89-1.78c.11-.2.23-.4.35-.6a21.55,21.55,0,0,1,2.4-3.2,1.66,1.66,0,0,0,.13-.14c.13-.12.25-.26.37-.37.44-.46.9-.88,1.37-1.29a42.54,42.54,0,0,1,3.44-2.7l.74-.53a60.16,60.16,0,0,0,5.42-4.14,10.35,10.35,0,0,0,2.51-3.51,14.42,14.42,0,0,0,.63-8.52v0l7.87-1.43v0a14.31,14.31,0,0,0,4,8.17,10,10,0,0,0,3.18,2,20.51,20.51,0,0,0,2.67.8l2.79.68q.42.09.81.21l1.28.32a43.9,43.9,0,0,1,5.31,1.72l.67.28a24.15,24.15,0,0,1,2.53,1.31l.49.31a13.16,13.16,0,0,1,1.64,1.22,2.45,2.45,0,0,1,.35.29,13.61,13.61,0,0,1,3.85,5.74,10.92,10.92,0,0,1,.34,1.11c0,.17.09.35.14.52A14.91,14.91,0,0,1,186.55,117.48Z" fill="#f56a58"/><path d="M170.93,102.93a20.42,20.42,0,0,1-2.69,2.73,30.57,30.57,0,0,1-13.65,6.11,46,46,0,0,1-19-.15,42.54,42.54,0,0,1,3.44-2.7l.74-.53a60.16,60.16,0,0,0,5.42-4.14,10.35,10.35,0,0,0,2.51-3.51,14.42,14.42,0,0,0,.63-8.52v0l7.87-1.43v0a14.31,14.31,0,0,0,4,8.17,10,10,0,0,0,3.18,2,20.51,20.51,0,0,0,2.67.8l2.79.68q.42.09.81.21Z" fill="#fe99bf"/><path d="M158.45,94.16l-1.5-4-9.39,1.72c-.07,1.79-.13,3.58-.26,5.37a18.08,18.08,0,0,0,0,2.21c0,.34,0,1.11.38,1.3.77.4,2.81-2.75,2.81-2.75s-.28,3.1.94,3.22,2-3.45,2-3.45.26,3.34,2,3.06,1.42-3.6,1.42-3.6,2.15,3.14,3.17,2.57S158.91,95.12,158.45,94.16Z" fill="#ffc97d"/><path d="M147.56,91.85a6.21,6.21,0,0,0,4.75.57A9.78,9.78,0,0,0,157,90.13Z" fill="#44182c"/><path d="M155,88.22a3.22,3.22,0,0,0-3.49-2.62l-.25,0h0l-.25.06-.27.08a3.22,3.22,0,0,0-.75,5.63,3.5,3.5,0,0,0,.63.35,3.17,3.17,0,0,0,3.43-.63,2.74,2.74,0,0,0,.47-.55A3.16,3.16,0,0,0,155,88.22Zm-2.69,3.16a2.63,2.63,0,0,1-1.4-.13h0a2.63,2.63,0,0,1-1.63-2,2.62,2.62,0,1,1,4.3,1.49A2.63,2.63,0,0,1,152.29,91.38Z" fill="#ffc97d"/><path d="M186.55,117.48c.42,5.37-2.25,10.56-6,14.56-.15.17-.32.34-.48.51a28.54,28.54,0,0,1-2.92,2.62,3.75,3.75,0,0,1-.33.26c-10.89,8.28-13.76,11.91-14,13.69a.77.77,0,0,1,0,.15l-.07-.13c-.9-1.57-4.86-3.95-18-7.85-.63-.18-1.26-.38-1.9-.59s-1-.35-1.51-.54a106,106,0,0,0,27.21-10.23,104.15,104.15,0,0,0,15.81-10.6C185.11,118.73,185.84,118.12,186.55,117.48Z" fill="#fe99bf"/><path d="M179.93,106.55a92.12,92.12,0,0,1-30.68,11.52,91.1,91.1,0,0,1-19.37,1.44c.06-.17.12-.34.19-.51a91.33,91.33,0,0,0,49.37-12.76Z" fill="#ffc97d"/><path d="M186.25,115.43c-8,5.58-17.75,10.23-30.17,14.46A113.77,113.77,0,0,1,140,134.11q-3.66.67-7.18,1l-.17-.16-.27-.29a105.5,105.5,0,0,0,23.51-5.28c12.44-4.23,22.19-8.89,30.2-14.49C186.16,115.08,186.2,115.26,186.25,115.43Z" fill="#ffc97d"/><path d="M139.79,126.3a2.47,2.47,0,1,1-2.88-2A2.48,2.48,0,0,1,139.79,126.3Z" fill="#ffc97d"/><path d="M153.86,123.74a2.47,2.47,0,1,1-2.88-2A2.48,2.48,0,0,1,153.86,123.74Z" fill="#ffc97d"/><path d="M168.07,119.55a2.47,2.47,0,1,1-2.87-2A2.48,2.48,0,0,1,168.07,119.55Z" fill="#ffc97d"/><circle cx="178.17" cy="113.83" r="2.47" fill="#ffc97d"/><path d="M146.62,60a3.26,3.26,0,0,0-3.41,0,4.78,4.78,0,0,0-2.57,3.35c-1.58,7.2,9,21.09,10.07,22.42l.06.08A.27.27,0,0,0,151,86h.08a.26.26,0,0,0,.17-.23v-.07C151.29,84,151.9,63.35,146.62,60Zm-5.48,3.48a4.26,4.26,0,0,1,2.29-3A3.55,3.55,0,0,1,145,60a2.43,2.43,0,0,1,1.32.4c4.61,2.93,4.48,20.72,4.4,24.54C148.65,82.17,139.74,69.84,141.14,63.48Z" fill="#ffc97d"/><path d="M64.63,176.53c-2.49,4.78-7.49,7.77-12.76,9.2l-.68.18a29.79,29.79,0,0,1-3.86.68l-.42,0c-13.62,1.27-18,2.82-19.16,4.19a1,1,0,0,1-.1.11l0-.15c.06-1.8-2-5.92-11.1-16.17-.43-.49-.87-1-1.3-1.51s-.67-.82-1-1.25c-.56-.71-1.09-1.45-1.58-2.2-.14-.21-.27-.41-.4-.64a19.48,19.48,0,0,1-2.58-5.93l-.06-.23-.07-.39A13.38,13.38,0,0,1,9.88,156a14.79,14.79,0,0,1,5.6-7.77l.43-.32a17.23,17.23,0,0,1,1.7-1.05c.19-.11.4-.21.6-.31A21.58,21.58,0,0,1,22,145.12l.19-.05.51-.12c.61-.15,1.22-.27,1.84-.37,1.44-.25,2.89-.36,4.35-.47l.91-.05a57.4,57.4,0,0,0,6.78-.66,10.33,10.33,0,0,0,4-1.63,14.46,14.46,0,0,0,5-6.9v-.05l7.44,3h0a14.35,14.35,0,0,0-.92,9.06,10,10,0,0,0,1.65,3.38,19.11,19.11,0,0,0,1.84,2.09l2,2.06c.2.19.39.39.58.59l.91,1a42.6,42.6,0,0,1,3.6,4.27c.14.2.28.39.41.59a22.91,22.91,0,0,1,1.46,2.45c.08.18.17.35.26.52a14.78,14.78,0,0,1,.74,1.91,3.45,3.45,0,0,1,.14.42,13.73,13.73,0,0,1,.23,6.92c-.09.38-.18.75-.3,1.12-.05.17-.11.34-.16.51A14.16,14.16,0,0,1,64.63,176.53Z" fill="#a7cbcc"/><path d="M59.08,155.92a21.08,21.08,0,0,1-3.73.89,30.48,30.48,0,0,1-14.81-2,45.83,45.83,0,0,1-16-10.19c1.44-.25,2.89-.36,4.35-.47l.91-.05a57.4,57.4,0,0,0,6.78-.66,10.33,10.33,0,0,0,4-1.63,14.46,14.46,0,0,0,5-6.9v-.05l7.44,3h0a14.35,14.35,0,0,0-.92,9.06,10,10,0,0,0,1.65,3.38,19.11,19.11,0,0,0,1.84,2.09l2,2.06c.2.19.39.39.58.59Z" fill="#a7cbcc"/><path d="M53.13,141.87l.87-4.21-8.88-3.51c-1,1.48-2,3-3.06,4.41a17.42,17.42,0,0,0-1.21,1.86c-.16.3-.57,1-.36,1.31.44.74,3.84-.85,3.84-.85s-1.88,2.48-.91,3.23S47,142.25,47,142.25s-1.54,3,.06,3.65,3.12-2.31,3.12-2.31.16,3.82,1.32,3.87S53,142.93,53.13,141.87Z" fill="#ffc97d"/><path d="M45.12,134.15a6.2,6.2,0,0,0,3.73,3,9.76,9.76,0,0,0,5.15.51Z" fill="#44182c"/><path d="M51.76,130.93l-.23-.1h0a1.25,1.25,0,0,0-.25-.09,1.18,1.18,0,0,0-.27-.06,3.2,3.2,0,0,0-3.62,4.37,3.89,3.89,0,0,0,.35.62h0a3.25,3.25,0,0,0,1.43,1.12,3.21,3.21,0,0,0,2.5-.06h0a3.2,3.2,0,0,0,.09-5.81Zm1,3.85a2.59,2.59,0,0,1-2,1.61h0a2.6,2.6,0,0,1-1.4-.14,2.78,2.78,0,0,1-1.13-.86,2.62,2.62,0,0,1,3.06-4A2.63,2.63,0,0,1,52.79,134.78Z" fill="#ffc97d"/><path d="M64.63,176.53c-2.49,4.78-7.49,7.77-12.76,9.2l-.68.18a29.79,29.79,0,0,1-3.86.68l-.42,0c-13.62,1.27-18,2.82-19.16,4.19a1,1,0,0,1-.1.11l0-.15c.06-1.8-2-5.92-11.1-16.17-.43-.49-.87-1-1.3-1.51s-.67-.82-1-1.25a106,106,0,0,0,28.5,5.72,103.34,103.34,0,0,0,19-.63C62.75,176.83,63.69,176.69,64.63,176.53Z" fill="#a7cbcc"/><path d="M64.81,163.75a92,92,0,0,1-32.13-6.46,89.86,89.86,0,0,1-17.2-9l.43-.32a91.33,91.33,0,0,0,48.64,15.3C64.63,163.41,64.72,163.58,64.81,163.75Z" fill="#f7f0e7"/><path d="M65.46,174.63c-9.76.49-20.48-.71-33.25-3.7A112.54,112.54,0,0,1,16.35,166c-2.3-.91-4.51-1.88-6.63-2.93l-.06-.23-.07-.39a106.06,106.06,0,0,0,22.73,8c12.8,3,23.54,4.2,33.3,3.69C65.57,174.29,65.51,174.46,65.46,174.63Z" fill="#f7f0e7"/><path d="M20.29,159.27a2.47,2.47,0,1,1-1.39-3.21A2.47,2.47,0,0,1,20.29,159.27Z" fill="#f7f0e7"/><path d="M33.58,164.53a2.47,2.47,0,1,1-1.39-3.2A2.47,2.47,0,0,1,33.58,164.53Z" fill="#f7f0e7"/><path d="M47.85,168.51a2.47,2.47,0,1,1-1.38-3.21A2.46,2.46,0,0,1,47.85,168.51Z" fill="#f7f0e7"/><path d="M61.75,169.91a2.47,2.47,0,1,1-1.39-3.21A2.47,2.47,0,0,1,61.75,169.91Z" fill="#f7f0e7"/><path d="M61.18,106.62a3.28,3.28,0,0,0-2.91-1.79,4.78,4.78,0,0,0-4,1.49c-5.17,5.3-3.47,22.82-3.32,24.36a.28.28,0,0,1,0,.08.28.28,0,0,0,.2.22h.06a.26.26,0,0,0,.21-.11l0,0C52.39,129.54,63.89,112.3,61.18,106.62ZM51.46,130c-.3-3.49-1.32-18.66,3.23-23.33a4.26,4.26,0,0,1,3.13-1.35l.4,0a2.74,2.74,0,0,1,2.5,1.51C63.07,111.78,53.55,126.8,51.46,130Z" fill="#ffc97d"/><path d="M142.44,202.62a.51.51,0,0,1-.06-.64c4.34-6.4,9.27-12.52,14.05-18.45,7-8.73,14.33-17.77,19.73-27.77a.51.51,0,0,1,.69-.21.5.5,0,0,1,.2.69c-5.44,10.09-12.75,19.16-19.83,27.93-4.76,5.91-9.68,12-14,18.38a.52.52,0,0,1-.71.14A.27.27,0,0,1,142.44,202.62Z" fill="#44182c"/><path d="M166.35,171.5a.49.49,0,0,1-.11-.53c2.16-5.68,3.23-10.48,3.28-14.68a.5.5,0,0,1,.51-.5.51.51,0,0,1,.51.51,42.1,42.1,0,0,1-2.69,13.24c2.89-2.45,6.57-5.68,9.65-8.9a.51.51,0,0,1,.72,0,.49.49,0,0,1,0,.72,138.48,138.48,0,0,1-11.2,10.2.5.5,0,0,1-.62,0A.13.13,0,0,1,166.35,171.5Z" fill="#44182c"/><path d="M161.56,177.53a.51.51,0,0,1-.12-.49,45.21,45.21,0,0,0,1.62-14.82.5.5,0,0,1,.48-.53.51.51,0,0,1,.54.48,46,46,0,0,1-1.37,14.07,54.32,54.32,0,0,0,11.11-7,.51.51,0,0,1,.71.07.52.52,0,0,1-.06.72,57,57,0,0,1-12.32,7.61.52.52,0,0,1-.55-.07S161.58,177.54,161.56,177.53Z" fill="#44182c"/><path d="M155.45,185.45a.51.51,0,0,1-.12-.51,47,47,0,0,0,2.09-17,.51.51,0,0,1,1-.07,48.23,48.23,0,0,1-1.84,16.39A68.81,68.81,0,0,0,171.46,177a.52.52,0,0,1,.71.15.5.5,0,0,1-.14.7,71.81,71.81,0,0,1-16,7.7.53.53,0,0,1-.53-.11Z" fill="#44182c"/><path d="M150,192.19l0,0a.51.51,0,0,1-.09-.52c2.05-5.13,1.17-11.19.47-16.05a.51.51,0,1,1,1-.15c.68,4.71,1.51,10.5-.2,15.66a69.21,69.21,0,0,0,15.63-5.91.51.51,0,1,1,.48.9,71.12,71.12,0,0,1-16.79,6.23A.5.5,0,0,1,150,192.19Z" fill="#44182c"/><path d="M145.06,198.75a.54.54,0,0,1-.13-.46,33.55,33.55,0,0,0-.74-16.47.5.5,0,0,1,.34-.63.51.51,0,0,1,.64.34,34.72,34.72,0,0,1,.93,16.11c2.63-.89,5.23-1.73,7.83-2.58,2.88-.94,5.77-1.87,8.7-2.86a.51.51,0,0,1,.65.31.52.52,0,0,1-.32.65c-2.94,1-5.83,1.93-8.72,2.87s-5.73,1.86-8.65,2.85a.51.51,0,0,1-.5-.1Z" fill="#44182c"/><path d="M172.7,162.63a.5.5,0,0,1-.13-.47,14.39,14.39,0,0,0-.15-6.78.51.51,0,1,1,1-.26,15.53,15.53,0,0,1,.38,5.92,31.79,31.79,0,0,0,3.24-3,.51.51,0,0,1,.72,0,.5.5,0,0,1,0,.72,37,37,0,0,1-4.4,3.95.5.5,0,0,1-.58,0Z" fill="#44182c"/><path d="M14.78,124.85a.5.5,0,0,0,.64,0c6-4.89,11.64-10.36,17.11-15.65,8.06-7.81,16.4-15.88,25.88-22.16a.5.5,0,0,0,.14-.7.52.52,0,0,0-.71-.15c-9.55,6.34-17.92,14.44-26,22.27-5.46,5.28-11.09,10.74-17,15.6a.51.51,0,0,0-.07.72A.23.23,0,0,0,14.78,124.85Z" fill="#44182c"/><path d="M43.61,98.23a.51.51,0,0,0,.54.07c5.47-2.67,10.15-4.17,14.33-4.6a.51.51,0,1,0-.11-1,41.67,41.67,0,0,0-12.93,3.87,126.81,126.81,0,0,1,8-10.42.51.51,0,0,0,0-.71.49.49,0,0,0-.72,0,141.33,141.33,0,0,0-9.15,12.08.51.51,0,0,0,0,.62Z" fill="#44182c"/><path d="M38,103.54a.48.48,0,0,0,.5.08,45.1,45.1,0,0,1,14.61-3,.51.51,0,1,0,0-1,46.24,46.24,0,0,0-13.88,2.63,54.21,54.21,0,0,1,6-11.69.52.52,0,0,0-.13-.71.51.51,0,0,0-.71.13,56.7,56.7,0,0,0-6.47,13,.51.51,0,0,0,.12.54Z" fill="#44182c"/><path d="M30.71,110.34a.51.51,0,0,0,.52.08A47.19,47.19,0,0,1,48,106.8a.51.51,0,0,0,0-1,48,48,0,0,0-16.15,3.32,69.11,69.11,0,0,1,5.87-15.46.5.5,0,0,0-.21-.69.51.51,0,0,0-.69.2,72,72,0,0,0-6.21,16.67.49.49,0,0,0,.16.51Z" fill="#44182c"/><path d="M24.48,116.35l0,0a.51.51,0,0,0,.53,0c4.93-2.5,11-2.18,15.94-1.92a.51.51,0,0,0,.54-.48.5.5,0,0,0-.48-.53c-4.75-.25-10.59-.56-15.58,1.61A69.76,69.76,0,0,1,29.92,99a.51.51,0,0,0-.94-.4,71.68,71.68,0,0,0-4.68,17.29A.49.49,0,0,0,24.48,116.35Z" fill="#44182c"/><path d="M18.39,121.89a.5.5,0,0,0,.47.09,33.71,33.71,0,0,1,16.48-.75.51.51,0,1,0,.2-1,34.77,34.77,0,0,0-16.13.53c.65-2.7,1.25-5.37,1.86-8,.67-3,1.35-5.91,2.07-8.93a.51.51,0,0,0-.38-.61.5.5,0,0,0-.61.37c-.73,3-1.4,6-2.07,8.94s-1.34,5.88-2.06,8.88a.51.51,0,0,0,.15.49Z" fill="#44182c"/><path d="M51.88,91.1a.47.47,0,0,0,.47.09,14.65,14.65,0,0,1,6.77-.46.52.52,0,0,0,.59-.42.51.51,0,0,0-.42-.59,15.58,15.58,0,0,0-5.93.15,33.1,33.1,0,0,1,2.71-3.49.51.51,0,0,0-.76-.69,38,38,0,0,0-3.54,4.74.51.51,0,0,0,0,.59Z" fill="#44182c"/><path d="M172.41,71.56a.4.4,0,0,1-.27-.11L161.61,60.92a.38.38,0,1,1,.54-.54l10.53,10.53a.38.38,0,0,1,0,.54A.39.39,0,0,1,172.41,71.56Z" fill="#f7f0e7"/><path d="M167.15,73.74a.38.38,0,0,1-.39-.38V58.47a.39.39,0,1,1,.77,0V73.36A.38.38,0,0,1,167.15,73.74Z" fill="#f7f0e7"/><path d="M161.88,71.56a.4.4,0,0,1-.27-.11.38.38,0,0,1,0-.54l10.53-10.53a.38.38,0,0,1,.54.54L162.15,71.45A.39.39,0,0,1,161.88,71.56Z" fill="#f7f0e7"/><path d="M174.59,66.29H159.7a.38.38,0,1,1,0-.76h14.89a.38.38,0,1,1,0,.76Z" fill="#f7f0e7"/><path d="M105.5,27.88a.4.4,0,0,1-.27-.11L94.7,17.24a.39.39,0,0,1,0-.55.4.4,0,0,1,.54,0l10.53,10.54a.38.38,0,0,1,0,.54A.39.39,0,0,1,105.5,27.88Z" fill="#f7f0e7"/><path d="M100.24,30.06a.39.39,0,0,1-.39-.38V14.78a.39.39,0,0,1,.39-.38.38.38,0,0,1,.38.38v14.9A.38.38,0,0,1,100.24,30.06Z" fill="#f7f0e7"/><path d="M95,27.88a.4.4,0,0,1-.27-.11.38.38,0,0,1,0-.54l10.53-10.54a.4.4,0,0,1,.54,0,.39.39,0,0,1,0,.55L95.24,27.77A.39.39,0,0,1,95,27.88Z" fill="#f7f0e7"/><path d="M107.68,22.61H92.79a.38.38,0,1,1,0-.76h14.89a.38.38,0,0,1,0,.76Z" fill="#f7f0e7"/><path d="M58,201.56a.35.35,0,0,1-.27-.11L47.21,190.92a.38.38,0,1,1,.54-.54l10.53,10.53a.38.38,0,0,1-.27.65Z" fill="#f7f0e7"/><path d="M52.74,203.75a.39.39,0,0,1-.38-.39V188.47a.38.38,0,0,1,.76,0v14.89A.39.39,0,0,1,52.74,203.75Z" fill="#f7f0e7"/><path d="M47.48,201.56a.35.35,0,0,1-.27-.11.38.38,0,0,1,0-.54l10.53-10.53a.38.38,0,1,1,.54.54L47.75,201.45A.38.38,0,0,1,47.48,201.56Z" fill="#f7f0e7"/><path d="M60.19,196.3H45.3a.38.38,0,1,1,0-.76H60.19a.38.38,0,0,1,0,.76Z" fill="#f7f0e7"/><path d="M135.66,167.24a.38.38,0,0,1-.27-.11L124.86,156.6a.38.38,0,1,1,.54-.54l10.53,10.53a.38.38,0,0,1,0,.54A.35.35,0,0,1,135.66,167.24Z" fill="#f7f0e7"/><path d="M130.4,169.42A.38.38,0,0,1,130,169V154.15a.38.38,0,0,1,.76,0V169A.38.38,0,0,1,130.4,169.42Z" fill="#f7f0e7"/><path d="M125.13,167.24a.36.36,0,0,1-.27-.11.38.38,0,0,1,0-.54l10.53-10.53a.38.38,0,1,1,.54.54L125.4,167.13A.35.35,0,0,1,125.13,167.24Z" fill="#f7f0e7"/><path d="M137.84,162H123a.38.38,0,0,1-.38-.38.39.39,0,0,1,.38-.39h14.89a.4.4,0,0,1,.39.39A.39.39,0,0,1,137.84,162Z" fill="#f7f0e7"/><circle cx="28.13" cy="82.55" r="3.81" fill="#f7f0e7"/><path d="M133.52,85.33a3.82,3.82,0,1,1-3.82-3.82A3.82,3.82,0,0,1,133.52,85.33Z" fill="#f7f0e7"/><circle cx="148.77" cy="34.36" r="3.81" fill="#f7f0e7"/><path d="M181,193.84A3.81,3.81,0,1,1,177.2,190,3.81,3.81,0,0,1,181,193.84Z" fill="#f7f0e7"/><circle cx="15.3" cy="176.16" r="3.81" fill="#f7f0e7"/></g></svg>