<svg xmlns="http://www.w3.org/2000/svg" viewBox="0 0 195.62 216.76"><g id="OBJECTS"><path d="M6.11,216.76A6.11,6.11,0,0,1,0,210.65V97.8c0-2.29.08-4.65.25-7,3.2-45.54,39.58-84,84.76-90A97.8,97.8,0,0,1,97.81,0c2.91,0,5.79.13,8.57.37A97.81,97.81,0,0,1,195.62,97.8V210.65a6.11,6.11,0,0,1-6.11,6.11Z" fill="#fff"/><path d="M189.85,97.64V210.48H6.45V97.64q0-3.31.24-6.57A91.43,91.43,0,0,1,38,28.47c.31-.27.61-.53.92-.78a2.46,2.46,0,0,1,.25-.22,91.35,91.35,0,0,1,59-21.53q4.05,0,8,.35A91.63,91.63,0,0,1,163,32.8a92.28,92.28,0,0,1,15.51,20.63q2.15,3.9,3.92,8A91.48,91.48,0,0,1,189.85,97.64Z" fill="#fe99bf"/><path d="M70.55,66.69a7.39,7.39,0,1,1-3.12-10A7.39,7.39,0,0,1,70.55,66.69Z" fill="#f56a58"/><path d="M59.7,55.25a7.4,7.4,0,1,1-3.13-10A7.39,7.39,0,0,1,59.7,55.25Z" fill="#f56a58"/><path d="M59.25,49.76c-.32.31-1.3-.19-2.18-1.11s-1.35-1.92-1-2.23,1.3.2,2.18,1.12S59.57,49.46,59.25,49.76Z" fill="#44182c"/><path d="M67.46,58.21c-.09.43-1.18.57-2.44.3s-2.19-.84-2.1-1.27,1.19-.56,2.44-.29S67.55,57.78,67.46,58.21Z" fill="#44182c"/><path d="M89.38,37.18a21.68,21.68,0,0,0-3.74,6c-.07.16-.13.31-.19.47a21.07,21.07,0,0,0-1.29,4.93.42.42,0,0,1-.54.33,22.13,22.13,0,0,0-8.12-.71l-1.8.11h0c-1,.07-2.06.16-3.08.21a16.17,16.17,0,0,0-7.15,1.79.46.46,0,0,1-.3.06h0a.41.41,0,0,1-.31-.45s0,0,0,0a25.15,25.15,0,0,0-.11-8.52h0c-.1-.58-.19-1.15-.31-1.73-.22-1.17-.47-2.33-.71-3.47a23.27,23.27,0,0,0-.91-3.34.42.42,0,0,1,.37-.56,8.88,8.88,0,0,0,4.58-2l.39-.28s0,0,0,0a22,22,0,0,0,5.12-5.47c.12-.17.23-.34.34-.52h0a21.44,21.44,0,0,0,2-4.13.39.39,0,0,1,.5-.24,18.41,18.41,0,0,0,3.25.7,4.89,4.89,0,0,0,.55.05,21.84,21.84,0,0,0,13-2.87.41.41,0,0,1,.63.39,24.92,24.92,0,0,0,.22,6.68c0,.17.06.34.1.5a24.67,24.67,0,0,0,2.66,7.45.4.4,0,0,1-.16.55,20,20,0,0,0-4.7,3.76Z" fill="#26575e"/><path d="M80.58,28.53a.24.24,0,0,1-.19,0,.2.2,0,0,1-.12-.13l0-.1-2.79-8a4.89,4.89,0,0,0,.55.05l2.63,7.55.12.33A.27.27,0,0,1,80.58,28.53Z" fill="#44182c"/><path d="M91.94,25l-7.53-.26a.29.29,0,0,1-.1,0,.27.27,0,0,1-.14-.23.26.26,0,0,1,.26-.24l.47,0,6.94.24C91.87,24.69,91.9,24.86,91.94,25Z" fill="#44182c"/><path d="M75.18,34.32a.26.26,0,0,1-.21,0,.33.33,0,0,1-.12-.14l0-.11-3.5-9.59c.12-.17.23-.34.34-.52l3.54,9.69.13.36A.24.24,0,0,1,75.18,34.32Z" fill="#44182c"/><path d="M89.74,36.78l-.36.4L77,32.42h0a.26.26,0,0,1-.11-.31.25.25,0,0,1,.33-.14l.15.06Z" fill="#44182c"/><path d="M69.33,41.21a.31.31,0,0,1-.19,0A.26.26,0,0,1,69,41v0L65.76,30.26l.39-.28s0,0,0,0l3.2,10.58.11.38A.24.24,0,0,1,69.33,41.21Z" fill="#44182c"/><path d="M85.45,43.65,70.83,39.51l-.15,0a0,0,0,0,1-.05,0,.24.24,0,0,1-.12-.29.24.24,0,0,1,.3-.18l.37.1,14.46,4.1C85.57,43.34,85.51,43.49,85.45,43.65Z" fill="#44182c"/><path d="M75.5,48.2l-1.8.11h0l-8.06-1.78-.26-.06-.06,0a.23.23,0,0,1-.11-.11l0-.05-2.43-4.94h0c-.1-.58-.19-1.15-.31-1.73l3.07,6.21.09.19.33.08Z" fill="#44182c"/><path d="M62.53,51h0a.25.25,0,0,1-.08-.34C69.88,38.06,80.5,27.78,90.78,17.84a.25.25,0,0,1,.35,0,.24.24,0,0,1,0,.35C80.87,28.12,70.27,38.37,62.86,50.87A.25.25,0,0,1,62.53,51Z" fill="#44182c"/><path d="M20.92,59.82a21.84,21.84,0,0,0,6.33-3.16c.14-.1.28-.2.4-.3a20.87,20.87,0,0,0,3.69-3.52.41.41,0,0,1,.63,0,22.4,22.4,0,0,0,6.55,4.87l1.59.84h0C41,59,42,59.49,42.85,60a16.24,16.24,0,0,0,7,2.21.44.44,0,0,1,.28.11h0a.41.41,0,0,1,0,.54.05.05,0,0,1,0,0,25.11,25.11,0,0,0-4.36,7.31v0c-.22.54-.44,1.07-.64,1.63-.43,1.11-.82,2.23-1.21,3.33a23.86,23.86,0,0,0-1,3.32.41.41,0,0,1-.6.29,9,9,0,0,0-4.94-.72l-.48,0H36.9a22.15,22.15,0,0,0-7.23,2c-.19.09-.38.17-.56.27h0a21.7,21.7,0,0,0-3.9,2.46.39.39,0,0,1-.55-.06,19.38,19.38,0,0,0-2.4-2.3l-.44-.33A21.88,21.88,0,0,0,9.22,75.78a.41.41,0,0,1-.33-.66,25.3,25.3,0,0,0,3.31-5.81c.07-.16.12-.32.18-.48A24.44,24.44,0,0,0,14,61.1a.41.41,0,0,1,.42-.39,19.42,19.42,0,0,0,6-.75Z" fill="#26575e"/><path d="M23.89,71.79a.26.26,0,0,1,.15.12.28.28,0,0,1,0,.18l0,.1-1.81,8.28-.44-.33,1.7-7.81.08-.34A.26.26,0,0,1,23.89,71.79Z" fill="#44182c"/><path d="M12.38,68.83,18.65,73a.2.2,0,0,1,.08.08.25.25,0,0,1-.35.34L18,73.15,12.2,69.31C12.27,69.15,12.32,69,12.38,68.83Z" fill="#44182c"/><path d="M31.53,69.68a.22.22,0,0,1,.16.12.3.3,0,0,1,0,.18l0,.12-2,10c-.19.09-.38.17-.56.27l2.05-10.11.08-.38A.26.26,0,0,1,31.53,69.68Z" fill="#44182c"/><path d="M20.4,60l.52-.14L29,70.35v0h0a.24.24,0,0,1-.07.31.24.24,0,0,1-.35,0l-.1-.14Z" fill="#44182c"/><path d="M40.11,66.88a.2.2,0,0,1,.15.12.3.3,0,0,1,0,.19v0L37.43,78.07l-.48,0H36.9l2.81-10.69.1-.37A.24.24,0,0,1,40.11,66.88Z" fill="#44182c"/><path d="M27.65,56.36,38,67.54l.11.12s0,0,0,0A.25.25,0,0,1,38,68a.26.26,0,0,1-.35,0l-.26-.28L27.25,56.66C27.39,56.56,27.53,56.46,27.65,56.36Z" fill="#44182c"/><path d="M38.52,57.7l1.59.84h0l5.94,5.75.18.17,0,.06a.32.32,0,0,1,0,.14v.06l-.51,5.48v0c-.22.54-.44,1.07-.64,1.63l.63-6.9,0-.21-.25-.23Z" fill="#44182c"/><path d="M51,62.12v0a.24.24,0,0,1-.11.33C38,69.27,23.57,72.47,9.61,75.56a.25.25,0,0,1-.3-.19.25.25,0,0,1,.19-.3C23.43,72,37.83,68.8,50.69,62A.25.25,0,0,1,51,62.12Z" fill="#44182c"/><path d="M182.43,61.44c-3.76,8.36-11.76,22.76-12.47,24l-.05.09h0s0-.09,0-.27c.33-2.52,3.08-22.13,8.58-31.85Q180.66,57.33,182.43,61.44Z" fill="#26575e"/><path d="M163,59.07S143.53,34.54,136.17,42,163,59.07,163,59.07Z" fill="#26575e"/><path d="M173.36,106a.42.42,0,0,1-.41-.36c-5.9-37.18-8.72-46.41-20.17-65.83a.42.42,0,0,1,.15-.58.41.41,0,0,1,.57.15c11.52,19.54,14.36,28.81,20.28,66.13a.42.42,0,0,1-.35.48Z" fill="#44182c"/><path d="M166.87,71.31h0a.42.42,0,0,1-.41-.43c.1-7.07.72-13.91,1.37-20.26a.42.42,0,0,1,.46-.38.43.43,0,0,1,.38.47c-.65,6.32-1.27,13.15-1.37,20.18A.42.42,0,0,1,166.87,71.31Z" fill="#44182c"/><path d="M169.75,84.87a.42.42,0,0,1-.37-.21A63.61,63.61,0,0,0,151.9,64.88a.41.41,0,0,1-.09-.58.42.42,0,0,1,.59-.09,64.36,64.36,0,0,1,17.72,20,.42.42,0,0,1-.16.57A.41.41,0,0,1,169.75,84.87Z" fill="#44182c"/><path d="M171.78,96.62h-.11a.42.42,0,0,1-.29-.52,125.57,125.57,0,0,1,5.11-14.72.42.42,0,0,1,.55-.22.42.42,0,0,1,.23.55,123.74,123.74,0,0,0-5.08,14.61A.43.43,0,0,1,171.78,96.62Z" fill="#44182c"/><path d="M154.09,41.79a4,4,0,1,1-3.15-4.66A4,4,0,0,1,154.09,41.79Z" fill="#f7f0e7"/><path d="M163.5,39.18a4,4,0,1,1-3.16-4.66A4,4,0,0,1,163.5,39.18Z" fill="#f7f0e7"/><path d="M153.5,32.37a4,4,0,1,1-3.16-4.66A4,4,0,0,1,153.5,32.37Z" fill="#f7f0e7"/><path d="M155.58,65.17a4,4,0,1,1-3.15-4.65A4,4,0,0,1,155.58,65.17Z" fill="#f7f0e7"/><path d="M172.7,49.91a4,4,0,1,1-3.16-4.66A4,4,0,0,1,172.7,49.91Z" fill="#f7f0e7"/><path d="M181,82.49a4,4,0,1,1-3.15-4.66A4,4,0,0,1,181,82.49Z" fill="#f7f0e7"/><path d="M169.83,87.33S147.7,68,144.75,75.79,169.83,87.33,169.83,87.33Z" fill="#26575e"/><path d="M38.93,175.32S20.52,142.17,9.5,142.54a1.19,1.19,0,0,0-1.16,1.29c.15,1.55,1,4.69,5,9.11,5.87,6.5,25.55,22.39,25.55,22.39" fill="#26575e"/><path d="M35.13,145.19S45,111.91,55.65,116.51,35.13,145.19,35.13,145.19Z" fill="#26575e"/><path d="M43.61,197.79a.47.47,0,0,1-.46-.36c-9.33-40.88-10.23-51.6-6.44-76.48a.47.47,0,0,1,.92.14c-3.76,24.73-2.86,35.4,6.43,76.13a.47.47,0,0,1-.35.56Z" fill="#44182c"/><path d="M36,159.43a.46.46,0,0,1-.43-.28c-3-7.18-6.46-14-9.75-20.22a.47.47,0,0,1,.83-.44c3.3,6.28,6.77,13.09,9.78,20.3a.47.47,0,0,1-.25.61Z" fill="#44182c"/><path d="M38.62,174.6h-.06a.46.46,0,0,1-.4-.52,71.38,71.38,0,0,1,10-28,.47.47,0,0,1,.8.49,70.6,70.6,0,0,0-9.84,27.59A.46.46,0,0,1,38.62,174.6Z" fill="#44182c"/><path d="M41.38,187.53a.46.46,0,0,1-.37-.18A140.31,140.31,0,0,0,29.74,174.4a.47.47,0,0,1,0-.66.48.48,0,0,1,.67,0,143.52,143.52,0,0,1,11.34,13,.46.46,0,0,1-.37.75Z" fill="#44182c"/><path d="M37.11,123.73a4.42,4.42,0,1,0,1.33-6.1A4.41,4.41,0,0,0,37.11,123.73Z" fill="#f7f0e7"/><path d="M26.35,124.93a4.42,4.42,0,1,0,1.33-6.1A4.41,4.41,0,0,0,26.35,124.93Z" fill="#f7f0e7"/><path d="M33.84,113.78a4.41,4.41,0,1,0,1.32-6.1A4.41,4.41,0,0,0,33.84,113.78Z" fill="#f7f0e7"/><path d="M45.24,148.42a4.41,4.41,0,1,0,1.33-6.09A4.41,4.41,0,0,0,45.24,148.42Z" fill="#f7f0e7"/><path d="M21.31,139.77a4.41,4.41,0,1,0,1.33-6.1A4.41,4.41,0,0,0,21.31,139.77Z" fill="#f7f0e7"/><path d="M26.23,176.75a4.41,4.41,0,1,0,1.32-6.1A4.41,4.41,0,0,0,26.23,176.75Z" fill="#f7f0e7"/><path d="M39.73,177.12s14.82-29,21.06-22.24S39.73,177.12,39.73,177.12Z" fill="#26575e"/><path d="M185.47,133.23s-13-8.42-19.41-18.13S157.64,78.59,152.53,74,124.19,55.87,116,53.06,81.55,44.38,80,49s7.41,10.59,7.41,10.59,9.44,15.7,13.53,19c0,0-10,5.37-2.81,15.32,0,0-7.4,2.81-.26,12.26,0,0-8.42,6.64,1,14.3s12.25,7.66,12.25,7.66,3.07,16.34,10.72,19.91,15.32,5.36,17.37,7.92S150,173.32,150,173.32,174.75,166.93,185.47,133.23Z" fill="#bc606d"/><path d="M138.36,135.52a.35.35,0,0,1-.25-.1c-.36-.33-8.9-8.29-12.08-14.53-1.79-3.5-2.84-8.72-3.78-13.33-.74-3.67-1.38-6.85-2.21-8.22-3.46-5.77-8.74-10.78-13.84-15.42A94.74,94.74,0,0,1,91.92,67.63c-.22-.31-.46-.65-.71-1-2.95-4.16-7.88-11.13-4.07-15.7,3-3.66,12.73,3,20.51,8.4l2.71,1.87c7.53,5.1,26.43,18,26.43,18l-.42.62s-18.9-12.9-26.43-18c-.86-.58-1.77-1.21-2.72-1.87-7.13-4.93-16.9-11.68-19.51-8.54-3.43,4.12,1.29,10.8,4.11,14.79l.72,1A94.44,94.44,0,0,0,106.7,83.37c5.15,4.67,10.47,9.73,14,15.58.9,1.49,1.55,4.72,2.31,8.46.92,4.56,2,9.73,3.71,13.14,3.12,6.12,11.83,14.24,11.92,14.32a.38.38,0,0,1,0,.53A.39.39,0,0,1,138.36,135.52Z" fill="#44182c"/><path d="M129.25,74.78a.38.38,0,0,1-.34-.23.37.37,0,0,1,.2-.49l5.68-2.4a.37.37,0,0,1,.49.19.38.38,0,0,1-.2.5l-5.68,2.4A.4.4,0,0,1,129.25,74.78Z" fill="#44182c"/><path d="M113.13,104.32a12.05,12.05,0,0,1-2.19-.2c-4.81-.87-9.37-4.14-12.85-9.2-1.72-2.5-3.49-5.46-2.78-9s3.77-6.36,5.51-7.63a.38.38,0,0,1,.53.08.39.39,0,0,1-.08.53c-1.66,1.2-4.53,3.74-5.22,7.17-.65,3.25,1,5.94,2.66,8.43,3.36,4.89,7.75,8,12.37,8.88a8.88,8.88,0,0,0,5.41-.5,5.06,5.06,0,0,0,3-4.13.37.37,0,0,1,.39-.37.38.38,0,0,1,.36.39,5.75,5.75,0,0,1-3.4,4.79A8.54,8.54,0,0,1,113.13,104.32Z" fill="#44182c"/><path d="M116.46,120.24a8.51,8.51,0,0,1-1-.06A16.91,16.91,0,0,1,108,117a39.6,39.6,0,0,1-9.09-8.67l-.16-.22c-1.64-2.15-3.5-4.59-4-7.22a7,7,0,0,1,2.68-7.25.38.38,0,0,1,.53.06.37.37,0,0,1-.05.52,6.37,6.37,0,0,0-2.43,6.54c.45,2.45,2.25,4.81,3.84,6.9l.16.21a39,39,0,0,0,8.92,8.51,16.25,16.25,0,0,0,7.17,3.08,7.16,7.16,0,0,0,6.76-2.74c1.5-2.23.65-5.16-.32-7.22a22.14,22.14,0,0,0-4.47-6.28.37.37,0,0,1,.53-.53,22.94,22.94,0,0,1,4.62,6.49c1.06,2.24,2,5.44.27,8A7.73,7.73,0,0,1,116.46,120.24Z" fill="#44182c"/><path d="M112.26,128.35a10.07,10.07,0,0,1-4.44-1.36,59.54,59.54,0,0,1-7.52-4.6,19.5,19.5,0,0,1-4.38-4,8.52,8.52,0,0,1-1.81-5.72,9.63,9.63,0,0,1,.74-2.81,8.17,8.17,0,0,1,2.61-3.73.37.37,0,0,1,.43.61,7.56,7.56,0,0,0-2.35,3.4,9.21,9.21,0,0,0-.69,2.59,7.8,7.8,0,0,0,1.68,5.22,18.9,18.9,0,0,0,4.21,3.88,57.29,57.29,0,0,0,7.42,4.54,8.13,8.13,0,0,0,4.82,1.22,4.7,4.7,0,0,0,3.38-2.69,6.28,6.28,0,0,0,.18-4.47.38.38,0,0,1,.24-.47.36.36,0,0,1,.47.24,7,7,0,0,1-.21,5,5.47,5.47,0,0,1-3.93,3.12A4.88,4.88,0,0,1,112.26,128.35Z" fill="#44182c"/><path d="M98.5,65a5.7,5.7,0,0,1-2.39-.68,14.14,14.14,0,0,1-6-4.67,7,7,0,0,1-.51-7.48A3.44,3.44,0,0,1,93,50.58a.38.38,0,1,1-.11.75,2.69,2.69,0,0,0-2.63,1.2c-1.32,2.14-.71,4.89.49,6.67a13.49,13.49,0,0,0,5.71,4.41,4.39,4.39,0,0,0,2.43.59,4.69,4.69,0,0,0,2.32-1.53c1.49-1.46,2.85-2.93,3.09-4.72a.37.37,0,0,1,.42-.32.36.36,0,0,1,.32.42c-.29,2.2-2,3.91-3.3,5.16A5.42,5.42,0,0,1,99,64.94,3.87,3.87,0,0,1,98.5,65Z" fill="#44182c"/><path d="M110.73,104.14a.35.35,0,0,1-.3-.16.37.37,0,0,1,.09-.52,15.4,15.4,0,0,0,4.5-4.93,1.78,1.78,0,0,0-.11-1.93c-2.28-3-7.52-6.2-11-4.28-1.68.92-3.12,3.39-2.53,5.32a.38.38,0,0,1-.25.47.37.37,0,0,1-.47-.25c-.71-2.33,1-5.14,2.89-6.2,3.92-2.15,9.47,1.22,12,4.48a2.5,2.5,0,0,1,.17,2.76,16.15,16.15,0,0,1-4.72,5.18A.43.43,0,0,1,110.73,104.14Z" fill="#44182c"/><path d="M115.27,119.92a.38.38,0,0,1-.21-.69,13.13,13.13,0,0,0,3.48-3.49,2.45,2.45,0,0,0,.14-2.47,12,12,0,0,0-3-3.86,7.22,7.22,0,0,0-5.9-1.7,5,5,0,0,0-4,4.15,6.45,6.45,0,0,0,.62,3.08.37.37,0,0,1-.69.29,7,7,0,0,1-.67-3.44,5.69,5.69,0,0,1,4.62-4.82,8,8,0,0,1,6.53,1.86,13,13,0,0,1,3.19,4.1,3.17,3.17,0,0,1-.19,3.23,13.93,13.93,0,0,1-3.68,3.7A.42.42,0,0,1,115.27,119.92Z" fill="#44182c"/><path d="M111.2,128.07a.39.39,0,0,1-.25-.1.38.38,0,0,1,0-.53,12.34,12.34,0,0,0,2.25-3.75,1,1,0,0,0-.2-1.12,8.16,8.16,0,0,0-4.85-2.46,5.11,5.11,0,0,0-2.38.18,3,3,0,0,0-1.72,1.43,2,2,0,0,0,.13,2.06.38.38,0,0,1-.08.53.37.37,0,0,1-.52-.08,2.77,2.77,0,0,1-.2-2.84,3.77,3.77,0,0,1,2.14-1.81,6,6,0,0,1,2.73-.22,9,9,0,0,1,5.29,2.69,1.79,1.79,0,0,1,.36,1.92,13,13,0,0,1-2.4,4A.39.39,0,0,1,111.2,128.07Z" fill="#44182c"/><path d="M189.85,124v86.5H158.47c-2.34-3.12-4.93-6.62-7.56-10.25-.16-.21-.32-.43-.47-.65-10.08-13.93-20.49-29.49-19.27-32.73,2.3-6.12,8.09-10.89,8.09-10.89l2.8,4.21h0l2.29,3.44s24-8.43,37.28-32.68l-4.85-4.09.08-.12c.49-.73,3.46-4.64,10.64-3.71A6.33,6.33,0,0,1,189.85,124Z" fill="#f56a58"/><path d="M189.85,175.37v1q-3.21,2.59-6.82,5.2a223.69,223.69,0,0,1-22.64,14.4,50,50,0,0,1-9.48,4.3c-.16-.21-.32-.43-.47-.65a47.68,47.68,0,0,0,9.58-4.3,222.9,222.9,0,0,0,22.57-14.35Q186.45,178.14,189.85,175.37Z" fill="#44182c"/><path d="M130.28,168.76a39.29,39.29,0,0,1-5.72,19.3c-.14.24-.29.47-.44.71a39.23,39.23,0,0,1-62.68,4.54,38.64,38.64,0,0,1-3.73-5.09c-.16-.24-.3-.47-.44-.7A38.13,38.13,0,0,1,53.85,180a39,39,0,0,1-2-13.5A39.76,39.76,0,0,1,53.6,156a37.48,37.48,0,0,1,2.68-6.5l.39-.73a38.41,38.41,0,0,1,4.27-6.26,39.22,39.22,0,0,1,57.32-3.18,40,40,0,0,1,4.64,5.35l.47.67a39.35,39.35,0,0,1,6.91,23.39Z" fill="#ffc97d"/><polygon points="85.02 168.19 90.96 155.01 96.59 167.13 91.48 180.61 85.02 168.19" fill="#a7cbcc"/><polygon points="104.22 167.03 110.91 152.22 117.23 165.85 111.48 181 104.22 167.03" fill="#a7cbcc"/><path d="M130.28,168.76a38.88,38.88,0,0,1-1.13,8.28l-6.39-12.31,5-11A38.77,38.77,0,0,1,130.28,168.76Z" fill="#a7cbcc"/><path d="M58.78,168.29,53.85,180a39,39,0,0,1-2-13.5A39.76,39.76,0,0,1,53.6,156Z" fill="#a7cbcc"/><polygon points="64.06 168.36 70.74 153.54 77.07 167.17 71.31 182.32 64.06 168.36" fill="#a7cbcc"/><path d="M118.26,139.35a46.65,46.65,0,0,1-10,3.42c-15.5,3.72-32,4.16-47.28-.24a39.27,39.27,0,0,1,22.57-13.39l.17,0a40,40,0,0,1,8.52-.68,39.26,39.26,0,0,1,26.06,10.93Z" fill="#f7f0e7"/><path d="M119.78,194.35a37.31,37.31,0,0,1-3.28,3.13A39,39,0,0,1,97,206.39a1.33,1.33,0,0,1-.21,0,39.35,39.35,0,0,1-12.76-.2l-.55-.1a39.11,39.11,0,0,1-16.73-7.7,41,41,0,0,1-5.34-5.11A195.67,195.67,0,0,1,97.55,191C105,191.23,112.75,192,119.78,194.35Z" fill="#f7f0e7"/><path d="M123.37,145.37a104.6,104.6,0,0,1-12.12,3.74A118.7,118.7,0,0,1,80,151.93c-2.37-.07-4.8-.2-7.3-.37a137.19,137.19,0,0,1-16.46-2l.39-.73a138.89,138.89,0,0,0,16.12,2c14.73,1,27.25.22,38.27-2.43a99.93,99.93,0,0,0,11.84-3.65Z" fill="#f7f0e7"/><path d="M124.56,188.06c-.14.24-.29.47-.44.71a144.26,144.26,0,0,0-66.41-.55c-.16-.24-.3-.47-.44-.7A144.91,144.91,0,0,1,124.56,188.06Z" fill="#f7f0e7"/><path d="M80.66,202.19a33.33,33.33,0,0,1,2.85,3.93,39.11,39.11,0,0,1-16.73-7.7,5.37,5.37,0,0,1,.89-.68,7.9,7.9,0,0,1,7.21-.23A16,16,0,0,1,80.66,202.19Z" fill="#a7cbcc"/><path d="M95.76,199.66a17,17,0,0,1,1.06,6.76,39.35,39.35,0,0,1-12.76-.2,16.69,16.69,0,0,1,.74-6.3c.84-2.25,2.84-4.26,5.24-4.36S94.76,197.38,95.76,199.66Z" fill="#a7cbcc"/><path d="M116.5,197.48A39,39,0,0,1,97,206.39a15.52,15.52,0,0,1,16.11-10.06A7.66,7.66,0,0,1,116.5,197.48Z" fill="#a7cbcc"/><path d="M99.84,124.74l-1.79-6.92-15.82,1.26c-.42,3-.83,5.9-1.33,8.84a27.77,27.77,0,0,0-.44,3.65c0,.56-.16,1.83.41,2.21,1.2.79,5.11-4.07,5.11-4.07s-1,5.07,1,5.48,3.93-5.37,3.93-5.37-.13,5.57,2.77,5.41,3-5.74,3-5.74,3,5.57,4.81,4.8C103,133.61,100.45,126.4,99.84,124.74Z" fill="#ffc97d"/><path d="M82.23,119.08s2.62,2.32,7.76,1.74a16.35,16.35,0,0,0,8.06-3Z" fill="#44182c"/><path d="M90.33,109.44l-.56,0c-.14,0-.28,0-.41,0H89.2a1,1,0,0,0-.3,0,2,2,0,0,0-.44.1,5.33,5.33,0,0,0-2.21,9.18,6.36,6.36,0,0,0,1,.67h0A5.3,5.3,0,0,0,93,119a5.43,5.43,0,0,0,.84-.82h0a5.25,5.25,0,0,0,1.22-3.81A5.36,5.36,0,0,0,90.33,109.44Zm2,8.83h0a4.14,4.14,0,0,1-2.18.81,4.38,4.38,0,0,1-2.31-.45,4.35,4.35,0,0,1,1.61-8.22,4.37,4.37,0,0,1,4.7,4A4.32,4.32,0,0,1,92.33,118.27Z" fill="#ffc97d"/><path d="M97.93,75.37c-1.49,12.7-6.6,28-8.16,32.64-2.3-6.52-11.76-35-5.36-46.18a8.09,8.09,0,0,1,2.35-2.74c-.14-.32-.35-.64-.48-1a8.92,8.92,0,0,0-2.74,3.18c-7.2,12.55,4.4,44.7,5.66,48.13,0,0,0,0,0,.06a.93.93,0,0,1,.07.19.53.53,0,0,0,.33.29.65.65,0,0,0,.16,0,.51.51,0,0,0,.46-.34l0-.13,0-.11c.87-2.45,6.71-19,8.49-33.08C98.54,76,98.25,75.74,97.93,75.37Z" fill="#ffc97d"/><path d="M123.58,38.32a.47.47,0,0,1-.33-.14l-13-13a.46.46,0,0,1,0-.67.47.47,0,0,1,.66,0l13,13a.46.46,0,0,1,0,.67A.47.47,0,0,1,123.58,38.32Z" fill="#f7f0e7"/><path d="M117.07,41a.47.47,0,0,1-.47-.47V22.14a.47.47,0,0,1,.47-.47.48.48,0,0,1,.48.47v18.4A.48.48,0,0,1,117.07,41Z" fill="#f7f0e7"/><path d="M110.57,38.32a.47.47,0,0,1-.33-.14.46.46,0,0,1,0-.67l13-13a.47.47,0,0,1,.66,0,.46.46,0,0,1,0,.67l-13,13A.47.47,0,0,1,110.57,38.32Z" fill="#f7f0e7"/><path d="M126.27,31.81H107.88a.47.47,0,1,1,0-.94h18.39a.47.47,0,1,1,0,.94Z" fill="#f7f0e7"/><path d="M68.77,101.64a.47.47,0,0,1-.33-.14l-13-13a.46.46,0,0,1,0-.67.45.45,0,0,1,.66,0l13,13a.46.46,0,0,1,0,.67A.47.47,0,0,1,68.77,101.64Z" fill="#f7f0e7"/><path d="M62.27,104.33a.48.48,0,0,1-.48-.47V85.46a.48.48,0,0,1,.48-.47.47.47,0,0,1,.47.47v18.4A.47.47,0,0,1,62.27,104.33Z" fill="#f7f0e7"/><path d="M55.76,101.64a.47.47,0,0,1-.33-.14.46.46,0,0,1,0-.67l13-13a.45.45,0,0,1,.66,0,.46.46,0,0,1,0,.67l-13,13A.47.47,0,0,1,55.76,101.64Z" fill="#f7f0e7"/><path d="M71.47,95.13H53.07a.47.47,0,1,1,0-.94h18.4a.47.47,0,0,1,0,.94Z" fill="#f7f0e7"/><path d="M25.54,201.72a.51.51,0,0,1-.34-.14l-13-13a.47.47,0,0,1,.67-.67l13,13a.48.48,0,0,1,0,.67A.47.47,0,0,1,25.54,201.72Z" fill="#f7f0e7"/><path d="M19,204.41a.47.47,0,0,1-.47-.47v-18.4a.47.47,0,1,1,.94,0v18.4A.47.47,0,0,1,19,204.41Z" fill="#f7f0e7"/><path d="M12.53,201.72a.51.51,0,0,1-.34-.14.48.48,0,0,1,0-.67l13-13a.47.47,0,0,1,.67.67l-13,13A.47.47,0,0,1,12.53,201.72Z" fill="#f7f0e7"/><path d="M28.23,195.22H9.83a.48.48,0,0,1-.47-.48.47.47,0,0,1,.47-.47h18.4a.47.47,0,0,1,.47.47A.48.48,0,0,1,28.23,195.22Z" fill="#f7f0e7"/><circle cx="181.42" cy="114.17" r="3.81" fill="#f7f0e7"/><circle cx="135.26" cy="193.91" r="3.81" fill="#f7f0e7"/><circle cx="47.09" cy="33.23" r="3.81" fill="#f7f0e7"/><circle cx="19.17" cy="98.25" r="3.81" fill="#f7f0e7"/></g></svg>