<svg xmlns="http://www.w3.org/2000/svg" viewBox="0 0 190.27 217.86"><g id="OBJECTS"><path d="M5.71,217.86A5.71,5.71,0,0,1,0,212.15v-117A95.19,95.19,0,0,1,134.29,8.4c1.15.52,2.33,1.09,3.61,1.73l.39.2a94.1,94.1,0,0,1,8.56,4.95A95.85,95.85,0,0,1,157,22.84c1.84,1.57,3.66,3.26,5.42,5,.72.72,1.42,1.45,2.12,2.18s1.32,1.44,2,2.16l.15.18a95,95,0,0,1,23.64,62.75v117a5.71,5.71,0,0,1-5.71,5.71Z" fill="#fff"/><path d="M184.56,95.13v117H5.71v-117A89.49,89.49,0,0,1,131.94,13.6c1.18.54,2.34,1.1,3.49,1.68l.15.07a90.42,90.42,0,0,1,8.16,4.71,88.44,88.44,0,0,1,9.53,7.12c1.76,1.5,3.46,3.08,5.1,4.72.68.67,1.34,1.37,2,2.06s1.23,1.33,1.82,2v0A89,89,0,0,1,184.56,95.13Z" fill="#fe99bf"/><path d="M52,52.44a6.47,6.47,0,1,1-3.71-8.37A6.47,6.47,0,0,1,52,52.44Z" fill="#f56a58"/><path d="M62.55,61.31a6.47,6.47,0,1,1-3.71-8.37A6.47,6.47,0,0,1,62.55,61.31Z" fill="#f56a58"/><path d="M51,47.71c-.24.3-1.14,0-2-.75s-1.36-1.54-1.12-1.83,1.15,0,2,.75S51.28,47.42,51,47.71Z" fill="#44182c"/><path d="M59,54.25c0,.38-1,.61-2.09.5s-2-.51-2-.89,1-.61,2.08-.5S59.06,53.87,59,54.25Z" fill="#44182c"/><path d="M76,33.76a19.22,19.22,0,0,0-2.66,5.6c0,.14-.08.29-.11.42a18.51,18.51,0,0,0-.64,4.43.37.37,0,0,1-.43.34,19.79,19.79,0,0,0-7.15.18L63.46,45h0c-.88.17-1.77.34-2.65.49a14.28,14.28,0,0,0-6,2.27.44.44,0,0,1-.26.08h0a.38.38,0,0,1-.31-.37s0,0,0,0a22.22,22.22,0,0,0-.94-7.4h0c-.14-.5-.28-1-.43-1.47-.31-1-.65-2-1-3a20.56,20.56,0,0,0-1.12-2.81.36.36,0,0,1,.26-.53,7.8,7.8,0,0,0,3.79-2.17l.31-.29s0,0,0,0A19.43,19.43,0,0,0,59,24.51a4.44,4.44,0,0,0,.24-.49h0a19.23,19.23,0,0,0,1.36-3.79A.35.35,0,0,1,61,20a16.39,16.39,0,0,0,2.9.3c.16,0,.31,0,.48,0a19.19,19.19,0,0,0,11-3.79.35.35,0,0,1,.58.28,22.28,22.28,0,0,0,.86,5.79c0,.14.09.28.14.42a21.31,21.31,0,0,0,3,6.22.34.34,0,0,1-.08.49,17.54,17.54,0,0,0-3.71,3.74Z" fill="#26575e"/><path d="M67.48,27.11a.24.24,0,0,1-.29-.1l0-.08-3.22-6.68c.16,0,.31,0,.48,0l3,6.31.14.28A.22.22,0,0,1,67.48,27.11Z" fill="#44182c"/><path d="M77,22.93l-6.58.52a.13.13,0,0,1-.09,0A.22.22,0,0,1,70.4,23l.42,0,6.06-.48C76.92,22.65,77,22.79,77,22.93Z" fill="#44182c"/><path d="M63.36,32.69a.19.19,0,0,1-.18,0,.23.23,0,0,1-.12-.1L63,32.5l-4-8a4.44,4.44,0,0,0,.24-.49l4,8.08.15.3A.21.21,0,0,1,63.36,32.69Z" fill="#44182c"/><path d="M76.28,33.38l-.28.38-11.25-2.9h0a.22.22,0,0,1-.13-.26.21.21,0,0,1,.27-.15l.14,0Z" fill="#44182c"/><path d="M59,39.27a.24.24,0,0,1-.3-.12v0l-3.89-9,.31-.29s0,0,0,0l3.84,8.89.13.31A.22.22,0,0,1,59,39.27Z" fill="#44182c"/><path d="M73.23,39.78,60.09,37.64l-.14,0h0a.22.22,0,0,1,.11-.43l.33,0,13,2.13C73.3,39.5,73.26,39.65,73.23,39.78Z" fill="#44182c"/><path d="M65,44.73,63.46,45h0l-7.19-.75-.23,0H56a.2.2,0,0,1-.09-.09l0,0-2.6-4.05h0c-.14-.5-.28-1-.43-1.47l3.28,5.09.1.16.3,0Z" fill="#44182c"/><path d="M54,48.44h0a.22.22,0,0,1-.12-.29C59.12,36.48,67.34,26.47,75.29,16.8a.22.22,0,0,1,.34.28C67.7,26.73,59.49,36.71,54.28,48.32A.21.21,0,0,1,54,48.44Z" fill="#44182c"/><path d="M18.69,60.28a19.33,19.33,0,0,0,5.19-3.38l.32-.3a18.48,18.48,0,0,0,2.86-3.44.36.36,0,0,1,.54-.06,19.51,19.51,0,0,0,6.19,3.58l1.46.58h0c.85.32,1.69.64,2.52,1a14.14,14.14,0,0,0,6.34,1.23.38.38,0,0,1,.26.07h0a.38.38,0,0,1,.08.48l0,0a22,22,0,0,0-3.07,6.8h0c-.14.49-.28,1-.4,1.48-.26,1-.49,2-.72,3a21.49,21.49,0,0,0-.52,3,.36.36,0,0,1-.5.31,7.79,7.79,0,0,0-4.37-.13l-.41.08h0a19.19,19.19,0,0,0-6.09,2.45l-.47.28h0a18.63,18.63,0,0,0-3.15,2.52.35.35,0,0,1-.49,0,16.23,16.23,0,0,0-2.31-1.77l-.42-.24a19.17,19.17,0,0,0-11.39-2.54.35.35,0,0,1-.35-.54A22,22,0,0,0,12,69.4a3.39,3.39,0,0,0,.11-.43,21.34,21.34,0,0,0,.65-6.89.35.35,0,0,1,.33-.38,17.14,17.14,0,0,0,5.12-1.25Z" fill="#26575e"/><path d="M22.46,70.4a.29.29,0,0,1,.15.09.2.2,0,0,1,0,.15v.09l-.75,7.38-.42-.24.71-7,0-.31A.23.23,0,0,1,22.46,70.4Z" fill="#44182c"/><path d="M12.15,69,18,72a.19.19,0,0,1,.08.07.23.23,0,0,1,0,.23.23.23,0,0,1-.29.09l-.37-.19L12,69.4A3.39,3.39,0,0,0,12.15,69Z" fill="#44182c"/><path d="M28.9,67.8a.21.21,0,0,1,.15.09.27.27,0,0,1,.05.15v.11l-.77,8.91-.47.28.79-9,0-.34A.23.23,0,0,1,28.9,67.8Z" fill="#44182c"/><path d="M18.25,60.45l.44-.17,8.06,8.36h0a.2.2,0,0,1,0,.28.21.21,0,0,1-.31,0l-.11-.11Z" fill="#44182c"/><path d="M36.09,64.51a.19.19,0,0,1,.14.09.22.22,0,0,1,.05.16v0l-1.41,9.74-.41.08h0L35.79,65l.05-.34A.21.21,0,0,1,36.09,64.51Z" fill="#44182c"/><path d="M24.2,56.6l10.07,8.7.11.1,0,0a.23.23,0,0,1,0,.28.22.22,0,0,1-.31,0l-.25-.21-10-8.61Z" fill="#44182c"/><path d="M33.79,56.68l1.46.58h0L41,61.66l.18.14,0,0a.28.28,0,0,1,0,.13V62l.1,4.82h0c-.14.49-.28,1-.4,1.48l-.13-6.06v-.19l-.24-.18Z" fill="#44182c"/><path d="M45.11,59.29h0a.21.21,0,0,1,0,.3C34.49,66.8,22.25,71,10.41,75.1a.22.22,0,0,1-.28-.14.22.22,0,0,1,.14-.28c11.81-4.06,24-8.27,34.54-15.44A.22.22,0,0,1,45.11,59.29Z" fill="#44182c"/><path d="M135,144.56q-.2,3.49-.41,7.16c-.3,4.85-.61,9.85-.84,14.79-.3,6.29-.49,12.45-.63,17.85-.06,2-.09,4-.13,5.74,0,.25,0,.49,0,.73-.14,7.09-.15,11.78-.15,11.78v9.54H44.3c0-3,0-7.44,0-12.78,0-.14,0-.29,0-.44q0-3.21,0-6.8c0-14.08.19-31.86.53-46.34s.88-25.91,1.73-26.68a2,2,0,0,1,.25-.2s0,0,0,0A27.82,27.82,0,0,1,50.34,117c.89-.42,1.91-.9,3-1.4h0c3.76-1.7,8.55-3.7,13.13-5.5l1.48-.58c3.62-1.41,7-2.64,9.51-3.45.77-.24,1.46-.45,2-.61l.71-.18a5,5,0,0,1,1.21-.17c3.1.22,27.18-.42,27.18-.42s.64.2,1.76.58c4.11,1.4,14.58,5.35,22,11.32a2.27,2.27,0,0,1,.32.3l.09.09C135.79,120.29,135.71,131.3,135,144.56Z" fill="#a7cbcc"/><path d="M102.25,198.28l-5.32.46-.37-4.29L96,187.86l-.54-6.24L94.88,175l-.53-6.23-.57-6.6-.48-5.59-.39-4.55a8.55,8.55,0,0,0-.41-2,8.39,8.39,0,0,0-2.26-3.54,8.53,8.53,0,0,0-6.1-2.35h-.26a9.7,9.7,0,0,0-1.94.32,8.73,8.73,0,0,0-4.15,2.66,7.87,7.87,0,0,0-1.12,1.65,8.2,8.2,0,0,0-.92,3,7.79,7.79,0,0,0,0,1.81l.45,4.83.34,3.6-5.32.49-.44-4.79-.34-3.64a14.21,14.21,0,0,1,0-3,14,14,0,0,1,3.31-7.44c.17-.2.34-.39.52-.57a13.65,13.65,0,0,1,5.6-3.53,14.15,14.15,0,0,1,3.74-.71,14.57,14.57,0,0,1,3,.16A13.91,13.91,0,0,1,98,150.17c.09.47.15.94.2,1.43l.44,5.11.51,5.91.57,6.6.53,6.24.57,6.58.54,6.24.57,6.6Z" fill="#f7f0e7"/><polygon points="99.75 169.22 94.35 168.8 93.78 162.2 99.18 162.62 99.75 169.22" fill="#f56a58"/><path d="M98.67,156.71l-5.37-.1-.39-4.55a8.55,8.55,0,0,0-.41-2l5.53.11c.09.47.15.94.2,1.43Z" fill="#f56a58"/><path d="M92.61,141.54l-2.37,5a8.53,8.53,0,0,0-6.1-2.35L86.59,139A13.87,13.87,0,0,1,92.61,141.54Z" fill="#f56a58"/><path d="M77.79,147.15a7.87,7.87,0,0,0-1.12,1.65l-2.39-5.71a13.65,13.65,0,0,1,5.6-3.53l2.06,4.93A8.73,8.73,0,0,0,77.79,147.15Z" fill="#f56a58"/><path d="M75.72,153.6l.45,4.83-5.42-.7-.34-3.64a14.21,14.21,0,0,1,0-3l5.3.69A7.79,7.79,0,0,0,75.72,153.6Z" fill="#f56a58"/><polygon points="100.85 182.04 95.46 181.62 94.88 175.03 100.28 175.46 100.85 182.04" fill="#f56a58"/><polygon points="101.96 194.88 96.56 194.46 96 187.86 101.39 188.28 101.96 194.88" fill="#f56a58"/><path d="M110.41,105.27c-.23.34-.47.65-.72,1-3.86,4.76-9.87,7.46-16,8.21-3.62.44-7.45.21-10.66-1.53a12.14,12.14,0,0,1-5.17-6c-.14-.3-.28-.59-.4-.88a16.15,16.15,0,0,1,4-1c3.1.22,27.18-.42,27.18-.42S109.29,104.89,110.41,105.27Z" fill="#f7f0e7"/><path d="M108.64,104.69s-10.35,8.3-18.76,8-9.62-7-9.62-7l-.06-3.8L80,91,80,87.73,111,76Z" fill="#bc606d"/><g opacity="0.54"><path d="M105.57,89A28.25,28.25,0,0,1,94,99.69a25.72,25.72,0,0,1-13.78,2.24L80,91a57.53,57.53,0,0,1,9.51-1.29C94.76,89.33,100.38,89.92,105.57,89Z" fill="#44182c"/></g><path d="M113.62,67.72,113.54,69s-.25,1.24-.65,3.18c0,.21-.09.45-.14.68h0c-.56,2.61-1.38,6.23-2.31,9.74v0c-.63,2.34-1.31,4.62-2,6.56a17.43,17.43,0,0,1-2.06,4.28c-.9,1.13-3.56,2.09-7.09,2.77a73.88,73.88,0,0,1-19.16.85h0c-4.77-.44-8.83-1.44-10.74-3.15a6.18,6.18,0,0,1-1.12-1.43C66.19,89,65.52,81.82,65.52,75.16a84.09,84.09,0,0,1,.72-11.72,24,24,0,0,1,31-21.07c.66.21,1.31.45,2,.72C109.48,47.43,115.38,57,113.62,67.72Z" fill="#bc606d"/><path d="M68.52,66.8a1.38,1.38,0,0,0-.37,1c.12.57.8.9,1.44,1a8.79,8.79,0,0,0,2.56,0,4.09,4.09,0,0,0,2.68-1c1.12-1.37-.53-2.78-2.07-3A5.12,5.12,0,0,0,68.52,66.8Z" fill="#ffc97d"/><path d="M93.76,67.12a1.38,1.38,0,0,1,.46,1c-.06.57-.71,1-1.34,1.15a8.69,8.69,0,0,1-2.55.19,4,4,0,0,1-2.76-.79c-1.24-1.26.27-2.81,1.78-3.2A5.19,5.19,0,0,1,93.76,67.12Z" fill="#ffc97d"/><path d="M81.64,80.25h0C80.26,80.15,78.86,80,78,79c-1.87-2.21-.25-6.41.63-8.67a.36.36,0,0,1,.44-.22.31.31,0,0,1,.21.41l0,.06c-.83,2.12-2.36,6.08-.74,8,.69.82,1.94,1,3.15,1a.35.35,0,0,1,.32.36A.35.35,0,0,1,81.64,80.25Z" fill="#44182c"/><path d="M81.92,83.75a4,4,0,0,1-2.7-1,.34.34,0,0,1,0-.48.34.34,0,0,1,.48,0,3.54,3.54,0,0,0,3.61.56,5.53,5.53,0,0,0,2.83-2.69.36.36,0,0,1,.46-.14.34.34,0,0,1,.14.46,6.21,6.21,0,0,1-3.19,3A4.5,4.5,0,0,1,81.92,83.75Z" fill="#44182c"/><path d="M74.5,74.19a2.24,2.24,0,1,1-1.43-2.85A2.26,2.26,0,0,1,74.5,74.19Z" fill="#44182c"/><path d="M91.92,74.31a2.24,2.24,0,1,1-1.43-2.85A2.26,2.26,0,0,1,91.92,74.31Z" fill="#44182c"/><g opacity="0.32"><g opacity="0.31"><ellipse cx="97.01" cy="84.09" rx="8.82" ry="8.72" transform="translate(-14.84 147.11) rotate(-70.32)" fill="#44182c"/></g><g opacity="0.31"><path d="M74.71,86.85a8.84,8.84,0,0,1-6.45,5.69C66.19,89,65.51,81.82,65.52,75.16a8.72,8.72,0,0,1,9.19,11.69Z" fill="#44182c"/></g></g><path d="M118,72.73A5.66,5.66,0,0,1,120.24,74a6.19,6.19,0,0,1,1.6,3.43,10.59,10.59,0,0,1-2.15,8.13,11.52,11.52,0,0,1-7.29,4.19,5.72,5.72,0,0,1-4.42-.85c-3.39-2.67-1.88-9-.17-12.27S114.58,71.68,118,72.73Z" fill="#bc606d"/><path d="M112,85.15h0a.34.34,0,0,1-.31-.36,19,19,0,0,1,6.26-12.34.33.33,0,1,1,.44.5,18.26,18.26,0,0,0-6,11.9A.34.34,0,0,1,112,85.15Z" fill="#44182c"/><path d="M113.62,67.72,113.54,69s-.25,1.24-.65,3.18c-.06.08-.13.15-.19.22-.21.24-.41.46-.65.7-1,1.06-2,2.11-3,3.13a2.07,2.07,0,0,1-1.45.79,1.54,1.54,0,0,1-1-.56,4.89,4.89,0,0,1-.89-1.95,28.56,28.56,0,0,1-.76-3.63,7.56,7.56,0,0,1-5.87-3.43,10.19,10.19,0,0,1-1.61-6.69,8.56,8.56,0,0,1-6.29-3.11,12,12,0,0,1-2.93-6.38,21.72,21.72,0,0,1,5.06-6.47,13.54,13.54,0,0,1,3.92-2.46c.66.21,1.31.45,2,.72C109.48,47.43,115.38,57,113.62,67.72Z" fill="#ffc97d"/><path d="M99.71,43.16A13.21,13.21,0,0,0,94.18,41c-11.89-2.3-19.85,1.52-27.58,10.8-1,1.26-7.19,3.19-7.11,4.83s1.79,3.22,3.31,2.59c-.88,2,.77,4.87,2.9,5.57s4.48.1,6.56-.75C78,61.72,82.73,57.68,87.4,53.72a2.28,2.28,0,0,1,.6-.36,102,102,0,0,0,10-5.59,6,6,0,0,0,1.71-1.45C100.14,45.7,100.31,43.61,99.71,43.16Z" fill="#ffc97d"/><path d="M75.11,42.47c5.3-6.76,14.47-9.95,23-8.88s16.29,6.06,21.64,12.77,8.42,15.06,9.76,23.54,1,17.15.16,25.69c-2.23-3.77-5.53-7-8.36-10.37C107.86,69.4,93.4,52.29,75.11,42.47Z" fill="#f56a58"/><path d="M135.75,97.78a6.19,6.19,0,1,1-6.19-6.2A6.19,6.19,0,0,1,135.75,97.78Z" fill="#f7f0e7"/><path d="M65.68,52.36s18.92,1,29.59,7.34,20.07,29.48,20.07,29.48,5.62-1.15,7.8-10.9-6.31-26.49-19.61-33.95-27.64-5.85-30.4-5S63.38,49.38,65.68,52.36Z" fill="#f7f0e7"/><path d="M55.78,115s-15.6,2.29-21.11,22-10.32,50-2.29,57.35,26.15,7.8,29.13-4.82S55.78,115,55.78,115Z" fill="#a7cbcc"/><path d="M51.93,110.09a5.51,5.51,0,0,1,2.34-5.44,7.74,7.74,0,0,1,6-1.06,5,5,0,0,1,1-2.81A11.42,11.42,0,0,1,65,97.22,8.39,8.39,0,0,1,69.92,96a4.92,4.92,0,0,0-1.81,2.68,2.7,2.7,0,0,0,1.29,2.8,4.16,4.16,0,0,0,1.72.29,24.6,24.6,0,0,1,3.94.24,6.07,6.07,0,0,1,3.48,1.74c1.43,1.56,1.56,3.87,1.61,6C70.73,110.3,61.36,110,51.93,110.09Z" fill="#fff"/><path d="M50.27,118.35l.46-8.84H80.55s.92,33.15-14.8,32.81S50.16,124.54,50.27,118.35Z" fill="#ffc97d"/><path d="M45.07,145.56S48,120.79,48.9,119.72s16.36-9,17.12-8-11.16,9.29-11.16,9.29,13.46-1.8,14.07.34-14.53,6.27-14.53,6.27v1s13.61-1.87,14.53-.5-13.15,6.27-13.15,6.27,10.89-1.93,10.89-.15c0,1.6-9.63,4.36-9.63,4.36a13,13,0,0,0,8.41,3.71l-.35,4.62Z" fill="#bc606d"/><path d="M46.65,199.43a16.63,16.63,0,0,1-2.4-.16.33.33,0,0,1-.27-.4.34.34,0,0,1,.39-.27c.54.1,13.32,2.3,18.43-11.25,4.88-12.95,5.43-36.48,5.48-39.48l-24.18-1.8-7.72,28.41a.35.35,0,0,1-.42.24.34.34,0,0,1-.23-.42l7.79-28.67a.36.36,0,0,1,.35-.25l24.78,1.84a.34.34,0,0,1,.31.34c0,.26-.29,26.14-5.53,40C59.48,198.07,50.86,199.43,46.65,199.43Z" fill="#44182c"/><path d="M34.94,196.5a.26.26,0,0,1-.17-.05.33.33,0,0,1-.11-.46c.9-1.45,2.54-2.52,5-3.28A24.07,24.07,0,0,1,58,194.51a.34.34,0,1,1-.32.6,23.31,23.31,0,0,0-17.83-1.75c-2.29.7-3.8,1.68-4.62,3A.32.32,0,0,1,34.94,196.5Z" fill="#44182c"/><path d="M132.54,116.74a17,17,0,0,1,5,9c.56,3,1.76,14,1.76,14l6-18.6,24.09,11.11S159,189.16,140.65,191,115,179.34,115,179.34Z" fill="#a7cbcc"/><path d="M138.44,191.68a13.09,13.09,0,0,1-2.29-.21c-11.93-2.17-11-17.48-11-17.64a.35.35,0,0,1,.36-.31.32.32,0,0,1,.31.36c0,.15-.9,14.86,10.43,16.92,8.17,1.49,14.18-5.69,17.78-12,3.39-5.9,6.07-12.72,8.69-22.1l1.2-4.25c1.81-6.37,3.68-12.95,5-19.52a.35.35,0,0,1,.4-.27.34.34,0,0,1,.26.4c-1.29,6.6-3.16,13.2-5,19.57l-1.2,4.25c-2.64,9.44-5.34,16.3-8.75,22.26S145.82,191.68,138.44,191.68Z" fill="#44182c"/><polygon points="139.27 139.82 128.57 167.13 138.35 132.87 139.27 139.82" fill="#44182c"/><path d="M129.27,187.27a.34.34,0,0,1-.25-.11.34.34,0,0,1,0-.48,20.75,20.75,0,0,1,21.56-3.11.34.34,0,0,1,.16.45.33.33,0,0,1-.44.16,20.08,20.08,0,0,0-20.84,3A.3.3,0,0,1,129.27,187.27Z" fill="#44182c"/><circle cx="154.64" cy="102.21" r="15.52" fill="#ffc97d"/><g opacity="0.77"><circle cx="154.64" cy="102.21" r="15.52" fill="#44182c"/></g><path d="M152.35,93.57a2.22,2.22,0,1,1-2.22-2.22A2.22,2.22,0,0,1,152.35,93.57Z" fill="#44182c"/><path d="M157,101.45a2.22,2.22,0,1,1-2.22-2.22A2.21,2.21,0,0,1,157,101.45Z" fill="#44182c"/><path d="M157.32,112.61a2.22,2.22,0,1,1-2.22-2.22A2.22,2.22,0,0,1,157.32,112.61Z" fill="#44182c"/><path d="M165.11,95.48a2.22,2.22,0,1,1-2.21-2.21A2.21,2.21,0,0,1,165.11,95.48Z" fill="#44182c"/><path d="M146.53,104.28a2.22,2.22,0,1,1-2.21-2.22A2.21,2.21,0,0,1,146.53,104.28Z" fill="#44182c"/><path d="M146.73,121.86l2.58-5a15.3,15.3,0,0,0,7.28.52c4.74-.68,8.37-4.59,8.37-4.59s-3.44-.46-1.15-2.18c0,0-3.55-.8-3.72-3-.12-1.49,2.81-2.23,2.81-2.23s-3.33-1.15-2.53-3,5.93-3,9-1.84a4.83,4.83,0,0,1,3.36,3.67,1.77,1.77,0,0,1,.92,2.18,7.63,7.63,0,0,1-1.38,3s1.72.69.35,3-6.54,18.81-6.54,18.81Z" fill="#bc606d"/><path d="M162.21,105.57l-.1,0a3.18,3.18,0,0,1-2.22-2.54,2.11,2.11,0,0,1,.74-1.61c.62-.63,2.53-2,6.88-1.66,5.69.48,5.59,4.1,5.59,4.13a.31.31,0,0,1-.36.32.34.34,0,0,1-.32-.35c0-.13,0-3-5-3.43-4.08-.35-5.8.91-6.35,1.46a1.53,1.53,0,0,0-.55,1.08,2.52,2.52,0,0,0,1.75,2,.33.33,0,0,1,.22.42A.34.34,0,0,1,162.21,105.57Z" fill="#44182c"/><path d="M163.81,110.67h0c-.14,0-3.44-.09-3.88-2.57s2.6-3.23,4.8-3.86l.48-.13c1.91-.56,6.37-1.85,8.31.08s-.91,5-1,5.17a.34.34,0,1,1-.49-.46s2.51-2.76,1-4.23c-1.65-1.65-6-.39-7.64.08l-.48.14c-2.07.59-4.65,1.32-4.33,3.09.35,1.94,3.2,2,3.23,2a.34.34,0,0,1,.33.34A.33.33,0,0,1,163.81,110.67Z" fill="#44182c"/><path d="M166.11,131.2H166a.33.33,0,0,1-.22-.42c.11-.37,2.82-9,3.62-11.09.16-.43.44-1.05.77-1.78,1-2.34,3.2-7.19,2.39-8.08s-2.54-1.11-5.51-.25c-3.26.94-3.85,1.68-3.77,2.14.12.69,1.05.92,2.78.7s2-.33,2.06-.33a.34.34,0,0,1,.21.64,17.45,17.45,0,0,1-2.19.36c-2.15.28-3.33-.15-3.53-1.25-.25-1.42,2.14-2.3,4.25-2.91,2.38-.68,4.78-1.11,6.2.44,1,1.12-.5,4.81-2.28,8.81-.32.72-.59,1.33-.75,1.75-.79,2-3.58,11-3.61,11A.33.33,0,0,1,166.11,131.2Z" fill="#44182c"/><path d="M139.21,194.13a7,7,0,1,1-.92-9.81A7,7,0,0,1,139.21,194.13Z" fill="#f56a58"/><path d="M147,206.79A7,7,0,1,1,146,197,7,7,0,0,1,147,206.79Z" fill="#f56a58"/><path d="M139.87,189c-.35.22-1.15-.43-1.79-1.46s-.86-2-.51-2.25,1.15.44,1.79,1.46S140.23,188.77,139.87,189Z" fill="#44182c"/><path d="M145.77,198.38c-.17.38-1.19.29-2.3-.21s-1.85-1.19-1.68-1.57,1.2-.29,2.3.21S145.94,198,145.77,198.38Z" fill="#44182c"/><path d="M170.09,183.31a20.25,20.25,0,0,0-4.62,4.8c-.1.13-.18.26-.27.39a19.84,19.84,0,0,0-2.16,4.29.39.39,0,0,1-.56.2,20.85,20.85,0,0,0-7.34-2.25l-1.67-.25h0c-1-.14-1.92-.26-2.87-.42a15.3,15.3,0,0,0-6.93.25.41.41,0,0,1-.29,0h0a.4.4,0,0,1-.19-.48.08.08,0,0,1,0,0,23.7,23.7,0,0,0,1.57-7.86h0q0-.82.06-1.65c0-1.13,0-2.24,0-3.34a22.14,22.14,0,0,0-.18-3.25.39.39,0,0,1,.45-.45,8.31,8.31,0,0,0,4.61-.92l.41-.18s0,0,0,0a20.77,20.77,0,0,0,5.79-4c.15-.14.28-.27.42-.42h0a20.19,20.19,0,0,0,2.69-3.41.37.37,0,0,1,.51-.12,17.48,17.48,0,0,0,2.85,1.29c.16.05.32.11.5.15a20.57,20.57,0,0,0,12.54-.1.39.39,0,0,1,.5.49,23.35,23.35,0,0,0-1.11,6.19c0,.17,0,.33,0,.49a23,23,0,0,0,1,7.37.39.39,0,0,1-.25.48A18.69,18.69,0,0,0,170.5,183Z" fill="#26575e"/><path d="M163.69,173.62a.23.23,0,0,1-.18-.06.2.2,0,0,1-.08-.14l0-.1-1-7.91c.16.05.32.11.5.15l.94,7.46,0,.33A.23.23,0,0,1,163.69,173.62Z" fill="#44182c"/><path d="M174.83,172.63,168,170.9s-.06,0-.09-.05a.25.25,0,0,1-.08-.24.24.24,0,0,1,.28-.16l.44.11,6.34,1.58C174.83,172.31,174.83,172.47,174.83,172.63Z" fill="#44182c"/><path d="M157.57,177.9a.2.2,0,0,1-.18-.06.19.19,0,0,1-.09-.14l0-.11-1.34-9.52c.15-.14.28-.27.42-.42l1.36,9.62.05.36A.24.24,0,0,1,157.57,177.9Z" fill="#44182c"/><path d="M170.5,183l-.41.29-10.47-6.8v0h0a.24.24,0,0,1,.28-.38l.14.09Z" fill="#44182c"/><path d="M150.84,183.09a.2.2,0,0,1-.17-.06.22.22,0,0,1-.09-.16v0l-.88-10.54.41-.18s0,0,0,0l.87,10.37,0,.37A.23.23,0,0,1,150.84,183.09Z" fill="#44182c"/><path d="M165.2,188.5l-12.65-6.68-.13-.07,0,0a.24.24,0,0,1-.05-.29.25.25,0,0,1,.32-.11l.31.17,12.52,6.61C165.37,188.24,165.29,188.37,165.2,188.5Z" fill="#44182c"/><path d="M155.14,190.74l-1.67-.25h0l-7.07-3.23-.22-.1s0,0-.06,0A.21.21,0,0,1,146,187l0-.06-1.27-5h0q0-.82.06-1.65l1.6,6.31,0,.2.29.13Z" fill="#44182c"/><path d="M142.65,190.74h0a.23.23,0,0,1,0-.33c9.33-10.1,21.13-17.48,32.54-24.61a.24.24,0,0,1,.33.07.23.23,0,0,1-.08.32C164,173.3,152.26,180.67,143,190.72A.25.25,0,0,1,142.65,190.74Z" fill="#44182c"/><path d="M156.43,81.62a.34.34,0,0,1-.34-.28,188.65,188.65,0,0,0-21-53.29.36.36,0,0,1,.62-.36,189.38,189.38,0,0,1,21,53.5.35.35,0,0,1-.27.42Z" fill="#44182c"/><path d="M128.9,25.65a4.21,4.21,0,1,0,2.65-5.34A4.22,4.22,0,0,0,128.9,25.65Z" fill="#f7f0e7"/><path d="M137.73,30a4.21,4.21,0,1,0,2.64-5.34A4.21,4.21,0,0,0,137.73,30Z" fill="#f7f0e7"/><circle cx="136.27" cy="36.32" r="4.21" fill="#f7f0e7"/><path d="M160.37,34c-.2,1.06-.48,2.11-.77,3.13a49.77,49.77,0,0,1-3,7.83c-1.12,2.34-2.43,4.6-3.66,6.89-1.07,2-1.8,4.8-3.18,6.54-.54-4.82.23-10.19.75-15a138.47,138.47,0,0,1,2.41-14.72c.1-.49.22-1,.35-1.45,1.76,1.5,3.46,3.08,5.1,4.72C159.05,32.57,159.71,33.27,160.37,34Z" fill="#44182c"/><path d="M143,53.37a50.23,50.23,0,0,0-5.81-6A24.06,24.06,0,0,0,129,42.25c-1.74-.57-4-.7-5.1.73a3.58,3.58,0,0,0-.08,3.88,10.16,10.16,0,0,0,2.85,2.92A139.54,139.54,0,0,0,139,58.22c4.13,2.52,8.66,5.5,13.25,7.06-1-2-3.21-3.84-4.56-5.66C146.09,57.53,144.61,55.39,143,53.37Z" fill="#44182c"/><path d="M16.74,204.71a.36.36,0,0,1-.35-.32A189.11,189.11,0,0,1,19.18,147a.35.35,0,0,1,.42-.28.36.36,0,0,1,.28.42,188.69,188.69,0,0,0-2.78,57.2.36.36,0,0,1-.32.39Z" fill="#44182c"/><path d="M25,142.85a4.21,4.21,0,1,1-4.21-4.21A4.21,4.21,0,0,1,25,142.85Z" fill="#f7f0e7"/><path d="M18.05,149.81a4.21,4.21,0,1,1-4.21-4.21A4.2,4.2,0,0,1,18.05,149.81Z" fill="#f7f0e7"/><path d="M25.67,155.32a4.22,4.22,0,1,1-4.21-4.21A4.21,4.21,0,0,1,25.67,155.32Z" fill="#f7f0e7"/><path d="M15.73,180.5c-1.87-1.19-3.45-3.62-5.11-5.17s-3.31-3-4.91-4.6V157.67c1.61,2.91,3.1,5.86,4.5,8.87C12.25,170.93,14.7,175.77,15.73,180.5Z" fill="#44182c"/><path d="M20.57,173.62A50,50,0,0,1,24.14,166a24.08,24.08,0,0,1,6.12-7.43c1.47-1.1,3.53-1.93,5.07-.94a3.59,3.59,0,0,1,1.31,3.65A9.88,9.88,0,0,1,34.87,165a136.9,136.9,0,0,1-8.95,11.93c-3.11,3.71-6.45,8-10.29,10.93.28-2.19,1.81-4.66,2.51-6.82C18.94,178.56,19.66,176.06,20.57,173.62Z" fill="#44182c"/><path d="M41.7,98.84a.35.35,0,0,1-.25-.1L31.73,89a.35.35,0,0,1,0-.5.34.34,0,0,1,.49,0L42,98.24a.35.35,0,0,1-.25.6Z" fill="#f7f0e7"/><path d="M36.84,100.86a.35.35,0,0,1-.35-.36V86.75a.35.35,0,0,1,.35-.36.36.36,0,0,1,.35.36V100.5A.36.36,0,0,1,36.84,100.86Z" fill="#f7f0e7"/><path d="M32,98.84a.31.31,0,0,1-.24-.1.35.35,0,0,1,0-.5l9.72-9.73a.35.35,0,0,1,.5.5l-9.73,9.73A.35.35,0,0,1,32,98.84Z" fill="#f7f0e7"/><path d="M43.72,94H30a.36.36,0,0,1,0-.71H43.72a.36.36,0,0,1,0,.71Z" fill="#f7f0e7"/><path d="M104.69,26.14a.36.36,0,0,1-.25-.11L94.72,16.3a.35.35,0,0,1,0-.5.36.36,0,0,1,.49,0l9.73,9.73a.35.35,0,0,1,0,.5A.36.36,0,0,1,104.69,26.14Z" fill="#f7f0e7"/><path d="M99.83,28.15a.35.35,0,0,1-.35-.35V14a.34.34,0,0,1,.35-.35.35.35,0,0,1,.35.35V27.8A.35.35,0,0,1,99.83,28.15Z" fill="#f7f0e7"/><path d="M95,26.14a.32.32,0,0,1-.24-.11.35.35,0,0,1,0-.5l9.72-9.73a.37.37,0,0,1,.5,0,.35.35,0,0,1,0,.5L95.21,26A.36.36,0,0,1,95,26.14Z" fill="#f7f0e7"/><path d="M106.71,21.27H93a.35.35,0,0,1-.35-.35.34.34,0,0,1,.35-.35h13.76a.35.35,0,0,1,.35.35A.35.35,0,0,1,106.71,21.27Z" fill="#f7f0e7"/><path d="M174.32,78.6a.35.35,0,0,1-.25-.1l-9.73-9.73a.37.37,0,0,1,0-.5.35.35,0,0,1,.5,0L174.57,78a.35.35,0,0,1-.25.6Z" fill="#f7f0e7"/><path d="M169.46,80.62a.35.35,0,0,1-.35-.36V66.5a.35.35,0,0,1,.35-.35.35.35,0,0,1,.35.35V80.26A.36.36,0,0,1,169.46,80.62Z" fill="#f7f0e7"/><path d="M164.59,78.6a.35.35,0,0,1-.25-.1.37.37,0,0,1,0-.5l9.73-9.73a.35.35,0,0,1,.5.5l-9.73,9.73A.35.35,0,0,1,164.59,78.6Z" fill="#f7f0e7"/><path d="M176.34,73.74H162.58a.36.36,0,0,1,0-.71h13.76a.36.36,0,0,1,0,.71Z" fill="#f7f0e7"/><path d="M175.62,156.33a.36.36,0,0,1-.25-.11l-9.73-9.73a.34.34,0,0,1,0-.49.35.35,0,0,1,.5,0l9.73,9.73a.34.34,0,0,1,0,.49A.36.36,0,0,1,175.62,156.33Z" fill="#f7f0e7"/><path d="M170.75,158.34a.35.35,0,0,1-.35-.35V144.23a.36.36,0,0,1,.71,0V158A.36.36,0,0,1,170.75,158.34Z" fill="#f7f0e7"/><path d="M165.89,156.33a.36.36,0,0,1-.25-.11.34.34,0,0,1,0-.49l9.73-9.73a.35.35,0,0,1,.5,0,.34.34,0,0,1,0,.49l-9.73,9.73A.36.36,0,0,1,165.89,156.33Z" fill="#f7f0e7"/><path d="M177.63,151.46H163.87a.35.35,0,0,1,0-.7h13.76a.35.35,0,1,1,0,.7Z" fill="#f7f0e7"/><path d="M41.22,203.93a.35.35,0,0,1-.25-.1l-9.73-9.73a.35.35,0,0,1,0-.5.37.37,0,0,1,.5,0l9.73,9.73a.37.37,0,0,1,0,.5A.35.35,0,0,1,41.22,203.93Z" fill="#f7f0e7"/><path d="M36.35,206a.35.35,0,0,1-.35-.35V191.84a.36.36,0,1,1,.71,0V205.6A.36.36,0,0,1,36.35,206Z" fill="#f7f0e7"/><path d="M31.49,203.93a.35.35,0,0,1-.25-.6L41,193.6a.35.35,0,0,1,.5.5l-9.73,9.73A.35.35,0,0,1,31.49,203.93Z" fill="#f7f0e7"/><path d="M43.23,199.07H29.47a.36.36,0,0,1,0-.71H43.23a.36.36,0,0,1,0,.71Z" fill="#f7f0e7"/><path d="M24.86,116.3a3.08,3.08,0,1,1-3.08-3.08A3.08,3.08,0,0,1,24.86,116.3Z" fill="#f7f0e7"/><path d="M140.63,71.76a3.08,3.08,0,1,1-3.07-3.07A3.07,3.07,0,0,1,140.63,71.76Z" fill="#f7f0e7"/><path d="M176.58,203.57a3.08,3.08,0,1,1-3.07-3.07A3.07,3.07,0,0,1,176.58,203.57Z" fill="#f7f0e7"/><path d="M39.51,36.22a3.08,3.08,0,1,1-3.08-3.08A3.08,3.08,0,0,1,39.51,36.22Z" fill="#f7f0e7"/></g></svg>