<svg xmlns="http://www.w3.org/2000/svg" viewBox="0 0 198.82 204.19"><g id="OBJECTS"><path d="M6.75,204.19a6,6,0,0,1-6-6V151.48c0-6.11-.19-12.48-.37-18.64-.85-29.07-1.74-59.13,14.88-85.4C30.69,23,57.36,5.75,86.61,1.19A98.53,98.53,0,0,1,101.84,0a93.08,93.08,0,0,1,33.8,6.22c37.2,14.42,63.18,52.39,63.18,92.33v99.64a6,6,0,0,1-6,6Z" fill="#fff"/><path d="M192.77,98.82v98.76H8.34V98.82A91.91,91.91,0,0,1,9.6,83.61c0-.27.08-.53.13-.79.11-.67.24-1.33.37-2,.05-.27.1-.52.16-.78A92.21,92.21,0,0,1,42.15,27.46h0l.1-.07a3.61,3.61,0,0,1,.3-.25c1.38-1.12,2.8-2.21,4.24-3.25l.32-.22q2-1.44,4.12-2.76c.15-.1.31-.21.47-.3a86.51,86.51,0,0,1,8.38-4.66A91.59,91.59,0,0,1,91.33,7.06c1.48-.15,3-.26,4.46-.34S99,6.6,100.55,6.6a92.05,92.05,0,0,1,31.36,5.48c.42.15.85.31,1.27.48a7.43,7.43,0,0,1,.81.31c.43.15.84.32,1.27.5a91.91,91.91,0,0,1,29.2,19c.43.41.87.84,1.3,1.27,1.17,1.17,2.32,2.38,3.43,3.62a93.75,93.75,0,0,1,6.61,8.26l0,0L177,47.27l0,0A91.75,91.75,0,0,1,192.77,98.82Z" fill="#fe99bf"/><path d="M157.7,116.29c-.92-8.44-28.77-9-40.57-9.53A25.3,25.3,0,1,0,86.5,115c-10.1,6.21-33.5,19.13-30.8,28,2.83,9.27,28.47,3.3,28.47,3.3S79,182.87,88.06,185.37,111.75,149,111.75,149l0-.14c2.32,2,31.77,26.55,38.21,20.23,6.71-6.58-15.88-36.19-15.88-36.19S158.78,126.2,157.7,116.29Z" fill="#bc606d"/><path d="M133.77,132c.23-.07,23.64-7.58,23-15.59-.27-3.34-10.83-7.37-39.66-8.67a.93.93,0,0,1-.72-1.49,24.16,24.16,0,0,0,4.69-14.33,24.38,24.38,0,1,0-34.19,22.3.92.92,0,0,1,.55.79.94.94,0,0,1-.44.87c-24.54,15.09-31.82,23.72-30.44,26.77,1.23,2.71,5.75,4.15,13.06,4.15A88.65,88.65,0,0,0,84,145.37a.93.93,0,0,1,1.1,1c-1.4,10-3.55,36.17,3.22,38.05a2.11,2.11,0,0,0,.62.08c6.49,0,17-23.21,21.63-35.45.11-.22.2-.39.27-.54.17-.37.22-.43.4-.55a1,1,0,0,1,1.1.09c9.26,7.82,27,21,34.6,21.05a3.2,3.2,0,0,0,2.34-.77c5-4.92-9.82-26.9-16-34.95a.9.9,0,0,1-.15-.85A.94.94,0,0,1,133.77,132Zm-1,1.85c9,11.84,20,30.25,16,34.12a2.56,2.56,0,0,1-1.9.59c-7.43,0-25-13.13-34.19-20.9a1.62,1.62,0,0,0-1.83-.14,1.57,1.57,0,0,0-.64.81l-.28.56c-5.14,13.56-15.4,35.08-21.06,35.08a1.33,1.33,0,0,1-.45-.07c-5.33-1.47-4.82-22.73-2.76-37.35a1.59,1.59,0,0,0-1.56-1.79,1.43,1.43,0,0,0-.29,0,88.15,88.15,0,0,1-14.26,1.38c-7,0-11.36-1.3-12.48-3.78-1-2.16,4.28-10,30.18-26a1.57,1.57,0,0,0-.18-2.77,23.76,23.76,0,1,1,28.74-7.75,1.5,1.5,0,0,0-.14,1.59,1.53,1.53,0,0,0,1.33.88c30.45,1.37,38.89,5.74,39.08,8.1.45,5.54-13.6,12.11-22.56,14.94a1.58,1.58,0,0,0-.78,2.45Z" fill="#f7f0e7"/><g opacity="0.23"><path d="M92.22,99.94A6.24,6.24,0,1,1,86,93.7,6.24,6.24,0,0,1,92.22,99.94Z" fill="#44182c"/></g><g opacity="0.23"><path d="M115.77,93.89a6.24,6.24,0,1,1-6.24-6.24A6.24,6.24,0,0,1,115.77,93.89Z" fill="#44182c"/></g><path d="M90.31,94.85a2.76,2.76,0,1,1-2.6-2.92A2.76,2.76,0,0,1,90.31,94.85Z" fill="#44182c"/><path d="M108.77,90.25a2.77,2.77,0,1,1-2.6-2.92A2.77,2.77,0,0,1,108.77,90.25Z" fill="#44182c"/><path d="M97.92,97.22c-1.54,0-2.58-1.62-3-2.34a.31.31,0,1,1,.52-.34c.71,1.11,1.59,2.21,2.75,2a1.55,1.55,0,0,0,1.14-.71A3.8,3.8,0,0,0,99.54,93a.31.31,0,0,1,.6-.17,4.48,4.48,0,0,1-.33,3.38,2.23,2.23,0,0,1-1.57,1A1.72,1.72,0,0,1,97.92,97.22Z" fill="#44182c"/><path d="M105.22,116a2.24,2.24,0,1,1-2.24-2.24A2.23,2.23,0,0,1,105.22,116Z" fill="#ffc97d"/><path d="M107.62,126.2a2.24,2.24,0,1,1-2.24-2.24A2.25,2.25,0,0,1,107.62,126.2Z" fill="#ffc97d"/><path d="M165.76,33.62c-.43-.43-.87-.86-1.3-1.27a.73.73,0,0,0-.15.35,1.1,1.1,0,0,0,.21.89,17.84,17.84,0,0,0,4.67,3.65C168.08,36,166.93,34.79,165.76,33.62Zm4.43,17.84L177,47.27l-1.18-1.73,0,0-8,4.94a1.07,1.07,0,0,0-.11,1.74l3.84,3.09,0,0-4.16,2.24-.54.3-7.64,4.51-1.41.84-1.27-4.56a1.11,1.11,0,0,0-.6-.69,1.1,1.1,0,0,0-.92,0l-14.64,7.39c5.37-11.54,2.77-19.14,2.65-19.5a1,1,0,0,0-1.46-.58.24.24,0,0,0-.09,0l-5.56,3.25-1.43.83A49.74,49.74,0,0,0,136.8,26a1.06,1.06,0,0,0-.6-.79,1,1,0,0,0-.45-.1.93.93,0,0,0-.47.11l-.06,0L132.1,27l-1.42.82a65.64,65.64,0,0,0,3.31-15,7.43,7.43,0,0,0-.81-.31c-.42-.17-.85-.33-1.27-.48a62.21,62.21,0,0,1-4.33,17.81,1.07,1.07,0,0,0,.28,1.22,1.12,1.12,0,0,0,.71.27,1.1,1.1,0,0,0,.53-.14l1.35-.78.07,0,4.37-2.54h0c.38,3.78.83,13.84-3.56,23.54a1.07,1.07,0,0,0,.27,1.24,1.06,1.06,0,0,0,1.25.13l1.29-.76,7.16-4.19v0c.5,2.81.95,9.93-4.31,19.38a1.07,1.07,0,0,0,1.42,1.47l16.41-8.27,1.3,4.64a1.05,1.05,0,0,0,.63.7,1.12,1.12,0,0,0,.94-.07L159,65l8.92-5.26.55-.3,5.53-3h0a.92.92,0,0,0,.22-.17,1,1,0,0,0,.31-.66,1,1,0,0,0-.39-.93Z" fill="#44182c"/><path d="M171.61,50.64,177,47.3l0,0-1.18-1.73-6.63,4.08a1.08,1.08,0,0,0-.51.84,1.11,1.11,0,0,0,.4.91L173,54.48l-1.45.79L168.27,57l-.88.51-8.17,4.83v0L158,57.8a1.12,1.12,0,0,0-.6-.68,1.1,1.1,0,0,0-.92,0l-14.64,7.38C147.17,53,144.56,45.37,144.43,45a1.05,1.05,0,0,0-.63-.64,1.12,1.12,0,0,0-.91.09l-1.33.78-5.66,3.3s0,0,0,0a49.88,49.88,0,0,0,2.31-23.38,1,1,0,0,0-.6-.8,1.17,1.17,0,0,0-.45-.09,1,1,0,0,0-.53.14l-1.36.78-.06,0L132.1,27h0a65,65,0,0,0,3.16-13.66c-.43-.18-.84-.35-1.27-.5a7.43,7.43,0,0,0-.81-.31A60.91,60.91,0,0,1,129,29.08a1.05,1.05,0,0,0,.28,1.22,1.11,1.11,0,0,0,.71.26,1,1,0,0,0,.46-.1l.07,0,4.37-2.53,1.42-.82c.38,3.77.83,13.84-3.56,23.55a1.06,1.06,0,0,0,.27,1.24,1,1,0,0,0,1.12.18l.13,0,7-4.12,1.42-.83c.5,2.8,1,9.93-4.31,19.4a1.09,1.09,0,0,0,.16,1.26,1.12,1.12,0,0,0,1.26.21l16.41-8.28,1.3,4.65a1.07,1.07,0,0,0,.63.7,1,1,0,0,0,.81,0,.28.28,0,0,0,.13,0l9.34-5.52.87-.51,4.9-2.66,1.18-.63h0a1,1,0,0,0,.53-.83,1,1,0,0,0-.39-.93Z" fill="#bc606d"/><path d="M45.89,126.76l-.74-1.23L33.79,106.78l.06-.14,9.53-21.17a.91.91,0,0,0,.09-.36h0a1,1,0,0,0,0-.5l-.21-.38a1.11,1.11,0,0,0-.78-.42.94.94,0,0,0-.41,0l-1.9.45h0L19.26,89.15,10.1,80.83c-.13.66-.26,1.32-.37,2-.05.26-.09.52-.13.79l8.52,7.73a1.2,1.2,0,0,0,1.08.29l19.1-4.48,1.9-.45-8.85,19.67a1.16,1.16,0,0,0,.06,1.1l11.18,18.45-21.43-2.35a1.21,1.21,0,0,0-1,.42L8.34,137.64v3.66L21.52,126l23.23,2.54a1.19,1.19,0,0,0,1.14-1.8Z" fill="#44182c"/><polygon points="43.59 84.91 42.3 82.46 39.29 84.94 41.45 88.61 43.59 84.91" fill="#44182c"/><path d="M45,125,33.85,106.64l-1-1.62,7.91-17.55,1.65-3.67,0-.08a1.25,1.25,0,0,0,0-.85l-.22-.41a1.17,1.17,0,0,0-1.19-.4L18.36,87.4l-8.1-7.35c-.06.26-.11.51-.16.78-.13.66-.26,1.32-.37,2l7.48,6.78a1.2,1.2,0,0,0,1.07.28l21-4.94-1,2.21-7.87,17.47a1.85,1.85,0,0,0-.07,1.4l11.06,18.11-21.18-2.3a1.2,1.2,0,0,0-1,.41L8.34,134.83v3.65L20.6,124.27l23.23,2.54a1.18,1.18,0,0,0,1.13-.54,1.23,1.23,0,0,0,.19-.74A1,1,0,0,0,45,125Z" fill="#bc606d"/><path d="M47.35,55.53a5.77,5.77,0,0,1-4.86,6.41,5.52,5.52,0,0,1-6.07-5,5.77,5.77,0,0,1,4.87-6.41A5.49,5.49,0,0,1,47.35,55.53Z" fill="#f56a58"/><path d="M58.79,58.11a5.77,5.77,0,0,1-4.86,6.41,5.52,5.52,0,0,1-6.07-5,5.77,5.77,0,0,1,4.87-6.41A5.49,5.49,0,0,1,58.79,58.11Z" fill="#f56a58"/><path d="M44.8,52.19c-.07.34-.88.45-1.81.24s-1.63-.63-1.56-1,.88-.45,1.81-.24S44.87,51.85,44.8,52.19Z" fill="#44182c"/><path d="M53.37,54c.12.32-.49.89-1.38,1.27s-1.7.43-1.82.11.5-.88,1.38-1.26S53.25,53.7,53.37,54Z" fill="#44182c"/><path d="M64.28,33.36a16.87,16.87,0,0,0-.79,5.46c0,.14,0,.27,0,.39a16.86,16.86,0,0,0,.62,3.94.32.32,0,0,1-.28.4,17.38,17.38,0,0,0-6,2c-.42.21-.84.42-1.25.64h0l-2.13,1.11a12.64,12.64,0,0,0-4.55,3.52.37.37,0,0,1-.2.13h0a.32.32,0,0,1-.36-.23s0,0,0,0a19.64,19.64,0,0,0-2.74-6.05h0c-.25-.38-.49-.76-.76-1.14-.52-.77-1.06-1.52-1.6-2.26a19.91,19.91,0,0,0-1.69-2.1.33.33,0,0,1,.08-.52,6.86,6.86,0,0,0,2.66-2.85l.19-.32a.05.05,0,0,0,0,0,17.33,17.33,0,0,0,1.94-5.51,4,4,0,0,0,.08-.48h0a16,16,0,0,0,.16-3.59.31.31,0,0,1,.29-.33A15,15,0,0,0,50.45,25l.41-.14a17,17,0,0,0,8.39-6.13.32.32,0,0,1,.58.09,19.72,19.72,0,0,0,2.25,4.7l.23.33a19.19,19.19,0,0,0,4.23,4.49.32.32,0,0,1,.06.44A15.6,15.6,0,0,0,64.42,33C64.37,33.09,64.33,33.23,64.28,33.36Z" fill="#26575e"/><path d="M55.28,29.93a.19.19,0,0,1-.14.05.26.26,0,0,1-.13-.06L55,29.86,50.45,25l.41-.14,4.25,4.57.18.2A.19.19,0,0,1,55.28,29.93Z" fill="#a7cbcc"/><path d="M62.31,23.87,56.84,26h-.08a.25.25,0,0,1-.18-.12.21.21,0,0,1,.12-.25l.34-.14,5-2Z" fill="#a7cbcc"/><path d="M53.24,35.77a.21.21,0,0,1-.15,0,.16.16,0,0,1-.13-.06l-.07-.06-5.51-5.76a4,4,0,0,0,.08-.48L53,35.28l.21.21A.21.21,0,0,1,53.24,35.77Z" fill="#a7cbcc"/><path d="M64.42,33c0,.13-.09.27-.14.4l-10.34.48h0a.19.19,0,0,1-.18-.19.19.19,0,0,1,.19-.2h.13Z" fill="#a7cbcc"/><path d="M51.21,42.52a.19.19,0,0,1-.14,0,.27.27,0,0,1-.14-.07v0l-5.69-6.67.19-.32a.05.05,0,0,0,0,0L51,42l.19.23A.18.18,0,0,1,51.21,42.52Z" fill="#a7cbcc"/><path d="M63.5,39.21,51.75,40.84h-.16a.2.2,0,0,1-.18-.17.19.19,0,0,1,.17-.22l.29,0,11.62-1.6C63.49,39,63.49,39.09,63.5,39.21Z" fill="#a7cbcc"/><path d="M57.81,45.59c-.42.21-.84.42-1.25.64h0l-6.32,1.25-.2,0H50a.16.16,0,0,1-.11-.05l0,0-3.28-2.77h0c-.25-.38-.49-.76-.76-1.14L49.92,47l.12.11.26-.05Z" fill="#a7cbcc"/><path d="M49.4,51.63h0a.2.2,0,0,1-.17-.22c1.4-11.31,5.77-22,10-32.31a.19.19,0,0,1,.25-.11.2.2,0,0,1,.11.26c-4.23,10.3-8.59,21-10,32.21A.19.19,0,0,1,49.4,51.63Z" fill="#a7cbcc"/><path d="M23.5,65.45a17,17,0,0,0,4.59-3.06l.29-.27A16.17,16.17,0,0,0,30.89,59a.33.33,0,0,1,.49-.06,17.42,17.42,0,0,0,5.54,3.13l1.31.5h0c.75.28,1.5.55,2.25.85a12.64,12.64,0,0,0,5.66,1,.34.34,0,0,1,.23,0h0a.32.32,0,0,1,.07.42,0,0,0,0,1,0,0,19.68,19.68,0,0,0-2.67,6.09h0c-.12.44-.24.87-.34,1.32-.23.91-.42,1.81-.61,2.7a18.36,18.36,0,0,0-.44,2.67.31.31,0,0,1-.44.28A6.94,6.94,0,0,0,38.06,78l-.37.07h0a17.55,17.55,0,0,0-5.4,2.24,4.1,4.1,0,0,0-.41.26h0a16.38,16.38,0,0,0-2.78,2.28.32.32,0,0,1-.44,0,14.06,14.06,0,0,0-2.08-1.55l-.37-.22A17.12,17.12,0,0,0,16,79a.32.32,0,0,1-.32-.48,19.56,19.56,0,0,0,2-4.82l.09-.39a19,19,0,0,0,.51-6.14.33.33,0,0,1,.29-.35,15.24,15.24,0,0,0,4.55-1.16Z" fill="#26575e"/><path d="M27,74.44a.17.17,0,0,1,.13.08.19.19,0,0,1,.05.13v.08l-.6,6.59-.37-.22.56-6.21,0-.27A.2.2,0,0,1,27,74.44Z" fill="#a7cbcc"/><path d="M17.76,73.26,23,75.88s.05,0,.07.06a.22.22,0,0,1,0,.21.21.21,0,0,1-.26.08l-.33-.17-4.85-2.41Z" fill="#a7cbcc"/><path d="M32.67,72.06a.18.18,0,0,1,.14.08.21.21,0,0,1,0,.13v.1l-.6,7.94a4.1,4.1,0,0,0-.41.26l.61-8,0-.3A.19.19,0,0,1,32.67,72.06Z" fill="#a7cbcc"/><path d="M23.11,65.61l.39-.16,7.27,7.37v0h0a.2.2,0,0,1,0,.26.19.19,0,0,1-.28,0l-.09-.1Z" fill="#a7cbcc"/><path d="M39.05,69.05a.22.22,0,0,1,.13.08.19.19,0,0,1,0,.15v0L38.06,78l-.37.07h0l1.14-8.55,0-.3A.2.2,0,0,1,39.05,69.05Z" fill="#a7cbcc"/><path d="M28.38,62.12l9.06,7.66.09.08s0,0,0,0a.18.18,0,0,1,0,.24.19.19,0,0,1-.27,0L37.05,70l-9-7.58Z" fill="#a7cbcc"/><path d="M36.92,62.1l1.31.5h0l5.15,3.87.16.12a.08.08,0,0,1,0,0,.15.15,0,0,1,0,.11v0l.14,4.3h0c-.12.44-.24.87-.34,1.32L43.26,67v-.16l-.21-.16Z" fill="#a7cbcc"/><path d="M47,64.31h0a.19.19,0,0,1,0,.27C37.65,71.11,26.78,75,16.27,78.74a.19.19,0,0,1-.25-.12.2.2,0,0,1,.12-.25c10.48-3.74,21.33-7.61,30.63-14.1A.2.2,0,0,1,47,64.31Z" fill="#a7cbcc"/><path d="M176.83,118.21a5.78,5.78,0,0,1-4.42-6.73,5.51,5.51,0,0,1,6.79-4,5.77,5.77,0,0,1,4.41,6.73A5.51,5.51,0,0,1,176.83,118.21Z" fill="#f56a58"/><path d="M170.57,128.13a5.77,5.77,0,0,1-4.41-6.73,5.5,5.5,0,0,1,6.78-4,5.77,5.77,0,0,1,4.42,6.73A5.51,5.51,0,0,1,170.57,128.13Z" fill="#f56a58"/><path d="M180.82,116.92c-.29-.18-.12-1,.38-1.79s1.14-1.32,1.44-1.15.12,1-.38,1.79S181.12,117.09,180.82,116.92Z" fill="#44182c"/><path d="M176.24,124.38c-.34,0-.67-.76-.73-1.72s.17-1.74.51-1.75.66.76.72,1.72S176.58,124.38,176.24,124.38Z" fill="#44182c"/><path d="M191.31,120c.49-.15,1-.29,1.46-.46v22.65c-.13-.12-.25-.23-.38-.33l-.32-.26a17.11,17.11,0,0,0-4.89-2.58l-.37-.11a16.45,16.45,0,0,0-3.92-.74.32.32,0,0,1-.28-.4,17.82,17.82,0,0,0,.1-6.35c-.07-.48-.13-.93-.2-1.4-.11-.81-.23-1.6-.34-2.39a12.51,12.51,0,0,0-1.79-5.47.32.32,0,0,1-.07-.22h0a.34.34,0,0,1,.31-.27h.06a19.53,19.53,0,0,0,6.62-.57h0l1.33-.33C189.55,120.5,190.43,120.23,191.31,120Z" fill="#26575e"/><path d="M192.07,141.57l.7-2.33v1.32l-.38,1.27Z" fill="#a7cbcc"/><path d="M192.77,124.08v.41l-4.44,1.7-.28.11a.2.2,0,0,1-.26-.11.19.19,0,0,1,0-.15.27.27,0,0,1,.11-.1l0,0Z" fill="#a7cbcc"/><path d="M186.81,138.88l2.39-11.62,0-.12s0,0,0,0a.18.18,0,0,1,.22-.11.2.2,0,0,1,.15.23l-.06.29L187.18,139A2.65,2.65,0,0,0,186.81,138.88Z" fill="#a7cbcc"/><path d="M182.7,131.38l-.18-1.39h0l.94-6.38,0-.2s0,0,0-.05a.14.14,0,0,1,.08-.09l0,0,3.71-2.17h0c.45-.1.88-.21,1.33-.33L184,123.47l-.15.08,0,.26Z" fill="#a7cbcc"/><path d="M189.52,127c1.11.76,2.18,1.55,3.25,2.36v.49c-1.05-.8-2.12-1.6-3.21-2.34h0l-.36-.25c-1.75-1.22-3.54-2.38-5.39-3.45a2.72,2.72,0,0,0-.37-.2h0c-1-.59-2.07-1.16-3.13-1.69a3.78,3.78,0,0,0-.4-.22.19.19,0,0,1-.1-.25h0a.19.19,0,0,1,.26-.1l.55.29c1,.51,2,1.05,3,1.61a4,4,0,0,1,.39.23q2,1.17,3.94,2.45l.4.27Z" fill="#a7cbcc"/><path d="M175.44,92.41a16.78,16.78,0,0,0,1.35,5.35l.16.36a16.62,16.62,0,0,0,2.07,3.4.32.32,0,0,1-.1.48,17.23,17.23,0,0,0-4.8,4.18l-.91,1.07h0c-.52.61-1,1.24-1.55,1.84a12.79,12.79,0,0,0-2.86,5,.35.35,0,0,1-.13.2h0a.33.33,0,0,1-.42-.07s0,0,0,0a19.66,19.66,0,0,0-4.85-4.55h0c-.37-.26-.74-.52-1.13-.77-.78-.51-1.57-1-2.34-1.47a18.19,18.19,0,0,0-2.37-1.3.32.32,0,0,1-.12-.51,6.89,6.89,0,0,0,1.37-3.65c0-.12,0-.25.05-.37s0,0,0,0a17.38,17.38,0,0,0-.31-5.84,3.72,3.72,0,0,0-.11-.48h0a16.54,16.54,0,0,0-1.22-3.39.31.31,0,0,1,.13-.41A14,14,0,0,0,159.47,90l.33-.28a17.09,17.09,0,0,0,5.42-8.87.32.32,0,0,1,.56-.14,19.5,19.5,0,0,0,3.88,3.49l.34.22a19.27,19.27,0,0,0,5.62,2.54.3.3,0,0,1,.22.38,15.69,15.69,0,0,0-.42,4.68C175.42,92.13,175.44,92.27,175.44,92.41Z" fill="#26575e"/><path d="M165.81,92.67a.16.16,0,0,1-.11.09.17.17,0,0,1-.14,0l-.08,0-6-2.76.33-.28,5.67,2.6.25.12A.19.19,0,0,1,165.81,92.67Z" fill="#a7cbcc"/><path d="M170,84.39l-4.23,4.09-.08,0a.22.22,0,0,1-.2,0,.19.19,0,0,1,0-.27l.27-.26,3.89-3.77Z" fill="#a7cbcc"/><path d="M166.15,98.84A.21.21,0,0,1,166,99a.17.17,0,0,1-.14,0l-.09,0-7.29-3.22a3.72,3.72,0,0,0-.11-.48l7.37,3.26.28.12A.2.2,0,0,1,166.15,98.84Z" fill="#a7cbcc"/><path d="M175.42,92c0,.14,0,.28,0,.42l-9.38,4.38h0a.2.2,0,0,1-.23-.1.19.19,0,0,1,.09-.26l.12-.06Z" fill="#a7cbcc"/><path d="M166.85,105.86a.16.16,0,0,1-.12.09.19.19,0,0,1-.15,0h0l-7.8-4c0-.12,0-.25.05-.37s0,0,0,0l7.68,3.93.26.14A.19.19,0,0,1,166.85,105.86Z" fill="#a7cbcc"/><path d="M177,98.12l-10.24,6-.11.06,0,0a.2.2,0,0,1-.23-.09.21.21,0,0,1,.07-.27l.26-.15,10.13-5.91Z" fill="#a7cbcc"/><path d="M174.12,106.18l-.91,1.07h0l-5.37,3.56-.17.12,0,0a.24.24,0,0,1-.12,0h0l-4.1-1.31h0c-.37-.26-.74-.52-1.13-.77l5.15,1.64.15,0,.23-.14Z" fill="#a7cbcc"/><path d="M168.65,115h0a.2.2,0,0,1-.24-.13c-3-11-3.05-22.53-3.07-33.69a.18.18,0,0,1,.19-.19.19.19,0,0,1,.2.19c0,11.13.05,22.65,3.06,33.58A.2.2,0,0,1,168.65,115Z" fill="#a7cbcc"/><path d="M97.09,10.25c-3.92,2-6.65.24-6.91.07l0,0,1.17-3.24c1.48-.15,3-.26,4.46-.34L97,10.08Z" fill="#ffc97d"/><path d="M119.51,36.57a24.81,24.81,0,0,1-1.29,6.53,25.09,25.09,0,0,1-4.08,7.51l-.55.66a25.12,25.12,0,0,1-3.24,3.2l-.78.61A25.11,25.11,0,0,1,77.5,53.54c-.25-.23-.49-.45-.73-.69a23.88,23.88,0,0,1-2.06-2.32c-.18-.22-.34-.45-.51-.67a24.88,24.88,0,0,1-4.59-11.24,27.13,27.13,0,0,1-.25-3.15,25.59,25.59,0,0,1,.3-4.31,24.91,24.91,0,0,1,4-10.22c.15-.23.31-.46.48-.68a23.7,23.7,0,0,1,2.24-2.66c.21-.22.43-.43.64-.64a25.09,25.09,0,0,1,34.34-.43l.66.63a24.2,24.2,0,0,1,2.28,2.57c.17.23.35.46.52.7a25,25,0,0,1,4.4,10.79,25.42,25.42,0,0,1,.29,3.4C119.57,35.27,119.55,35.93,119.51,36.57Z" fill="#f56a58"/><path d="M112.06,17.16a82.4,82.4,0,0,1-18.84,2.18,81.9,81.9,0,0,1-16.8-1.74c.21-.22.43-.43.64-.64a82,82,0,0,0,34.34-.43Z" fill="#f7f0e7"/><path d="M110.35,54.47l-.78.61A105.25,105.25,0,0,0,77.5,53.54c-.25-.23-.49-.45-.73-.69A105.78,105.78,0,0,1,110.35,54.47Z" fill="#f7f0e7"/><path d="M114.86,20.43l-2.59.32a190.07,190.07,0,0,1-22.6,1.84h-.13A69.8,69.8,0,0,1,73.7,20.94c.15-.23.31-.46.48-.68a69.41,69.41,0,0,0,15.36,1.57h.12A191.18,191.18,0,0,0,112.18,20l2.16-.26C114.51,20,114.69,20.19,114.86,20.43Z" fill="#f7f0e7"/><path d="M114.14,50.61l-.55.66a91.69,91.69,0,0,0-38.88-.74c-.18-.22-.34-.45-.51-.67A92.48,92.48,0,0,1,114.14,50.61Z" fill="#f7f0e7"/><path d="M119.51,36.57a24.81,24.81,0,0,1-1.29,6.53,400.71,400.71,0,0,0-47.29.71,25,25,0,0,1-1.32-5.19,27.13,27.13,0,0,1-.25-3.15,25.59,25.59,0,0,1,.3-4.31A24.72,24.72,0,0,1,71.06,26a172.64,172.64,0,0,0,46.42-.9,25,25,0,0,1,1.78,6.17,25.42,25.42,0,0,1,.29,3.4C119.57,35.27,119.55,35.93,119.51,36.57Z" fill="#f7f0e7"/><polygon points="89.45 34.7 95.77 30.52 102.04 34.46 95.62 38.21 89.45 34.7" fill="#ffc97d"/><polygon points="102.24 34.36 108.56 30.18 114.83 34.12 108.41 37.87 102.24 34.36" fill="#ffc97d"/><path d="M119.51,36.57,115,34l4.23-2.8a25.42,25.42,0,0,1,.29,3.4C119.57,35.27,119.55,35.93,119.51,36.57Z" fill="#ffc97d"/><polygon points="76.46 34.95 82.78 30.77 89.06 34.7 82.64 38.45 76.46 34.95" fill="#ffc97d"/><path d="M76.17,35l-6.42,3.74-.14-.07a27.13,27.13,0,0,1-.25-3.15,25.59,25.59,0,0,1,.3-4.31l.23-.15Z" fill="#ffc97d"/><g opacity="0.35"><path d="M119.56,34.62c0,.65,0,1.31,0,1.94a24.79,24.79,0,0,1-1.28,6.54,25.49,25.49,0,0,1-4.08,7.52c-.18.21-.36.44-.56.66a23.83,23.83,0,0,1-3.25,3.18c-.24.22-.5.42-.76.62a25.06,25.06,0,0,1-32.07-1.55,9.33,9.33,0,0,1-.73-.68,22.62,22.62,0,0,1-2.06-2.32c-.18-.21-.36-.45-.52-.67-.38-.53-.74-1.07-1.09-1.63a25.11,25.11,0,0,0,32,1.49c.27-.2.52-.41.77-.62a25.7,25.7,0,0,0,3.25-3.18l.55-.68a25.15,25.15,0,0,0,5.37-14c0-.64,0-1.29,0-1.94a27,27,0,0,0-.29-3.4A25.47,25.47,0,0,0,113,19.69a24.2,24.2,0,0,0-1.68-3.19l0,0c.23.2.44.41.67.62a25.13,25.13,0,0,1,2.27,2.57c.18.23.35.46.52.7a25,25,0,0,1,4.41,10.8A28.86,28.86,0,0,1,119.56,34.62Z" fill="#44182c"/></g><path d="M13.79,180.72c-.09,0-.53.09-1.21.23-1,.19-2.56.51-4.24,1v.56c1.82-.48,3.49-.82,4.51-1h0l0,0a53.35,53.35,0,0,1-4.52,4.18v.69A51.09,51.09,0,0,0,13.13,182l.64-.68.11,0Z" fill="#ffc97d"/><path d="M19.16,182.39s.63-3.39-3-6.25l-4,4.07,1.51,2.69Z" fill="#ffc97d"/><path d="M30.41,144.64a25.09,25.09,0,0,1,15-1.12l.84.21a25.17,25.17,0,0,1,4.27,1.58c.3.13.59.28.89.44a25.09,25.09,0,0,1,12.27,29.67c-.1.32-.2.63-.31,1a24.67,24.67,0,0,1-1.22,2.85c-.12.25-.26.5-.4.75a24.83,24.83,0,0,1-4.08,5.54,24.44,24.44,0,0,1-4.13,3.4,27.08,27.08,0,0,1-2.74,1.57A25.41,25.41,0,0,1,41.46,193a24.86,24.86,0,0,1-5.66-.26c-.27,0-.55-.08-.82-.14a25.55,25.55,0,0,1-3.36-.89l-.85-.31a25.06,25.06,0,0,1-15-30.88c.09-.29.18-.57.28-.86a25.87,25.87,0,0,1,1.35-3.16c.13-.26.27-.51.42-.77a24.67,24.67,0,0,1,7.89-8.58,24.27,24.27,0,0,1,2.94-1.71C29.22,145.15,29.82,144.88,30.41,144.64Z" fill="#a7cbcc"/><path d="M16,159.66a82.09,82.09,0,0,1,10,16.11,81.91,81.91,0,0,1,5.59,15.94l-.85-.31a81.92,81.92,0,0,0-15-30.88C15.84,160.23,15.93,160,16,159.66Z" fill="#f7f0e7"/><path d="M50.51,145.31c.3.13.59.28.89.44a105.28,105.28,0,0,0,12.27,29.67c-.1.32-.2.63-.31,1A105.92,105.92,0,0,1,50.51,145.31Z" fill="#f7f0e7"/><path d="M17.8,155.73l1.39,2.2a194.07,194.07,0,0,1,11.3,19.67l.05.12a69.15,69.15,0,0,1,5.26,15c-.27,0-.55-.08-.82-.14A69,69,0,0,0,29.85,178l-.05-.11a188.84,188.84,0,0,0-11.26-19.59l-1.16-1.84C17.51,156.24,17.65,156,17.8,155.73Z" fill="#f7f0e7"/><path d="M45.4,143.52l.84.21a91.58,91.58,0,0,0,15.9,35.49c-.12.25-.26.5-.4.75A92.57,92.57,0,0,1,45.4,143.52Z" fill="#f7f0e7"/><path d="M30.41,144.64A24.89,24.89,0,0,1,36.87,143a402.5,402.5,0,0,0,20.79,42.49,24.44,24.44,0,0,1-4.13,3.4,27.08,27.08,0,0,1-2.74,1.57A25.41,25.41,0,0,1,41.46,193a173.44,173.44,0,0,0-20.6-41.62,24.9,24.9,0,0,1,4.83-4.23,24.27,24.27,0,0,1,2.94-1.71C29.22,145.15,29.82,144.88,30.41,144.64Z" fill="#f7f0e7"/><polygon points="41.54 172.63 35.06 168.7 35.95 161.34 42.08 165.56 41.54 172.63" fill="#ffc97d"/><polygon points="35.78 161.21 29.3 157.27 30.19 149.92 36.32 154.13 35.78 161.21" fill="#ffc97d"/><path d="M30.41,144.64,30,149.78l-4.33-2.63a24.27,24.27,0,0,1,2.94-1.71C29.22,145.15,29.82,144.88,30.41,144.64Z" fill="#ffc97d"/><polygon points="47.29 184.28 40.82 180.34 41.71 172.99 47.83 177.2 47.29 184.28" fill="#ffc97d"/><path d="M47.42,184.54l6.12,4.22v.15a27.08,27.08,0,0,1-2.74,1.57,24.18,24.18,0,0,1-4,1.56l-.24-.14Z" fill="#ffc97d"/><g opacity="0.38"><path d="M28.63,145.43c.59-.28,1.19-.56,1.78-.79a25.2,25.2,0,0,1,15-1.13l.83.22a23.3,23.3,0,0,1,4.27,1.58c.3.13.59.27.89.43a25.09,25.09,0,0,1,12.26,29.67,8.1,8.1,0,0,1-.31,1,21.06,21.06,0,0,1-1.22,2.85,6.65,6.65,0,0,1-.39.75c-.31.58-.64,1.14-1,1.68a25.07,25.07,0,0,0-12.3-29.58c-.29-.16-.59-.3-.89-.43A24.28,24.28,0,0,0,43.29,150l-.85-.21a25.06,25.06,0,0,0-8.52-.5A25.4,25.4,0,0,0,27.45,151c-.59.23-1.19.5-1.77.79a25.81,25.81,0,0,0-2.95,1.71,24.41,24.41,0,0,0-7,7.11s0,0,0-.06c.09-.29.18-.57.28-.86a24.46,24.46,0,0,1,1.36-3.16c.12-.26.26-.51.4-.77a25.7,25.7,0,0,1,3.07-4.35,25.24,25.24,0,0,1,4.83-4.23A26.55,26.55,0,0,1,28.63,145.43Z" fill="#44182c"/></g><path d="M192.77,157.65v39.93H173.08l-.35.28-.12.09,0-.18-.31-.19h-9.1c0,.14-.11.27-.17.41l-.47-.41a24.64,24.64,0,0,1-2.62-2.59c-.47-.55-.9-1.1-1.33-1.67-.22-.3-.42-.59-.61-.89s-.39-.59-.57-.89l-.22-.37a2.71,2.71,0,0,1-.22-.38c-.36-.65-.71-1.34-1-2s-.59-1.41-.83-2.13c-.11-.31-.21-.63-.3-.95-.18-.57-.32-1.15-.46-1.73a25,25,0,0,1,.84-13.8c.28-.79.59-1.54.94-2.29a25.12,25.12,0,0,1,3.19-5.11,21.7,21.7,0,0,1,1.57-1.76c.14-.14.26-.28.4-.41.35-.34.72-.67,1.08-1s.75-.63,1.13-.93c.62-.48,1.27-.92,1.92-1.34l1-.6c.34-.19.68-.38,1-.55s.6-.3.89-.44c.71-.33,1.43-.62,2.16-.88.25-.08.49-.17.74-.24l.26-.09h0l.21-.06h0l.26-.08c.31-.08.63-.17.94-.23l1-.22a24.58,24.58,0,0,1,10.24.08,28.11,28.11,0,0,1,3,.85,23.78,23.78,0,0,1,3.93,1.8C191.7,157,192.25,157.29,192.77,157.65Z" fill="#bc606d"/><path d="M192.77,186.42v2.63a80.45,80.45,0,0,0-2,8.53H190A80.73,80.73,0,0,1,192.77,186.42Z" fill="#f7f0e7"/><path d="M155.11,186.64c-.11-.31-.21-.62-.31-.95a105.27,105.27,0,0,0,12.64-29.51c.3-.16.59-.3.9-.44A106.16,106.16,0,0,1,155.11,186.64Z" fill="#f7f0e7"/><path d="M192.77,176.88V179a174,174,0,0,0-5.33,18.55h-.77a171.94,171.94,0,0,1,5.53-19.2l0-.13C192.41,177.79,192.59,177.33,192.77,176.88Z" fill="#f7f0e7"/><path d="M157.4,191.54c-.15-.24-.29-.49-.43-.75a91.59,91.59,0,0,0,14.26-36.18l.81-.24A92.44,92.44,0,0,1,157.4,191.54Z" fill="#f7f0e7"/><path d="M192.77,157.65v7.81a172.33,172.33,0,0,0-11.24,32.12h-8.45l-.35.28-.12.09,0-.18-.31-.19h-9.1c.84-2,1.66-4,2.46-6a398.36,398.36,0,0,0,13.22-38.21,24.21,24.21,0,0,1,5.32.58,28.11,28.11,0,0,1,3,.85,23.78,23.78,0,0,1,3.93,1.8C191.7,157,192.25,157.29,192.77,157.65Z" fill="#f7f0e7"/><polygon points="180.92 173.95 182.63 181.33 176.75 185.84 175.48 178.51 180.92 173.95" fill="#ffc97d"/><polygon points="178.49 193.44 173.08 197.59 172.73 197.86 172.61 197.95 172.58 197.77 172.54 197.59 171.34 190.62 176.78 186.06 178.49 193.44" fill="#ffc97d"/><polygon points="185.22 161.69 186.94 169.08 181.06 173.58 179.78 166.26 185.22 161.69" fill="#ffc97d"/><path d="M185.32,161.42l-1.27-7.32.12-.11a26.11,26.11,0,0,1,3,.87,24.55,24.55,0,0,1,3.93,1.78l.06.27Z" fill="#ffc97d"/><g opacity="0.38"><path d="M169.58,195.68a22.9,22.9,0,0,0,2.69,1.9h-9.1c0,.14-.11.27-.17.41l-.47-.41a24.64,24.64,0,0,1-2.62-2.59c-.47-.55-.9-1.1-1.33-1.67-.22-.3-.42-.59-.61-.89s-.4-.58-.58-.88c-.06-.13-.14-.25-.21-.38a2.71,2.71,0,0,1-.22-.38c-.36-.65-.71-1.34-1-2a21.31,21.31,0,0,1-.83-2.13c-.11-.31-.22-.62-.31-.94a17.78,17.78,0,0,1-.45-1.74,25,25,0,0,1,.84-13.8c.28-.79.59-1.54.94-2.29a25.12,25.12,0,0,1,3.19-5.11,21.7,21.7,0,0,1,1.57-1.76c.14-.14.26-.28.4-.41.35-.34.72-.67,1.08-1s.75-.63,1.13-.93c.62-.47,1.27-.92,1.92-1.34l1-.6c.34-.18.68-.37,1-.54s.6-.3.89-.44c.71-.33,1.43-.63,2.16-.89l.74-.23.26-.1h0l.21-.06h0l.25-.07h0c.31-.09.62-.17.94-.24l1-.22c-.68.35-1.35.74-2,1.16-.29.18-.58.38-.87.58a23,23,0,0,0-3.47,2.92h0c-.39.4-.76.81-1.14,1.24a25.22,25.22,0,0,0-4.65,8,25.77,25.77,0,0,0-1.43,7.76c0,.56,0,1.12,0,1.67a24.79,24.79,0,0,0,1,6.09s0,0,0,.05h0c.08.3.19.6.29.88a.36.36,0,0,0,0,.11,24.11,24.11,0,0,0,1.82,4.05c.14.26.29.5.42.76a26,26,0,0,0,1.66,2.38A24.4,24.4,0,0,0,169.58,195.68Z" fill="#44182c"/></g><path d="M172.58,197.77l.15.09-.12.09Z" fill="#44182c"/><path d="M149.64,94.13a.39.39,0,0,1-.28-.12L138.31,83a.4.4,0,0,1,0-.56.4.4,0,0,1,.57,0l11.05,11a.4.4,0,0,1,0,.56A.4.4,0,0,1,149.64,94.13Z" fill="#fff"/><path d="M144.12,96.42a.4.4,0,0,1-.4-.4V80.39a.4.4,0,1,1,.8,0V96A.4.4,0,0,1,144.12,96.42Z" fill="#fff"/><path d="M138.59,94.13a.39.39,0,0,1-.28-.12.4.4,0,0,1,0-.56l11.05-11a.4.4,0,0,1,.57,0,.4.4,0,0,1,0,.56L138.88,94A.4.4,0,0,1,138.59,94.13Z" fill="#fff"/><path d="M151.93,88.6H136.31a.4.4,0,0,1,0-.8h15.62a.4.4,0,0,1,0,.8Z" fill="#fff"/><path d="M61.79,106.68a.39.39,0,0,1-.28-.12l-11-11a.39.39,0,0,1,0-.56A.4.4,0,0,1,51,95l11,11a.39.39,0,0,1,0,.56A.38.38,0,0,1,61.79,106.68Z" fill="#fff"/><path d="M56.27,109a.4.4,0,0,1-.4-.4V92.94a.4.4,0,1,1,.8,0v15.63A.4.4,0,0,1,56.27,109Z" fill="#fff"/><path d="M50.74,106.68a.39.39,0,0,1-.28-.12.39.39,0,0,1,0-.56l11-11a.4.4,0,0,1,.56.56l-11,11A.42.42,0,0,1,50.74,106.68Z" fill="#fff"/><path d="M64.08,101.15H48.45a.39.39,0,0,1-.4-.4.4.4,0,0,1,.4-.4H64.08a.4.4,0,0,1,.4.4A.39.39,0,0,1,64.08,101.15Z" fill="#fff"/><path d="M124.27,185.53a.38.38,0,0,1-.28-.12l-11-11a.4.4,0,0,1,0-.57.4.4,0,0,1,.56,0l11,11.05a.4.4,0,0,1,0,.57A.38.38,0,0,1,124.27,185.53Z" fill="#fff"/><path d="M118.75,187.82a.4.4,0,0,1-.41-.4V171.79a.41.41,0,0,1,.81,0v15.63A.4.4,0,0,1,118.75,187.82Z" fill="#fff"/><path d="M113.22,185.53a.41.41,0,0,1-.28-.69l11-11.05a.4.4,0,0,1,.56,0,.4.4,0,0,1,0,.57l-11,11A.38.38,0,0,1,113.22,185.53Z" fill="#fff"/><path d="M126.56,180H110.93a.4.4,0,0,1,0-.8h15.63a.4.4,0,1,1,0,.8Z" fill="#fff"/><path d="M23,106.48a3,3,0,1,1-3-3A3,3,0,0,1,23,106.48Z" fill="#fff"/><circle cx="177.68" cy="71.29" r="3" fill="#fff"/><path d="M66.63,71.29a3,3,0,1,1-3-3A3,3,0,0,1,66.63,71.29Z" fill="#fff"/><path d="M75.5,179.74a3,3,0,1,1-3-3A3,3,0,0,1,75.5,179.74Z" fill="#fff"/><path d="M153.26,36.77a3,3,0,1,1-3-3A3,3,0,0,1,153.26,36.77Z" fill="#fff"/><path d="M165.4,141.68a3,3,0,1,1-3-3A3,3,0,0,1,165.4,141.68Z" fill="#fff"/></g></svg>