<svg xmlns="http://www.w3.org/2000/svg" viewBox="0 0 196.66 211.72"><g id="OBJECTS"><path d="M5.67,211.72A5.67,5.67,0,0,1,0,206V97.11A97.59,97.59,0,0,1,9.83,55.32,99.13,99.13,0,0,1,65,5.79c2.74-1,5.59-1.88,8.45-2.62A99.06,99.06,0,0,1,98.33,0c3.19,0,6.35.15,9.4.45.41,0,.82.07,1.23.13a97.36,97.36,0,0,1,33.52,9.85l.74.38,1.11.58c.75.4,1.47.78,2.18,1.19a97.65,97.65,0,0,1,8.28,5.2l.32.23c.23.15.45.31.68.48,2.14,1.54,4.27,3.19,6.3,4.92,1,.89,2,1.73,2.91,2.6l.68.63.17.16c.68.63,1.36,1.28,2,1.94s1.56,1.59,2.31,2.4c1.29,1.36,2.56,2.8,3.75,4.24.2.24.44.52.66.8l.09.11A98.17,98.17,0,0,1,190.55,64a95.19,95.19,0,0,1,3.18,10.27,97.61,97.61,0,0,1,2.93,23.85V206a5.67,5.67,0,0,1-5.67,5.68Z" fill="#fffdff"/><path d="M190.49,98V205.86H5.57V98.56c0-.55,0-1.09,0-1.63A91.88,91.88,0,0,1,10.47,68.2a88.8,88.8,0,0,1,4.34-10.57A92.66,92.66,0,0,1,66.7,11c2.6-.95,5.24-1.77,7.94-2.47A92.5,92.5,0,0,1,98,5.49q4.52,0,8.92.44c.33,0,.67.05,1,.1a91.47,91.47,0,0,1,31.59,9.29l.66.34,1.09.56c.67.36,1.34.72,2,1.1a90.12,90.12,0,0,1,7.82,4.92c.3.22.61.42.91.65,2,1.47,4,3,6,4.66.94.81,1.85,1.62,2.75,2.46l.6.56.18.17c.64.59,1.28,1.21,1.9,1.83s1.46,1.49,2.16,2.24q1.83,1.95,3.53,4c.21.25.42.49.61.74l.08.1a92.4,92.4,0,0,1,15,26.16,87.69,87.69,0,0,1,3,9.65A92.12,92.12,0,0,1,190.49,98Z" fill="#6f9aff"/><path d="M96.67,92.22a18.15,18.15,0,0,0-22.4,12L84,107.06a8,8,0,0,1,15.41,4.51l9.69,2.84A18.13,18.13,0,0,0,96.67,92.22Z" fill="#ff80a6"/><path d="M83.38,13.81A18.13,18.13,0,0,0,65.26,31.62h10.1a8,8,0,0,1,16,0h10.1A18.14,18.14,0,0,0,83.38,13.81Z" fill="#ffca63"/><path d="M79.72,201.33a8,8,0,0,1-3.67-15.62l-2.32-9.83a18.13,18.13,0,0,0-8.74,30h15.8Z" fill="#ffca63"/><path d="M7.88,134.15a19.44,19.44,0,0,0-2.31.74v12.5A8,8,0,0,1,10.18,144Zm6,25.45A8,8,0,0,1,5.57,156v12.49a17.93,17.93,0,0,0,10.62.9Z" fill="#aa4346"/><path d="M175.79,47.92a92.16,92.16,0,0,0-6-8.27l-.08-.1a17.38,17.38,0,0,0-1.87,2.13,18.13,18.13,0,0,0,3.36,25.18l6.06-8.08A8,8,0,0,1,175.79,47.92Z" fill="#ff80a6"/><path d="M185.11,157.65a18.13,18.13,0,0,0-20.8,14.58l10,1.67a8,8,0,0,1,15.83,2.63l.39.07V159.45A18,18,0,0,0,185.11,157.65Z" fill="#ff8878"/><path d="M14.81,57.63A88.8,88.8,0,0,0,10.47,68.2a8,8,0,0,1,9.73,3.34l8.85-4.88A18.11,18.11,0,0,0,14.81,57.63Z" fill="#ff8878"/><path d="M49.61,43l-2.37,1.11a4.84,4.84,0,0,0-2.36,2.36l-1.11,2.37a.33.33,0,0,1-.59,0l-1.11-2.37a4.84,4.84,0,0,0-2.36-2.36L37.33,43a.33.33,0,0,1,0-.59l2.38-1.11a4.84,4.84,0,0,0,2.36-2.36l1.11-2.38a.33.33,0,0,1,.59,0l1.11,2.38a4.84,4.84,0,0,0,2.36,2.36l2.37,1.11A.33.33,0,0,1,49.61,43Z" fill="#fff0e1"/><path d="M155.51,54.56l-2.38,1.1A4.92,4.92,0,0,0,150.77,58l-1.1,2.38a.33.33,0,0,1-.6,0L148,58a4.92,4.92,0,0,0-2.36-2.36l-2.38-1.1a.33.33,0,0,1,0-.6l2.38-1.1A4.92,4.92,0,0,0,148,50.5l1.1-2.38a.33.33,0,0,1,.6,0l1.1,2.38a4.92,4.92,0,0,0,2.36,2.36l2.38,1.1A.33.33,0,0,1,155.51,54.56Z" fill="#fff0e1"/><path d="M85.34,117.32,83,118.43a4.88,4.88,0,0,0-2.36,2.36l-1.1,2.37a.33.33,0,0,1-.6,0l-1.1-2.37a4.88,4.88,0,0,0-2.36-2.36l-2.38-1.11a.33.33,0,0,1,0-.59l2.38-1.11a4.88,4.88,0,0,0,2.36-2.36l1.1-2.37a.33.33,0,0,1,.6,0l1.1,2.37A4.88,4.88,0,0,0,83,115.62l2.38,1.11A.33.33,0,0,1,85.34,117.32Z" fill="#fff0e1"/><path d="M21.93,102.19l-2.38,1.11a4.88,4.88,0,0,0-2.36,2.36L16.09,108a.33.33,0,0,1-.59,0l-1.11-2.38A4.84,4.84,0,0,0,12,103.3l-2.38-1.11a.33.33,0,0,1,0-.59L12,100.49a4.82,4.82,0,0,0,2.36-2.35l1.11-2.38a.33.33,0,0,1,.59,0l1.1,2.38a4.86,4.86,0,0,0,2.36,2.35l2.38,1.11A.33.33,0,0,1,21.93,102.19Z" fill="#fff0e1"/><path d="M188.34,192,186,193.1a4.92,4.92,0,0,0-2.36,2.36l-1.1,2.38a.33.33,0,0,1-.6,0l-1.1-2.38a4.92,4.92,0,0,0-2.36-2.36l-2.38-1.1a.33.33,0,0,1,0-.6l2.38-1.1a4.92,4.92,0,0,0,2.36-2.36l1.1-2.38a.33.33,0,0,1,.6,0l1.1,2.38A4.92,4.92,0,0,0,186,190.3l2.38,1.1A.33.33,0,0,1,188.34,192Z" fill="#fff0e1"/><path d="M24.51,196.82l-2.38,1.11a4.84,4.84,0,0,0-2.36,2.36l-1.11,2.38a.33.33,0,0,1-.59,0L17,200.29a4.84,4.84,0,0,0-2.36-2.36l-2.37-1.11a.33.33,0,0,1,0-.59l2.37-1.1A4.88,4.88,0,0,0,17,192.77l1.11-2.38a.33.33,0,0,1,.59,0l1.11,2.38a4.88,4.88,0,0,0,2.36,2.36l2.38,1.1A.33.33,0,0,1,24.51,196.82Z" fill="#fff0e1"/><path d="M182.36,88.7l-8.7,102.94a7.34,7.34,0,0,1-8.08,6.68l-33.25-3.51-.47-.05-11.39-1.2-.47-.05L86.34,190a7.34,7.34,0,0,1-6.43-8.68L99,82.59l18.42-7.93.26-.12a1.76,1.76,0,0,1,0-.22h0c0-.21,0-.55,0-1,0-.14,0-.29,0-.45s.08-.47.12-.72a2.09,2.09,0,0,1,0-.21c0-.09,0-.19.07-.29s.11-.4.18-.61l.13-.39a8.73,8.73,0,0,1,.6-1.29c.06-.12.13-.24.2-.36l.11-.16a5.21,5.21,0,0,1,.44-.64A8.94,8.94,0,0,1,120.73,67a7.88,7.88,0,0,1,.75-.64,14.06,14.06,0,0,1,5.58-2.45c.58-.12,1.2-.23,1.87-.32,9.41-1.24,25.5-1,32.11,5.71a9.94,9.94,0,0,1,3,7.58,1.77,1.77,0,0,1,0,.23l.23.15Z" fill="#fff0e1"/><path d="M164,77.11,160.3,81.8l-23.65,29.83L119.52,78.16l-1.36-2.66-.49-1s-1-9.34,11.26-11S164.66,63,164,77.11Z" fill="#f1bfc9"/><path d="M160.3,81.8l-23.65,29.83L119.52,78.16c.83-.75,7.72-6.56,20.68-4.75C151.87,75,158.51,80.22,160.3,81.8Z" fill="#aa4346"/><circle cx="136.25" cy="117.91" r="2.49" fill="#aa4346"/><path d="M136.49,134.65a2.49,2.49,0,1,1-2.49-2.5A2.48,2.48,0,0,1,136.49,134.65Z" fill="#aa4346"/><circle cx="131.59" cy="152.67" r="2.49" fill="#aa4346"/><path d="M131.83,169.65a2.5,2.5,0,1,1-2.5-2.49A2.5,2.5,0,0,1,131.83,169.65Z" fill="#aa4346"/><circle cx="127.48" cy="185.83" r="2.49" fill="#aa4346"/><path d="M109.94,114.37a.31.31,0,0,1-.16-.06.25.25,0,0,1-.07-.23c2.64-13.4,7.66-38.91,7.72-39.55a.25.25,0,0,1,.25-.22.24.24,0,0,1,.22.23c0,.48-6.57,33.75-7.65,39.24l23.76-7.6a.23.23,0,0,1,.29.15.23.23,0,0,1-.15.3L110,114.35Z" fill="#aa4346"/><path d="M161.12,119.84a.28.28,0,0,1-.13,0l-20-13.36a.24.24,0,0,1-.07-.33.23.23,0,0,1,.33-.06l19.62,13.13,2.87-42.08a.24.24,0,1,1,.47,0l-2.9,42.49a.21.21,0,0,1-.13.19A.19.19,0,0,1,161.12,119.84Z" fill="#aa4346"/><path d="M131.58,107.32l0,.14-11.09,86.1-.47-.05,11.06-85.88.05-.37a.23.23,0,0,1,.26-.2A.23.23,0,0,1,131.58,107.32Z" fill="#aa4346"/><path d="M145.09,108.77l-.05.36-12.71,85.68-.47-.05,12.75-85.92,0-.14a.23.23,0,1,1,.46.07Z" fill="#aa4346"/><path d="M123.65,135.39a.24.24,0,0,0-.16-.09l-27.68-3.39a.25.25,0,0,0-.27.21l-.81,6.41,0,.41-2.84,22.31a.24.24,0,0,0,.08.21l10.13,9.17a.27.27,0,0,0,.17.06.16.16,0,0,0,.09,0l15.61-6.92a.21.21,0,0,0,.13-.17l4.16-20.69a0,0,0,0,0,0,0l0-.09,1.45-7.19A.22.22,0,0,0,123.65,135.39Zm-1.83,7.11-.1.47-4.1,20.4-15.36,6.81-9.93-9L95.14,139l.06-.47h0l.78-6.14,27.2,3.31Z" fill="#aa4346"/><path d="M122,143h0l-27.2-4a.24.24,0,0,1-.2-.27.23.23,0,0,1,.27-.2l27.19,4a.24.24,0,0,1,.2.27A.22.22,0,0,1,122,143Z" fill="#aa4346"/><path d="M53.38,83.37l-.44.21L5.57,106V98.56a86.17,86.17,0,0,1,.88-12.31L44.5,68.13l.39-.18,2.86,5.2,2.79,5.07Z" fill="#aa4346"/><rect x="73.62" y="35.24" width="78.02" height="14.62" transform="translate(-7.03 55.87) rotate(-27.05)" fill="#aa4346"/><g opacity="0.35"><path d="M75.67,53.22l5-2.56a22.08,22.08,0,0,1,2.72,4.69c1.32,2.76,2.66,5.54,4,8.3l-4.74,2.42c-1.37-.63-2.3-3.06-3-4.21A42,42,0,0,1,75.67,53.22Z" fill="#3c2238"/></g><rect x="123.86" y="24.97" width="10.68" height="18.79" transform="translate(259.9 6.21) rotate(152.95)" fill="#3c2238"/><path d="M46.64,76.35A19.74,19.74,0,1,1,73.21,85,19.74,19.74,0,0,1,46.64,76.35Z" fill="#3c2238"/><path d="M48.67,75.32A17.47,17.47,0,0,1,67.16,50.16h0A17.46,17.46,0,1,1,60,84.3h0A17.41,17.41,0,0,1,48.67,75.32Z" fill="#ff80a6"/><path d="M48.67,75.32A17.47,17.47,0,0,1,67.16,50.16h0A17.46,17.46,0,0,1,60,84.3h0A17.41,17.41,0,0,1,48.67,75.32Z" fill="#fff0e1"/><path d="M62.27,67.81a1.87,1.87,0,1,1,2.52.82A1.88,1.88,0,0,1,62.27,67.81Z" fill="#3c2238"/><path d="M68.7,76.78a.49.49,0,0,1-.44-.27l-4.54-8.88L51,74.15a.49.49,0,0,1-.67-.22.5.5,0,0,1,.22-.67l13.21-6.75a.5.5,0,0,1,.67.22l4.77,9.32a.52.52,0,0,1-.22.68A.64.64,0,0,1,68.7,76.78Z" fill="#3c2238"/><path d="M141.29,16.22l-3.11,1.59,1.41,2.77.65,1.27a.5.5,0,1,1-.89.45L138.7,21l-1.64-3.22a.5.5,0,0,1,0-.38.48.48,0,0,1,.25-.29l2.92-1.49Z" fill="#3c2238"/><path d="M161.51,30.74l-13.89,7.08a.46.46,0,0,1-.23.06.48.48,0,0,1-.44-.28l-1.77-3.46-.25-.51a.49.49,0,0,1,.21-.67.5.5,0,0,1,.68.22l.25.51,1.54,3L160.73,30l.6.56Z" fill="#3c2238"/><path d="M152,22.89l-4.47,2.29-5,2.54a.46.46,0,0,1-.22.06.52.52,0,0,1-.45-.28.5.5,0,0,1,.22-.67l5-2.54,4-2.05C151.41,22.46,151.72,22.66,152,22.89Z" fill="#3c2238"/><path d="M38.45,80.29a1.42,1.42,0,1,1,1.88.73A1.42,1.42,0,0,1,38.45,80.29Z" fill="#3c2238"/><path d="M28.64,84.64a1.42,1.42,0,1,1,1.88.72A1.42,1.42,0,0,1,28.64,84.64Z" fill="#3c2238"/><path d="M18.83,89a1.43,1.43,0,1,1,1.88.72A1.43,1.43,0,0,1,18.83,89Z" fill="#3c2238"/><path d="M9,93.32A1.43,1.43,0,1,1,10.9,94,1.43,1.43,0,0,1,9,93.32Z" fill="#3c2238"/><path d="M69.34,95.59S71.6,106.91,65,145.3c-5.12,29.56-10,43.95-12,49a2.45,2.45,0,0,1-3.1,1.41l-4.17-1.51-.44-.17-20.43-7.4-.45-.16-1-.35a5.4,5.4,0,0,1-2.72-8.05,28.31,28.31,0,0,0,4.59-14.25,69,69,0,0,0-2-21.26,5.42,5.42,0,0,1,1.1-4.86c.94-1.11,2.17-2.61,3.57-4.45l.34-.43a117.91,117.91,0,0,0,10.27-16c.75-1.42,1.5-2.82,2.26-4.18l.29-.52c6.18-11.08,12.36-19.68,16.44-19.34.88.07,1.84.22,2.85.4l.48.1A80.37,80.37,0,0,1,69.34,95.59Z" fill="#f1bfc9"/><path d="M60.87,93.29c.76,6.78,2.09,26.06-2.46,54.2C54,174.71,48.2,189,45.72,194.2l-.44-.17c2.43-5.09,8.25-19.34,12.67-46.62.87-5.4,1.52-10.47,2-15.19a1.24,1.24,0,0,0,0-.27h0c.69-6.73,1-12.74,1.15-18,0-.16,0-.32,0-.48a157.28,157.28,0,0,0-.75-20.32Z" fill="#aa4346"/><path d="M61.39,113.58a.23.23,0,0,1,.17.29l0,0a.24.24,0,0,1-.27.13l-.14,0a50.52,50.52,0,0,0-8.35-1.55l-.51,0a50.48,50.48,0,0,0-11.46.26l.29-.52a51.15,51.15,0,0,1,20,1.38Z" fill="#aa4346"/><path d="M28.28,132.82a50,50,0,0,1,4,10.05c.06.2.11.4.15.59a37,37,0,0,1,1.17,6.91c.57,8.17-1.7,16.21-4.28,24.42A81.75,81.75,0,0,1,25.18,186c-.11.22-.21.45-.33.66l-.45-.16a74.79,74.79,0,0,0,4.51-11.83c2.57-8.16,4.83-16.16,4.27-24.24a37.39,37.39,0,0,0-1.1-6.64c0-.13-.06-.26-.1-.38h0a48.7,48.7,0,0,0-4-10.12Z" fill="#aa4346"/><path d="M52.79,112.41h0c-3.85,7.17-20.28,31-20.44,31.24a.23.23,0,0,1-.33.06.22.22,0,0,1-.06-.32c.17-.24,16.58-24.06,20.41-31.2a.24.24,0,0,1,.32-.1A.22.22,0,0,1,52.79,112.41Z" fill="#aa4346"/><path d="M60,132.17h0a.24.24,0,0,1-.32.09,108.08,108.08,0,0,1-13.7-9,.24.24,0,1,1,.29-.37,108.22,108.22,0,0,0,13.64,9A.24.24,0,0,1,60,132.17Z" fill="#aa4346"/><path d="M35.12,129.75a2.09,2.09,0,1,1-2.8,1A2.1,2.1,0,0,1,35.12,129.75Z" fill="#aa4346"/><circle cx="39.16" cy="125.05" r="2.09" fill="#aa4346"/><circle cx="43.36" cy="118.37" r="2.09" fill="#aa4346"/><path d="M20.53,130.66c-2.68-1.11-5.36-2.54-7.12-4.85-.44-.57-.8-1.42-.32-2a1.4,1.4,0,0,1,.76-.37A6.07,6.07,0,0,1,18,124.62c3.42,2,7.86,4.87,10,8.27C26,133.25,22.47,131.45,20.53,130.66Z" fill="none" stroke="#aa4346" stroke-linecap="round" stroke-linejoin="round" stroke-width="0.47"/><path d="M25.08,125.94c-.85-2.77-1.45-5.74-.79-8.57.16-.71.59-1.53,1.31-1.5a1.38,1.38,0,0,1,.78.34,6.15,6.15,0,0,1,1.76,4c.62,3.91,1.23,9.16,0,13C26.53,131.79,25.7,128,25.08,125.94Z" fill="none" stroke="#aa4346" stroke-linecap="round" stroke-linejoin="round" stroke-width="0.47"/></g></svg>