<svg xmlns="http://www.w3.org/2000/svg" viewBox="0 0 203.19 208.77"><g id="OBJECTS"><path d="M6.39,208.7A6.46,6.46,0,0,1,3,207.59C.75,206,.53,202.75.51,200Q.27,165.4,0,130.83c-.12-18.1-.23-36.38,3.65-54.07C15.21,24.13,72.24-9.42,124.07,2.35c33.44,7.6,62.2,33.53,72.82,66.13,6.6,20.29,6.45,42.07,6.22,63.4q-.36,34.11-.71,68.24c0,2.76-.27,5.94-2.51,7.55-1.49,1.06-3.45,1.1-5.27,1.1H8.46C7.78,208.77,7.08,208.76,6.39,208.7Z" fill="#fff"/><path d="M196.63,142.91V202.1H6.38V150.48c0-29.76-4.25-61.95,8.61-89.86,23.45-50.88,87.77-69.53,134.93-42l.73.43.33.2c.53.31,1.05.63,1.57,1,1.93,1.2,3.83,2.5,5.69,3.87a91.09,91.09,0,0,1,12.93,11.58c.38.41.75.81,1.12,1.23q1.61,1.8,3.11,3.68c.34.41.67.83,1,1.25a97.8,97.8,0,0,1,20.25,58.42v.25C196.81,114.61,196.63,128.77,196.63,142.91Z" fill="#a7cbcc"/><path d="M191.2,107.91a.34.34,0,0,1-.26-.12l-9.85-10.45a.41.41,0,0,1,0-.53.35.35,0,0,1,.51,0l9.85,10.45a.39.39,0,0,1,0,.53A.33.33,0,0,1,191.2,107.91Z" fill="#f7f0e7"/><path d="M186.27,110.07a.37.37,0,0,1-.36-.38V94.91a.36.36,0,1,1,.72,0v14.78A.37.37,0,0,1,186.27,110.07Z" fill="#f7f0e7"/><path d="M181.35,107.91a.35.35,0,0,1-.26-.12.41.41,0,0,1,0-.53l9.85-10.45a.35.35,0,0,1,.51,0,.39.39,0,0,1,0,.53l-9.85,10.45A.33.33,0,0,1,181.35,107.91Z" fill="#f7f0e7"/><path d="M193.24,102.68H179.31a.38.38,0,0,1,0-.76h13.93a.38.38,0,0,1,0,.76Z" fill="#f7f0e7"/><path d="M185.51,83.58H115.35a17.68,17.68,0,0,1,22.78-2c5.42-7.64,14.83-12.85,24.2-12.39a28.54,28.54,0,0,1,23,14.1Z" fill="#f7f0e7"/><path d="M132.56,34.56H74.25a14.69,14.69,0,0,1,18.93-1.67c4.51-6.35,12.33-10.68,20.12-10.3a23.75,23.75,0,0,1,19.1,11.72Z" fill="#f7f0e7"/><path d="M30.69,80.16a.36.36,0,0,1-.26-.11L20.58,69.6a.4.4,0,0,1,0-.54.35.35,0,0,1,.51,0l9.85,10.45a.4.4,0,0,1,0,.54A.36.36,0,0,1,30.69,80.16Z" fill="#f7f0e7"/><path d="M25.76,82.33A.37.37,0,0,1,25.4,82V67.17a.36.36,0,1,1,.72,0V82A.37.37,0,0,1,25.76,82.33Z" fill="#f7f0e7"/><path d="M20.84,80.16a.36.36,0,0,1-.26-.11.4.4,0,0,1,0-.54l9.85-10.45a.35.35,0,0,1,.51,0,.4.4,0,0,1,0,.54L21.09,80.05A.36.36,0,0,1,20.84,80.16Z" fill="#f7f0e7"/><path d="M32.73,74.94H18.8a.38.38,0,0,1,0-.76H32.73a.38.38,0,0,1,0,.76Z" fill="#f7f0e7"/><path d="M122.26,56a.36.36,0,0,1-.25-.11l-9.85-10.45a.4.4,0,0,1,0-.54.33.33,0,0,1,.5,0l9.85,10.45a.4.4,0,0,1,0,.54A.36.36,0,0,1,122.26,56Z" fill="#f7f0e7"/><path d="M117.34,58.16a.37.37,0,0,1-.36-.38V43a.36.36,0,1,1,.71,0V57.78A.37.37,0,0,1,117.34,58.16Z" fill="#f7f0e7"/><path d="M112.41,56a.36.36,0,0,1-.25-.11.4.4,0,0,1,0-.54L122,44.89a.33.33,0,0,1,.5,0,.4.4,0,0,1,0,.54l-9.85,10.45A.36.36,0,0,1,112.41,56Z" fill="#f7f0e7"/><path d="M124.3,50.76H110.37a.36.36,0,0,1-.36-.37.37.37,0,0,1,.36-.38H124.3a.37.37,0,0,1,.36.38A.36.36,0,0,1,124.3,50.76Z" fill="#f7f0e7"/><path d="M107.59,100.77a3.19,3.19,0,1,1-3.19-3.19A3.19,3.19,0,0,1,107.59,100.77Z" fill="#f7f0e7"/><path d="M52.78,35.07a3.19,3.19,0,1,1-3.19-3.19A3.19,3.19,0,0,1,52.78,35.07Z" fill="#f7f0e7"/><circle cx="178.61" cy="58.22" r="3.19" fill="#f7f0e7"/><path d="M16,183.77a19.53,19.53,0,0,1,19.25-3,20.62,20.62,0,0,1,35.84-.26,25.65,25.65,0,0,1,30.2,2.09Z" fill="#f7f0e7"/><path d="M81.59,97.36H11.44a17.77,17.77,0,0,1,8.5-4.77,18,18,0,0,1,14.27,2.77C39.64,87.72,49.05,82.51,58.42,83a28.6,28.6,0,0,1,23,14.1Z" fill="#f7f0e7"/><rect x="153.92" y="48.34" width="0.87" height="143.74" fill="#44182c"/><path d="M196.63,149l-11.57-1.89,10.41,16.08.5.78.66,1v14.57l-37.84-2.35h-9l-49.38,2.61,8-11.84.83-1.24.29-.43,3.89-5.79.49-.75,8.43-12.53.15-.21-15.65,2.51,3.82-5.39.62-.87.3-.41v0l11.19-15.76,4.13-5.82.22-.31.67-.95.25-.36-2.64.67-.62.17-8.48,2.15a40.44,40.44,0,0,0,2.9-4.31,3.37,3.37,0,0,0,.19-.32c.68-1.11,1.43-2.36,2.22-3.7l.07-.13.11-.19.06-.09c.09-.17.18-.32.28-.49l2.28-4h0c.18-.3.34-.62.52-.92,4.54-8,9.22-16.64,10-18.12l.12-.22-11.59,3.25,6.59-11.57.44-.78,1-1.8.18-.33,3.37-5.89h0l.7-1.24,1.77-3.09.32-.57,16-28.11,8,14.17.19.33.88,1.55.41.71h0l.05.08.65,1.16,1.83,3.22.62,1.11.75,1.32,1.06,1.86,10.46,18.47.46.79,1.28,2.27.21.37,3.42,6.05-11.4-3.12s.7,1.32,1.85,3.43l.4.74c.5.93,1.06,2,1.68,3.11l.18.32c2.73,5,6.36,11.61,9.36,16.79l.45.77a69,69,0,0,0,4.58,7.19l-11.73-3,4.69,6.65.52.72,4.73,6.71.26.37,4.36,6.16.21.31,2.29,3.24Z" fill="#26575e"/><g opacity="0.4"><path d="M142.21,88.13l-20.34,25.79-.08.1a.24.24,0,0,1,.06-.09l.28-.49c.73-1.27,1.5-2.59,2.28-4h0c.17-.3.34-.62.52-.92,4.54-8,9.22-16.64,10-18.12Z" fill="#44182c"/><polygon points="132.53 118.78 111.58 142.88 127.79 120.04 132.53 118.78" fill="#44182c"/><polygon points="129.94 145.66 110.12 166.23 109.69 166.68 109.68 166.68 108.41 168.01 109.24 166.77 109.53 166.34 113.42 160.55 113.91 159.8 122.34 147.27 129.94 145.66" fill="#44182c"/></g><path d="M162.11,54.57a186.47,186.47,0,0,1-24.55,14.18l.32-.57a184.52,184.52,0,0,0,24.05-13.94Z" fill="#f7f0e7"/><path d="M180.78,87.49a158.93,158.93,0,0,1-49.25-8.17l.19-.34a157.84,157.84,0,0,0,48.85,8.14Z" fill="#f7f0e7"/><path d="M166.85,102a270.82,270.82,0,0,1-45.25,12.34l.08-.14.11-.19a.24.24,0,0,1,.06-.09h0a269.5,269.5,0,0,0,44.85-12.25c3.21-1.19,6.57-2.48,10-4,.06.11.12.22.17.33C173.46,99.51,170.06,100.82,166.85,102Z" fill="#f7f0e7"/><path d="M189.77,134.21c-18.77-.31-38.45-4.21-60.26-12-.87-.31-1.74-.62-2.62-1l-2.11-.78c-1.84-.69-3.71-1.41-5.58-2.16.07-.1.12-.2.19-.31q3,1.2,6,2.31c.57.22,1.14.42,1.71.63l2.66,1c21.61,7.67,41.13,11.55,59.73,11.89Z" fill="#f7f0e7"/><path d="M194.34,140.68c-16.65,8.59-35.33,13.61-51.87,18-10.14,2.72-21.36,5.74-32.78,8h0a3.12,3.12,0,0,1-.44.09l.29-.43.59-.11c11.24-2.2,22.27-5.17,32.25-7.85,16.51-4.44,35.15-9.44,51.75-18Z" fill="#f7f0e7"/><polygon points="137.18 106.08 138.6 98.65 139.1 106.01 142.19 104.5 140.73 107.47 147.36 108.54 140.68 110.11 142.53 113.26 138.99 111.69 137.36 118.88 136.4 111.63 133.09 112.81 135.34 110 128.7 108.54 135.62 107.53 134.21 104.89 137.18 106.08" fill="#ffc97d"/><polygon points="162.46 62.12 163.88 54.7 164.38 62.06 167.47 60.54 166.01 63.52 172.64 64.59 165.96 66.16 167.81 69.31 164.27 67.74 162.64 74.93 161.68 67.68 158.37 68.86 160.62 66.05 153.98 64.59 160.9 63.58 159.49 60.94 162.46 62.12" fill="#ffc97d"/><polygon points="173.23 129.85 174.64 122.42 175.15 129.79 178.24 128.27 176.78 131.25 183.41 132.32 176.72 133.89 178.58 137.04 175.04 135.46 173.41 142.66 172.45 135.41 169.13 136.59 171.38 133.78 164.75 132.32 171.66 131.31 170.26 128.66 173.23 129.85" fill="#ffc97d"/><polygon points="128.54 159.21 129.95 151.78 130.46 159.14 133.55 157.63 132.09 160.6 138.72 161.67 132.03 163.25 133.88 166.39 130.34 164.82 128.71 172.01 127.76 164.76 124.44 165.94 126.69 163.13 120.06 161.67 126.97 160.66 125.57 158.02 128.54 159.21" fill="#ffc97d"/><path d="M148.05,78.9a4.51,4.51,0,1,1-4.51-4.5A4.51,4.51,0,0,1,148.05,78.9Z" fill="#f56a58"/><path d="M173.77,104.44a4.51,4.51,0,1,1-4.51-4.5A4.51,4.51,0,0,1,173.77,104.44Z" fill="#f56a58"/><path d="M143.35,135.8a4.51,4.51,0,1,1-4.51-4.51A4.51,4.51,0,0,1,143.35,135.8Z" fill="#f56a58"/><path d="M175.74,157.3a4.51,4.51,0,1,1-4.5-4.5A4.5,4.5,0,0,1,175.74,157.3Z" fill="#f56a58"/><polygon points="153.76 30.98 156.61 36.75 162.98 37.68 158.37 42.17 159.46 48.51 153.76 45.52 148.06 48.51 149.15 42.17 144.54 37.68 150.91 36.75 153.76 30.98" fill="#f7f0e7"/><rect x="13.62" y="161.92" width="1.09" height="20.43" fill="#44182c"/><rect x="115.76" y="163.88" width="1.09" height="29.67" transform="translate(-1.05 0.69) rotate(-0.34)" fill="#44182c"/><rect x="97.33" y="164.86" width="0.86" height="17.49" fill="#44182c"/><rect x="27.03" y="161.92" width="1.09" height="35.76" fill="#44182c"/><rect x="11.34" y="112.65" width="99.79" height="8.84" fill="#44182c"/><rect x="11.34" y="127.68" width="99.79" height="8.84" fill="#44182c"/><rect x="11.34" y="141.68" width="99.79" height="8.84" fill="#44182c"/><polygon points="11.9 159.47 11.9 162.27 26.61 169.92 127.7 169.92 127.89 167.37 11.9 159.47" fill="#44182c"/><polygon points="11.9 159.47 110.56 159.47 127.89 167.37 26.84 167.37 11.9 159.47" fill="#bc606d"/><rect x="12.77" y="112.8" width="99.79" height="8.84" fill="#bc606d"/><rect x="12.77" y="127.73" width="99.79" height="8.84" fill="#bc606d"/><rect x="12.77" y="141.68" width="99.79" height="8.84" fill="#bc606d"/><rect x="26.38" y="108.53" width="1" height="51.42" fill="#44182c"/><rect x="97.26" y="108.53" width="1" height="51.42" fill="#44182c"/><path d="M20.64,117.37a1.05,1.05,0,1,1-1-1.18A1.11,1.11,0,0,1,20.64,117.37Z" fill="#44182c"/><path d="M21.13,145.81a1.05,1.05,0,1,1-1-1.18A1.11,1.11,0,0,1,21.13,145.81Z" fill="#44182c"/><path d="M20.79,132.1a1.05,1.05,0,1,1-1-1.18A1.12,1.12,0,0,1,20.79,132.1Z" fill="#44182c"/><ellipse cx="105.8" cy="117.02" rx="1.04" ry="1.18" fill="#44182c"/><path d="M107,145.81a1.05,1.05,0,1,1-1-1.18A1.11,1.11,0,0,1,107,145.81Z" fill="#44182c"/><path d="M107.28,131.66a1.05,1.05,0,1,1-1-1.18A1.11,1.11,0,0,1,107.28,131.66Z" fill="#44182c"/><path d="M93.29,196.37a19.5,19.5,0,0,1,19.25-3,20.62,20.62,0,0,1,35.84-.26,25.63,25.63,0,0,1,30.2,2.09Z" fill="#f7f0e7"/><path d="M103.67,202.23H6.55V175.4a22.08,22.08,0,0,1,9.25.71A22.59,22.59,0,0,1,30.66,191a22.28,22.28,0,0,1,4-5.14l.51-.49a25.14,25.14,0,0,1,2.75-2.16l.12-.08A25.52,25.52,0,0,1,41.82,181a26.3,26.3,0,0,1,4.09-1.5c.67-.2,1.36-.37,2.05-.51a28.06,28.06,0,0,1,11.93.1,1.8,1.8,0,0,1,.22.06,1,1,0,0,1,.25.06,33.69,33.69,0,0,1,16.85,10.57c.09.09.17.19.25.28a40,40,0,0,1,6.69,10.8c2.46-2.79,6.4-3.45,10.17-2.86l.25.05a17.84,17.84,0,0,1,3.59,1A23.82,23.82,0,0,1,103.67,202.23Z" fill="#f7f0e7"/><path d="M196.8,165.1v37.13H118.21a23.62,23.62,0,0,1,5.26-4.66,24.45,24.45,0,0,1,20.26-2.76c6.25-12.62,16.59-23.66,29.82-28.47A40.53,40.53,0,0,1,196.8,165.1Z" fill="#f7f0e7"/><g opacity="0.29"><path d="M103.67,202.23H6.55V175.4a22.08,22.08,0,0,1,9.25.71A22.59,22.59,0,0,1,30.66,191a22.28,22.28,0,0,1,4-5.14l.51-.49a25.14,25.14,0,0,1,2.75-2.16l.12-.08A25.52,25.52,0,0,1,41.82,181a26.3,26.3,0,0,1,4.09-1.5c.67-.2,1.36-.37,2.05-.51a28.06,28.06,0,0,1,11.93.1,1.8,1.8,0,0,1,.22.06,1,1,0,0,1,.25.06,33.69,33.69,0,0,1,16.85,10.57c.09.09.17.19.25.28a40,40,0,0,1,6.69,10.8c2.46-2.79,6.4-3.45,10.17-2.86l.25.05a17.84,17.84,0,0,1,3.59,1A23.82,23.82,0,0,1,103.67,202.23Z" fill="#a7cbcc"/></g><g opacity="0.29"><path d="M196.8,165.1v37.13H118.21a23.62,23.62,0,0,1,5.26-4.66,24.45,24.45,0,0,1,20.26-2.76c6.25-12.62,16.59-23.66,29.82-28.47A40.53,40.53,0,0,1,196.8,165.1Z" fill="#a7cbcc"/></g><rect x="47.78" y="54.3" width="35.93" height="37.36" fill="#f56a58"/><rect x="75.34" y="54.3" width="8.36" height="37.36" fill="#44182c"/><rect x="50.65" y="59.82" width="21.75" height="29" fill="#f7f0e7"/><rect x="60.16" y="58.05" width="1.08" height="32.33" fill="#f56a58"/><rect x="48.69" y="72.85" width="25.57" height="1.18" fill="#f56a58"/><rect x="76.62" y="59.82" width="6.17" height="29" fill="#f7f0e7"/><rect x="79.75" y="56.98" width="0.78" height="33.12" fill="#44182c"/><rect x="75.83" y="73.14" width="7.74" height="0.59" fill="#44182c"/><path d="M47.78,54.3s4.64-7.61,16.69-8.3,19.24,8.3,19.24,8.3Z" fill="#44182c"/><rect x="46.15" y="54.14" width="38.51" height="1.27" fill="#44182c"/><path d="M66.38,46.19a2.2,2.2,0,1,1,2.2-2.2A2.2,2.2,0,0,1,66.38,46.19Zm0-3.82A1.63,1.63,0,1,0,68,44,1.62,1.62,0,0,0,66.38,42.37Z" fill="#44182c"/><rect x="66.09" y="12.85" width="0.58" height="29.23" fill="#44182c"/><path d="M177.88,184.41s14.45-9.74,13.26-11.28-12.56,9.7-13.43,11.45" fill="#26575e"/><path d="M176,191.06s14.18-6.42,13.11-8.66S178.41,186.56,176,191.06Z" fill="#26575e"/><path d="M176,191.3c.06.2-2.75-13.42-5.39-12.8S175.27,188.64,176,191.3Z" fill="#26575e"/><path d="M174.54,202h0a.18.18,0,0,1-.17-.18,71.51,71.51,0,0,1,10-32.45.17.17,0,1,1,.3.18,71.1,71.1,0,0,0-10,32.29A.18.18,0,0,1,174.54,202Z" fill="#44182c"/><path d="M176.45,189.13a.18.18,0,0,1-.18-.16l-.39-14.11a.18.18,0,0,1,.17-.17h0a.17.17,0,0,1,.17.16l.39,14.11a.17.17,0,0,1-.17.17Z" fill="#44182c"/><path d="M182.56,170.24a2.47,2.47,0,1,1,3.39.85A2.46,2.46,0,0,1,182.56,170.24Z" fill="#f56a58"/><path d="M175.3,176.62a2.47,2.47,0,1,1,3-1.8A2.48,2.48,0,0,1,175.3,176.62Z" fill="#f56a58"/><path d="M29.12,184.41s-14.45-9.74-13.25-11.28,12.56,9.7,13.43,11.45" fill="#26575e"/><path d="M31,191.06s-14.17-6.42-13.11-8.66S28.59,186.56,31,191.06Z" fill="#26575e"/><path d="M31,191.3c-.05.2,2.75-13.42,5.39-12.8S31.73,188.64,31,191.3Z" fill="#26575e"/><path d="M32.46,202a.17.17,0,0,1-.17-.16,71.22,71.22,0,0,0-10-32.29.17.17,0,0,1,.06-.24.17.17,0,0,1,.23.06,71.51,71.51,0,0,1,10,32.45.17.17,0,0,1-.16.18Z" fill="#44182c"/><path d="M30.56,189.13h0a.16.16,0,0,1-.16-.17l.39-14.11a.17.17,0,0,1,.17-.16.17.17,0,0,1,.17.17L30.73,189A.17.17,0,0,1,30.56,189.13Z" fill="#44182c"/><path d="M24.44,170.24a2.47,2.47,0,1,0-3.38.85A2.46,2.46,0,0,0,24.44,170.24Z" fill="#f56a58"/><path d="M31.71,176.62a2.47,2.47,0,1,0-3-1.8A2.48,2.48,0,0,0,31.71,176.62Z" fill="#f56a58"/></g></svg>