<svg xmlns="http://www.w3.org/2000/svg" viewBox="0 0 198.61 211.72"><g id="OBJECTS"><path d="M8,211.72A5.67,5.67,0,0,1,2.35,206V98.13a100.36,100.36,0,0,1,.92-13.52,8.55,8.55,0,0,1-3.13-5c-.62-3.29,1-5.81,2-7.32l.06-.09,0-.17c-.55-1.68-1.47-4.5-.07-7.46s4.19-4.05,5.85-4.69l.14-.05s0-.1,0-.14c.54-1.7,1.45-4.55,4.36-6.14a7.76,7.76,0,0,1,.77-.37A98.15,98.15,0,0,1,100.48,0c3.18,0,6.33.15,9.37.45.41,0,.83.07,1.24.13a98.22,98.22,0,0,1,58.78,28.16c2.13,2.13,4.17,4.36,6,6.63l.14.16c.21.26.43.52.63.78A97.76,97.76,0,0,1,192.51,64a95.19,95.19,0,0,1,3.18,10.27,98.09,98.09,0,0,1,2.92,23.85V206a5.67,5.67,0,0,1-5.67,5.68Z" fill="#fffdff"/><path d="M193.42,98.13V206H8.5V98.13A92.47,92.47,0,0,1,101,5.67a87.63,87.63,0,0,1,8.92.44c.33,0,.67,0,1,.1a92.09,92.09,0,0,1,55.46,26.54q3,3,5.7,6.24c.23.29.47.56.69.84A92.38,92.38,0,0,1,187.67,66a85.59,85.59,0,0,1,3,9.65A92.12,92.12,0,0,1,193.42,98.13Z" fill="#ff8878"/><path d="M166,117.57s-.85-7.61,1.69-9.9l3.14,1.45Z" fill="#f1bfc9"/><path d="M101.2,198.56l-1,.63A3.18,3.18,0,0,0,99,202.93l.16.45a3.18,3.18,0,0,0,4.07,1.92l51.56-18.41,8.05-11.1,3.22,7.56L188,174l-4.35-11.43-11.75,3.7-58.09,19.8Z" fill="#f1bfc9"/><path d="M182.31,163.07a127,127,0,0,0-19.24,7.85l-.44.23c-1.12.6-2.21,1.22-3.24,1.87l-.41.26c-.39.24-.76.49-1.13.74-5.63,3.85-6.44,7.16-15.85,11s-40.8,13.52-40.8,13.52S94.2,187,106,179c7.42-5,14.1-8.29,18.38-12.62h0c.24-.24.46-.47.68-.72a15.54,15.54,0,0,0,4.1-8.61c0-.28.07-.56.11-.85s0-.32,0-.49a44.33,44.33,0,0,0-.06-6.79c0-.17,0-.34,0-.5-.16-2-.41-4.14-.71-6.19,0-.19,0-.37-.07-.56-.38-2.56-.84-5-1.27-7.24,0-.2-.08-.39-.11-.57-.92-4.51-1.74-7.71-1.74-7.71l11-4.16.44-.16,27.63-10.41,10.66,30.82.15.45Z" fill="#3c2238"/><path d="M160.53,174.4a.21.21,0,0,1-.16.07.24.24,0,0,1-.17-.06c-.4-.39-.81-.76-1.22-1.13a35.87,35.87,0,0,0-21.24-8.63,34.69,34.69,0,0,0-13.32,1.72c.24-.24.46-.47.68-.72a35.21,35.21,0,0,1,12.48-1.48l.49,0A36.14,36.14,0,0,1,159.39,173q.59.51,1.14,1A.24.24,0,0,1,160.53,174.4Z" fill="#f1bfc9"/><path d="M175.26,142.68a23,23,0,0,0-10.47,11.81,31.53,31.53,0,0,0-1.72,16.43c0,.32.09.63.14,1a.22.22,0,0,1-.19.28h0a.25.25,0,0,1-.24-.2c-.05-.27-.08-.54-.12-.81a31.93,31.93,0,0,1,1.73-16.84,23.34,23.34,0,0,1,10.75-12.08Z" fill="#f1bfc9"/><path d="M138.07,164.2c0,.1-.06.19-.1.3a.24.24,0,0,1-.23.15h-.07a.23.23,0,0,1-.15-.3l.06-.17a61.12,61.12,0,0,0-1.2-42.19l.44-.16A61.54,61.54,0,0,1,138.07,164.2Z" fill="#f1bfc9"/><path d="M132.66,127.43a2.26,2.26,0,0,0-2.25,2.25,2.23,2.23,0,0,0,.23,1,2,2,0,0,0,.26.4,2.18,2.18,0,0,0,1.76.88,2.25,2.25,0,1,0,0-4.5Zm0,4a1.76,1.76,0,0,1-1.39-.68,1.47,1.47,0,0,1-.24-.4,1.61,1.61,0,0,1-.14-.69,1.78,1.78,0,1,1,1.77,1.77Z" fill="#f1bfc9"/><path d="M134.59,135.88a2.24,2.24,0,0,0-2.24,2.25,2.38,2.38,0,0,0,.13.76,2.46,2.46,0,0,0,.21.43,2.25,2.25,0,1,0,1.9-3.44Zm0,4a1.77,1.77,0,0,1-1.48-.82,2,2,0,0,1-.28-1,1.77,1.77,0,1,1,1.76,1.78Z" fill="#f1bfc9"/><path d="M135.08,144.25a2.25,2.25,0,0,0-2.25,2.25,2.22,2.22,0,0,0,0,.45,2.15,2.15,0,0,0,.14.45,2.25,2.25,0,1,0,2.06-3.15Zm0,4a1.77,1.77,0,0,1-1.6-1h0a1,1,0,0,1-.14-.45,1.43,1.43,0,0,1,0-.29,1.77,1.77,0,1,1,1.77,1.77Z" fill="#f1bfc9"/><path d="M135.08,153.26a2.24,2.24,0,0,0-2.24,2.06,1.15,1.15,0,0,0,0,.19,2.64,2.64,0,0,0,0,.28,2.25,2.25,0,1,0,2.23-2.53Zm0,4a1.75,1.75,0,0,1-1.74-1.52,1.07,1.07,0,0,1,0-.25.78.78,0,0,1,0-.22,1.77,1.77,0,1,1,1.75,2Z" fill="#f1bfc9"/><path d="M132.69,129.81c-.48.3-.95.62-1.42,1l-.37.28a25.7,25.7,0,0,0-3.7,3.37c0-.2-.08-.39-.11-.57a25,25,0,0,1,3.55-3.2,4.73,4.73,0,0,1,.39-.28c.45-.34.93-.67,1.41-1a.25.25,0,0,1,.33.08A.26.26,0,0,1,132.69,129.81Z" fill="#f1bfc9"/><path d="M134,138.64c-.31.14-.61.3-.9.45l-.42.23a25.75,25.75,0,0,0-4.15,2.9c0-.19,0-.37-.07-.56a26.25,26.25,0,0,1,4-2.77l.44-.23.88-.45a.25.25,0,0,1,.32.12A.25.25,0,0,1,134,138.64Z" fill="#f1bfc9"/><path d="M134.74,146.58a.23.23,0,0,1-.16.29l-1.1.37h0l-.46.15c-1.26.45-2.51.95-3.73,1.51,0-.17,0-.34,0-.5,1.19-.54,2.4-1,3.63-1.46l.46-.16c.36-.12.73-.25,1.1-.36A.24.24,0,0,1,134.74,146.58Z" fill="#f1bfc9"/><path d="M135,155.5a.23.23,0,0,1-.24.23s0,0,0,0c-.46,0-.92,0-1.37,0l-.49,0a32.49,32.49,0,0,0-3.54.4c0-.16,0-.32,0-.49a29.32,29.32,0,0,1,3.49-.38l.49,0c.46,0,.91,0,1.38,0A.25.25,0,0,1,135,155.5Z" fill="#f1bfc9"/><path d="M95.34,38.51a4.43,4.43,0,0,0-.83-.67,4.23,4.23,0,0,0-2.15-.64,4.31,4.31,0,0,0-3,1.18A4.27,4.27,0,0,0,88.26,40,4.52,4.52,0,0,0,88,41.15c0,.06,0,.14,0,.21a4.23,4.23,0,0,0,3.47,4.27,4.13,4.13,0,0,0,.78.08,4.26,4.26,0,0,0,3.08-7.2Zm-.79,5.33a3.29,3.29,0,0,1-2.72.88,3.16,3.16,0,0,1-2-1A3.31,3.31,0,0,1,90,39.06a3.24,3.24,0,0,1,2.28-.92h.08a3.35,3.35,0,0,1,1.82.6,3.28,3.28,0,0,1,.5.42,3.33,3.33,0,0,1,.91,2.37A3.27,3.27,0,0,1,94.55,43.84Z" fill="#3c2238"/><path d="M164.68,57.32a4.16,4.16,0,0,0-1.39-1A4.05,4.05,0,0,0,161.7,56a4.14,4.14,0,0,0-3,1.17,4.26,4.26,0,0,0-.15,6,4.18,4.18,0,0,0,2.67,1.29l.31,0h.11a4.23,4.23,0,0,0,2.93-1.17,4.18,4.18,0,0,0,.76-1,3.67,3.67,0,0,0,.37-.87,4,4,0,0,0,.19-1.14A4.27,4.27,0,0,0,164.68,57.32Zm-.8,5.33a3.26,3.26,0,0,1-2.45.9,3.31,3.31,0,0,1,.17-6.61h.08a3.21,3.21,0,0,1,1.37.33,3.29,3.29,0,0,1,.83,5.37Z" fill="#3c2238"/><path d="M80.74,73.18,96.08,33.8s40.54-3,67.64,20.87L152.55,97.88a6.51,6.51,0,0,1-8.46,4.52L84.68,81.71A6.53,6.53,0,0,1,80.74,73.18Z" fill="#aa4346"/><path d="M106.33,33.7,98.18,61.07a7.9,7.9,0,0,0,5.19,9.79L138.7,82.07a7.91,7.91,0,0,0,10.06-5.59l7-27.41s-10-10.25-24.27-14S106.33,33.7,106.33,33.7Z" fill="#3c2238"/><path d="M129.07,71.28a8.48,8.48,0,0,0-5.91-2.61,8.37,8.37,0,0,0-6,2.34,8.4,8.4,0,0,0-2.61,5.91A8.44,8.44,0,0,0,131,79.64a8.3,8.3,0,0,0,.38-2.34A8.43,8.43,0,0,0,129.07,71.28Zm-.93,11.25a7.5,7.5,0,0,1-12.31-7.71,7.48,7.48,0,0,1,7.13-5.2h.18a7.48,7.48,0,0,1,7.31,7.67,7.53,7.53,0,0,1-.34,2.06A7.42,7.42,0,0,1,128.14,82.53Z" fill="#3c2238"/><path d="M111.31,7.9a17,17,0,0,1,.79,4.83,8.87,8.87,0,0,1-5,7.61,16.65,16.65,0,0,1-6,1.15,18.8,18.8,0,0,0-5.15.83c-2.19.82-4.2,2.55-6.14,5.29a15.06,15.06,0,0,0-2.91,6.55A7.81,7.81,0,0,0,88.26,40a3.72,3.72,0,0,0,.56.63l-.65.68L88,41.15A8.46,8.46,0,0,1,85.92,34a15.87,15.87,0,0,1,3.06-7c2.06-2.91,4.22-4.75,6.59-5.63a19.2,19.2,0,0,1,5.41-.89,16.13,16.13,0,0,0,5.7-1.07,7.88,7.88,0,0,0,4.47-6.78,16,16,0,0,0-.76-4.56c-.18-.67-.36-1.35-.51-2,.33,0,.67,0,1,.1C111,6.78,111.15,7.34,111.31,7.9Z" fill="#3c2238"/><path d="M172.73,39.83a24.84,24.84,0,0,1-1.22,2.74c-.25.49-.52,1-.79,1.45-1.08,1.93-2.18,3.92-2.2,6a13,13,0,0,0,.72,3.76l.3,1.06a8,8,0,0,1,0,5.28,4.14,4.14,0,0,1-2.42,2.15,3.6,3.6,0,0,1-1,.16,2.81,2.81,0,0,1-.77-.11,2.52,2.52,0,0,1-.62-.25l.47-.82a1.86,1.86,0,0,0,.52.2,2.25,2.25,0,0,0,1.12-.09,3.14,3.14,0,0,0,1.85-1.63,7,7,0,0,0,0-4.65c-.08-.35-.19-.69-.29-1a13.63,13.63,0,0,1-.76-4c0-2.37,1.19-4.47,2.32-6.49.26-.48.53-1,.78-1.44A23.67,23.67,0,0,0,172,39C172.27,39.28,172.51,39.55,172.73,39.83Z" fill="#3c2238"/><path d="M66.13,166.45l.27-.29c6.3-6.78,12.16-13.51,17.91-20.8,5.48-6.93,14.65-18.89,24.52-18.46,9.41.42,8.43,12.92,7.07,19.33-2.85,13.37-13.1,23.28-25.38,28.5a60.23,60.23,0,0,1-19.69,4.62c-3.21.21-6.45.12-9.67.06-3.5-.07-9.31-1.45-12.61-.33C55.7,176.65,61.11,171.81,66.13,166.45Z" fill="none" stroke="#ffca63" stroke-linecap="round" stroke-linejoin="round" stroke-width="0.94"/><polygon points="57.7 189.78 50.23 188.88 50.83 196.39 44.81 191.87 41.58 198.68 38.62 191.75 32.42 196.03 33.32 188.55 25.81 189.16 30.33 183.13 23.52 179.91 30.45 176.95 26.17 170.75 33.65 171.64 33.04 164.14 39.07 168.66 42.29 161.85 45.25 168.77 51.45 164.5 50.56 171.97 58.06 171.37 53.54 177.39 60.35 180.62 53.43 183.58 57.7 189.78" fill="#ffca63"/><path d="M43.24,71.56c.35,1.86-2.1,3.78-2.33,5.57s1.63,4.33.84,6-3.9,1.79-5.16,3.14-1.19,4.44-2.83,5.34-4.16-.86-6-.51S24.09,94,22.31,93.74s-2.93-3.16-4.58-3.95-4.61.23-6-1-.49-4.24-1.39-5.88-3.85-2.48-4.2-4.34S8.3,74.74,8.53,73s-1.63-4.33-.85-6,3.9-1.79,5.17-3.13S14,59.39,15.68,58.5s4.15.85,6,.5,3.64-2.89,5.43-2.66,2.92,3.17,4.57,3.95,4.61-.22,6,1,.49,4.24,1.38,5.88S42.89,69.69,43.24,71.56Z" fill="#fff0e1"/><path d="M83.51,102.85,23.35,135.62s-.11-.17-.3-.5c0,0-.06-.1-.09-.15-.47-.78-1.3-2.26-2.24-4.24C15.86,120.46,8,96.5,32.52,83.12c29.34-16,48,14.42,50.66,19.13v0l.11.19Z" fill="#f1bfc9"/><path d="M83.38,102.16l-.19.11-2.64,1.43L26.63,133,23,135c-.47-.78-1.3-2.26-2.24-4.24l62.46-28.48Z" fill="#3c2238"/><path d="M98.33,118.78l-3,1.69-.28.15-5.85,3.25h0l-.27.16L83,127.28l-.28.15-6.16,3.43-.28.15-9.47,5.26-.28.16L60.17,140l-.28.15-7,3.87-.28.16-9.39,5.21-.28.15-7.91,4.4-.28.15-4.43,2.46L17.48,138.15s1.61-1,4.39-2.66a2.33,2.33,0,0,1,.26-.17c2.35-1.41,5.47-3.29,9.14-5.45l.28-.16c3.21-1.88,6.82-4,10.69-6.19l.27-.16c2.43-1.38,4.94-2.8,7.52-4.24l.27-.15q3.45-1.92,7-3.83a2.52,2.52,0,0,1,.27-.15c2.53-1.37,5.07-2.72,7.6-4l.28-.15c2.19-1.14,4.38-2.25,6.52-3.32l.28-.14c2.2-1.1,4.37-2.14,6.46-3.13l.29-.13c2.49-1.16,4.89-2.23,7.15-3.18.1,0,.19-.09.29-.12,1.26-.53,2.48-1,3.65-1.46Z" fill="#f1bfc9"/><path d="M35.06,153.91l-.28.15c-4.54-6-8.87-12.24-12.91-18.57a2.33,2.33,0,0,1,.26-.17C26.19,141.66,30.52,147.88,35.06,153.91Z" fill="#fff0e1"/><path d="M43.25,149.36l-.28.15a151.37,151.37,0,0,1-11.7-19.64l.28-.16A151,151,0,0,0,43.25,149.36Z" fill="#fff0e1"/><path d="M52.92,144l-.28.16c-3.16-7-6.65-13.93-10.4-20.63l.27-.16C46.27,130.07,49.75,137,52.92,144Z" fill="#fff0e1"/><path d="M60.17,140l-.28.15a141.45,141.45,0,0,0-9.86-21l.27-.15A138.1,138.1,0,0,1,60.17,140Z" fill="#fff0e1"/><path d="M66.83,136.27l-.28.16c-.57-1.45-1.13-2.9-1.67-4.32a114.39,114.39,0,0,0-7.6-17,2.52,2.52,0,0,1,.27-.15,112.36,112.36,0,0,1,7.62,17C65.71,133.41,66.26,134.84,66.83,136.27Z" fill="#fff0e1"/><path d="M76.58,130.86l-.28.15A180,180,0,0,0,65.15,111l.28-.15A179.16,179.16,0,0,1,76.58,130.86Z" fill="#fff0e1"/><path d="M83,127.28l-.28.15c-3.4-6.74-7-13.43-10.79-20l.28-.14C76,113.85,79.63,120.54,83,127.28Z" fill="#fff0e1"/><path d="M89.15,123.87l-.27.16c-3.22-6.68-6.64-13.32-10.19-19.82l.29-.13C82.53,110.57,85.94,117.2,89.15,123.87Z" fill="#fff0e1"/><path d="M95.29,120.47l-.28.15c-2.67-6.68-5.65-13.29-8.88-19.72.1,0,.19-.09.29-.12C89.64,107.19,92.62,113.79,95.29,120.47Z" fill="#fff0e1"/><path d="M64.51,27.67A18.13,18.13,0,0,0,46.39,45.48h10.1a8,8,0,0,1,16.05,0h10.1A18.14,18.14,0,0,0,64.51,27.67Z" fill="#ffca63"/><path d="M190.66,75.64a85.59,85.59,0,0,0-3-9.65,18.13,18.13,0,0,0-7.91,29.64l7.28-7a8,8,0,0,1,3.62-13Z" fill="#6f9aff"/><path d="M178.93,197.67a18.13,18.13,0,0,0-25.35,1.76l7.68,6.56a8,8,0,0,1,11.11-.65,7.84,7.84,0,0,1,.71.7h11.37A17.9,17.9,0,0,0,178.93,197.67Z" fill="#f1bfc9"/><path d="M8.5,152.22v10.6a5.45,5.45,0,0,1,.89-.39A8,8,0,0,1,19.54,167l9.51-3.41A18.14,18.14,0,0,0,8.5,152.22Z" fill="#6f9aff"/><path d="M119.89,110.9,117.52,112a4.84,4.84,0,0,0-2.36,2.36l-1.11,2.38a.33.33,0,0,1-.59,0l-1.11-2.38A4.84,4.84,0,0,0,110,112l-2.37-1.11a.32.32,0,0,1,0-.59L110,109.2a4.84,4.84,0,0,0,2.36-2.36l1.11-2.37a.33.33,0,0,1,.59,0l1.11,2.37a4.84,4.84,0,0,0,2.36,2.36l2.37,1.11A.32.32,0,0,1,119.89,110.9Z" fill="#fff0e1"/><path d="M144,25.93,141.66,27a4.8,4.8,0,0,0-2.36,2.36l-1.11,2.37a.33.33,0,0,1-.59,0l-1.11-2.37A4.8,4.8,0,0,0,134.13,27l-2.37-1.11a.33.33,0,0,1,0-.59l2.37-1.11a4.84,4.84,0,0,0,2.36-2.36l1.11-2.38a.33.33,0,0,1,.59,0l1.11,2.38a4.84,4.84,0,0,0,2.36,2.36L144,25.34A.32.32,0,0,1,144,25.93Z" fill="#fff0e1"/><path d="M190.06,131.83l-2.37,1.1a4.88,4.88,0,0,0-2.36,2.36l-1.11,2.38a.33.33,0,0,1-.59,0l-1.11-2.38a4.88,4.88,0,0,0-2.36-2.36l-2.37-1.1a.33.33,0,0,1,0-.6l2.37-1.1a4.88,4.88,0,0,0,2.36-2.36l1.11-2.38a.33.33,0,0,1,.59,0l1.11,2.38a4.88,4.88,0,0,0,2.36,2.36l2.37,1.1A.33.33,0,0,1,190.06,131.83Z" fill="#fff0e1"/><path d="M69.36,153.39,67,154.5a4.88,4.88,0,0,0-2.36,2.36l-1.1,2.37a.33.33,0,0,1-.6,0l-1.1-2.37a4.88,4.88,0,0,0-2.36-2.36l-2.38-1.11a.33.33,0,0,1,0-.59l2.38-1.11a4.88,4.88,0,0,0,2.36-2.36l1.1-2.37a.33.33,0,0,1,.6,0l1.1,2.37A4.88,4.88,0,0,0,67,151.69l2.38,1.11A.33.33,0,0,1,69.36,153.39Z" fill="#fff0e1"/><path d="M89.15,193.79l-2.37,1.1a4.88,4.88,0,0,0-2.36,2.36l-1.11,2.38a.33.33,0,0,1-.59,0l-1.11-2.38a4.88,4.88,0,0,0-2.36-2.36l-2.37-1.1a.33.33,0,0,1,0-.6l2.37-1.1a4.88,4.88,0,0,0,2.36-2.36l1.11-2.38a.33.33,0,0,1,.59,0l1.11,2.38a4.88,4.88,0,0,0,2.36,2.36l2.37,1.1A.33.33,0,0,1,89.15,193.79Z" fill="#fff0e1"/><path d="M72.26,66.81l-2.38,1.1a4.88,4.88,0,0,0-2.36,2.36l-1.11,2.38a.33.33,0,0,1-.59,0l-1.1-2.38a4.92,4.92,0,0,0-2.36-2.36L60,66.81a.33.33,0,0,1,0-.6l2.38-1.1a4.92,4.92,0,0,0,2.36-2.36l1.1-2.38a.33.33,0,0,1,.59,0l1.11,2.38a4.88,4.88,0,0,0,2.36,2.36l2.38,1.1A.33.33,0,0,1,72.26,66.81Z" fill="#fff0e1"/></g></svg>