<svg xmlns="http://www.w3.org/2000/svg" viewBox="0 0 190.27 217.85"><g id="OBJECTS"><path d="M5.71,217.85A5.71,5.71,0,0,1,0,212.15v-117A95.19,95.19,0,0,1,134.29,8.4c1.15.52,2.33,1.09,3.61,1.73l.39.2a94.1,94.1,0,0,1,8.56,4.95A95.85,95.85,0,0,1,157,22.84c1.84,1.57,3.66,3.26,5.42,5,.72.72,1.42,1.45,2.12,2.18s1.32,1.44,2,2.16l.15.18a95,95,0,0,1,23.64,62.75v117a5.71,5.71,0,0,1-5.71,5.7Z" fill="#fff"/><path d="M184.73,95.15v117H5.88v-117a89.26,89.26,0,0,1,32.66-69.1l.5-.4a89.6,89.6,0,0,1,88.12-14.09l.59.22c1.47.58,2.93,1.19,4.36,1.84l.14.07.58.26h0c.93.43,1.86.88,2.77,1.34l.15.07a90.42,90.42,0,0,1,8.16,4.71,89.19,89.19,0,0,1,14.63,11.84c1.31,1.31,2.59,2.66,3.81,4.06v0A89,89,0,0,1,184.73,95.15Z" fill="#a7cbcc"/><g opacity="0.28"><path d="M184.73,95.15v117H5.88v-117a89.26,89.26,0,0,1,32.66-69.1l.5-.4a89.6,89.6,0,0,1,88.12-14.09l.59.22c1.47.58,2.93,1.19,4.36,1.84l.14.07.58.26h0c.93.43,1.86.88,2.77,1.34l.15.07a90.42,90.42,0,0,1,8.16,4.71,89.19,89.19,0,0,1,14.63,11.84c1.31,1.31,2.59,2.66,3.81,4.06v0A89,89,0,0,1,184.73,95.15Z" fill="#26575e"/></g><path d="M134.16,204.69l-3.55-.08h-.25l-1.59,0h-.3l-8.23-.17H120l-2.31-.06h-.27l-8.7-.18h-.26l-2.54-.06h-.27L98,203.94h-.27l-1.89,0h-.27l-8.12-.14h-.27l-2.26,0h-.26l-8-.14h-.25l-1.18,0H75c-3.81-.06-7.33-.11-10.37-.14h-.3l-1.54,0h-.26c-5.33,0-8.78,0-9,.05l4-6.2.19-.29h0l4.13-6.36.14-.23.87-1.33,2.89-4.46h58l.26.5.08.14,2.94,5.67.11.22,4.5,8.68.15.28Z" fill="#f56a58"/><path d="M124.33,185l-.3.13c-27.09,12-57.26,4.83-61.19,3.82l2.89-4.46H110.5L124,185Z" fill="#44182c"/><path d="M127.08,191.05a75,75,0,0,1-19,3.72c-3.8.32-7.61.48-11.41.48a136.3,136.3,0,0,1-27.45-2.79,60.87,60.87,0,0,1-7.36-1.92l.14-.23a56.8,56.8,0,0,0,7.27,1.9A136.06,136.06,0,0,0,108,194.52a75.4,75.4,0,0,0,19-3.69Z" fill="#f7f0e7"/><path d="M62.37,200.82c.17.84.31,1.68.41,2.54h-.26c-.1-.83-.23-1.66-.39-2.48A5.65,5.65,0,0,0,61,198.12a3.61,3.61,0,0,0-3.49-.92l.19-.29h0a3.86,3.86,0,0,1,3.49,1A5.8,5.8,0,0,1,62.37,200.82Z" fill="#f7f0e7"/><path d="M74.87,202.22c.14.43.27.87.37,1.31H75q-.17-.61-.36-1.23A5.3,5.3,0,0,0,73,199.61c-1.83-1.37-4.49-.3-6.19,1.27a14,14,0,0,0-2.17,2.5h-.3a14.74,14.74,0,0,1,2.3-2.68c1.77-1.64,4.57-2.74,6.51-1.29A5.59,5.59,0,0,1,74.87,202.22Z" fill="#f7f0e7"/><path d="M84.09,201.6a17.81,17.81,0,0,1,.83,2.09h-.26a15.46,15.46,0,0,0-.8-2c-.5-1.05-1.59-2.81-3.25-2.83h0c-1.86,0-3,2.19-3.35,3.13-.21.51-.4,1-.57,1.54h-.25c.17-.56.37-1.1.59-1.64.41-1,1.57-3.28,3.58-3.28h0C82.41,198.65,83.56,200.5,84.09,201.6Z" fill="#f7f0e7"/><path d="M95.12,202c.27.62.51,1.24.72,1.88h-.27c-.2-.6-.43-1.19-.68-1.77a3.88,3.88,0,0,0-2-2.35c-1.5-.51-3,.85-3.56,1.45a13.56,13.56,0,0,0-1.87,2.53h-.27a12.87,12.87,0,0,1,2-2.69c.6-.64,2.19-2.07,3.82-1.52A4.12,4.12,0,0,1,95.12,202Z" fill="#f7f0e7"/><path d="M104.92,202c.35.7.68,1.41,1,2.13h-.27c-.29-.68-.6-1.36-.93-2-.52-1-1.36-2.42-2.69-2.55-1.67-.16-2.81,1.74-3.23,2.57a15.75,15.75,0,0,0-.78,1.85h-.27a18.71,18.71,0,0,1,.83-2c.42-.84,1.55-2.72,3.24-2.72H102C103.49,199.42,104.38,200.88,104.92,202Z" fill="#f7f0e7"/><path d="M117,202.66c.23.55.45,1.11.66,1.67h-.26c-.2-.53-.41-1.06-.63-1.58a8.24,8.24,0,0,0-1.59-2.73,3.06,3.06,0,0,0-2.79-1,3.68,3.68,0,0,0-2,1.55,11.81,11.81,0,0,0-1.71,3.56h-.26a12.13,12.13,0,0,1,1.77-3.7,3.81,3.81,0,0,1,2.13-1.65,3.27,3.27,0,0,1,3,1A8.44,8.44,0,0,1,117,202.66Z" fill="#f7f0e7"/><path d="M126.19,200.79a21.7,21.7,0,0,1,2.57,3.78h-.29A21.74,21.74,0,0,0,126,201c-1-1.2-1.93-1.72-2.81-1.61-1,.14-1.85,1.11-2.39,2.89-.21.71-.4,1.43-.56,2.16H120c.17-.75.36-1.49.58-2.23.58-1.89,1.45-2.92,2.6-3.06C124.13,199,125.12,199.53,126.19,200.79Z" fill="#f7f0e7"/><path d="M131.73,200a9.07,9.07,0,0,0-.47,1.16,14,14,0,0,0-.65,3.44h-.25a14.29,14.29,0,0,1,.66-3.52,11.06,11.06,0,0,1,.56-1.36Z" fill="#f7f0e7"/><path d="M167.18,118.56a74,74,0,1,1,0-.52C167.18,118.21,167.18,118.39,167.18,118.56Z" fill="#a7cbcc"/><g opacity="0.38"><path d="M167.18,118.56A72.85,72.85,0,0,1,36,162.21a44.46,44.46,0,0,1,1-10.79l9-1.21A68,68,0,0,0,84,138.36c6.07-4.17,11.42-9.3,17.41-13.58a77,77,0,0,1,31.47-13.17,52.48,52.48,0,0,1,21.51.3A34.27,34.27,0,0,1,167.17,118C167.18,118.21,167.18,118.39,167.18,118.56Z" fill="#f7f0e7"/></g><path d="M165.48,134.25A72.87,72.87,0,0,1,28.27,149.32a55.18,55.18,0,0,1,22.35-5.45c13.37-.53,26.58,2.59,39.78,4.81s27,3.52,39.76-.52c10-3.18,18.82-9.48,28.86-12.62A29.83,29.83,0,0,1,165.48,134.25Z" fill="#f7f0e7"/><rect x="93.05" y="118.09" width="3.92" height="52.53" fill="#f56a58"/><polygon points="93.05 121.89 93.05 123.57 96.49 124.47 96.97 124.59 96.97 122.92 93.05 121.89" fill="#f7f0e7"/><polygon points="93.05 126.76 93.05 128.44 96.97 129.46 96.97 127.79 93.05 126.76" fill="#f7f0e7"/><polygon points="93.05 131.63 93.05 133.31 96.97 134.33 96.97 132.66 93.05 131.63" fill="#f7f0e7"/><polygon points="93.05 136.5 93.05 138.19 96.97 139.21 96.97 137.53 93.05 136.5" fill="#f7f0e7"/><polygon points="93.05 141.38 93.05 143.06 96.97 144.08 96.97 142.4 93.05 141.38" fill="#f7f0e7"/><polygon points="93.05 146.25 93.05 147.93 96.97 148.95 96.97 147.27 93.05 146.25" fill="#f7f0e7"/><polygon points="93.05 151.12 93.05 152.8 96.97 153.82 96.97 152.15 93.05 151.12" fill="#f7f0e7"/><polygon points="93.05 155.99 93.05 157.67 96.97 158.69 96.97 157.02 93.05 155.99" fill="#f7f0e7"/><polygon points="93.05 160.86 93.05 162.54 96.97 163.56 96.97 161.89 93.05 160.86" fill="#f7f0e7"/><polygon points="93.05 165.73 93.05 167.41 96.97 168.44 96.97 166.76 93.05 165.73" fill="#f7f0e7"/><polygon points="93.05 118.73 93.05 122.18 96.49 124.47 96.97 124.78 96.97 118.2 93.05 118.73" fill="#44182c"/><path d="M56.28,90.62v29.86h68.39l.12-28.92a13.06,13.06,0,0,0-12.05-13.08c-.21,0-.43,0-.65,0H67.84A12.18,12.18,0,0,0,56.29,90.21C56.28,90.35,56.28,90.48,56.28,90.62Z" fill="#f56a58"/><path d="M99.33,108.56l-.75-28.72,18.77.13v8.68l-16,3.45L101,108.57a.86.86,0,0,1-.92.82h0A.85.85,0,0,1,99.33,108.56Z" fill="#44182c"/><path d="M56.28,90.62v29.86h22c.52-12.41,2.28-42-10.47-42h0c-8.76-.19-11.45,5.41-11.55,11.76C56.28,90.35,56.28,90.48,56.28,90.62Z" fill="#f7f0e7"/><path d="M56.72,91.71v28.77H57V91.71c0-6,1.26-11.69,10.43-12h0a6.06,6.06,0,0,1,4.47,2c6.28,6.54,5.46,27.38,5,38.57v.28h.27v-.27c.44-11.23,1.27-32.14-5.1-38.77a6.26,6.26,0,0,0-4.63-2,.09.09,0,0,0-.07,0,12.77,12.77,0,0,0-6.55,1.74,7.77,7.77,0,0,0-3,3.51A17.53,17.53,0,0,0,56.72,91.71Z" fill="#44182c"/><path d="M58.81,100.72H73.24a.27.27,0,1,0,0-.53H58.81a.27.27,0,1,0,0,.53Z" fill="#44182c"/><path d="M112.09,78.45c4.5,2.3,9.14,6.83,10,12.4a31.35,31.35,0,0,1,.19,5.38c0,.74,0,1.5,0,2.25l0,2.77c0,1.58,0,3.21,0,4.82,0,3.54,0,7.13,0,10.61l0,3.8h.27l0-3.8c0-3.48,0-7.07.06-10.61,0-1.61,0-3.24,0-4.82l0-2.78c0-.74,0-1.5,0-2.23a32,32,0,0,0-.19-5.43c-.82-5.45-5.2-9.91-9.59-12.33C112.53,78.46,112.31,78.45,112.09,78.45Z" fill="#44182c"/><path d="M71.93,78.44C76,80.37,79,85.65,79.79,90.73l.11.78a50.1,50.1,0,0,1,.73,7c0,.92,0,1.85,0,2.78,0,1.58,0,3.21,0,4.81,0,3.53,0,7.12-.06,10.59,0,1.27,0,2.55,0,3.82h.27c0-1.27,0-2.55,0-3.82,0-3.47.06-7.06.06-10.59,0-1.61,0-3.23,0-4.81,0-.93,0-1.86,0-2.79a50.37,50.37,0,0,0-.73-7l-.11-.78c-.75-5-3.59-10.11-7.54-12.25Z" fill="#44182c"/><path d="M94.08,66.08a.35.35,0,0,1-.25-.1L84.1,56.25a.37.37,0,0,1,0-.5.35.35,0,0,1,.5,0l9.73,9.73a.35.35,0,0,1-.25.6Z" fill="#f7f0e7"/><path d="M89.22,68.1a.35.35,0,0,1-.35-.36V54a.35.35,0,0,1,.35-.35.35.35,0,0,1,.35.35V67.74A.36.36,0,0,1,89.22,68.1Z" fill="#f7f0e7"/><path d="M84.35,66.08a.35.35,0,0,1-.25-.1.37.37,0,0,1,0-.5l9.73-9.73a.35.35,0,0,1,.5.5L84.6,66A.35.35,0,0,1,84.35,66.08Z" fill="#f7f0e7"/><path d="M96.1,61.22H82.34a.36.36,0,0,1,0-.71H96.1a.36.36,0,0,1,0,.71Z" fill="#f7f0e7"/><path d="M149.4,101.31a.35.35,0,0,1-.25-.1l-9.73-9.73a.35.35,0,0,1,0-.5.37.37,0,0,1,.5,0l9.73,9.73a.35.35,0,0,1-.25.6Z" fill="#f7f0e7"/><path d="M144.54,103.33a.35.35,0,0,1-.35-.35V89.22a.34.34,0,0,1,.35-.35.35.35,0,0,1,.35.35V103A.35.35,0,0,1,144.54,103.33Z" fill="#f7f0e7"/><path d="M139.67,101.31a.35.35,0,0,1-.25-.6L149.15,91a.37.37,0,0,1,.5,0,.35.35,0,0,1,0,.5l-9.73,9.73A.35.35,0,0,1,139.67,101.31Z" fill="#f7f0e7"/><path d="M151.42,96.45H137.66a.35.35,0,0,1-.35-.35.34.34,0,0,1,.35-.35h13.76a.35.35,0,0,1,.35.35A.35.35,0,0,1,151.42,96.45Z" fill="#f7f0e7"/><path d="M43.53,130.93a.35.35,0,0,1-.25-.1l-9.73-9.73a.35.35,0,0,1,.5-.5l9.73,9.73a.35.35,0,0,1-.25.6Z" fill="#f7f0e7"/><path d="M38.67,133a.36.36,0,0,1-.36-.36V118.84a.36.36,0,1,1,.71,0v13.75A.36.36,0,0,1,38.67,133Z" fill="#f7f0e7"/><path d="M33.8,130.93a.35.35,0,0,1-.25-.6l9.73-9.73a.35.35,0,0,1,.5.5l-9.73,9.73A.35.35,0,0,1,33.8,130.93Z" fill="#f7f0e7"/><path d="M45.54,126.07H31.79a.36.36,0,1,1,0-.71H45.54a.36.36,0,1,1,0,.71Z" fill="#f7f0e7"/><path d="M65.26,70.75a130.88,130.88,0,0,0-38.35,44.84c-.28-22.11,11.52-43.94,30-56a6.14,6.14,0,0,1,6.65,0,17.35,17.35,0,0,1,2.1,1.6A6.17,6.17,0,0,1,65.26,70.75Z" fill="#f7f0e7"/><path d="M14.24,91.65a.53.53,0,0,0,.63-.14c4.83-6,9.23-12.55,13.48-18.86,6.27-9.3,12.76-18.93,20.73-27a.51.51,0,1,0-.73-.71c-8,8.18-14.54,17.84-20.84,27.18-4.24,6.29-8.63,12.8-13.44,18.79a.51.51,0,0,0,.08.72Z" fill="#44182c"/><path d="M36.92,59.63a.52.52,0,0,0,.55-.05c4.79-3.74,9.06-6.18,13.06-7.46a.52.52,0,0,0,.33-.65.51.51,0,0,0-.64-.32,41.81,41.81,0,0,0-11.86,6.47A130.2,130.2,0,0,1,44,45.77a.5.5,0,0,0-.2-.69.49.49,0,0,0-.69.19A140.55,140.55,0,0,0,36.69,59a.5.5,0,0,0,.16.6Z" fill="#44182c"/><path d="M32.57,66a.52.52,0,0,0,.51,0A45.09,45.09,0,0,1,46.76,60a.51.51,0,0,0,.37-.62.5.5,0,0,0-.61-.37,45.88,45.88,0,0,0-13,5.45,54.32,54.32,0,0,1,3.4-12.67.52.52,0,0,0-.27-.67.51.51,0,0,0-.67.27,56.8,56.8,0,0,0-3.64,14,.5.5,0,0,0,.23.5Z" fill="#44182c"/><path d="M26.81,74.15a.51.51,0,0,0,.52,0,47.13,47.13,0,0,1,15.62-7,.52.52,0,0,0,.38-.62.51.51,0,0,0-.62-.37A48.19,48.19,0,0,0,27.6,72.71a69.37,69.37,0,0,1,2.54-16.34.52.52,0,0,0-.34-.64.53.53,0,0,0-.64.35,72.37,72.37,0,0,0-2.62,17.6.49.49,0,0,0,.26.46Z" fill="#44182c"/><path d="M22,81.32h0a.49.49,0,0,0,.52-.07c4.31-3.46,10.35-4.41,15.2-5.18a.51.51,0,1,0-.15-1c-4.7.73-10.48,1.64-14.91,4.8a69.63,69.63,0,0,1,1-16.68.51.51,0,0,0-1-.19,71.37,71.37,0,0,0-1,17.88A.51.51,0,0,0,22,81.32Z" fill="#44182c"/><path d="M17.16,88a.54.54,0,0,0,.48,0,33.59,33.59,0,0,1,16-4.15.5.5,0,0,0,.5-.51.51.51,0,0,0-.51-.51,34.73,34.73,0,0,0-15.67,3.86c.07-2.78.11-5.51.15-8.24.05-3,.09-6.06.18-9.16a.51.51,0,0,0-.5-.52.5.5,0,0,0-.52.49c-.08,3.1-.13,6.14-.18,9.17s-.08,6-.17,9.11a.52.52,0,0,0,.25.45Z" fill="#44182c"/><path d="M43.53,50.94a.5.5,0,0,0,.49,0,14.53,14.53,0,0,1,6.53-1.86.5.5,0,0,0,.48-.53.51.51,0,0,0-.53-.49,15.64,15.64,0,0,0-5.77,1.38,33.37,33.37,0,0,1,1.92-4,.51.51,0,0,0-.18-.7.48.48,0,0,0-.69.19,35.77,35.77,0,0,0-2.49,5.37.5.5,0,0,0,.14.56Z" fill="#44182c"/><path d="M175.9,105.41a.51.51,0,0,1-.57-.31c-2.86-7.18-5.17-14.7-7.4-22C164.65,72.39,161.25,61.3,156,51.22a.51.51,0,0,1,.91-.47c5.3,10.16,8.71,21.3,12,32.08,2.22,7.25,4.52,14.76,7.37,21.89a.51.51,0,0,1-.28.66Z" fill="#44182c"/><path d="M163.53,68.17A.5.5,0,0,1,163,68c-3.5-5-6.87-8.55-10.32-10.95a.51.51,0,1,1,.58-.83,41.58,41.58,0,0,1,9.45,9.65,128.73,128.73,0,0,0-2-13,.5.5,0,0,1,.39-.6.48.48,0,0,1,.6.39,139.14,139.14,0,0,1,2.17,15,.51.51,0,0,1-.33.53Z" fill="#44182c"/><path d="M165.84,75.51a.51.51,0,0,1-.48-.17A44.94,44.94,0,0,0,154,65.69a.51.51,0,0,1,.53-.87,46,46,0,0,1,10.88,9,54.32,54.32,0,0,0,.44-13.11.51.51,0,1,1,1-.1,56.86,56.86,0,0,1-.6,14.47.52.52,0,0,1-.37.41Z" fill="#44182c"/><path d="M169,85a.51.51,0,0,1-.49-.19,47.15,47.15,0,0,0-12.9-11.26.51.51,0,1,1,.52-.87A48,48,0,0,1,168.63,83.4,68.93,68.93,0,0,0,171,67a.51.51,0,1,1,1,0,72,72,0,0,1-2.62,17.6A.52.52,0,0,1,169,85Z" fill="#44182c"/><path d="M171.52,93.28h0a.48.48,0,0,1-.48-.22c-3.11-4.57-8.61-7.24-13-9.38a.51.51,0,0,1,.44-.92c4.28,2.08,9.54,4.63,12.86,8.94a69.33,69.33,0,0,0,3.87-16.25.51.51,0,0,1,.56-.45.5.5,0,0,1,.45.56A71.61,71.61,0,0,1,171.91,93,.52.52,0,0,1,171.52,93.28Z" fill="#44182c"/><path d="M174.16,101.07a.49.49,0,0,1-.45-.15,33.51,33.51,0,0,0-14.06-8.62.5.5,0,0,1-.33-.64.51.51,0,0,1,.64-.33,34.55,34.55,0,0,1,13.86,8.26c.74-2.68,1.5-5.3,2.26-7.93.84-2.91,1.68-5.83,2.5-8.81a.52.52,0,0,1,.63-.36.51.51,0,0,1,.35.63c-.82,3-1.66,5.91-2.5,8.82s-1.68,5.79-2.5,8.76a.47.47,0,0,1-.36.36Z" fill="#44182c"/><path d="M159.74,57.93a.49.49,0,0,1-.45-.15,14.57,14.57,0,0,0-5.71-3.68.52.52,0,0,1-.31-.65.5.5,0,0,1,.65-.31,15.53,15.53,0,0,1,5.12,3,32.28,32.28,0,0,0-.68-4.36.5.5,0,0,1,.38-.61.48.48,0,0,1,.61.37,36.36,36.36,0,0,1,.81,5.86.5.5,0,0,1-.3.51Z" fill="#44182c"/><path d="M33.37,174.12A24,24,0,0,0,20,172.66s0,0,0,0A11,11,0,0,0,12.66,162a0,0,0,0,1,0,0c1.24-4.9,2-8.76-.17-13.46a0,0,0,0,1,0,0c3.65.91,7.39.09,11-.78l0,0c2,5.47,6.13,8.33,10.46,9.9,0,0,0,0,0,0C32,163.91,31.48,167.77,33.37,174.12Z" fill="#26575e"/><path d="M41,193.83a24,24,0,0,0-12.24,5.54,0,0,0,0,1-.05,0A11,11,0,0,0,17,194a0,0,0,0,1,0,0c-1.43-4.84-2.75-8.54-7-11.49a0,0,0,0,1,0-.06c3.6-1.07,6.4-3.68,9.11-6.29a0,0,0,0,1,.05,0c4.45,3.71,9.51,4,14,3.19,0,0,0,0,0,0C34.63,185.76,36.18,189.32,41,193.83Z" fill="#26575e"/><path d="M50.8,208.3a.4.4,0,0,1-.37-.25,164.36,164.36,0,0,0-31.65-52.56.39.39,0,0,1,.58-.52,165.15,165.15,0,0,1,31.8,52.81.4.4,0,0,1-.23.5Z" fill="#44182c"/><path d="M47,199.31a.39.39,0,0,1-.27-.1,61.28,61.28,0,0,0-20.34-12.83.39.39,0,0,1-.23-.51.38.38,0,0,1,.5-.22,62.34,62.34,0,0,1,20.61,13,.38.38,0,0,1,0,.55A.38.38,0,0,1,47,199.31Z" fill="#44182c"/><path d="M42.76,178.08a24,24,0,0,0-8.6-10.33s0,0,0-.05A11,11,0,0,0,36.27,155a0,0,0,0,1,0,0c4.29-2.66,8.54-5.27,10.25-10.16a.51.51,0,0,1,.24-.07,20.86,20.86,0,0,0,7.28,7.53.06.06,0,0,1,0,0c-2.4,5.29-1.37,10.25.65,14.38a0,0,0,0,1,0,0C48.83,169.75,45.82,172.2,42.76,178.08Z" fill="#26575e"/><path d="M42.22,188.44h0a.38.38,0,0,1-.38-.39,123.13,123.13,0,0,1,2.88-25.31l1.94-12a.38.38,0,0,1,.44-.32.39.39,0,0,1,.33.44l-1.94,12a122.81,122.81,0,0,0-2.88,25.18A.38.38,0,0,1,42.22,188.44Z" fill="#44182c"/><path d="M53.66,193a7,7,0,1,1-.14-9.95A7,7,0,0,1,53.66,193Z" fill="#f56a58"/><path d="M54.74,187.82c-.37.19-1.13-.53-1.69-1.61s-.71-2.12-.34-2.31,1.13.53,1.69,1.61S55.11,187.63,54.74,187.82Z" fill="#44182c"/><path d="M37.8,189.06A7,7,0,1,1,28,187.67,7,7,0,0,1,37.8,189.06Z" fill="#f56a58"/><path d="M32.9,187.2c.13.4-.69,1-1.85,1.43s-2.2.38-2.33,0,.69-1,1.85-1.42S32.77,186.81,32.9,187.2Z" fill="#44182c"/><path d="M158.88,175.6a24,24,0,0,1,13.36-1.46s0,0,0,0a11,11,0,0,1,7.32-10.62.08.08,0,0,0,0,0c-1.24-4.9-2-8.75.17-13.46a0,0,0,0,0,0-.05c-3.65.91-7.39.09-11-.77,0,0,0,0,0,0-1.95,5.46-6.13,8.32-10.45,9.89,0,0,0,0,0,0C160.3,165.39,160.77,169.25,158.88,175.6Z" fill="#26575e"/><path d="M151.21,195.31a24,24,0,0,1,12.24,5.54,0,0,0,0,0,.05,0,11,11,0,0,1,11.71-5.42l0,0c1.43-4.85,2.75-8.55,7-11.5a0,0,0,0,0,0-.06c-3.6-1.07-6.4-3.68-9.11-6.29h0c-4.46,3.71-9.52,4-14,3.19,0,0,0,0,0,0C157.63,187.24,156.07,190.8,151.21,195.31Z" fill="#26575e"/><path d="M141.46,209.78l-.14,0a.4.4,0,0,1-.23-.5,165,165,0,0,1,31.8-52.8.38.38,0,0,1,.55,0,.39.39,0,0,1,0,.55,164.2,164.2,0,0,0-31.65,52.55A.4.4,0,0,1,141.46,209.78Z" fill="#44182c"/><path d="M145.21,200.79a.38.38,0,0,1-.28-.12.39.39,0,0,1,0-.55,62.34,62.34,0,0,1,20.61-13,.39.39,0,0,1,.28.73,61.32,61.32,0,0,0-20.35,12.83A.39.39,0,0,1,145.21,200.79Z" fill="#44182c"/><path d="M149.49,179.56a24,24,0,0,1,8.6-10.33s0,0,0,0A11,11,0,0,1,156,156.46s0,0,0-.05c-4.29-2.66-8.53-5.27-10.25-10.16a.51.51,0,0,0-.23-.07,21,21,0,0,1-7.28,7.53,0,0,0,0,0,0,0c2.4,5.29,1.37,10.25-.65,14.38,0,0,0,0,0,0C143.42,171.23,146.44,173.68,149.49,179.56Z" fill="#26575e"/><path d="M150,189.92a.38.38,0,0,1-.39-.38,122.28,122.28,0,0,0-2.87-25.15l-1.94-12a.38.38,0,0,1,.76-.12l2,12a124.17,124.17,0,0,1,2.88,25.29.4.4,0,0,1-.39.39Z" fill="#44182c"/><path d="M138.6,194.43a7,7,0,1,0,.13-10A7,7,0,0,0,138.6,194.43Z" fill="#f56a58"/><path d="M137.51,189.3c.37.19,1.13-.53,1.69-1.61s.71-2.11.34-2.31-1.13.53-1.69,1.62S137.14,189.11,137.51,189.3Z" fill="#44182c"/><path d="M154.45,190.54a7,7,0,1,0,9.85-1.39A7,7,0,0,0,154.45,190.54Z" fill="#f56a58"/><path d="M159.35,188.69c-.13.39.69,1,1.85,1.42s2.2.38,2.33,0-.69-1-1.85-1.42S159.48,188.29,159.35,188.69Z" fill="#44182c"/><path d="M126,32.56a19.29,19.29,0,0,0-4.71,4l-.28.34a18.84,18.84,0,0,0-2.39,3.78.35.35,0,0,1-.53.13,19.53,19.53,0,0,0-6.6-2.74l-1.52-.38h0l-2.63-.64a14.18,14.18,0,0,0-6.44-.4.36.36,0,0,1-.27,0h0a.37.37,0,0,1-.14-.46s0,0,0,0A22.16,22.16,0,0,0,102.63,29h0c.07-.51.14-1,.2-1.52.13-1,.22-2.07.32-3.09a20.37,20.37,0,0,0,.13-3,.36.36,0,0,1,.45-.37,7.71,7.71,0,0,0,4.35-.44l.4-.13,0,0a19.47,19.47,0,0,0,5.72-3.22,4.78,4.78,0,0,0,.42-.34h0a18.3,18.3,0,0,0,2.79-2.91.36.36,0,0,1,.49-.07,16,16,0,0,0,2.52,1.45l.44.19a19.17,19.17,0,0,0,11.62,1,.36.36,0,0,1,.42.5,22.42,22.42,0,0,0-1.58,5.64c0,.15,0,.29-.05.44a21.43,21.43,0,0,0,.25,6.92.35.35,0,0,1-.27.42,17.44,17.44,0,0,0-4.92,1.9Z" fill="#26575e"/><path d="M120.91,23a.21.21,0,0,1-.15-.07.19.19,0,0,1-.07-.14v-.09l-.22-7.42.44.19.21,7v.31A.22.22,0,0,1,120.91,23Z" fill="#44182c"/><path d="M131.32,23.09l-6.21-2.21a.12.12,0,0,1-.08-.06.22.22,0,0,1-.06-.22.23.23,0,0,1,.28-.13l.39.14,5.73,2C131.35,22.8,131.34,22.94,131.32,23.09Z" fill="#44182c"/><path d="M114.87,26.42a.21.21,0,0,1-.17-.06.25.25,0,0,1-.06-.15v-.1l-.39-8.94a4.78,4.78,0,0,0,.42-.34l.4,9,0,.34A.22.22,0,0,1,114.87,26.42Z" fill="#44182c"/><path d="M126.38,32.33l-.41.23-9.08-7.24h0a.23.23,0,0,1,0-.29.22.22,0,0,1,.31,0l.12.09Z" fill="#44182c"/><path d="M108.17,30.62a.21.21,0,0,1-.22-.22v0l.13-9.84.4-.13,0,0-.13,9.68v.34A.21.21,0,0,1,108.17,30.62Z" fill="#44182c"/><path d="M121,36.92,109.87,29.6l-.12-.08,0,0a.23.23,0,0,1,0-.27.22.22,0,0,1,.3-.07l.28.18,11,7.24Z" fill="#44182c"/><path d="M111.46,38.09l-1.52-.38h0l-6.26-3.62-.2-.12s0,0,0,0a.27.27,0,0,1-.06-.12v0L102.63,29h0c.07-.51.14-1,.2-1.52l.92,6,0,.19.26.15Z" fill="#44182c"/><path d="M99.9,37h0a.21.21,0,0,1,0-.3c9.54-8.52,21.13-14.29,32.34-19.87a.23.23,0,0,1,.3.1.22.22,0,0,1-.1.29C121.27,22.75,109.7,28.51,100.2,37A.21.21,0,0,1,99.9,37Z" fill="#44182c"/><path d="M67.33,19.69a19.2,19.2,0,0,0,5.45,2.95l.41.14a18.87,18.87,0,0,0,4.39.87.37.37,0,0,1,.32.45,19.23,19.23,0,0,0-.19,7.14c.06.52.13,1,.19,1.56h0c.11.9.24,1.79.34,2.68a14.2,14.2,0,0,0,2,6.15.37.37,0,0,1,.07.26h0a.38.38,0,0,1-.38.29h0a22.3,22.3,0,0,0-7.44.55h0c-.5.11-1,.23-1.49.36-1,.25-2,.53-3,.81a21.06,21.06,0,0,0-2.87,1,.36.36,0,0,1-.51-.29,7.79,7.79,0,0,0-2-3.9c-.08-.11-.18-.21-.26-.32s0,0,0,0a19.21,19.21,0,0,0-5.06-4.18,3.59,3.59,0,0,0-.47-.27h0A18.75,18.75,0,0,0,53,34.34a.34.34,0,0,1-.24-.42A16.15,16.15,0,0,0,53.2,31c0-.16,0-.32,0-.48A19.1,19.1,0,0,0,50,19.35a.35.35,0,0,1,.31-.57,22.33,22.33,0,0,0,5.82-.56l.44-.11a21.6,21.6,0,0,0,6.36-2.72.35.35,0,0,1,.49.1A17.57,17.57,0,0,0,67,19.4Z" fill="#26575e"/><path d="M60.24,27.85a.25.25,0,0,1,0,.17.2.2,0,0,1-.11.11l-.08,0L53.2,31c0-.16,0-.32,0-.48l6.45-2.71.29-.12A.23.23,0,0,1,60.24,27.85Z" fill="#44182c"/><path d="M56.57,18.11l.17,6.59a.3.3,0,0,1,0,.1.24.24,0,0,1-.2.13.24.24,0,0,1-.22-.21V24.3l-.17-6.08Z" fill="#44182c"/><path d="M65.6,32.26a.19.19,0,0,1,0,.18.18.18,0,0,1-.1.11l-.1.05-8.2,3.58a3.59,3.59,0,0,0-.47-.27L65,32.29l.31-.14A.22.22,0,0,1,65.6,32.26Z" fill="#44182c"/><path d="M67,19.4l.37.29L63.84,30.77v0h0a.22.22,0,0,1-.26.11.22.22,0,0,1-.15-.28l0-.14Z" fill="#44182c"/><path d="M71.93,37a.25.25,0,0,1,0,.17.23.23,0,0,1-.12.12h0l-9.23,3.41c-.08-.11-.18-.21-.26-.32s0,0,0,0L71.33,37l.32-.12A.21.21,0,0,1,71.93,37Z" fill="#44182c"/><path d="M73.19,22.78l-2.82,13,0,.14s0,0,0,0a.2.2,0,0,1-.24.12.2.2,0,0,1-.17-.25L70,35.5l2.81-12.86Z" fill="#44182c"/><path d="M77.71,31.24c.06.52.13,1,.19,1.56h0L76.78,40l0,.22a.14.14,0,0,1,0,.06.2.2,0,0,1-.09.09l0,0-4.19,2.39h0c-.5.11-1,.23-1.49.36l5.26-3,.16-.09,0-.29Z" fill="#44182c"/><path d="M80.83,42.43h0a.21.21,0,0,1-.29.09C69.15,36.69,59.6,28,50.35,19.51a.22.22,0,0,1,0-.31.21.21,0,0,1,.31,0c9.22,8.42,18.75,17.14,30.08,23A.24.24,0,0,1,80.83,42.43Z" fill="#44182c"/><path d="M90.14,34a7.2,7.2,0,1,1-10.06-1.58A7.2,7.2,0,0,1,90.14,34Z" fill="#f56a58"/><path d="M104.81,29.48A7.2,7.2,0,1,1,94.75,27.9,7.2,7.2,0,0,1,104.81,29.48Z" fill="#f56a58"/><path d="M85.16,32.05c.13.41-.73,1-1.92,1.42s-2.26.36-2.39,0,.73-1.05,1.92-1.43S85,31.64,85.16,32.05Z" fill="#44182c"/><path d="M96.08,28.53c.34.26,0,1.27-.79,2.25s-1.68,1.55-2,1.29,0-1.28.79-2.25S95.74,28.26,96.08,28.53Z" fill="#44182c"/><path d="M144.67,50.56a.38.38,0,0,1-.38-.38V30a.38.38,0,0,1,.75,0V50.18A.38.38,0,0,1,144.67,50.56Z" fill="#f7f0e7"/><path d="M152.71,40.47H136.62a.38.38,0,0,1,0-.75h16.09a.38.38,0,0,1,0,.75Z" fill="#f7f0e7"/><path d="M147.6,43.79a.39.39,0,0,1-.28-.12l-5.61-6.13a.38.38,0,0,1,0-.53.37.37,0,0,1,.53,0l5.62,6.12a.37.37,0,0,1,0,.53A.35.35,0,0,1,147.6,43.79Z" fill="#f7f0e7"/><path d="M141.73,43.54a.38.38,0,0,1-.25-.66l6.12-5.61a.38.38,0,0,1,.51.55L142,43.44A.39.39,0,0,1,141.73,43.54Z" fill="#f7f0e7"/><path d="M174.62,142.13a.38.38,0,0,1-.37-.37V121.59a.38.38,0,1,1,.75,0v20.17A.38.38,0,0,1,174.62,142.13Z" fill="#f7f0e7"/><path d="M182.67,132.05H166.58a.38.38,0,1,1,0-.75h16.09a.38.38,0,0,1,0,.75Z" fill="#f7f0e7"/><path d="M177.56,135.37a.37.37,0,0,1-.28-.13l-5.61-6.12a.38.38,0,1,1,.55-.51l5.62,6.13a.37.37,0,0,1,0,.53A.39.39,0,0,1,177.56,135.37Z" fill="#f7f0e7"/><path d="M171.69,135.11a.36.36,0,0,1-.28-.12.38.38,0,0,1,0-.53l6.13-5.62a.37.37,0,0,1,.53,0,.38.38,0,0,1,0,.53L171.94,135A.35.35,0,0,1,171.69,135.11Z" fill="#f7f0e7"/><path d="M15.3,142.13a.38.38,0,0,1-.37-.37V121.59a.38.38,0,1,1,.75,0v20.17A.38.38,0,0,1,15.3,142.13Z" fill="#f7f0e7"/><path d="M23.35,132.05H7.26a.38.38,0,0,1,0-.75H23.35a.38.38,0,0,1,0,.75Z" fill="#f7f0e7"/><path d="M18.24,135.37a.37.37,0,0,1-.28-.13l-5.61-6.12a.38.38,0,0,1,.55-.51l5.62,6.13a.37.37,0,0,1,0,.53A.39.39,0,0,1,18.24,135.37Z" fill="#f7f0e7"/><path d="M12.37,135.11a.39.39,0,0,1-.28-.12.38.38,0,0,1,0-.53l6.13-5.62a.37.37,0,0,1,.53,0,.38.38,0,0,1,0,.53L12.62,135A.35.35,0,0,1,12.37,135.11Z" fill="#f7f0e7"/></g></svg>