<svg xmlns="http://www.w3.org/2000/svg" viewBox="0 0 198.89 221.47"><g id="OBJECTS"><path d="M6,221.47a6,6,0,0,1-6-6V99.22c0-.24,0-.47,0-.71,0,0,0-1,0-1.06,0-.93.05-1.85.09-2.77S.21,92.9.26,92l0-.34s0-.2,0-.24Q.42,90,.58,88.49c.1-.94.22-1.89.35-2.83,0-.14,0-.3.07-.49.11-.78.22-1.56.36-2.34a6,6,0,0,1,.14-.78c.91-3.63,1.92-7.14,3-10.48a122.79,122.79,0,0,1,6.72-16.48c.66-1.34,1.41-2.78,2.22-4.23a100.42,100.42,0,0,1,6.6-10.44c.5-.67,1-1.32,1.47-2A95.16,95.16,0,0,1,31.59,27.25c2.28-2.15,4.7-4.22,7.22-6.16,1.26-1,2.58-1.94,3.91-2.85s2.72-1.84,4.11-2.7c.54-.34,1.09-.68,1.65-1,2.75-1.63,5.58-3.14,8.43-4.5a103.09,103.09,0,0,1,44-10c1.63,0,3.27,0,4.89.12h.07a92.82,92.82,0,0,1,17.36,2.51A95.22,95.22,0,0,1,150,13.78l.73.45A102.59,102.59,0,0,1,161.56,22c.43.34.88.72,1.33,1.11a104.16,104.16,0,0,1,21.58,25.2,98.09,98.09,0,0,1,13.8,39.75s0,.23,0,.28a104.6,104.6,0,0,1,.58,10.87V215.47a6,6,0,0,1-6,6Z" fill="#fff"/><path d="M193.38,99.73V216H6.49V99.73c0-.18,0-.35,0-.53,0-.38,0-.76,0-1.14,0-1.73.12-3.45.23-5.16,0-.17,0-.33,0-.5q.21-2.76.59-5.48a1.87,1.87,0,0,1,0-.25c.11-.82.23-1.63.37-2.44a1.87,1.87,0,0,1,0-.25,125.92,125.92,0,0,1,9.28-25.7q1-2,2.09-4a92,92,0,0,1,6.22-9.83c.46-.63.92-1.25,1.39-1.87A87.64,87.64,0,0,1,50.48,21.15c.5-.31,1-.62,1.51-.91q3.88-2.31,8-4.27A96.4,96.4,0,0,1,106,6.63h0A86.66,86.66,0,0,1,122.29,9a89.27,89.27,0,0,1,25,10.44l.34.21.08.05.26.16a96.64,96.64,0,0,1,10.23,7.32c.41.33.82.67,1.22,1A97.77,97.77,0,0,1,173.3,42.53,96.39,96.39,0,0,1,179.83,52a91.54,91.54,0,0,1,13,37.3l0,.25A96,96,0,0,1,193.38,99.73Z" fill="#8eb191"/><polygon points="193.38 138.1 193.38 215.98 6.49 215.98 6.49 145.96 193.38 138.1" fill="#a284a3"/><path d="M61.64,120.52a10.92,10.92,0,0,1-1.53.66C57,122.31,49.29,124,38.66,119c-6.64-3.14-20-9.6-32.17-15.54V99.73c0-.18,0-.35,0-.53,0-.38,0-.76,0-1.14,0-1.73.12-3.45.23-5.16,0-.17,0-.33,0-.5q.21-2.76.59-5.48a1.87,1.87,0,0,1,0-.25c.11-.82.23-1.63.37-2.44a1.87,1.87,0,0,1,0-.25,125.92,125.92,0,0,1,9.28-25.7q1-2,2.09-4c9.57,4.92,22.12,11.47,33.06,17.41,12.85,7,23.48,13.13,24.45,14.86C79.25,91.16,61.64,120.52,61.64,120.52Z" fill="#3b1d3b"/><path d="M49.52,114.39c-1.94,2.24-5.26,2.86-8.17,2.32s-5.6-2.11-8.16-3.6a29.66,29.66,0,0,1,2.94-5.25,18.45,18.45,0,0,0,12,1.88A21.33,21.33,0,0,0,49.52,114.39Z" fill="#fde2d2"/><path d="M50.4,75,31.34,109.54,6.51,98.06c0-1.73.12-3.45.23-5.16,0-.17,0-.33,0-.5q.21-2.76.59-5.48a1.87,1.87,0,0,1,0-.25c.11-.82.23-1.63.37-2.44a1.87,1.87,0,0,1,0-.25,125.92,125.92,0,0,1,9.28-25.7Z" fill="#fde2d2"/><polygon points="128.79 134.94 120.87 137.75 106.06 131.69 105.59 131.5 104.02 130.86 109.25 123.2 110.21 123.78 112.4 125.09 128.79 134.94" fill="#becce3"/><polygon points="112.4 125.09 106.06 131.69 105.59 131.5 110.21 123.78 112.4 125.09" fill="#3b1d3b"/><polygon points="106.77 116.3 112.65 120.62 103.56 135.54 92.11 130.25 99.14 117.76 106.77 116.3" fill="#becce3"/><path d="M106.83,116.18l-.16.14-6.11,5.38-.11.1s-.14.57-.38,1.5c0,.09-.06.19-.08.28-.56,2.13-1.57,5.82-2.62,9.1a28.6,28.6,0,0,1-2.54,6.22c-1.94,2.68-9.23-1.14-9.91-1.5l0,0A39.42,39.42,0,0,1,76.62,135a1.36,1.36,0,0,1-.21-.1,4.09,4.09,0,0,1-.42-.2.94.94,0,0,1-.22-.12A4.18,4.18,0,0,1,73.58,132s0,0,0,0a4.24,4.24,0,0,1,0-2h0a1.3,1.3,0,0,1,.06-.2h0l-.13,0-.2,0-.71-.16a18.76,18.76,0,0,1-5-1.8,3.29,3.29,0,0,1-.94-.86s0,0,0,0a3.66,3.66,0,0,1-.56-2.68h-.15c-.75-.06-4.09-.42-5.21-1.77a3.34,3.34,0,0,1-.51-1.13c-.85-2.9-1.11-9.74-1.54-13.43-.51-4.34,5.11-23,5.11-23L52.25,71.7,26.8,42.59A87.64,87.64,0,0,1,50.48,21.15c.5-.31,1-.62,1.51-.91q3.88-2.31,8-4.27c8.07,14.18,31.68,55.79,34.85,61.91C98.66,85.28,106.83,116.18,106.83,116.18Z" fill="#ff8cae"/><path d="M73.64,130.09h-.08c-5.08-1.09-7.8-2.61-8.08-4.53-.39-2.58,1.7-13.45,1.79-13.91a.37.37,0,1,1,.73.14c0,.11-2.15,11.2-1.78,13.66.13.89,1.28,2.57,7.49,3.9a.38.38,0,0,1-.07.75Z" fill="#3b1d3b"/><path d="M84.19,137.4h0c-.36-.05-8.79-1.25-10.57-4.18s2.76-18.9,3.28-20.72a.38.38,0,1,1,.72.21c-1.38,4.85-4.68,17.94-3.36,20.13,1.59,2.62,10,3.81,10,3.82a.37.37,0,0,1,0,.74Z" fill="#3b1d3b"/><path d="M92.52,140.25a16.75,16.75,0,0,1-7.88-2.58c-1.84-1.41,2.3-16.69,3.61-21.34a.38.38,0,0,1,.47-.26.39.39,0,0,1,.26.47c-2.63,9.29-4.86,19.79-3.88,20.53,1.41,1.08,6,2.85,8.31,2.35a1.52,1.52,0,0,0,1.09-.7c1.24-2.32,6.55-19.92,6.61-20.1a.37.37,0,0,1,.46-.25.38.38,0,0,1,.26.47c-.22.73-5.39,17.85-6.67,20.24a2.22,2.22,0,0,1-1.59,1.07A4.93,4.93,0,0,1,92.52,140.25Z" fill="#3b1d3b"/><g opacity="0.27"><path d="M193.38,143.51v.38c-62.14,2.13-124.9,5.34-186.89,9.53V153C68.48,148.85,131.24,145.64,193.38,143.51Z" fill="#3b1d3b"/><path d="M193.38,148.27v.38c-17.68,1.77-35.62,2.58-53.09,3.37l-4.71.22c-42.84,2-86.18,4.47-129.09,7.47v-.39c42.91-3,86.23-5.5,129.07-7.46l4.7-.22C157.75,150.85,175.69,150,193.38,148.27Z" fill="#3b1d3b"/><path d="M193.38,165.47v.38c-44.25.68-89.88,1.43-134.69,3.93-6.64.36-13.37.77-19.9,1.18-10.62.65-21.44,1.31-32.3,1.8v-.37c10.86-.5,21.68-1.17,32.27-1.82,6.52-.4,13.26-.81,19.9-1.18C103.5,166.9,149.12,166.15,193.38,165.47Z" fill="#3b1d3b"/><path d="M193.38,174.18v.39L65.67,180.33c-19.47.88-39.42,1.78-59.18,3.58v-.38c19.76-1.81,39.69-2.71,59.15-3.58Z" fill="#3b1d3b"/><path d="M193.38,178.6V179c-1.95.08-3.9.18-5.83.27L6.49,187.9v-.38l181-8.65C189.46,178.78,191.42,178.68,193.38,178.6Z" fill="#3b1d3b"/><path d="M193.38,196.54v.39c-19.3-.29-38.5-2.85-57.2-5.33-21.3-2.83-43.33-5.75-65.31-5.33l-.81,0c-19.6.45-39.07,3.52-57.91,6.48l-5.66.9v-.39L12,192.4c19.13-3,38.9-6.13,58.83-6.51,22-.43,44.09,2.5,65.41,5.33C155,193.7,174.13,196.25,193.38,196.54Z" fill="#3b1d3b"/><path d="M193.38,199.94v.39c-6.15.29-12.31.51-18.43.62-8.22.15-16.57.1-24.64.06-7.82,0-15.91-.09-23.86,0-15.81.26-31.9,1.22-47.45,2.15-23.78,1.42-48.35,2.89-72.51,1.88v-.39c24.11,1,48.7-.45,72.47-1.87,15.56-.93,31.65-1.89,47.49-2.15,8-.13,16-.09,23.87,0,8.07,0,16.41.09,24.62-.06C181.07,200.45,187.23,200.23,193.38,199.94Z" fill="#3b1d3b"/><path d="M193.38,207.42v.38c-8.16.72-16.47.77-24.29.82-54,.31-108.54,1.69-162.6,4.12v-.38c54.06-2.43,108.65-3.81,162.61-4.12C176.91,208.19,185.22,208.14,193.38,207.42Z" fill="#3b1d3b"/><path d="M193.38,156.94v.38c-47.17-.41-94.78,1.79-141,3.93-13.29.61-27,1.24-40.56,1.81-1.69.07-3.46.14-5.28.19v-.38c1.79-.05,3.55-.13,5.27-.2,13.51-.56,27.26-1.19,40.54-1.81C98.58,158.72,146.19,156.52,193.38,156.94Z" fill="#3b1d3b"/><path d="M193.38,161.92v.38c-59.64.77-119.78,2.93-179.12,6.42-2.52.14-5.13.29-7.77.5v-.38c2.68-.21,5.28-.37,7.74-.51C73.59,164.84,133.74,162.68,193.38,161.92Z" fill="#3b1d3b"/></g><path d="M57.16,160.64c-11.47,11.85-38.9,13.2-46.45-3.95a19.54,19.54,0,0,1,1-17.49A16.22,16.22,0,0,1,18.14,133l.74-.35a11.71,11.71,0,0,1,6.4-.79c2.91.36,5.8,1.38,8.91,1.49,4.13.15,8-1.23,12-1.76a17,17,0,0,1,6.6.27C66.33,135.34,65.29,152.24,57.16,160.64Z" fill="#f77168"/><path d="M47.19,132.64c0,.3-.29.53-.55.69a8,8,0,0,1-7.69.38,15.6,15.6,0,0,1,1.73,6.48c0,.9-.27,2.08-1.16,2.11-.62,0-1.07-.57-1.37-1.11a13.15,13.15,0,0,1-1.58-6.95,27.74,27.74,0,0,1-2.89,6.65,3.45,3.45,0,0,1-1.31,1.29,1.4,1.4,0,0,1-1.69-.3,2,2,0,0,1-.15-1.58A21.39,21.39,0,0,1,33,133.64a21.36,21.36,0,0,1-8.62,1c-.74-.06-1.7-.46-1.56-1.19.07-.37.42-.61.75-.8a10.5,10.5,0,0,1,1.72-.8c2.91.36,5.8,1.38,8.91,1.49,4.13.15,8-1.23,12-1.76a2.24,2.24,0,0,1,.72.54A.85.85,0,0,1,47.19,132.64Z" fill="#3b1d3b"/><path d="M52.49,135.76A2.4,2.4,0,0,0,52,137a3.49,3.49,0,0,0,.61,2,15.74,15.74,0,0,0,2.48,3.21,5.71,5.71,0,0,0,1.87,1.33,2.56,2.56,0,0,0,2.23-.08,2.71,2.71,0,0,0,1.15-1.76c.49-2.1-.71-4.21-2-5.94A3.52,3.52,0,0,0,52.49,135.76Z" fill="#fde2d2"/><path d="M58.67,149.63a2.32,2.32,0,1,0,.66-4.57A2.34,2.34,0,0,0,58.67,149.63Z" fill="#fde2d2"/><path d="M193.38,169.57v5.54c-6.38-.12-12.15-.3-16.33-.45l-2.28-.08-3.83-.16-.71,0v-2.72s2.59-.28,6.78-.68l1.69-.16.78-.08h.08C183.41,170.39,188.19,170,193.38,169.57Z" fill="#3b1d3b"/><rect x="97.13" y="189.33" width="44.55" height="4.21" fill="#f8ae61"/><polygon points="96.93 190.41 141.87 190.03 141.81 191.56 97.13 193.54 96.93 190.41" fill="#3b1d3b"/><path d="M58.32,170.43s8,22.21,62.63,21.15c53-1,58.64-21.15,58.64-21.15Z" fill="#f8ae61"/><path d="M179.59,170.43a2.1,2.1,0,0,1-.33,1.11c-3.18,5.34-29,9.49-60.31,9.49s-57.12-4.15-60.3-9.49a2.1,2.1,0,0,1-.33-1.11c0-5.85,27.15-10.59,60.63-10.59S179.59,164.58,179.59,170.43Z" fill="#fde2d2"/><path d="M179.26,171.54c-3.18,5.34-29,9.49-60.31,9.49s-57.12-4.15-60.3-9.49c3.18-5.34,29-9.49,60.3-9.49S176.08,166.2,179.26,171.54Z" fill="#fde2d2"/><path d="M177,171c-3.06,4.86-27.9,8.64-58.09,8.64s-55-3.78-58.08-8.64c3.06-4.85,27.9-8.63,58.08-8.63S174,166.18,177,171Z" fill="#a284a3" opacity="0.28"/><path d="M149.34,171.63c0,3-13.85,5.4-30.93,5.4s-30.93-2.42-30.93-5.4,13.85-5.41,30.93-5.41S149.34,168.64,149.34,171.63Z" fill="#3b1d3b"/><path d="M9.32,206.35c6.56-9.75,5.55-23.12,12-33a2.17,2.17,0,0,1,1.25-1.1c1.15-.24,1.86,1.2,2.13,2.35.43,1.85.87,3.7,1.3,5.55a25.67,25.67,0,0,1,7.52-15.87c1.33-1.27,3.28-2.44,4.9-1.56a4.39,4.39,0,0,1,1.8,2.9,20.06,20.06,0,0,1,.63,5.17,27.87,27.87,0,0,1,8.82-7.92,9.92,9.92,0,0,1,4.23-1.41,4.45,4.45,0,0,1,3.92,1.76c1.08,1.63.59,3.81-.07,5.65a38.89,38.89,0,0,1-5.07,9.6,17.27,17.27,0,0,1,6.29,0,6.12,6.12,0,0,1,4.14,2.56,4.79,4.79,0,0,1-.38,4.81,10.61,10.61,0,0,1-3.8,3.29,28.49,28.49,0,0,1-8.83,3.31c.89.09,1.53,0,2.42.12,2,.22,4.2.54,5.48,2.08,1.86,2.22.63,5.86-1.76,7.49S50.77,204,47.88,204c-10.39.06-20.84-1-31.13.42C13.73,204.8,11.78,204.57,9.32,206.35Z" fill="#8eb191"/><path d="M9.24,206.13C22.9,189.54,39.77,175,57.42,162.77" fill="none" stroke="#3b1d3b" stroke-linecap="round" stroke-linejoin="round" stroke-width="0.5"/><path d="M122.77,148.76a5.33,5.33,0,0,0,.63,4.08,3.21,3.21,0,0,0,5.12,0,5.47,5.47,0,0,0,.59-4.37,26,26,0,0,0-4.38-9.77,25.51,25.51,0,0,1-.63,5C123.67,145.4,123.06,147,122.77,148.76Z" fill="#fde2d2"/><path d="M160.82,136.08c-.17,6.26-2.25,10.34-5.34,12.65a12.64,12.64,0,0,1-7.84,2.31c-7-.12-12.53-5.71-12.38-16.39,0-.1,0-.2,0-.3.28-8.79,7.38-15.74,12.93-15.64C154.34,118.81,161.07,127.15,160.82,136.08Z" fill="#fde2d2"/><path d="M154.92,127.4a16.07,16.07,0,0,0-2.93-3.78,1.2,1.2,0,0,1,0-1.68l.29-.29a.92.92,0,0,1,1.19-.08,10.79,10.79,0,0,1,3.51,4.28,1.25,1.25,0,0,1-.18,1.35l-.38.4A.91.91,0,0,1,154.92,127.4Z" fill="#fff"/><path d="M156.67,129.15l.67-.55a.68.68,0,0,1,1.06.29l.31.7a.87.87,0,0,1-.3,1.08l-.75.44a.68.68,0,0,1-1-.36l-.24-.6A.87.87,0,0,1,156.67,129.15Z" fill="#fff"/><path d="M155.48,148.73a12.64,12.64,0,0,1-7.84,2.31c-7-.12-12.53-5.71-12.38-16.39,0-.1,0-.2,0-.3a16.38,16.38,0,0,0,1.63,5.07c1.71,3.12,4.67,5.07,7.63,6.62a25.69,25.69,0,0,0,6.35,2.48A13.18,13.18,0,0,0,155.48,148.73Z" fill="#3b1d3b" opacity="0.12"/><path d="M188.51,136.56c-.17,6.25-2.25,10.34-5.34,12.65a12.64,12.64,0,0,1-7.84,2.31c-7-.12-12.53-5.71-12.38-16.39,0-.1,0-.2,0-.3.28-8.79,7.38-15.74,12.93-15.64C182,119.29,188.76,127.63,188.51,136.56Z" fill="#fde2d2"/><path d="M182.61,127.88a16.3,16.3,0,0,0-2.92-3.78,1.2,1.2,0,0,1,0-1.68l.29-.29a.93.93,0,0,1,1.19-.08,10.79,10.79,0,0,1,3.51,4.28,1.25,1.25,0,0,1-.18,1.35c-.13.13-.25.26-.37.4A.92.92,0,0,1,182.61,127.88Z" fill="#fff"/><path d="M184.36,129.63l.67-.55a.67.67,0,0,1,1.06.29l.31.7a.87.87,0,0,1-.3,1.08l-.75.44a.68.68,0,0,1-1-.36l-.24-.6A.87.87,0,0,1,184.36,129.63Z" fill="#fff"/><path d="M183.17,149.21a12.64,12.64,0,0,1-7.84,2.31c-7-.12-12.53-5.71-12.38-16.39,0-.1,0-.2,0-.3a16.38,16.38,0,0,0,1.63,5.07c1.71,3.12,4.67,5.06,7.63,6.62a25.69,25.69,0,0,0,6.35,2.48A13.18,13.18,0,0,0,183.17,149.21Z" fill="#3b1d3b" opacity="0.12"/><path d="M161.09,79.18l-4.39-2.72c.46-4.14,4.66-43.36-2.6-42.15s-1.22,38.27-.56,42.17l-3.94,3.15A11.05,11.05,0,0,0,145.79,91l3.34,13h14.8l2.25-13.63A11,11,0,0,0,161.09,79.18Z" fill="#becce3"/><path d="M159.47,28.18h-59.2v-1h58C158.66,27.49,159.07,27.83,159.47,28.18Z" fill="#3b1d3b"/><path d="M136.66,89.5C135.76,82,129.13,78,129.13,78s5.1-44.68-1.92-44.3-.64,44.17-.64,44.17-7.66,5.11-7.66,13,5,11.45,9.19,11.24C133.21,101.88,137.55,97,136.66,89.5Z" fill="#becce3"/><path d="M128.17,38.31c0,1.12-.47,2-1,2s-1.06-.92-1.06-2,.47-2.05,1.06-2.05S128.17,37.18,128.17,38.31Z" fill="#3b1d3b"/><path d="M155.57,38.31c0,1.12-.47,2-1,2s-1.05-.92-1.05-2,.47-2.05,1.05-2.05S155.57,37.18,155.57,38.31Z" fill="#3b1d3b"/><line x1="127.08" y1="38.05" x2="127.4" y2="26.94" fill="none" stroke="#3b1d3b" stroke-linecap="round" stroke-linejoin="round" stroke-width="0.5"/><line x1="154.49" y1="38.05" x2="154.81" y2="26.94" fill="none" stroke="#3b1d3b" stroke-linecap="round" stroke-linejoin="round" stroke-width="0.5"/><path d="M107,47.67l1.37.4a.34.34,0,0,1,0,.65l-1.33.41a7.09,7.09,0,0,0-4.61,4.46l-.62,1.78a.34.34,0,0,1-.65,0l-.42-1.43a7.11,7.11,0,0,0-4.82-4.83l-1.34-.39a.34.34,0,0,1,0-.65l1.34-.39a7.11,7.11,0,0,0,4.82-4.83l.4-1.33a.33.33,0,0,1,.64,0l.4,1.33A7.11,7.11,0,0,0,107,47.67Z" fill="#fde2d2"/><path d="M185.29,78.65l1.36.4a.34.34,0,0,1,0,.65l-1.33.41a7.13,7.13,0,0,0-4.62,4.46l-.61,1.78a.34.34,0,0,1-.65,0L179,84.91a7.11,7.11,0,0,0-4.82-4.83l-1.34-.39a.34.34,0,0,1,0-.65l1.34-.39A7.11,7.11,0,0,0,179,73.82l.39-1.33a.34.34,0,0,1,.65,0l.39,1.33A7.1,7.1,0,0,0,185.29,78.65Z" fill="#fde2d2"/><path d="M83.33,147.58l1.37.4a.34.34,0,0,1,0,.65l-1.33.41a7.12,7.12,0,0,0-4.61,4.46l-.62,1.79a.34.34,0,0,1-.65,0l-.41-1.43A7.13,7.13,0,0,0,72.25,149l-1.34-.4a.33.33,0,0,1,0-.64l1.34-.4a7.13,7.13,0,0,0,4.83-4.82l.39-1.34a.34.34,0,0,1,.65,0l.39,1.34A7.11,7.11,0,0,0,83.33,147.58Z" fill="#fde2d2"/><path d="M183.08,197l1.36.4a.33.33,0,0,1,0,.64l-1.34.42a7.1,7.1,0,0,0-4.61,4.45l-.62,1.79a.34.34,0,0,1-.64,0l-.42-1.43a7.11,7.11,0,0,0-4.83-4.82l-1.33-.39a.34.34,0,0,1,0-.65L172,197a7.1,7.1,0,0,0,4.83-4.83l.39-1.33a.34.34,0,0,1,.65,0l.39,1.33A7.1,7.1,0,0,0,183.08,197Z" fill="#fde2d2"/><path d="M33,202.39l1.36.4a.34.34,0,0,1,0,.65l-1.33.41a7.15,7.15,0,0,0-4.62,4.46l-.62,1.78a.33.33,0,0,1-.64,0l-.42-1.43a7.11,7.11,0,0,0-4.82-4.83l-1.34-.39a.34.34,0,0,1,0-.65l1.34-.39a7.11,7.11,0,0,0,4.82-4.82l.39-1.34a.34.34,0,0,1,.65,0l.39,1.34A7.11,7.11,0,0,0,33,202.39Z" fill="#fde2d2"/></g></svg>