<svg xmlns="http://www.w3.org/2000/svg" viewBox="0 0 198.89 221.47"><g id="OBJECTS"><path d="M6,221.47a6,6,0,0,1-6-6V99.22c0-.23,0-.45,0-.68,0-2.07.1-4.22.25-6.55l0-.3v-.16c.15-2,.36-3.92.63-5.87,0-.14,0-.31.07-.5.11-.77.22-1.54.35-2.31A7.38,7.38,0,0,1,1.51,82C5,68.16,9.81,56.38,16.31,46c1.17-1.9,2.44-3.79,3.75-5.59.43-.6.88-1.21,1.34-1.8.82-1.09,1.71-2.21,2.66-3.34.46-.56.94-1.12,1.42-1.66s.87-1,1.31-1.49c1.64-1.79,3.22-3.4,4.83-4.91.43-.41.91-.85,1.4-1.3.7-.63,1.39-1.24,2.09-1.84.55-.47,1.15-1,1.77-1.46a96.16,96.16,0,0,1,9.94-7.09c.55-.34,1.1-.68,1.66-1A102.61,102.61,0,0,1,100.89,0c1.63,0,3.28,0,4.9.12h.07a92.94,92.94,0,0,1,17.36,2.51A95.34,95.34,0,0,1,150,13.78l.73.45a103.39,103.39,0,0,1,26.84,24.08,104.78,104.78,0,0,1,6.94,10,98.09,98.09,0,0,1,13.8,39.75s0,.23,0,.28a104.6,104.6,0,0,1,.58,10.87V215.47a6,6,0,0,1-6,6Z" fill="#fff"/><path d="M192.89,99.4V215.65H6V99.4c0-.18,0-.35,0-.53,0-2.12.1-4.22.24-6.3,0-.17,0-.33,0-.5q.21-2.76.59-5.48a1.87,1.87,0,0,1,0-.25c.11-.82.23-1.63.37-2.44a1.87,1.87,0,0,1,0-.25A118,118,0,0,1,21.39,49.39c1.11-1.79,2.29-3.55,3.53-5.26.41-.57.82-1.13,1.25-1.68.8-1.07,1.64-2.12,2.51-3.15.43-.53.88-1,1.33-1.56s.81-.93,1.22-1.38c1.43-1.57,2.92-3.1,4.49-4.57.44-.42.89-.83,1.34-1.24C37.7,30,38.34,29.4,39,28.84s1.07-.91,1.63-1.35A88.82,88.82,0,0,1,50,20.82c.5-.31,1-.62,1.51-.91A96.87,96.87,0,0,1,105.55,6.3h0A86.66,86.66,0,0,1,121.8,8.65a89.27,89.27,0,0,1,25,10.44l.34.21.08.05.26.16A97.87,97.87,0,0,1,172.81,42.2a96.39,96.39,0,0,1,6.53,9.42,91.54,91.54,0,0,1,13,37.3l0,.25A96,96,0,0,1,192.89,99.4Z" fill="#a284a3"/><path d="M35.3,105.65A40,40,0,0,1,32,110a39,39,0,0,1-7.79,6.83c-.74.49-1.49,1-2.26,1.4a39.77,39.77,0,0,1-15.93,5V99.4c0-.18,0-.35,0-.53,0-2.12.1-4.22.24-6.3,0-.17,0-.33,0-.5q.21-2.76.59-5.48a1.87,1.87,0,0,1,0-.25c.11-.82.23-1.63.37-2.44a1.87,1.87,0,0,1,0-.25A118,118,0,0,1,21.39,49.39c.88.49,1.74,1,2.59,1.57A39.5,39.5,0,0,1,35.3,105.65Z" fill="#f8ae61"/><path d="M179.34,51.62A43.46,43.46,0,1,1,105.55,6.3h0A86.66,86.66,0,0,1,121.8,8.65a89.27,89.27,0,0,1,25,10.44l.34.21.08.05.26.16A97.87,97.87,0,0,1,172.81,42.2,96.39,96.39,0,0,1,179.34,51.62Z" fill="#f8ae61"/><rect x="6" y="116.84" width="186.89" height="98.81" fill="#3b1d3b"/><g opacity="0.27"><path d="M192.89,120.78v.5c-62.1.89-124.91,3.3-186.89,7.16v-.5C68,124.08,130.79,121.67,192.89,120.78Z" fill="#a284a3"/><path d="M137.88,129.85c18.1-.55,36.73-1.12,55-3.32v.5c-18.28,2.2-36.9,2.77-55,3.32l-4.47.14C91.14,131.81,48.34,133.88,6,136.64v-.5c42.34-2.76,85.13-4.83,127.42-6.15Z" fill="#a284a3"/><path d="M192.89,149.52v.5h-.14c-43.49-.47-88.47-1-132.66,1-6.3.28-12.7.61-18.9.94-11.56.61-23.37,1.22-35.19,1.5V153c11.81-.29,23.63-.91,35.17-1.52,6.19-.33,12.6-.66,18.9-.94,44.21-2,89.19-1.48,132.69-1Z" fill="#a284a3"/><path d="M190.83,160.74c.67,0,1.36,0,2.06-.09v.5c-.7,0-1.39.07-2,.09L66.48,165c-19.88.6-40.3,1.22-60.48,3.31v-.5c20.18-2.09,40.58-2.71,60.46-3.31Z" fill="#a284a3"/><path d="M192.89,166.52v.5c-3.6,0-7.2.12-10.75.24L6,173.23v-.5l176.12-6C185.68,166.64,189.28,166.52,192.89,166.52Z" fill="#a284a3"/><path d="M133.24,181.32c19.47,4.18,39.51,8.5,59.65,8.86v.5c-20.19-.36-40.26-4.68-59.76-8.87-20.14-4.33-41-8.8-61.84-8.91h-.77c-18.61,0-37.15,3.41-55.09,6.7-3.11.57-6.27,1.15-9.43,1.78v-.51c3.13-.62,6.26-1.19,9.34-1.76,18.21-3.35,37-6.81,56-6.71C92.21,172.51,113.07,177,133.24,181.32Z" fill="#a284a3"/><path d="M192.89,194.21v.51c-7.72.31-15.48.5-23.18.44s-15.72-.36-23.38-.66c-7.42-.29-15.09-.59-22.64-.66-15-.14-30.29.63-45.06,1.37-22.91,1.15-46.59,2.34-69.79.18-.93-.09-1.88-.18-2.84-.29v-.5l2.89.29c23.15,2.16,46.82,1,69.71-.18,14.78-.74,30.07-1.51,45.1-1.37,7.55.07,15.23.37,22.65.66,7.66.3,15.57.61,23.36.66S185.17,194.52,192.89,194.21Z" fill="#a284a3"/><path d="M192.89,203.43v.5c-9.59,1.52-19.62,1.28-28.91,1.06-52.4-1.25-105.45-1.05-158,.58v-.5c52.53-1.63,105.59-1.83,158-.58C173.28,204.71,183.31,205,192.89,203.43Z" fill="#a284a3"/><path d="M192.89,138.57v.5c-46.29-2.28-93.15-.8-138.64.65-12.63.4-25.69.81-38.52,1.14-3,.08-6.33.16-9.73,0v-.49c3.31.1,6.59,0,9.72-.06,12.83-.33,25.89-.74,38.51-1.14C99.73,137.77,146.58,136.29,192.89,138.57Z" fill="#a284a3"/><path d="M192.89,144.91v.5c-58.18-.91-116.94.06-174.93,2.9-3.83.19-7.89.38-12,.86v-.49c4.16-.48,8.23-.69,11.94-.87C75.94,145,134.71,144,192.89,144.91Z" fill="#a284a3"/></g><path d="M77.81,146.46c-7.13-8.55-11.74-18.89-18.12-28A23.5,23.5,0,0,0,53.57,112c-1-.66-2.5-1.15-3.38-.3a3,3,0,0,0-.61,2.26,28,28,0,0,0,2.1,10c-6.18-5.55-12.66-11.46-20.5-14.2a12.46,12.46,0,0,0-5.83-.84,5.7,5.7,0,0,0-4.57,3.35c-.9,2.43.47,5.07,1.9,7.23a81.76,81.76,0,0,0,5.79,7.72c-4.15-.54-8.54-1-12.37.69-1.61.7-3.21,2.08-3.09,3.82a4.72,4.72,0,0,0,2,3c5.26,4.32,12.2,5.89,18.85,7.33-3.21,1.36-6.54,2.8-8.86,5.41a3.5,3.5,0,0,0-1.1,3.12c.39,1.28,1.89,1.81,3.2,2,6.46,1.15,13-.61,19.43-2.06A198.86,198.86,0,0,1,77.81,146.46Z" fill="#8eb191"/><polygon points="142.17 181.52 142.17 188.16 108.8 188.16 108.76 186.63 108.63 181.52 142.17 181.52" fill="#fde2d2"/><polygon points="142.17 181.64 142.17 181.8 108.76 186.63 108.63 181.52 125.42 181.52 142.17 181.64" fill="#a284a3"/><path d="M59.1,145.27s10.05,40.17,63.83,38.81,61-39.71,61-39.71Z" fill="#fde2d2"/><path d="M184,144.37c0,3-4.54,5.85-12.21,8.11-11.37,3.37-29.63,5.55-50.21,5.55-19.26,0-36.49-1.91-47.93-4.91-9-2.37-14.5-5.42-14.5-8.75,0-7.54,27.95-13.66,62.43-13.66S184,136.83,184,144.37Z" fill="#a284a3"/><path d="M171.74,152.48c-11.37,3.37-29.63,5.55-50.21,5.55-19.26,0-36.49-1.91-47.93-4.91a6.67,6.67,0,0,1,5.33-5.79c1.75-.34,3.16.26,4.57-.44,1.1-.55,2-2.06,3.22-2.7a12.31,12.31,0,0,1,8.88-.85c4.59,1.27,8.27,4.74,11,8.62a8.9,8.9,0,0,1,11.48,3.74,15.4,15.4,0,0,1,15.81-1.89,11.91,11.91,0,0,1,21.29-2.8,13.59,13.59,0,0,1,11.85-1.77A9.31,9.31,0,0,1,171.74,152.48Z" fill="#f77168"/><path d="M142.34,43.65,127.19,71.57l-12.25,1.08a6.05,6.05,0,0,0-4.64,2.93l-33.74,57.2A7,7,0,0,0,81,143.16l31.29,7.21a7,7,0,0,0,7.73-3.49L151.42,89a6,6,0,0,0-1.07-7.14l-6.48-6.36,11.06-30.81Z" fill="#3b1d3b"/><path d="M140.47,43.31,125.32,71.22l-12.25,1.09a6,6,0,0,0-4.64,2.93l-33.75,57.2a7,7,0,0,0,4.46,10.38L110.43,150a7,7,0,0,0,7.72-3.49l31.4-57.9a6,6,0,0,0-1.07-7.14L142,75.14l11.06-30.81Z" fill="#becce3"/><path d="M111.79,89h0a.93.93,0,0,1-.42-1.25l1.88-3.82a.94.94,0,0,1,1.25-.43h0a1,1,0,0,1,.43,1.26l-1.88,3.82A.94.94,0,0,1,111.79,89Z" fill="#3b1d3b"/><path d="M119.45,91h0a.93.93,0,0,1-.42-1.25l1.88-3.82a.93.93,0,0,1,1.25-.42h0a.94.94,0,0,1,.43,1.25l-1.88,3.82A.94.94,0,0,1,119.45,91Z" fill="#3b1d3b"/><path d="M127.11,93h0a.94.94,0,0,1-.42-1.26L128.57,88a.93.93,0,0,1,1.25-.43h0a1,1,0,0,1,.43,1.25l-1.88,3.82A1,1,0,0,1,127.11,93Z" fill="#3b1d3b"/><path d="M134,95.34h0a.94.94,0,0,1-.43-1.26l1.88-3.82a.93.93,0,0,1,1.25-.42h0a.93.93,0,0,1,.43,1.25l-1.88,3.82A1,1,0,0,1,134,95.34Z" fill="#3b1d3b"/><path d="M105.73,100h0a.94.94,0,0,1-.43-1.25l1.88-3.82a.94.94,0,0,1,1.26-.42h0a.93.93,0,0,1,.42,1.25L107,99.57A.93.93,0,0,1,105.73,100Z" fill="#3b1d3b"/><path d="M113.39,102h0a1,1,0,0,1-.43-1.26L114.84,97a.94.94,0,0,1,1.26-.43h0a.93.93,0,0,1,.42,1.25l-1.88,3.82A.94.94,0,0,1,113.39,102Z" fill="#3b1d3b"/><path d="M121.05,104.08h0a1,1,0,0,1-.43-1.25L122.5,99a1,1,0,0,1,1.26-.43h0a.94.94,0,0,1,.42,1.26l-1.88,3.81A.93.93,0,0,1,121.05,104.08Z" fill="#3b1d3b"/><path d="M127.94,106.38h0a.94.94,0,0,1-.42-1.26l1.88-3.81a.93.93,0,0,1,1.25-.43h0a1,1,0,0,1,.43,1.25L129.2,106A1,1,0,0,1,127.94,106.38Z" fill="#3b1d3b"/><path d="M100.37,112.38h0a1,1,0,0,1-.43-1.26l1.88-3.81a.93.93,0,0,1,1.25-.43h0a.93.93,0,0,1,.43,1.25L101.62,112A.94.94,0,0,1,100.37,112.38Z" fill="#3b1d3b"/><path d="M108,114.42h0a.94.94,0,0,1-.43-1.25l1.88-3.82a1,1,0,0,1,1.25-.43h0a.94.94,0,0,1,.43,1.26L109.28,114A.93.93,0,0,1,108,114.42Z" fill="#3b1d3b"/><path d="M115.69,116.46h0a.93.93,0,0,1-.43-1.25l1.88-3.82a.93.93,0,0,1,1.25-.42h0a.93.93,0,0,1,.43,1.25L116.94,116A.93.93,0,0,1,115.69,116.46Z" fill="#3b1d3b"/><path d="M122.58,118.76h0a1,1,0,0,1-.43-1.25l1.88-3.82a1,1,0,0,1,1.26-.43h0a.94.94,0,0,1,.42,1.26l-1.88,3.81A.93.93,0,0,1,122.58,118.76Z" fill="#3b1d3b"/><path d="M94.56,123h0a1,1,0,0,1-.43-1.26L96,118a.94.94,0,0,1,1.26-.43h0a.93.93,0,0,1,.42,1.25l-1.88,3.82A.94.94,0,0,1,94.56,123Z" fill="#3b1d3b"/><path d="M102.22,125.08h0a1,1,0,0,1-.43-1.25l1.88-3.82a1,1,0,0,1,1.26-.43h0a.94.94,0,0,1,.42,1.26l-1.88,3.81A.93.93,0,0,1,102.22,125.08Z" fill="#3b1d3b"/><path d="M109.88,127.12h0a.94.94,0,0,1-.43-1.25l1.88-3.82a1,1,0,0,1,1.26-.43h0a.94.94,0,0,1,.42,1.26l-1.88,3.82A.93.93,0,0,1,109.88,127.12Z" fill="#3b1d3b"/><path d="M116.77,129.42h0a.93.93,0,0,1-.42-1.25l1.88-3.82a.94.94,0,0,1,1.25-.43h0a1,1,0,0,1,.43,1.26L118,129A.94.94,0,0,1,116.77,129.42Z" fill="#3b1d3b"/><path d="M85.52,135.83h0a1,1,0,0,1-.54-1.32l1.78-4.25a1,1,0,0,1,1.32-.54h0a1,1,0,0,1,.55,1.33l-1.78,4.24A1,1,0,0,1,85.52,135.83Z" fill="#3b1d3b"/><path d="M93.92,137.54h0a1,1,0,0,1-.54-1.33L95.16,132a1,1,0,0,1,1.33-.55h0a1,1,0,0,1,.54,1.33L95.25,137A1,1,0,0,1,93.92,137.54Z" fill="#3b1d3b"/><path d="M102.33,139.24h0a1,1,0,0,1-.54-1.32l1.77-4.25a1,1,0,0,1,1.33-.54h0a1,1,0,0,1,.54,1.32l-1.78,4.25A1,1,0,0,1,102.33,139.24Z" fill="#3b1d3b"/><path d="M109.92,141.27h0a1,1,0,0,1-.54-1.33l1.78-4.24a1,1,0,0,1,1.32-.54h0a1,1,0,0,1,.55,1.32l-1.78,4.25A1,1,0,0,1,109.92,141.27Z" fill="#3b1d3b"/><circle cx="100.89" cy="112.84" r="19.49" transform="translate(-32.25 184.84) rotate(-76.6)" fill="#f77168"/><path d="M112.14,115.38s0,0,0,0a8,8,0,0,1-2,2.45,9.67,9.67,0,0,1-2.33,1.59l0,0a7.12,7.12,0,0,1-2.4.68,5.48,5.48,0,0,1-1.68-.06s0,0,0,0l-.14.16,0,0a15.31,15.31,0,0,1-3.6,2.69c-.41.23-.86.47-1.35.7a5.47,5.47,0,0,1-3.67.41h0a1.89,1.89,0,0,1-.34-.09,2.53,2.53,0,0,1-.36-.12,6.44,6.44,0,0,1-2.06-1.21,8.15,8.15,0,0,1-1.16.81,7.18,7.18,0,0,1-6.13.43,10.73,10.73,0,0,1-2.35-1.14,8.79,8.79,0,0,1-1-.74l0,0a1,1,0,0,1-.57.08c-3.7-.3-15.06-13.35-17.3-16.08-2.39-2.9-4.77-8.42-6.81-13.11A205.42,205.42,0,0,0,45.83,70.37c-4-7-15.2-20.63-20.91-26.24A87.46,87.46,0,0,1,50,20.82c.5-.31,1-.62,1.51-.91,5.71,9.72,17.82,29.39,31.43,45.7C90,74,98.68,80.3,100,82.29a18.13,18.13,0,0,1,1.93,4,17.26,17.26,0,0,1,.62,2.45,19,19,0,0,1,.31,4.66,14.14,14.14,0,0,1-.3,2.46s5.44,7.48,8,11.91a22.49,22.49,0,0,1,1.51,3.05A5.48,5.48,0,0,1,112.14,115.38Z" fill="#ff8cae"/><path d="M87.27,124.87a9.07,9.07,0,0,1-6.13-2.65c-2.34-2.26-9.28-12.44-9.58-12.87a.37.37,0,1,1,.62-.42c.07.1,7.2,10.55,9.48,12.75,2.46,2.37,6.44,3.78,10.23.66a.37.37,0,0,1,.47.58A7.86,7.86,0,0,1,87.27,124.87Z" fill="#3b1d3b"/><path d="M95.23,124.45c-4.88,0-15.33-17.56-15.77-18.31a.38.38,0,0,1,.13-.51.38.38,0,0,1,.52.13c3,5,11.42,17.94,15.12,17.94,4.51,0,8.26-3.52,8.3-3.56a.38.38,0,0,1,.51.55C103.88,120.84,100.05,124.45,95.23,124.45Z" fill="#3b1d3b"/><path d="M104.79,121c-2.81,0-13.71-17-15.87-20.47A.37.37,0,0,1,89,100a.38.38,0,0,1,.52.12c6.17,9.78,13.58,20.13,15.22,20.13h0c1.69-.08,4.87-2.2,6.55-4.37a4.26,4.26,0,0,0,1.14-3.09c-.49-2.36-11.61-18.48-17.43-26.67a.37.37,0,0,1,.09-.52.38.38,0,0,1,.53.09c.69,1,16.9,23.84,17.55,27a4.76,4.76,0,0,1-1.29,3.7c-1.85,2.39-5.17,4.57-7.11,4.66Z" fill="#3b1d3b"/><path d="M172.81,42.2c-2.39,7.69-4.34,13.92-4.69,15-.82,2.47-4.46,4.44-5.84,5.11l-.54.25c-1.53,2.81-6.38,4.6-6.38,4.6s-.05.12-.13.34-.09.25-.16.41,0,.13-.07.2c-.85,2.24-3,8-4.94,12.67-.07.19-.15.38-.23.57l-.5,1.23h0l-.06.13c-.77,1.87-1.44,3.41-1.87,4.24l0,0c-.06.13-.13.24-.18.33-1.53,2.55-3.58-2.3-4.34-6.38a13,13,0,0,1,.34-4.62c1-4.59,3.27-10.48,4-13.77.2-.89.4-2.11.59-3.5.79-5.75,1.45-14.37,1.45-14.37s-11.23,20.43-14,23a8.92,8.92,0,0,1-7,2,2,2,0,0,1-1.46-.73.5.5,0,0,1-.05-.27,1.82,1.82,0,0,1,.06-.53.22.22,0,0,1,0-.08s0,0,0-.06a21,21,0,0,1,.58-2.16l.06-.19c.47-1.46,1.13-3.33,1.91-5.49,2.39-6.59,5.9-15.89,8.4-24.42,3.25-11.08,6.21-14,9.53-16.38l.26.16A97.87,97.87,0,0,1,172.81,42.2Z" fill="#ff8cae"/><path d="M126.76,68.13a2.44,2.44,0,0,0,2.5-.33,5.5,5.5,0,0,0,2.43-4.39,8.38,8.38,0,0,0-.27-2.06,9,9,0,0,0-1.31-3.08A62.57,62.57,0,0,0,126.76,68.13Z" fill="#fde2d2"/><path d="M147.06,79.86a6.72,6.72,0,0,0-1.92,4.35,3.34,3.34,0,0,0,1.06,2.87.89.89,0,0,0,.86.19,1,1,0,0,0,.4-.42,19.18,19.18,0,0,0,1.75-4c.29-.8,1.44-2.83.92-3.68C149.43,78.06,147.7,79.23,147.06,79.86Z" fill="#fde2d2"/><path d="M161.5,48.78l-1.1,3.66c-.31,1-2.43,7.28-4.91,14.27l-.27.77-.15.41c0,.06,0,.13-.07.2-1.69,4.72-3.5,9.64-5,13.41l-.53,1.3c-1.17,2.87-2.1,4.86-2.56,5.23a1.3,1.3,0,0,1-.83.32,1.48,1.48,0,0,1-.5-.1c-1.74-.75-2.94-5.45-3.19-8.4a15,15,0,0,1,.43-3.91c.63-3,1.83-6.87,2.79-9.94.63-2,1.18-3.78,1.38-4.73a.25.25,0,0,1,0-.07c.52-2.49,1.34-11,1.68-14.78-2.44,4.41-9.37,16.74-12.62,20.62-2.22,2.66-4.52,3.25-6.06,3.27a6.12,6.12,0,0,1-2-.29,3.75,3.75,0,0,1-1.55-.84l0,0c-.41-.68,1-5.13,9.24-28.25,2.22-6.23,4.15-11.6,4.67-13.35,1.06-3.54,3.71-6.27,6.49-8.45l.34.21.08.05.26.16c-2.77,2.14-5.42,4.81-6.45,8.25-.53,1.76-2.46,7.15-4.69,13.38-1.88,5.28-4.25,11.91-6.13,17.36-1.33,3.88-2.41,7.16-2.89,8.94-.09.35-.16.64-.2.86h0a2.44,2.44,0,0,0-.06.44,3.41,3.41,0,0,0,1.28.62,5,5,0,0,0,1.62.2,7.29,7.29,0,0,0,5.5-3c3.84-4.6,13.31-21.89,13.4-22.07a.39.39,0,0,1,.44-.18.37.37,0,0,1,.26.39c0,.42-.7,7.93-1.32,12.94-.2,1.64-.39,3-.56,3.79-.21,1-.76,2.75-1.4,4.79a107,107,0,0,0-2.87,10.35,12.82,12.82,0,0,0-.31,3.22c.3,3.52,1.63,7.3,2.74,7.76a.48.48,0,0,0,.56-.11,1.23,1.23,0,0,0,.15-.16A34.26,34.26,0,0,0,149,82.07c.15-.36.3-.74.45-1.13l.69-1.76c3.62-9.39,8.61-23.8,9.56-27l1.11-3.66a.36.36,0,0,1,.46-.25A.38.38,0,0,1,161.5,48.78Z" fill="#3b1d3b"/><path d="M155.36,67.51a.37.37,0,0,1-.1-.73s4.62-1.36,6.15-4.4,4.62-14,4.65-14.07a.38.38,0,0,1,.47-.25.37.37,0,0,1,.25.46c-.12.44-3.09,11-4.7,14.19s-6.42,4.73-6.62,4.79Z" fill="#3b1d3b"/><path d="M89.65,32.5l1.37.4a.34.34,0,0,1,0,.65L89.69,34a7.12,7.12,0,0,0-4.61,4.46l-.62,1.78a.34.34,0,0,1-.65,0l-.42-1.43a7.11,7.11,0,0,0-4.82-4.83l-1.34-.39a.34.34,0,0,1,0-.65l1.34-.39a7.11,7.11,0,0,0,4.82-4.82l.39-1.34a.34.34,0,0,1,.65,0l.39,1.34A7.13,7.13,0,0,0,89.65,32.5Z" fill="#fde2d2"/><path d="M183.69,84.59l1.37.4a.34.34,0,0,1,0,.65l-1.33.41a7.09,7.09,0,0,0-4.61,4.46l-.62,1.78a.34.34,0,0,1-.65,0l-.41-1.42A7.1,7.1,0,0,0,172.61,86l-1.33-.39a.34.34,0,0,1,0-.65l1.33-.39a7.1,7.1,0,0,0,4.83-4.83l.39-1.33a.34.34,0,0,1,.65,0l.39,1.33A7.11,7.11,0,0,0,183.69,84.59Z" fill="#fde2d2"/><path d="M163.66,128.9l1.36.4a.34.34,0,0,1,0,.65l-1.33.41a7.15,7.15,0,0,0-4.62,4.46l-.61,1.78a.34.34,0,0,1-.65,0l-.42-1.43a7.11,7.11,0,0,0-4.82-4.83l-1.34-.39a.34.34,0,0,1,0-.65l1.34-.39a7.11,7.11,0,0,0,4.82-4.82l.39-1.34a.34.34,0,0,1,.65,0l.39,1.34A7.11,7.11,0,0,0,163.66,128.9Z" fill="#fde2d2"/><path d="M32.12,93.1l1.36.4a.34.34,0,0,1,0,.65l-1.33.41A7.13,7.13,0,0,0,27.54,99l-.61,1.78a.34.34,0,0,1-.65,0l-.42-1.42A7.11,7.11,0,0,0,21,94.53l-1.34-.39a.34.34,0,0,1,0-.65L21,93.1a7.11,7.11,0,0,0,4.82-4.83l.39-1.33a.34.34,0,0,1,.65,0l.39,1.33A7.1,7.1,0,0,0,32.12,93.1Z" fill="#fde2d2"/><path d="M58.72,169.18c-.79,3.25-6.59,6.46-10.94,8.45a22.54,22.54,0,0,1-9.35,2H35a22.54,22.54,0,0,1-9.35-2c-4.35-2-10.15-5.2-10.94-8.45-.88-3.65,1.08-10.82,2.37-14.89.51-1.64.92-2.77,1-3v0a3.16,3.16,0,0,0,.56,0c2.23.07,11.29,0,16.35,0v0h3.46v0c5.06,0,14.12,0,16.35,0a3.16,3.16,0,0,0,.56,0v0l0,.09C55.87,152.73,59.92,164.22,58.72,169.18Z" fill="#fde2d2"/><path d="M55.39,151.4l-38.34,2.89c.51-1.64.92-2.77,1-3h37.3Z" fill="#a284a3"/><path d="M56,151.4H17.23c2-5.15,6.82-12.48,18.26-12.9C49.29,138,53.63,146.63,56,151.4Z" fill="#fde2d2"/><path d="M36.5,158.89a2.36,2.36,0,0,0-.46-.4,2.92,2.92,0,0,0-.73-.37,6.12,6.12,0,0,0-1.08-.26,9,9,0,0,0-1.48-.11,9.25,9.25,0,0,0-1.38.1,9.63,9.63,0,0,0-1.36.27,7.91,7.91,0,0,0-1.24.45,4.51,4.51,0,0,0-1,.64,2.92,2.92,0,0,0-.68.83,2.07,2.07,0,0,0-.25,1,1.67,1.67,0,0,0,.26.95,2.16,2.16,0,0,0,.79.69,5.56,5.56,0,0,0,1.32.48,13.77,13.77,0,0,0,1.86.27l.91.07.53.05.54.05.53.07.48.1.39.13a1.28,1.28,0,0,1,.3.19.75.75,0,0,1,.21.26.87.87,0,0,1,.07.35,1.15,1.15,0,0,1-.2.64,1.37,1.37,0,0,1-.34.34,1.51,1.51,0,0,1-.26.18,3.74,3.74,0,0,1-1,.34l-.44.07a8.08,8.08,0,0,1-.89.05h-.06a6.85,6.85,0,0,1-1.28-.1,6.94,6.94,0,0,1-1-.22l-.15,0a2.18,2.18,0,0,1-.44-.18l-.2-.1a.27.27,0,0,0-.12,0,.24.24,0,0,0-.15.06.19.19,0,0,0-.07.16.16.16,0,0,0,.05.14.12.12,0,0,0,.05.05l.24.12a3.67,3.67,0,0,0,.63.24l.11,0a9.22,9.22,0,0,0,.91.2,7.63,7.63,0,0,0,1.43.11,6.84,6.84,0,0,0,1.39-.13,4.49,4.49,0,0,0,1.14-.4l.08-.05a1.91,1.91,0,0,0,.62-.53s0,0,.06-.07a1.49,1.49,0,0,0,.29-.9,1.11,1.11,0,0,0-.33-.84,2.18,2.18,0,0,0-1-.49,9.12,9.12,0,0,0-.94-.16c-.36,0-.76-.09-1.21-.13l-.9-.07-.93-.1c-.31,0-.61-.1-.89-.16a7.59,7.59,0,0,1-.8-.24,2.71,2.71,0,0,1-.63-.35,1.6,1.6,0,0,1-.43-.47,1.28,1.28,0,0,1-.15-.63,1.63,1.63,0,0,1,.22-.85,2.54,2.54,0,0,1,.61-.71,4.35,4.35,0,0,1,.92-.57,7.51,7.51,0,0,1,1.13-.4,10.19,10.19,0,0,1,1.27-.25,11.66,11.66,0,0,1,1.31-.08,9,9,0,0,1,1.54.12,4.25,4.25,0,0,1,1.17.36,1.87,1.87,0,0,1,.75.57,1.18,1.18,0,0,1,.27.76,1,1,0,0,1,0,.17,1.11,1.11,0,0,0,0,.17.25.25,0,0,0,.06.16.26.26,0,0,0,.17.07.21.21,0,0,0,.13,0,.2.2,0,0,0,.08-.13,1.61,1.61,0,0,0,0-.39A1.65,1.65,0,0,0,36.5,158.89Z" fill="#3b1d3b"/><path d="M40.81,164.67a.2.2,0,0,0-.16-.07.15.15,0,0,0-.09,0h0a.28.28,0,0,0-.09.1c0,.08-.08.17-.13.27l-.17.31-.08.12-.14.21a3.74,3.74,0,0,1-.25.29l0,0a1.25,1.25,0,0,1-.24.18.61.61,0,0,1-.28.07.43.43,0,0,1-.34-.14l-.05-.07a.92.92,0,0,1-.14-.28,1.6,1.6,0,0,1-.05-.21l0-.19c0-.13,0-.24,0-.31a.21.21,0,0,0-.07-.15.22.22,0,0,0-.29,0,.2.2,0,0,0-.08.14,2,2,0,0,1-.14.53s0,0,0,0a2.33,2.33,0,0,1-.22.35.79.79,0,0,1-.2.17l-.06,0a.56.56,0,0,1-.25.07.45.45,0,0,1-.24-.06l0,0a.53.53,0,0,1-.2-.34.77.77,0,0,1,0-.15.17.17,0,0,1,0-.07,1.46,1.46,0,0,1,.12-.62,1.33,1.33,0,0,1,.28-.43,1.09,1.09,0,0,1,.76-.34.69.69,0,0,1,.22,0,.43.43,0,0,1,.17.06l.11.06s0,0,0,.05a.25.25,0,0,0,.16.06.2.2,0,0,0,.15-.06.21.21,0,0,0,.07-.16.23.23,0,0,0-.07-.16l-.06,0a.62.62,0,0,0-.17-.11,1.27,1.27,0,0,0-.26-.11,1.14,1.14,0,0,0-.33-.05,1.45,1.45,0,0,0-.56.12,1.63,1.63,0,0,0-.53.35,2.06,2.06,0,0,0-.4.58,2,2,0,0,0-.15.81.13.13,0,0,0,0,.06,1,1,0,0,0,.06.36.31.31,0,0,0,.06.13.57.57,0,0,0,.13.21.89.89,0,0,0,.29.22,1,1,0,0,0,.4.08,1,1,0,0,0,.55-.2,1.38,1.38,0,0,0,.37-.39.71.71,0,0,0,.1-.14.38.38,0,0,0,.06.13,1.19,1.19,0,0,0,.28.42.8.8,0,0,0,.57.21,1,1,0,0,0,.46-.11,1.85,1.85,0,0,0,.4-.29,2.7,2.7,0,0,0,.28-.31l.06-.08c.1-.14.19-.27.27-.4s0,0,0,0a1.18,1.18,0,0,0,.1-.19l.07-.11c0-.1.08-.17.09-.2a.31.31,0,0,0,0-.08A.25.25,0,0,0,40.81,164.67Z" fill="#3b1d3b"/><path d="M43.74,164.67a.19.19,0,0,0-.16-.07.2.2,0,0,0-.11,0,.2.2,0,0,0-.09.09s0,0,0,.05l-.19.37-.09.16c-.07.12-.15.24-.23.35a1,1,0,0,1-.13.16,1.44,1.44,0,0,1-.27.28.68.68,0,0,1-.45.18.66.66,0,0,1-.57-.4s0,0,0,0a2.29,2.29,0,0,1-.21-.47,5.07,5.07,0,0,1-.18-.7c.22-.4.42-.81.61-1.23a13.19,13.19,0,0,0,.5-1.26,9.75,9.75,0,0,0,.33-1.26s0,0,0-.05.05-.28.07-.41a6.59,6.59,0,0,0,.05-.75,4.58,4.58,0,0,0-.06-.8,1.83,1.83,0,0,0-.17-.53.65.65,0,0,0-.26-.3.68.68,0,0,0-.35-.09.58.58,0,0,0-.43.2,1.74,1.74,0,0,0-.35.54,5.63,5.63,0,0,0-.26.79,8.68,8.68,0,0,0-.17,1c0,.33-.08.67-.11,1s0,.69,0,1,0,.48,0,.78,0,.59.08.9l.06.4c0,.18.07.35.11.51s0,.06,0,.09a1.27,1.27,0,0,0,.06.18,2.36,2.36,0,0,0,.18.49l0,0a1.71,1.71,0,0,0,.43.57.95.95,0,0,0,1,.12,1.39,1.39,0,0,0,.38-.25,2.83,2.83,0,0,0,.34-.35,1.88,1.88,0,0,0,.16-.23,1,1,0,0,0,.11-.17l.14-.22.06-.13,0,0a3.16,3.16,0,0,0,.16-.32.23.23,0,0,0,0-.09A.21.21,0,0,0,43.74,164.67Zm-2.86-3.1c0-.33,0-.65.09-.95s.08-.59.13-.86a6.66,6.66,0,0,1,.19-.69,1.65,1.65,0,0,1,.21-.46c.08-.11.16-.17.24-.17s.22.1.3.3a3.26,3.26,0,0,1,.11,1,3.85,3.85,0,0,1-.07.74,1.55,1.55,0,0,1,0,.29s0,.08,0,.12a6.92,6.92,0,0,1-.25,1,10.9,10.9,0,0,1-.39,1.09c-.15.35-.3.69-.47,1,0-.21,0-.43,0-.66s0-.47,0-.72S40.86,161.91,40.88,161.57Z" fill="#3b1d3b"/><path d="M48.07,160.53a.25.25,0,0,0-.16-.06h-3a2,2,0,0,0-.06-.38,1.25,1.25,0,0,0-.12-.31.91.91,0,0,0-.19-.2.43.43,0,0,0-.25-.07.51.51,0,0,0-.28.07.87.87,0,0,0-.23.2,1.33,1.33,0,0,0-.18.31,1.88,1.88,0,0,0-.14.38h-2.2a.21.21,0,0,0-.16.36.25.25,0,0,0,.16,0h2.1q-.06.3-.09.6c0,.21,0,.41-.06.6s0,.38,0,.55,0,.33,0,.46a7.83,7.83,0,0,0,.12,1.42,2,2,0,0,0,.06.26c0,.18.08.35.13.51l0,.12a2.44,2.44,0,0,0,.1.24c0,.05,0,.09.07.13a2,2,0,0,0,.48.6,1.12,1.12,0,0,0,.73.27.82.82,0,0,0,.43-.12,2.19,2.19,0,0,0,.39-.29,3,3,0,0,0,.32-.39l.1-.16a2.36,2.36,0,0,0,.15-.25l.14-.26s0,0,0-.08l.08-.19a.19.19,0,0,0,0-.08.24.24,0,0,0-.06-.15.2.2,0,0,0-.16-.07.22.22,0,0,0-.21.14,3.31,3.31,0,0,1-.19.39l0,.05a5.08,5.08,0,0,1-.27.43l-.07.09a3.14,3.14,0,0,1-.31.32.64.64,0,0,1-.41.17.55.55,0,0,1-.32-.1.92.92,0,0,1-.29-.27l-.05-.07a2.59,2.59,0,0,1-.19-.33l-.06-.16a2.06,2.06,0,0,1-.12-.35,1.18,1.18,0,0,0,.21-.35,5.22,5.22,0,0,0,.24-.56c.08-.21.16-.45.24-.7s.14-.52.2-.78a7.62,7.62,0,0,0,.14-.81,5.17,5.17,0,0,0,.06-.76v-.07h3a.3.3,0,0,0,.16,0,.22.22,0,0,0,0-.3Zm-4-.47c.07-.08.12-.11.15-.11s.09,0,.13.14a1.46,1.46,0,0,1,.08.38h-.56A1.29,1.29,0,0,1,44.11,160.06Zm.33,1.63c0,.3-.09.59-.16.9s-.15.61-.24.9-.21.58-.32.84a3.8,3.8,0,0,1-.07-.53,7,7,0,0,1,0-.71c0-.52,0-1,.05-1.31a7.83,7.83,0,0,1,.14-.9h.69A6,6,0,0,1,44.44,161.69Z" fill="#3b1d3b"/><path d="M35.44,138.8s-1.1-4.26,1.45-4.6,1.79,4.85,1.79,4.85Z" fill="#fde2d2"/><path d="M49.1,190.42s-23.74-16.34-25.66-12.64,24.13,13.53,24.13,13.53-30.38-.26-30.25,5.23,29.23-3.19,29.23-3.19S24.34,206.5,26.38,210.71s21.7-15.66,21.7-15.66Z" fill="#8eb191"/><path d="M146.76,193.44,61.82,205a12.93,12.93,0,0,1-13-6.22,12,12,0,0,1-1.58-5.46c-.17-4.23,2.5-7.06,5.18-8.82a12.92,12.92,0,0,1,8.76-2l13.63,1.74,1.29.17,5.35.68,1.17.15,7.77,1,1,.13Z" fill="#f77168"/><polygon points="76.05 184.4 74.76 193.99 74.76 184.23 76.05 184.4" fill="#3b1d3b"/><polygon points="82.57 185.23 81.4 193.99 81.4 185.08 82.57 185.23" fill="#3b1d3b"/><polygon points="91.36 186.36 90.34 193.99 90.34 186.23 91.36 186.36" fill="#3b1d3b"/><path d="M126.2,202.12c7.12-8.55,11.73-18.89,18.12-28a23.31,23.31,0,0,1,6.11-6.48c1-.66,2.5-1.15,3.39-.3a3,3,0,0,1,.61,2.26,28.25,28.25,0,0,1-2.11,10c6.19-5.55,12.66-11.46,20.51-14.2a12.4,12.4,0,0,1,5.82-.84,5.68,5.68,0,0,1,4.58,3.35c.89,2.43-.48,5.07-1.91,7.23a81.65,81.65,0,0,1-5.78,7.72c4.15-.54,8.53-1,12.37.69,1.6.7,3.21,2.08,3.08,3.82a4.71,4.71,0,0,1-2,3c-5.27,4.32-12.2,5.89-18.86,7.33,3.22,1.36,6.54,2.8,8.86,5.41a3.46,3.46,0,0,1,1.1,3.12c-.39,1.28-1.88,1.81-3.2,2-6.46,1.15-13-.61-19.42-2.06A199.17,199.17,0,0,0,126.2,202.12Z" fill="#8eb191"/><path d="M125.89,202.37a.24.24,0,0,1-.22-.14.24.24,0,0,1,.12-.33A345.39,345.39,0,0,1,176,182.3a.25.25,0,0,1,.31.17.24.24,0,0,1-.17.31A345.54,345.54,0,0,0,126,202.35.22.22,0,0,1,125.89,202.37Z" fill="#3b1d3b"/><path d="M137,197.47h-.06a.26.26,0,0,1-.19-.31l4.73-19a.25.25,0,0,1,.3-.18.24.24,0,0,1,.18.3l-4.72,19A.24.24,0,0,1,137,197.47Z" fill="#3b1d3b"/><path d="M160.21,207.18a.27.27,0,0,1-.18-.08l-13.66-13.91a.26.26,0,0,1,0-.36.25.25,0,0,1,.35,0l13.66,13.91a.26.26,0,0,1,0,.36A.31.31,0,0,1,160.21,207.18Z" fill="#3b1d3b"/><path d="M156.89,189.05h0a.25.25,0,0,1-.2-.29l2.68-15.45a.23.23,0,0,1,.29-.2.25.25,0,0,1,.2.29l-2.68,15.44A.26.26,0,0,1,156.89,189.05Z" fill="#3b1d3b"/><path d="M169,184.9h-.08a.26.26,0,0,1-.16-.32l7-20.11a.25.25,0,0,1,.32-.15.26.26,0,0,1,.16.32l-7,20.1A.23.23,0,0,1,169,184.9Z" fill="#3b1d3b"/><path d="M178.47,196.2a.23.23,0,0,1-.14,0l-14.43-9.45a.25.25,0,1,1,.28-.42l14.42,9.45a.25.25,0,0,1,.07.35A.23.23,0,0,1,178.47,196.2Z" fill="#3b1d3b"/><path d="M190,189.43h-.09l-15.83-6a.25.25,0,0,1-.14-.33.24.24,0,0,1,.32-.14l15.83,6a.24.24,0,0,1,.14.32A.25.25,0,0,1,190,189.43Z" fill="#3b1d3b"/></g></svg>