<svg xmlns="http://www.w3.org/2000/svg" viewBox="0 0 202.25 209.01"><g id="OBJECTS"><path d="M6,209a6,6,0,0,1-6-6V101.13A101.2,101.2,0,0,1,1.36,84.57c0-.32.1-.65.16-1,.11-.73.25-1.45.4-2.17,0-.18.17-.84.17-.88a97.61,97.61,0,0,1,4-14C7,64,8,61.47,9.16,59A101.92,101.92,0,0,1,37,22.93l.23-.19.37-.3C39.25,21.11,40.75,20,42.17,19l.28-.2c1.6-1.14,3-2.1,4.48-3,.22-.16.46-.31.7-.45a96.63,96.63,0,0,1,9.12-5.07A100.18,100.18,0,0,1,91,.5c2-.19,3.47-.31,4.91-.37C97.63,0,99.38,0,101.12,0c32.12,0,63.74,16.34,82.51,42.63l.13.19c.35.5.71,1,1.05,1.53l.2.27a102.58,102.58,0,0,1,7.83,13.84l.09.2c1.1,2.38,2.1,4.76,3,7.07a101,101,0,0,1,6.36,35.4V203a6,6,0,0,1-6,6Z" fill="#fff"/><path d="M195.74,101.13V203H5.49V101.13a94.5,94.5,0,0,1,1.3-15.7c0-.27.08-.54.13-.81.11-.69.24-1.37.38-2.05,0-.28.11-.54.16-.81A92.4,92.4,0,0,1,11.2,68.59c.87-2.4,1.84-4.76,2.9-7.06a95.38,95.38,0,0,1,26.28-34l.1-.07a3.73,3.73,0,0,1,.3-.26c1.43-1.15,2.89-2.28,4.38-3.35l.33-.23c1.39-1,2.8-1.94,4.25-2.84a4.9,4.9,0,0,1,.48-.31,88.85,88.85,0,0,1,8.64-4.81A94.4,94.4,0,0,1,91.1,6.47c1.52-.15,3.05-.28,4.59-.35S99,6,100.61,6c30.28,0,59.94,15.34,77.63,40.12l0,.05c.41.58.82,1.18,1.22,1.77,0,0,0,0,0,0a95.65,95.65,0,0,1,7.37,13h0c1,2.23,2,4.5,2.86,6.82A95.07,95.07,0,0,1,195.74,101.13Z" fill="#a7cbcc"/><path d="M158.89,95.86V203H40.76V95.86a59.07,59.07,0,1,1,118.13,0Z" fill="#f7f0e7"/><path d="M154.81,97.83V203h-110V97.83A55,55,0,0,1,138.71,59c.34.34.68.68,1,1s.87.93,1.29,1.41.84,1,1.24,1.45.8,1,1.19,1.5q1.35,1.74,2.54,3.6c.37.57.74,1.15,1.09,1.74L148,71.3l.09.17c.33.61.65,1.21.95,1.83s.59,1.2.87,1.81a.61.61,0,0,1,.05.12c.28.61.54,1.22.79,1.84l0,0c.25.62.5,1.26.73,1.9s.42,1.17.61,1.76c.37,1.12.7,2.26,1,3.41.08.28.14.56.21.85q.24,1,.45,2.07c.06.27.11.55.16.82s.09.48.13.73.1.6.14.91c.09.61.18,1.23.25,1.86s.13,1.22.18,1.84.09,1.22.12,1.84c0,.45,0,.9,0,1.36S154.81,97.37,154.81,97.83Z" fill="#44182c"/><path d="M154.81,97.83V203H46.9V99.87A54.72,54.72,0,0,1,59.05,65.4a3.76,3.76,0,0,1,.25-.31A55.14,55.14,0,0,1,76.15,51.27l.25-.13a54.43,54.43,0,0,1,16.86-5.58l.25,0a56.14,56.14,0,0,1,8.36-.63,54.17,54.17,0,0,1,8.5.66,1,1,0,0,1,.25,0,54.09,54.09,0,0,1,16.85,5.62l.25.13a55.28,55.28,0,0,1,12,8.65q.66.69,1.29,1.41c.42.48.84,1,1.24,1.45s.8,1,1.19,1.5.77,1,1.14,1.54l.25.36c.39.56.78,1.13,1.15,1.7s.74,1.15,1.09,1.74L148,71.3l.09.17c.33.61.65,1.21.95,1.83s.59,1.2.87,1.81a.61.61,0,0,1,.05.12c.28.61.54,1.22.79,1.84l0,0c.25.62.5,1.26.73,1.9s.42,1.17.61,1.76c.37,1.12.7,2.26,1,3.41.08.28.14.56.21.85q.24,1,.45,2.07c.06.27.11.55.16.82s.09.48.13.73.1.6.14.91c.09.61.18,1.23.25,1.86s.13,1.22.18,1.84.09,1.22.12,1.84c0,.45,0,.9,0,1.36S154.81,97.37,154.81,97.83Z" fill="#bc606d"/><g opacity="0.36"><path d="M59.3,65.09V203h-.25V65.4A3.76,3.76,0,0,1,59.3,65.09Z" fill="#44182c"/><path d="M76.4,51.14V203h-.25V51.27Z" fill="#44182c"/><path d="M93.51,45.52V203h-.25V45.56Z" fill="#44182c"/><path d="M110.62,45.59V203h-.25V45.55A1,1,0,0,1,110.62,45.59Z" fill="#44182c"/><path d="M127.72,51.34V203h-.25V51.21Z" fill="#44182c"/><path d="M144.83,66.25V203h-.25V65.89Z" fill="#44182c"/></g><path d="M121,120.57l-.21-.22a16.62,16.62,0,0,0-2.39-2l-1-.62a5.74,5.74,0,0,0-.53-.32c-.24-.15-.48-.28-.73-.42s-.75-.4-1.14-.59a.61.61,0,0,0-.14-.07l-1-.47c-1-.47-2.07-.91-3.1-1.35l-.25-.11-.25-.1-1.56-.67s0,0,0,0l-1.08-.49a2.61,2.61,0,0,1-.91-.63l-1.13,1.27a4.58,4.58,0,0,1-2.89,1.47l1.2,1.92.86,1.42.14.22c.31.52.63,1,1,1.57.63,1,1.28,2,1.94,3.06h0c.79,1.2,1.61,2.39,2.48,3.53.08.12.16.23.25.34.76,1,1.55,2,2.39,2.88a6.63,6.63,0,0,0,.53-.53l3.82-4.27,5.25-2.33.16-.07A12.65,12.65,0,0,0,121,120.57Zm-24.91-5.44a4.42,4.42,0,0,1-2.62-.24.87.87,0,0,1-.25-.1,4.27,4.27,0,0,1-1.42-1.05L90.29,112c-.37.5-.77,1-1.17,1.46-.83,1-1.72,2-2.58,2.91l-.52.55-.24.27A31.89,31.89,0,0,0,81,123.64a14.43,14.43,0,0,0-.79,1.75l3.8,4.24a9.63,9.63,0,0,0,7,3.19c.19-.38.38-.77.55-1.16s.29-.66.43-1c.5-1.26.92-2.56,1.3-3.88.09-.3.17-.6.25-.91a2.81,2.81,0,0,0,.08-.31c.23-.82.44-1.64.65-2.45,0-.14.07-.28.11-.42.13-.53.27-1.06.41-1.59s.26-1,.41-1.46.22-.76.33-1.14c0,0,0-.11,0-.16s.07-.23.11-.34c.11-.34.22-.69.34-1s.17-.5.27-.75c.15-.42.32-.83.49-1.24ZM84.93,107l-.27-2.68-.53-.91a28.39,28.39,0,0,1-7.73,1.69l-.25,0-.36,0-1.61.14a48.2,48.2,0,0,0-7.41,1l1.86,3.22.46,4.31a29.16,29.16,0,0,0,5.45-.42c.46-.07.91-.15,1.37-.24a1,1,0,0,0,.24,0,1.23,1.23,0,0,0,.25,0c1.17-.22,2.34-.48,3.49-.77a55.47,55.47,0,0,0,6.83-2.2A4.5,4.5,0,0,1,84.93,107ZM121,120.57l-.21-.22a16.62,16.62,0,0,0-2.39-2l-1-.62a5.74,5.74,0,0,0-.53-.32c-.24-.15-.48-.28-.73-.42s-.75-.4-1.14-.59a.61.61,0,0,0-.14-.07l-1-.47c-1-.47-2.07-.91-3.1-1.35l-.25-.11-.25-.1-1.56-.67s0,0,0,0l-1.08-.49a2.61,2.61,0,0,1-.91-.63l-1.13,1.27a4.58,4.58,0,0,1-2.89,1.47l1.2,1.92.86,1.42.14.22c.31.52.63,1,1,1.57.63,1,1.28,2,1.94,3.06h0c.79,1.2,1.61,2.39,2.48,3.53.08.12.16.23.25.34.76,1,1.55,2,2.39,2.88a6.63,6.63,0,0,0,.53-.53l3.82-4.27,5.25-2.33.16-.07A12.65,12.65,0,0,0,121,120.57Zm-24.91-5.44a4.42,4.42,0,0,1-2.62-.24.87.87,0,0,1-.25-.1,4.27,4.27,0,0,1-1.42-1.05L90.29,112c-.37.5-.77,1-1.17,1.46-.83,1-1.72,2-2.58,2.91l-.52.55-.24.27A31.89,31.89,0,0,0,81,123.64a14.43,14.43,0,0,0-.79,1.75l3.8,4.24a9.63,9.63,0,0,0,7,3.19c.19-.38.38-.77.55-1.16s.29-.66.43-1c.5-1.26.92-2.56,1.3-3.88.09-.3.17-.6.25-.91a2.81,2.81,0,0,0,.08-.31c.23-.82.44-1.64.65-2.45,0-.14.07-.28.11-.42.13-.53.27-1.06.41-1.59s.26-1,.41-1.46.22-.76.33-1.14c0,0,0-.11,0-.16s.07-.23.11-.34c.11-.34.22-.69.34-1s.17-.5.27-.75c.15-.42.32-.83.49-1.24Zm8.23-48.25-5.6,1.2-3.58-.77c-.32.38-.63.77-.92,1.18-.12.17-.25.34-.36.52s-.26.4-.39.6-.17.26-.25.4-.26.45-.38.68a7.49,7.49,0,0,0-.36.69c-.08.15-.15.3-.22.45s-.16.35-.23.52a19.58,19.58,0,0,0-1.13,3.42,18.35,18.35,0,0,0-.48,3.38h0c0,.33,0,.65,0,1s0,.93,0,1.39c.07,1,.21,1.93.34,2.88.11.72.21,1.44.28,2.16l.74-.81a4.44,4.44,0,0,1,1.42-1.06l.25-.11a4.5,4.5,0,0,1,2.62-.23l1.39.3c.24-.83.52-1.69.84-2.6q.83-2.37,1.78-4.69c.09-.24.19-.48.3-.71s.19-.47.3-.71.08-.2.12-.3h.3l-.21-.21c0-.09.08-.19.13-.28s.18-.42.28-.63l.3-.67c.65-1.42,1.34-2.83,2.06-4.21a12.86,12.86,0,0,0,1.15-2.86A4.54,4.54,0,0,0,104.36,66.88Zm6,47.38V110.4a3.21,3.21,0,0,1-.45.24l-2.46,1.09-.3.34-.35.4-1.13,1.27a4.58,4.58,0,0,1-2.89,1.47,6,6,0,0,1-.6,0,3.79,3.79,0,0,1-.81-.09l-2.62-.57-1.38.3-.62.13-.63.14a4.42,4.42,0,0,1-2.62-.24.87.87,0,0,1-.25-.1,4.27,4.27,0,0,1-1.42-1.05L90.29,112l-.25-.28-.14-.06-2.31-1a3.59,3.59,0,0,1-.34-.17,2.56,2.56,0,0,1-.53-.35A4.5,4.5,0,0,1,84.93,107l-.27-2.68-.53-.91-.25-.44-.57-1a4.52,4.52,0,0,1,0-4.5l1-1.66c-.83-.12-1.66-.19-2.48-.26-.33,0-.67,0-1-.09s-.74-.07-1.1-.12L79,95.28l-.72-.1L77.44,95l-1-.19v13.74l-.25.25v.83l.25.25v3.7c1.38-.26,2.74-.57,4.09-.93.78-.2,1.56-.42,2.33-.67h0a19,19,0,0,1,2.78.06,8.64,8.64,0,0,1,3.3,1.26l.21.13a30.64,30.64,0,0,1,2.73,1.85c.48.36,1,.72,1.41,1.09l.25.21v4.12l1.25.36.5.13.9.24.7.17.66.16a.94.94,0,0,1,0-.16,1.23,1.23,0,0,1,0-.19,1.58,1.58,0,0,1,.08-.56l.25.15.63.4.21.14.28.19,0,0h0l.12,0,.12,0h0l0,0,0,0,0-.08.33-.13c.32-.22.86-.56,1.58-1a0,0,0,0,1,0,0,.83.83,0,0,1,.08.22,1.83,1.83,0,0,1,0,.71.43.43,0,0,1,0,.11c1.3-.31,3-.77,4.71-1.3a24.74,24.74,0,0,0,4-1.58l.37-.2.06,0,.25-.16v-4Zm21.75-18.61c-.1-.22-.21-.43-.33-.64l0-.07-2.87-5-.6-5.71a9,9,0,0,0-.56-2.35,4,4,0,0,0-.25-.6,9.11,9.11,0,0,0-.69-1.27l-.29-.43a9.63,9.63,0,0,0-3.88-3.13l-3.89-1.73-.66-.3-.7-.3-3.82-4.27a9.44,9.44,0,0,0-2.92-2.21l-.25-.12a9.7,9.7,0,0,0-4.94-.81,5.35,5.35,0,0,0-.56.07,4.54,4.54,0,0,0-.51.09l-5.6,1.2-3.58-.77-.55-.11L93.51,67l-.25-.06-.11,0a9.61,9.61,0,0,0-9.17,3l-3.84,4.27L76.4,75.79l-.25.11-1.26.56a4.37,4.37,0,0,0-.61.31,5.19,5.19,0,0,0-.47.25,9.62,9.62,0,0,0-4.58,7.22L68.63,90l-.93,1.62-.26.44-1.68,2.93a9.59,9.59,0,0,0,0,9.61l.75,1.29.26.47,1.86,3.22.46,4.31,0,.51.09.9A9.62,9.62,0,0,0,74.89,123l1.26.56.25.11,3.31,1.48.43.18,0,0,3.8,4.24a9.63,9.63,0,0,0,7,3.19h.56a5.07,5.07,0,0,0,.56-.05,7.59,7.59,0,0,0,1.05-.15l.11,0,.25-.06,3.68-.78,1.57-.34,3,.65,2.57.55a9,9,0,0,0,2.58.19,9.26,9.26,0,0,0,3.43-.85,1.42,1.42,0,0,0,.25-.12,9.06,9.06,0,0,0,2-1.32,3.15,3.15,0,0,0,.38-.35,6.63,6.63,0,0,0,.53-.53l3.82-4.27,5.25-2.33.16-.07a5,5,0,0,0,.46-.24,9.46,9.46,0,0,0,4.24-4.51,5.39,5.39,0,0,0,.25-.6,9.79,9.79,0,0,0,.56-2.36l.6-5.72.45-.76.28-.5,2.14-3.72A9.6,9.6,0,0,0,132.12,95.65Zm-36-11.29,1.39.3.52.11.72.16,2.62-.57a4.5,4.5,0,0,1,3.61.78,4.12,4.12,0,0,1,.4.33l.29.29,1.78,2,2.46,1.09a4.73,4.73,0,0,1,.45.23,2.2,2.2,0,0,1,.25.17,4.05,4.05,0,0,1,.83.72,4.47,4.47,0,0,1,.32.41,4.39,4.39,0,0,1,.8,2.12l.28,2.68.94,1.62.26.46.15.25a4.47,4.47,0,0,1,0,4.5l-1.35,2.32-.28,2.68a4.1,4.1,0,0,1-.25,1.06,3.51,3.51,0,0,1-.26.59,4.42,4.42,0,0,1-1.44,1.6,1.28,1.28,0,0,1-.25.15,3.21,3.21,0,0,1-.45.24l-2.46,1.09-.3.34-.35.4-1.13,1.27a4.58,4.58,0,0,1-2.89,1.47,6,6,0,0,1-.6,0,3.79,3.79,0,0,1-.81-.09l-2.62-.57-1.38.3-.62.13-.63.14a4.42,4.42,0,0,1-2.62-.24.87.87,0,0,1-.25-.1,4.27,4.27,0,0,1-1.42-1.05L90.29,112l-.25-.28-.14-.06-2.31-1a3.59,3.59,0,0,1-.34-.17,2.56,2.56,0,0,1-.53-.35A4.5,4.5,0,0,1,84.93,107l-.27-2.68-.53-.91-.25-.44-.57-1a4.52,4.52,0,0,1,0-4.5l1-1.66.27-.48.12-.19.27-2.68A4.77,4.77,0,0,1,85.37,91a2.11,2.11,0,0,1,.24-.44,4.35,4.35,0,0,1,2-1.73L90,87.75l.61-.66.45-.52.74-.81a4.44,4.44,0,0,1,1.42-1.06l.25-.11A4.5,4.5,0,0,1,96.13,84.36ZM84.93,107l-.27-2.68-.53-.91-.25-.44-.57-1a4.52,4.52,0,0,1,0-4.5l1-1.66c-.83-.12-1.66-.19-2.48-.26-.33,0-.67,0-1-.09s-.74-.07-1.1-.12L79,95.28l-.72-.1L77.44,95l-1-.19v13.74l-.25.25v.83l.25.25v3.17c1.17-.22,2.34-.48,3.49-.77a55.47,55.47,0,0,0,6.83-2.2A4.5,4.5,0,0,1,84.93,107Zm25.44,7.26V110.4a3.21,3.21,0,0,1-.45.24l-2.46,1.09-.3.34-.35.4-1.13,1.27a4.58,4.58,0,0,1-2.89,1.47,6,6,0,0,1-.6,0,3.79,3.79,0,0,1-.81-.09l-2.62-.57-1.38.3-.62.13-.63.14a4.42,4.42,0,0,1-2.62-.24.87.87,0,0,1-.25-.1,4.27,4.27,0,0,1-1.42-1.05L90.29,112l-.25-.28-.14-.06-2.31-1a3.59,3.59,0,0,1-.34-.17c-1.45.58-2.93,1.09-4.42,1.55a19,19,0,0,1,2.78.06,8.64,8.64,0,0,1,3.3,1.26l.21.13a30.64,30.64,0,0,1,2.73,1.85c.48.36,1,.72,1.41,1.09l.25.21v4.12l1.25.36.5.13.9.24.7.17.66.16a.94.94,0,0,1,0-.16,1.23,1.23,0,0,1,0-.19,1.58,1.58,0,0,1,.08-.56l.25.15.63.4.21.14.28.19,0,0h0l.12,0,.12,0h0l0,0,0,0,0-.08.33-.13c.32-.22.86-.56,1.58-1a0,0,0,0,1,0,0,.83.83,0,0,1,.08.22,1.83,1.83,0,0,1,0,.71.43.43,0,0,1,0,.11c1.3-.31,3-.77,4.71-1.3a24.74,24.74,0,0,0,4-1.58l.37-.2.06,0,.25-.16v-4Zm-6-47.38-5.6,1.2-3.58-.77c-.32.38-.63.77-.92,1.18-.12.17-.25.34-.36.52s-.26.4-.39.6-.17.26-.25.4-.26.45-.38.68a7.49,7.49,0,0,0-.36.69c-.08.15-.15.3-.22.45s-.16.35-.23.52a19.58,19.58,0,0,0-1.13,3.42,18.35,18.35,0,0,0-.48,3.38h0c0,.33,0,.65,0,1s0,.93,0,1.39c.07,1,.21,1.93.34,2.88.11.72.21,1.44.28,2.16l.74-.81a4.44,4.44,0,0,1,1.42-1.06l.25-.11a4.5,4.5,0,0,1,2.62-.23l1.39.3c.24-.83.52-1.69.84-2.6q.83-2.37,1.78-4.69c.09-.24.19-.48.3-.71s.19-.47.3-.71.08-.2.12-.3h.3l-.21-.21c0-.09.08-.19.13-.28s.18-.42.28-.63l.3-.67c.65-1.42,1.34-2.83,2.06-4.21a12.86,12.86,0,0,0,1.15-2.86A4.54,4.54,0,0,0,104.36,66.88Zm18.25,9.58-3.89-1.73A25.55,25.55,0,0,0,111.54,79l-.92.8-.25.22a36.75,36.75,0,0,0-2.63,2.67c-.21.22-.41.46-.61.69-.61.7-1.19,1.41-1.74,2.12l.29.29,1.78,2,2.46,1.09a4.73,4.73,0,0,1,.45.23,2.2,2.2,0,0,1,.25.17,4.05,4.05,0,0,1,.83.72,46.36,46.36,0,0,1,3.73-3c1.77-1.3,3.61-2.5,5.45-3.66l1.63-1c1.4-.88,2.83-1.78,4.23-2.7A9.63,9.63,0,0,0,122.61,76.46ZM121,120.57l-.21-.22a16.62,16.62,0,0,0-2.39-2l-1-.62a5.74,5.74,0,0,0-.53-.32c-.24-.15-.48-.28-.73-.42s-.75-.4-1.14-.59a.61.61,0,0,0-.14-.07l-1-.47c-1-.47-2.07-.91-3.1-1.35l-.25-.11-.25-.1-1.56-.67s0,0,0,0l-1.08-.49a2.61,2.61,0,0,1-.91-.63l-1.13,1.27a4.58,4.58,0,0,1-2.89,1.47l1.2,1.92.86,1.42.14.22c.31.52.63,1,1,1.57.63,1,1.28,2,1.94,3.06h0c.79,1.2,1.61,2.39,2.48,3.53.08.12.16.23.25.34.76,1,1.55,2,2.39,2.88a6.63,6.63,0,0,0,.53-.53l3.82-4.27,5.25-2.33.16-.07A12.65,12.65,0,0,0,121,120.57ZM84.93,107l-.27-2.68-.53-.91a28.39,28.39,0,0,1-7.73,1.69l-.25,0-.36,0-1.61.14a48.2,48.2,0,0,0-7.41,1l1.86,3.22.46,4.31a29.16,29.16,0,0,0,5.45-.42c.46-.07.91-.15,1.37-.24a1,1,0,0,0,.24,0,1.23,1.23,0,0,0,.25,0c1.17-.22,2.34-.48,3.49-.77a55.47,55.47,0,0,0,6.83-2.2A4.5,4.5,0,0,1,84.93,107Zm11.2,8.13a4.42,4.42,0,0,1-2.62-.24.87.87,0,0,1-.25-.1,4.27,4.27,0,0,1-1.42-1.05L90.29,112c-.37.5-.77,1-1.17,1.46-.83,1-1.72,2-2.58,2.91l-.52.55-.24.27A31.89,31.89,0,0,0,81,123.64a14.43,14.43,0,0,0-.79,1.75l3.8,4.24a9.63,9.63,0,0,0,7,3.19c.19-.38.38-.77.55-1.16s.29-.66.43-1c.5-1.26.92-2.56,1.3-3.88.09-.3.17-.6.25-.91a2.81,2.81,0,0,0,.08-.31c.23-.82.44-1.64.65-2.45,0-.14.07-.28.11-.42.13-.53.27-1.06.41-1.59s.26-1,.41-1.46.22-.76.33-1.14c0,0,0-.11,0-.16s.07-.23.11-.34c.11-.34.22-.69.34-1s.17-.5.27-.75c.15-.42.32-.83.49-1.24ZM121,120.57l-.21-.22a16.62,16.62,0,0,0-2.39-2l-1-.62a5.74,5.74,0,0,0-.53-.32c-.24-.15-.48-.28-.73-.42s-.75-.4-1.14-.59a.61.61,0,0,0-.14-.07l-1-.47c-1-.47-2.07-.91-3.1-1.35l-.25-.11-.25-.1-1.56-.67s0,0,0,0l-1.08-.49a2.61,2.61,0,0,1-.91-.63l-1.13,1.27a4.58,4.58,0,0,1-2.89,1.47l1.2,1.92.86,1.42.14.22c.31.52.63,1,1,1.57.63,1,1.28,2,1.94,3.06h0c.79,1.2,1.61,2.39,2.48,3.53.08.12.16.23.25.34.76,1,1.55,2,2.39,2.88a6.63,6.63,0,0,0,.53-.53l3.82-4.27,5.25-2.33.16-.07A12.65,12.65,0,0,0,121,120.57Z" fill="#26575e"/><path d="M91.19,77.05a3.42,3.42,0,1,1-3.41-3.42A3.41,3.41,0,0,1,91.19,77.05Z" fill="#ffc97d"/><path d="M84.54,95.36l-.27.48c-.83-.12-1.66-.19-2.48-.26-.33,0-.67,0-1-.09A43.82,43.82,0,0,1,69.89,93a25.8,25.8,0,0,1-2.45-1l.26-.44a21.58,21.58,0,0,0,2.36,1A43.41,43.41,0,0,0,80.84,95l1,.09C82.73,95.15,83.65,95.23,84.54,95.36Z" fill="#f7f0e7"/><path d="M87.25,110.47a59.65,59.65,0,0,1-12.63,3.46,29.42,29.42,0,0,1-5.48.42l-.06-.51a29.2,29.2,0,0,0,5.46-.42,57.11,57.11,0,0,0,12.18-3.3A2.56,2.56,0,0,0,87.25,110.47Z" fill="#f7f0e7"/><path d="M97.38,114.86a54.06,54.06,0,0,0-2.64,8.39,48.18,48.18,0,0,1-3.2,9.56H91a46.8,46.8,0,0,0,3.26-9.71A56.79,56.79,0,0,1,96.76,115Z" fill="#f7f0e7"/><path d="M90.82,84.41c.11.72.21,1.44.28,2.16l-.45.52c-.08-.87-.21-1.74-.33-2.6s-.28-2-.35-2.92A20.38,20.38,0,0,1,94.63,67.2l.55.11a20,20,0,0,0-4.7,14.22C90.55,82.48,90.69,83.46,90.82,84.41Z" fill="#f7f0e7"/><path d="M118.72,74.73A25.55,25.55,0,0,0,111.54,79a41.35,41.35,0,0,0-6.15,6.5,4.12,4.12,0,0,0-.4-.33,41.29,41.29,0,0,1,6.22-6.56,26.11,26.11,0,0,1,6.85-4.15Z" fill="#f7f0e7"/><path d="M132.12,95.65a18,18,0,0,0-5.54-.83c-4.22,0-8.39,1.24-12.42,2.4l-.11,0-.27-.46.24-.06c4.06-1.17,8.26-2.39,12.56-2.43a19,19,0,0,1,5.21.71C131.9,95.22,132,95.43,132.12,95.65Z" fill="#f7f0e7"/><path d="M123.23,122.72a5,5,0,0,1-.46.24,13.11,13.11,0,0,0-1.73-2.39c-2.68-2.93-6.48-4.54-10.17-6.1-1-.44-2.12-.9-3.15-1.37a2.61,2.61,0,0,1-.91-.63l.35-.4a1.87,1.87,0,0,0,.78.56c1,.47,2.09.93,3.13,1.37,3.73,1.58,7.6,3.21,10.35,6.22A13.37,13.37,0,0,1,123.23,122.72Z" fill="#f7f0e7"/><path d="M91.32,125.59a3.41,3.41,0,1,1-3.41-3.41A3.41,3.41,0,0,1,91.32,125.59Z" fill="#ffc97d"/><path d="M120.8,84.39A3.42,3.42,0,1,1,117.39,81,3.41,3.41,0,0,1,120.8,84.39Z" fill="#ffc97d"/><path d="M129.15,106.7a3.41,3.41,0,1,1-3.41-3.41A3.41,3.41,0,0,1,129.15,106.7Z" fill="#ffc97d"/><circle cx="70.5" cy="99.05" r="3.41" fill="#ffc97d"/><path d="M79.4,84.67a.16.16,0,0,1-.11,0l-4.06-4.06a.15.15,0,0,1,0-.2.14.14,0,0,1,.21,0l4.06,4.06a.13.13,0,0,1,0,.2A.16.16,0,0,1,79.4,84.67Z" fill="#f7f0e7"/><path d="M77.37,85.51a.15.15,0,0,1-.15-.15V79.62a.15.15,0,0,1,.15-.15.15.15,0,0,1,.14.15v5.74A.15.15,0,0,1,77.37,85.51Z" fill="#f7f0e7"/><path d="M75.34,84.67a.16.16,0,0,1-.11,0,.15.15,0,0,1,0-.2l4.06-4.06a.15.15,0,0,1,.21,0,.13.13,0,0,1,0,.2l-4.06,4.06A.16.16,0,0,1,75.34,84.67Z" fill="#f7f0e7"/><path d="M80.24,82.64H74.5a.15.15,0,0,1,0-.3h5.74a.15.15,0,0,1,0,.3Z" fill="#f7f0e7"/><path d="M103.54,78a.16.16,0,0,1-.11,0l-4.05-4.06a.14.14,0,0,1,0-.21.15.15,0,0,1,.2,0l4.06,4.06a.14.14,0,0,1,0,.21A.14.14,0,0,1,103.54,78Z" fill="#f7f0e7"/><path d="M101.51,78.82a.15.15,0,0,1-.15-.15V72.93a.15.15,0,1,1,.3,0v5.74A.15.15,0,0,1,101.51,78.82Z" fill="#f7f0e7"/><path d="M99.48,78a.12.12,0,0,1-.1,0,.14.14,0,0,1,0-.21l4.05-4.06a.17.17,0,0,1,.21,0,.14.14,0,0,1,0,.21l-4.06,4.06A.12.12,0,0,1,99.48,78Z" fill="#f7f0e7"/><path d="M104.38,76H98.64a.15.15,0,1,1,0-.3h5.74a.15.15,0,1,1,0,.3Z" fill="#f7f0e7"/><path d="M126,99.76a.16.16,0,0,1-.11-.05l-4.06-4.06a.15.15,0,0,1,0-.2.15.15,0,0,1,.21,0l4.06,4.06a.13.13,0,0,1,0,.2A.16.16,0,0,1,126,99.76Z" fill="#f7f0e7"/><path d="M124,100.6a.15.15,0,0,1-.15-.15V94.71a.15.15,0,0,1,.15-.15.15.15,0,0,1,.14.15v5.74A.15.15,0,0,1,124,100.6Z" fill="#f7f0e7"/><path d="M121.92,99.76a.16.16,0,0,1-.11-.05.15.15,0,0,1,0-.2l4.06-4.06a.14.14,0,0,1,.21,0,.13.13,0,0,1,0,.2L122,99.71A.16.16,0,0,1,121.92,99.76Z" fill="#f7f0e7"/><path d="M126.82,97.73h-5.74a.15.15,0,1,1,0-.3h5.74a.15.15,0,0,1,0,.3Z" fill="#f7f0e7"/><path d="M77.56,111.43a.12.12,0,0,1-.1,0l-4.06-4.06a.15.15,0,0,1,0-.21.15.15,0,0,1,.2,0l4.06,4.06a.14.14,0,0,1,0,.21A.13.13,0,0,1,77.56,111.43Z" fill="#f7f0e7"/><path d="M75.53,112.28a.15.15,0,0,1-.15-.15v-5.74a.15.15,0,0,1,.3,0v5.74A.15.15,0,0,1,75.53,112.28Z" fill="#f7f0e7"/><path d="M73.5,111.43a.12.12,0,0,1-.1,0,.15.15,0,0,1,0-.21l4.06-4.06a.15.15,0,0,1,.2,0,.14.14,0,0,1,0,.21l-4.06,4.06A.12.12,0,0,1,73.5,111.43Z" fill="#f7f0e7"/><path d="M78.4,109.4H72.66a.15.15,0,0,1-.15-.14.15.15,0,0,1,.15-.15H78.4a.15.15,0,0,1,.15.15A.15.15,0,0,1,78.4,109.4Z" fill="#f7f0e7"/><path d="M98.36,121.92a61,61,0,0,0-6.19,10.66,64.87,64.87,0,0,0-3.36,10.53l3.24-3.2,2.25,3.53,5.21-21.07Z" fill="#f56a58"/><path d="M100.37,121.22a61.75,61.75,0,0,1,6.19,10.66,66,66,0,0,1,3.36,10.54l-3.24-3.2-2.25,3.52-5.21-21.07Z" fill="#f56a58"/><path d="M99.22,121.75l-.28.06h0l0,0a27.08,27.08,0,0,0-9.34-4.06,25.5,25.5,0,0,0-3.07-.46c.46,2,9,4.09,11.71,4.71-3,.59-12.07,2.3-14.24,2.17s-6.1-.74-6.7-3.87a5.51,5.51,0,0,1,.22-2.69c1.64-5.49,3.85-5.82,8.12-5.49a8.64,8.64,0,0,1,3.3,1.26c3.79,2.2,8.44,6.59,9.87,8Z" fill="#f56a58"/><path d="M98.21,122c-3,.59-12.07,2.3-14.24,2.17s-6.1-.74-6.7-3.87c.06-2.69,4.63-3.45,9.23-3C87,119.25,95.49,121.34,98.21,122Z" fill="#44182c"/><path d="M98.9,121.75l.28.06h0l0,0a27.08,27.08,0,0,1,9.34-4.06,25.5,25.5,0,0,1,3.07-.46c-.46,2-9,4.09-11.71,4.71,3,.59,12.07,2.3,14.24,2.17s6.1-.74,6.7-3.87a5.51,5.51,0,0,0-.22-2.69c-1.64-5.49-3.85-5.82-8.12-5.49a8.64,8.64,0,0,0-3.3,1.26c-3.79,2.2-8.44,6.59-9.87,8Z" fill="#f56a58"/><path d="M99.91,122c3,.59,12.07,2.3,14.24,2.17s6.1-.74,6.7-3.87c-.06-2.69-4.63-3.45-9.23-3C111.16,119.25,102.63,121.34,99.91,122Z" fill="#44182c"/><path d="M97.46,121.45a1.11,1.11,0,0,0,.38.88,1.39,1.39,0,0,0,.81.21,10.23,10.23,0,0,0,1.66,0,1.16,1.16,0,0,0,.64-.21,1.11,1.11,0,0,0,.31-.76,1.38,1.38,0,0,0-1.75-1.64,4.07,4.07,0,0,0-1.45.29A1.48,1.48,0,0,0,97.46,121.45Z" fill="#f56a58"/><circle cx="58.51" cy="140.84" r="6" fill="#44182c"/><path d="M102.61,203H5.49V176.18a22.08,22.08,0,0,1,9.25.71A22.59,22.59,0,0,1,29.6,191.8a22.28,22.28,0,0,1,4-5.14l.51-.49A25.14,25.14,0,0,1,36.85,184l.12-.08a25.52,25.52,0,0,1,3.79-2.12,26.3,26.3,0,0,1,4.09-1.5c.67-.2,1.36-.37,2-.51a28.06,28.06,0,0,1,11.93.1,1.8,1.8,0,0,1,.22.06,1,1,0,0,1,.25.06,33.69,33.69,0,0,1,16.85,10.57c.09.09.17.19.25.28a40,40,0,0,1,6.69,10.8c2.46-2.79,6.4-3.45,10.17-2.86l.25.05a17.84,17.84,0,0,1,3.59,1A23.82,23.82,0,0,1,102.61,203Z" fill="#f7f0e7"/><path d="M195.74,165.88V203H117.15a23.62,23.62,0,0,1,5.26-4.66,24.45,24.45,0,0,1,20.26-2.76c6.25-12.62,16.59-23.66,29.82-28.47A40.53,40.53,0,0,1,195.74,165.88Z" fill="#f7f0e7"/><g opacity="0.29"><path d="M102.61,203H5.49V176.18a22.08,22.08,0,0,1,9.25.71A22.59,22.59,0,0,1,29.6,191.8a22.28,22.28,0,0,1,4-5.14l.51-.49A25.14,25.14,0,0,1,36.85,184l.12-.08a25.52,25.52,0,0,1,3.79-2.12,26.3,26.3,0,0,1,4.09-1.5c.67-.2,1.36-.37,2-.51a28.06,28.06,0,0,1,11.93.1,1.8,1.8,0,0,1,.22.06,1,1,0,0,1,.25.06,33.69,33.69,0,0,1,16.85,10.57c.09.09.17.19.25.28a40,40,0,0,1,6.69,10.8c2.46-2.79,6.4-3.45,10.17-2.86l.25.05a17.84,17.84,0,0,1,3.59,1A23.82,23.82,0,0,1,102.61,203Z" fill="#a7cbcc"/></g><g opacity="0.29"><path d="M195.74,165.88V203H117.15a23.62,23.62,0,0,1,5.26-4.66,24.45,24.45,0,0,1,20.26-2.76c6.25-12.62,16.59-23.66,29.82-28.47A40.53,40.53,0,0,1,195.74,165.88Z" fill="#a7cbcc"/></g><polygon points="36.97 159.72 36.97 203.01 33.93 203.01 33.59 203.1 33.59 159.72 36.97 159.72" fill="#f7f0e7"/><polygon points="36.97 162.98 36.97 164.43 34 165.21 33.59 165.31 33.59 163.87 36.97 162.98" fill="#a7cbcc"/><polygon points="36.97 167.18 36.97 168.63 33.59 169.51 33.59 168.07 36.97 167.18" fill="#a7cbcc"/><polygon points="36.97 171.38 36.97 172.83 33.59 173.71 33.59 172.27 36.97 171.38" fill="#a7cbcc"/><polygon points="36.97 175.58 36.97 177.03 33.59 177.91 33.59 176.46 36.97 175.58" fill="#a7cbcc"/><polygon points="36.97 179.78 36.97 181.23 33.59 182.11 33.59 180.66 36.97 179.78" fill="#a7cbcc"/><polygon points="36.97 183.98 36.97 185.42 33.59 186.31 33.59 184.86 36.97 183.98" fill="#a7cbcc"/><polygon points="36.97 188.17 36.97 189.62 33.59 190.5 33.59 189.06 36.97 188.17" fill="#a7cbcc"/><polygon points="36.97 192.37 36.97 193.82 33.59 194.7 33.59 193.26 36.97 192.37" fill="#a7cbcc"/><polygon points="36.97 196.57 36.97 198.02 33.59 198.9 33.59 197.46 36.97 196.57" fill="#a7cbcc"/><polygon points="36.97 200.77 36.97 202.21 33.93 203.01 33.59 203.1 33.59 201.65 36.97 200.77" fill="#a7cbcc"/><polygon points="36.97 160.26 36.97 163.24 34 165.21 33.59 165.48 33.59 159.81 36.97 160.26" fill="#44182c"/><path d="M68.65,136v25.73H9.72l-.11-24.92A11.26,11.26,0,0,1,20,125.58a5.12,5.12,0,0,1,.56,0H58.15l.53,0s0,0,0,0a10.42,10.42,0,0,1,6,2.3,10.55,10.55,0,0,1,2.57,3,10.27,10.27,0,0,1,1.34,4.8C68.65,135.81,68.65,135.92,68.65,136Z" fill="#f56a58"/><path d="M68.65,136v25.73h-19c-.45-10.69-2-36.21,9-36.21,0,0,0,0,0,0,7.55-.17,9.86,4.66,10,10.13C68.65,135.81,68.65,135.92,68.65,136Z" fill="#a7cbcc"/><path d="M67.3,130.89a6.75,6.75,0,0,0-2.57-3,10.94,10.94,0,0,0-5.43-1.49H59a5.47,5.47,0,0,0-4,1.78c-5.48,5.7-4.77,23.72-4.38,33.4v.24h.24v-.24c-.38-9.64-1.09-27.6,4.32-33.23A5.19,5.19,0,0,1,59,126.6h.26C67,127,68,131.83,68,137v24.8h.24V137A15.12,15.12,0,0,0,67.3,130.89Z" fill="#44182c"/><path d="M66.47,154.54H54a.23.23,0,0,1-.22-.23.22.22,0,0,1,.22-.23H66.47a.23.23,0,0,1,.23.23A.23.23,0,0,1,66.47,154.54Z" fill="#44182c"/><path d="M43,122.25a.1.1,0,0,0,0,0,.82.82,0,0,0-.59-.24H40.76l-7.86-.06a.9.9,0,0,0-.64.26.88.88,0,0,0-.26.63v5.36a.89.89,0,0,0,.89.89h5.57l.69,19a.23.23,0,0,0,.23.22h2.1a.23.23,0,0,0,.23-.21l1.35-22.48h0l.16-2.63A.85.85,0,0,0,43,122.25Z" fill="#44182c"/><path d="M40.47,146.57a.49.49,0,0,1-.51-.48.5.5,0,0,1,.51-.49.49.49,0,0,1,.5.49A.48.48,0,0,1,40.47,146.57Z" fill="#44182c"/><path d="M20.56,125.55c-3.88,2-7.87,5.89-8.59,10.69a26.78,26.78,0,0,0-.16,4.64c0,.63,0,1.29,0,1.93,0,.8,0,1.59,0,2.39,0,1.36,0,2.77,0,4.16,0,3,0,6.14.05,9.13,0,1.1,0,2.19,0,3.28h-.23l0-3.28c0-3,0-6.09-.05-9.13,0-1.39,0-2.8,0-4.16l0-2.39c0-.64,0-1.3,0-1.93a28.18,28.18,0,0,1,.17-4.67c.7-4.7,4.47-8.55,8.26-10.63A5.12,5.12,0,0,1,20.56,125.55Z" fill="#44182c"/><path d="M55.17,125.54c-3.54,1.67-6.12,6.22-6.77,10.6l-.1.67a42.27,42.27,0,0,0-.63,6c0,.8,0,1.6,0,2.4,0,1.36,0,2.77,0,4.15,0,3,0,6.13.05,9.12,0,1.1,0,2.2,0,3.29h-.23l0-3.29c0-3,0-6.08,0-9.12,0-1.39,0-2.79,0-4.15,0-.8,0-1.6,0-2.4a42.36,42.36,0,0,1,.62-6l.1-.68c.64-4.27,3.1-8.71,6.5-10.56Z" fill="#44182c"/><path d="M18.57,159.8a1,1,0,1,1-1-1A1,1,0,0,1,18.57,159.8Z" fill="#f7f0e7"/><path d="M22.06,159.8a1,1,0,1,1-2,0,1,1,0,0,1,2,0Z" fill="#f7f0e7"/><path d="M25.55,159.8a1,1,0,1,1-2,0,1,1,0,0,1,2,0Z" fill="#f7f0e7"/><path d="M29,159.8a1,1,0,1,1-1-1A1,1,0,0,1,29,159.8Z" fill="#f7f0e7"/><path d="M32.53,159.8a1,1,0,1,1-1-1A1,1,0,0,1,32.53,159.8Z" fill="#f7f0e7"/><path d="M36,159.8a1,1,0,1,1-1-1A1,1,0,0,1,36,159.8Z" fill="#f7f0e7"/><path d="M39.52,159.8a1,1,0,1,1-1-1A1,1,0,0,1,39.52,159.8Z" fill="#f7f0e7"/><path d="M43,159.8a1,1,0,1,1-1-1A1,1,0,0,1,43,159.8Z" fill="#f7f0e7"/><path d="M24.92,142.27a.2.2,0,0,1-.14-.06l-5.31-5.31a.2.2,0,0,1,0-.27.21.21,0,0,1,.28,0l5.3,5.31a.18.18,0,0,1,0,.27A.16.16,0,0,1,24.92,142.27Z" fill="#f7f0e7"/><path d="M22.26,143.37a.2.2,0,0,1-.19-.2v-7.5a.19.19,0,0,1,.19-.19.19.19,0,0,1,.2.19v7.5A.2.2,0,0,1,22.26,143.37Z" fill="#f7f0e7"/><path d="M19.61,142.27a.2.2,0,0,1-.14-.06.2.2,0,0,1,0-.27l5.31-5.31a.2.2,0,0,1,.27,0,.18.18,0,0,1,0,.27l-5.3,5.31A.2.2,0,0,1,19.61,142.27Z" fill="#f7f0e7"/><path d="M26,139.61H18.51a.19.19,0,0,1-.19-.19.2.2,0,0,1,.19-.19H26a.2.2,0,0,1,.19.19A.19.19,0,0,1,26,139.61Z" fill="#f7f0e7"/><path d="M34.39,153.61a.13.13,0,0,1-.11-.05l-4.39-4.39a.14.14,0,0,1,0-.22.16.16,0,0,1,.22,0l4.39,4.39a.16.16,0,0,1,0,.22A.13.13,0,0,1,34.39,153.61Z" fill="#f7f0e7"/><path d="M32.19,154.52a.16.16,0,0,1-.16-.16v-6.21a.16.16,0,0,1,.16-.16.16.16,0,0,1,.16.16v6.21A.16.16,0,0,1,32.19,154.52Z" fill="#f7f0e7"/><path d="M30,153.61a.13.13,0,0,1-.11-.05.14.14,0,0,1,0-.22L34.28,149a.16.16,0,0,1,.22.22l-4.39,4.39A.13.13,0,0,1,30,153.61Z" fill="#f7f0e7"/><path d="M35.3,151.42H29.09a.16.16,0,0,1-.16-.16.16.16,0,0,1,.16-.16H35.3a.16.16,0,0,1,.16.16A.16.16,0,0,1,35.3,151.42Z" fill="#f7f0e7"/><path d="M189.75,67.82c-2,6-6.87,16.71-8,19.2l-.23.52h0l0-.58c0-.14,0-.3,0-.49v-.13c.28-4.29,1.46-19,5.33-25.34C187.93,63.23,188.89,65.5,189.75,67.82Z" fill="#26575e"/><path d="M174.58,67.84S158.29,50.4,153.15,56.51,174.58,67.84,174.58,67.84Z" fill="#26575e"/><path d="M185.71,102.52a.28.28,0,0,0,0-.09c-6.82-28-9.56-34.87-19.53-49a.32.32,0,0,0-.45-.07.31.31,0,0,0-.08.44c9.91,14.05,12.64,20.89,19.44,48.8a.31.31,0,0,0,.38.23A.31.31,0,0,0,185.71,102.52Z" fill="#44182c"/><path d="M178.61,76.58v0c-.35-5.35-.31-10.58-.22-15.43h0a.31.31,0,0,0-.31-.33.32.32,0,0,0-.33.31c-.09,4.88-.14,10.12.22,15.49a.32.32,0,0,0,.34.3A.32.32,0,0,0,178.61,76.58Z" fill="#44182c"/><path d="M181.65,86.72a.35.35,0,0,0-.06-.19A49.07,49.07,0,0,0,166.88,72.4a.34.34,0,0,0-.45.11.32.32,0,0,0,.11.44,48.39,48.39,0,0,1,14.52,13.94.32.32,0,0,0,.45.09A.31.31,0,0,0,181.65,86.72Z" fill="#44182c"/><path d="M186.89,84.06a.32.32,0,0,0-.22-.31.32.32,0,0,0-.41.2,97.19,97.19,0,0,0-3,11.51.32.32,0,0,0,.26.37.31.31,0,0,0,.37-.25,98.31,98.31,0,0,1,3-11.43A.29.29,0,0,0,186.89,84.06Z" fill="#44182c"/><circle cx="163.75" cy="54.93" r="3.03" transform="translate(1.66 114.57) rotate(-38.75)" fill="#f7f0e7"/><path d="M173.76,52.68a3,3,0,1,1-2.69-3.34A3,3,0,0,1,173.76,52.68Z" fill="#f7f0e7"/><path d="M165.73,48.13A3,3,0,1,1,163,44.78,3,3,0,0,1,165.73,48.13Z" fill="#f7f0e7"/><path d="M169.36,72.94a3,3,0,1,1-2.69-3.34A3,3,0,0,1,169.36,72.94Z" fill="#f7f0e7"/><path d="M181.42,60.27a3,3,0,1,1-2.69-3.35A3,3,0,0,1,181.42,60.27Z" fill="#f7f0e7"/><path d="M189.75,84.52a3,3,0,1,1-2.68-3.35A3,3,0,0,1,189.75,84.52Z" fill="#f7f0e7"/><path d="M181.57,88.89s-18-13.28-19.79-7.2S181.57,88.89,181.57,88.89Z" fill="#26575e"/><path d="M19.18,87.54h0L18.93,87c-1.09-2.39-5.56-12.36-7.73-18.43.87-2.4,1.84-4.76,2.9-7.06,3.62,6.6,4.75,20.63,5,24.81v.14c0,.18,0,.35,0,.48Z" fill="#26575e"/><path d="M26.1,67.84S42.39,50.4,47.53,56.51,26.1,67.84,26.1,67.84Z" fill="#26575e"/><path d="M15,102.52a.28.28,0,0,1,0-.09c6.82-28,9.56-34.87,19.53-49a.32.32,0,0,1,.45-.07.31.31,0,0,1,.08.44C25.13,67.84,22.4,74.68,15.6,102.59a.32.32,0,0,1-.39.23A.31.31,0,0,1,15,102.52Z" fill="#44182c"/><path d="M22.07,76.58v0c.35-5.35.31-10.58.22-15.43h0a.31.31,0,0,1,.31-.33.32.32,0,0,1,.33.31c.09,4.88.14,10.12-.22,15.49a.32.32,0,0,1-.34.3A.32.32,0,0,1,22.07,76.58Z" fill="#44182c"/><path d="M19,86.72a.45.45,0,0,1,0-.19A49.22,49.22,0,0,1,33.8,72.4a.34.34,0,0,1,.45.11.32.32,0,0,1-.11.44A48.39,48.39,0,0,0,19.62,86.89a.32.32,0,0,1-.45.09A.31.31,0,0,1,19,86.72Z" fill="#44182c"/><path d="M13.79,84.06a.32.32,0,0,1,.22-.31.32.32,0,0,1,.41.2,97.19,97.19,0,0,1,3,11.51.32.32,0,0,1-.26.37.31.31,0,0,1-.37-.25,98.31,98.31,0,0,0-3-11.43A.29.29,0,0,1,13.79,84.06Z" fill="#44182c"/><path d="M33.91,55.25a3,3,0,1,0,2.69-3.34A3,3,0,0,0,33.91,55.25Z" fill="#f7f0e7"/><path d="M26.92,52.68a3,3,0,1,0,2.69-3.34A3,3,0,0,0,26.92,52.68Z" fill="#f7f0e7"/><path d="M35,48.13a3,3,0,1,0,2.69-3.35A3,3,0,0,0,35,48.13Z" fill="#f7f0e7"/><path d="M31.32,72.94A3,3,0,1,0,34,69.6,3,3,0,0,0,31.32,72.94Z" fill="#f7f0e7"/><path d="M19.26,60.27A3,3,0,1,0,22,56.92,3,3,0,0,0,19.26,60.27Z" fill="#f7f0e7"/><path d="M10.93,84.52a3,3,0,1,0,2.68-3.35A3,3,0,0,0,10.93,84.52Z" fill="#f7f0e7"/><path d="M19.11,88.89s18-13.28,19.79-7.2S19.11,88.89,19.11,88.89Z" fill="#26575e"/><path d="M104.07,27.57a.39.39,0,0,1-.28-.12l-11.05-11a.4.4,0,0,1,0-.56.4.4,0,0,1,.57,0l11,11.05a.4.4,0,0,1,0,.56A.4.4,0,0,1,104.07,27.57Z" fill="#f7f0e7"/><path d="M98.55,29.86a.4.4,0,0,1-.4-.4V13.83a.4.4,0,1,1,.8,0V29.46A.4.4,0,0,1,98.55,29.86Z" fill="#f7f0e7"/><path d="M93,27.57a.4.4,0,0,1-.29-.12.4.4,0,0,1,0-.56l11.05-11a.4.4,0,0,1,.57,0,.4.4,0,0,1,0,.56l-11,11.05A.39.39,0,0,1,93,27.57Z" fill="#f7f0e7"/><path d="M106.36,22.05H90.74a.41.41,0,0,1,0-.81h15.62a.41.41,0,0,1,0,.81Z" fill="#f7f0e7"/><path d="M175.56,135.15a.39.39,0,0,1-.28-.12l-11.05-11a.4.4,0,1,1,.57-.57l11,11.05a.42.42,0,0,1,0,.57A.4.4,0,0,1,175.56,135.15Z" fill="#f7f0e7"/><path d="M170,137.43a.4.4,0,0,1-.4-.4V121.41a.4.4,0,1,1,.8,0V137A.4.4,0,0,1,170,137.43Z" fill="#f7f0e7"/><path d="M164.51,135.15a.39.39,0,0,1-.28-.12.42.42,0,0,1,0-.57l11.05-11.05a.4.4,0,1,1,.57.57l-11,11A.4.4,0,0,1,164.51,135.15Z" fill="#f7f0e7"/><path d="M177.85,129.62H162.23a.4.4,0,1,1,0-.8h15.62a.4.4,0,0,1,0,.8Z" fill="#f7f0e7"/><path d="M31.22,117.44a.43.43,0,0,1-.28-.11l-11-11a.42.42,0,0,1,0-.57.4.4,0,0,1,.57,0l11.05,11.05a.42.42,0,0,1,0,.57A.44.44,0,0,1,31.22,117.44Z" fill="#f7f0e7"/><path d="M25.7,119.73a.4.4,0,0,1-.4-.4V103.7a.4.4,0,1,1,.8,0v15.63A.4.4,0,0,1,25.7,119.73Z" fill="#f7f0e7"/><path d="M20.17,117.44a.43.43,0,0,1-.28-.11.42.42,0,0,1,0-.57l11.05-11.05a.4.4,0,0,1,.57,0,.42.42,0,0,1,0,.57l-11,11A.44.44,0,0,1,20.17,117.44Z" fill="#f7f0e7"/><path d="M33.51,111.92H17.89a.4.4,0,1,1,0-.8H33.51a.4.4,0,0,1,0,.8Z" fill="#f7f0e7"/><circle cx="61.44" cy="32.37" r="2.72" fill="#f7f0e7"/><circle cx="136.34" cy="32.37" r="2.72" fill="#f7f0e7"/><circle cx="166.12" cy="187.43" r="2.72" fill="#f7f0e7"/><path d="M192,113.39a2.73,2.73,0,1,1-2.73-2.72A2.72,2.72,0,0,1,192,113.39Z" fill="#f7f0e7"/><path d="M189.44,153.9a2.72,2.72,0,1,1-2.72-2.72A2.72,2.72,0,0,1,189.44,153.9Z" fill="#f7f0e7"/><circle cx="16.68" cy="191.18" r="2.72" fill="#f7f0e7"/></g></svg>