<svg xmlns="http://www.w3.org/2000/svg" viewBox="0 0 192.09 215.96"><g id="OBJECTS"><path d="M6,216a6,6,0,0,1-6-6V99.15a96.16,96.16,0,0,1,96.05-96c2.23,0,4.45.08,6.61.23A30.58,30.58,0,0,1,116.47,0a32.08,32.08,0,0,1,10.76,1.92c5.29,1.89,10.09,6.14,14.29,12.63a96.08,96.08,0,0,1,50.57,84.6V210a6,6,0,0,1-6,6Z" fill="#fff"/><path d="M185.58,99.15V210H5.49V99.15a90,90,0,0,1,90.05-90q4,0,7.88.34a90,90,0,0,1,82.16,89.7Z" fill="#a7cbcc"/><path d="M92.81,19.36c0-.52,12.48-18.72,31.89-11.79S151,64.94,151,64.94Z" fill="#f56a58"/><circle cx="150.96" cy="63.82" r="6.5" fill="#fff"/><path d="M117.58,21.62a23.78,23.78,0,0,0-13.31-3.91A19.67,19.67,0,0,0,92.6,21.87l-1.37,1.36a8.93,8.93,0,0,0-3.6-1.63A22.05,22.05,0,0,0,82,21.29c-1.38.05-3,.24-3.77,1.38-1,1.41-.15,3.49,1.31,4.32s3.18.62,4.87.52a8.45,8.45,0,0,0-3.76,2.94,2.56,2.56,0,0,0-.39,1.69A2,2,0,0,0,81,33.35L46.78,67.1l-7.6,7.5a3.56,3.56,0,0,0-.37,4.66,37.72,37.72,0,0,0,2.88,3.44c4.5,4.79,12.07,10.23,21.57,7.31C79,85.16,88.48,71.83,88.48,71.83V96.56l19.66-2.11.71-.07s4.13,14.3,22.8,11.15S130.31,29.48,117.58,21.62Z" fill="#f7f0e7"/><polygon points="98.18 62.21 88.48 85.81 88.48 72.2 98.18 62.21" fill="#44182c"/><polygon points="106.43 79.83 82.54 84.92 83.39 97.05 107.71 95.36 106.43 79.83" fill="#ffc97d"/><path d="M47.19,75.49a15.69,15.69,0,0,1-4.73,6.63c-.25.2-.5.4-.77.58a37.72,37.72,0,0,1-2.88-3.44,3.56,3.56,0,0,1,.37-4.66l7.6-7.5a3,3,0,0,1,.18.36A10.77,10.77,0,0,1,47.19,75.49Z" fill="#44182c"/><path d="M131.65,105.53c-18.67,3.15-23.46-10.91-23.46-10.91l0-.17C106.39,82.12,106.31,59,106.31,59a24.43,24.43,0,0,1-15.62-5.42A15,15,0,0,1,88,50.76a13.93,13.93,0,0,1-2.1-4.62c-1.71-6.44.17-13.56,4.26-18.81a29.67,29.67,0,0,1,14.14-9.62,23.78,23.78,0,0,1,13.31,3.91C130.31,29.48,150.32,102.39,131.65,105.53Z" fill="#bc606d"/><path d="M108.05,95.87a.37.37,0,0,1-.36-.31c-2.8-19.69-.67-51.17-.65-51.49a.36.36,0,0,1,.38-.33.36.36,0,0,1,.33.38c0,.32-2.14,31.72.65,51.34a.36.36,0,0,1-.31.4Z" fill="#44182c"/><path d="M103.36,43.37a7.53,7.53,0,0,1-4.85,7,7.62,7.62,0,0,1-2.67.49,7.52,7.52,0,0,1,0-15,7.49,7.49,0,0,1,7.52,7.52Z" fill="#f7f0e7"/><path d="M103.36,43.37a7.53,7.53,0,0,1-4.85,7,7.53,7.53,0,0,1,0-14.07A7.56,7.56,0,0,1,103.36,43.37Z" fill="#44182c"/><path d="M87.63,21.6S119.52,32.3,131,45.23c0,0,8.25-8.25,4.69-12.61S102.55,11.93,96.4,13.87A15.64,15.64,0,0,0,87.63,21.6Z" fill="#fff"/><polygon points="183.2 206.03 174.77 206.31 169.81 206.49 158.93 206.88 153.98 207.06 143.1 207.45 138.13 207.62 127.25 208.03 125.87 208.07 122.3 208.19 111.42 208.58 106.85 208.75 106.45 208.76 100.59 208.97 96.99 209.09 95.59 209.15 90.62 209.32 79.74 209.72 74.78 209.9 72.78 209.97 24.8 209.97 23.73 200.37 23.01 193.84 21.62 181.37 21.41 179.53 20.68 173.01 20.5 171.4 19.09 158.72 18.37 152.2 16.77 137.9 16.04 131.37 14.44 117.06 13.72 110.54 12.6 100.45 20.36 100.06 25.36 99.78 36.37 99.2 41.39 98.95 52.38 98.36 57.4 98.11 68.38 97.53 73.39 97.28 83.37 96.74 84.4 96.69 88.48 96.47 89.41 96.42 90.15 96.39 90.16 96.39 100.42 95.84 101.58 95.78 101.65 95.78 105.43 95.59 108.04 95.45 108.53 95.44 109.24 95.39 116.42 95.02 121.44 94.74 132.42 94.17 137.44 93.91 138.97 93.83 148.45 93.33 153.45 93.08 164.46 92.48 169.48 92.23 175.87 91.89 176.28 98.28 176.72 105.24 176.72 105.25 177.7 120.52 178.15 127.47 179.14 142.75 179.55 149.28 179.58 149.72 180.5 164.12 180.56 164.99 180.56 165 181 171.97 181 171.97 182 187.22 181.99 187.24 182.45 194.19 182.44 194.19 183.2 206.03" fill="#f56a58"/><polygon points="25.36 99.79 14.44 117.06 13.72 110.54 20.36 100.05 25.36 99.79" fill="#ffc97d"/><polygon points="41.38 98.95 16.77 137.9 16.04 131.37 36.37 99.21 41.38 98.95" fill="#ffc97d"/><polygon points="57.4 98.11 19.09 158.73 18.37 152.21 52.38 98.36 57.4 98.11" fill="#ffc97d"/><polygon points="73.39 97.27 21.41 179.53 20.68 173.01 68.38 97.53 73.39 97.27" fill="#ffc97d"/><polygon points="89.41 96.43 23.73 200.37 23.01 193.85 84.4 96.69 89.41 96.43" fill="#ffc97d"/><polygon points="105.43 95.59 103.75 98.24 60.35 166.91 54.18 176.68 51.88 180.32 50.39 182.69 47.58 187.13 33.97 208.66 33.15 209.97 28.3 209.97 29.01 208.84 39.18 192.75 41.75 188.69 44.09 184.97 46.66 180.91 48.23 178.43 49.42 176.54 55 167.72 98.74 98.5 100.4 95.86 100.42 95.84 101.65 95.78 105.43 95.59" fill="#ffc97d"/><path d="M121.44,94.74l-1.68,2.66-3.71,5.88-.09.14-38,60.22-4.07,6.43-.2.33-3,4.74-4.09,6.47-1,1.56h0l-4.12,6.49h0L49.82,208.09,48.64,210H43.78l1.06-1.69L57.53,188.2l1.25-2,6.63-10.48.19-.3h0l4-6.37.38-.6.7-1.1s0,0,0,0L112.64,101l.18-.28,1.92-3L116.42,95Z" fill="#ffc97d"/><polygon points="137.44 93.91 135.76 96.56 129.95 105.77 127.25 110.03 127.25 110.03 126.13 111.81 91.89 165.99 84.33 177.95 83.06 179.95 79.66 185.33 74.28 193.84 72.79 196.2 65.63 207.53 64.1 209.97 59.25 209.97 60.67 207.72 66.23 198.91 70.86 191.6 70.86 191.59 76.13 183.25 78.72 179.16 81.3 175.06 82.03 173.91 88.2 164.16 124.98 105.94 124.99 105.94 130.74 96.83 132.42 94.17 137.44 93.91" fill="#ffc97d"/><polygon points="153.45 93.07 79.74 209.72 74.78 209.9 148.45 93.33 153.45 93.07" fill="#ffc97d"/><polygon points="169.48 92.23 95.59 209.15 90.62 209.32 164.46 92.49 169.48 92.23" fill="#ffc97d"/><polygon points="176.72 105.25 176.72 105.26 111.42 208.59 106.45 208.76 176.28 98.29 176.72 105.25" fill="#ffc97d"/><polygon points="178.15 127.47 127.25 208.02 122.3 208.19 177.7 120.51 178.15 127.47" fill="#ffc97d"/><polygon points="179.58 149.72 143.1 207.45 138.13 207.63 179.14 142.75 179.58 149.72" fill="#ffc97d"/><polygon points="181 171.96 181 171.97 158.93 206.89 153.98 207.06 180.55 165 181 171.96" fill="#ffc97d"/><polygon points="182.45 194.18 182.44 194.19 174.77 206.31 169.81 206.5 181.99 187.23 182.45 194.18" fill="#ffc97d"/><polygon points="16.59 102.82 28.42 208.86 179.27 203.47 172.27 94.66 16.59 102.82" fill="#f7f0e7"/><path d="M61.85,167.76c-3.12,0-5-1.28-6.84-2.52-2-1.39-4-2.69-7.56-2.33a.4.4,0,0,1-.44-.36.41.41,0,0,1,.36-.45c3.9-.38,6,1.07,8.09,2.47s4,2.68,7.55,2.32,5.19-2,6.89-3.76,3.5-3.61,7.39-4,6,1.06,8.09,2.46,4,2.69,7.55,2.33a.41.41,0,1,1,.08.81c-3.88.38-6-1.07-8.09-2.47s-4-2.68-7.55-2.32-5.2,2-6.89,3.76-3.5,3.61-7.39,4C62.66,167.74,62.25,167.76,61.85,167.76Z" fill="#a7cbcc"/><path d="M62.52,173.81c-3.12,0-5-1.28-6.85-2.52-2-1.38-4-2.69-7.55-2.33a.42.42,0,0,1-.45-.36.41.41,0,0,1,.37-.44c3.89-.39,6,1.06,8.08,2.46s4,2.69,7.56,2.33,5.19-2,6.88-3.76,3.5-3.62,7.39-4,6,1.07,8.09,2.47,4,2.69,7.56,2.32a.41.41,0,0,1,.44.37.4.4,0,0,1-.36.44c-3.88.39-6-1.06-8.09-2.46s-4-2.69-7.56-2.33-5.19,2-6.89,3.76-3.5,3.62-7.38,4C63.32,173.79,62.91,173.81,62.52,173.81Z" fill="#a7cbcc"/><path d="M63.18,179.87c-3.12,0-5-1.28-6.85-2.53-2-1.38-4-2.68-7.55-2.32a.42.42,0,0,1-.44-.37.4.4,0,0,1,.36-.44c3.88-.38,6,1.06,8.09,2.46s4,2.69,7.55,2.33,5.19-2,6.89-3.76,3.49-3.62,7.38-4,6,1.06,8.09,2.46,4,2.69,7.56,2.33a.4.4,0,0,1,.08.8c-3.88.39-6-1.06-8.09-2.46s-4-2.69-7.56-2.33-5.19,2-6.88,3.76-3.5,3.62-7.39,4C64,179.85,63.57,179.87,63.18,179.87Z" fill="#a7cbcc"/><path d="M92.06,186.57c-8.85,0-16.47-6.39-17.4-15a16,16,0,0,1,3.55-11.94,17.56,17.56,0,0,1,12-6.39c9.61-1,18.23,5.71,19.24,14.86a16.11,16.11,0,0,1-3.56,12,17.63,17.63,0,0,1-12,6.39Q93,186.57,92.06,186.57Zm0-32.58a17,17,0,0,0-1.74.09,16.79,16.79,0,0,0-11.5,6.1,15.25,15.25,0,0,0-3.38,11.35c1,8.71,9.18,15.06,18.35,14.15a16.78,16.78,0,0,0,11.49-6.1,15.26,15.26,0,0,0,3.38-11.35C107.79,160.08,100.52,154,92.08,154Z" fill="#a7cbcc"/><path d="M158.87,110.53a1.71,1.71,0,0,0,1.63,1.54l.16,2a1.68,1.68,0,0,0-1.37,1.76,1.73,1.73,0,0,0,1.63,1.56l.15,1.94a1.69,1.69,0,0,0-1.37,1.77,1.71,1.71,0,0,0,1.63,1.54l.15,1.94a1.71,1.71,0,0,0-1.37,1.77,1.74,1.74,0,0,0,1.63,1.56l.16,1.94a1.68,1.68,0,0,0-1.37,1.77,1.71,1.71,0,0,0,1.63,1.54l.15,1.94a1.7,1.7,0,0,0-1.37,1.77,1.74,1.74,0,0,0,1.63,1.56l.15,1.85a1.7,1.7,0,0,0-1.37,1.77,1.72,1.72,0,0,0,1.63,1.55l.14,1.85a1.71,1.71,0,0,0-1.37,1.77,1.73,1.73,0,0,0,1.64,1.56l.19,2.52-1.9.14a1.74,1.74,0,0,0-1.87-1.48,1.7,1.7,0,0,0-1.63,1.73l-2,.14a1.74,1.74,0,0,0-1.88-1.47,1.71,1.71,0,0,0-1.63,1.72l-2,.14a1.73,1.73,0,0,0-1.87-1.47,1.7,1.7,0,0,0-1.63,1.72l-2,.15a1.75,1.75,0,0,0-1.89-1.47,1.71,1.71,0,0,0-1.63,1.72l-2,.14a1.74,1.74,0,0,0-1.87-1.47,1.71,1.71,0,0,0-1.64,1.72l-2,.14a1.75,1.75,0,0,0-1.88-1.47,1.71,1.71,0,0,0-1.64,1.72l-2.43.18-.2-2.51a1.7,1.7,0,0,0,1.56-1.8,1.73,1.73,0,0,0-1.82-1.55l-.14-1.83a1.69,1.69,0,0,0,1.55-1.79,1.74,1.74,0,0,0-1.82-1.56l-.14-1.82a1.68,1.68,0,1,0-.26-3.35l-.16-1.92a1.69,1.69,0,0,0,1.56-1.78,1.72,1.72,0,0,0-1.82-1.55l-.15-1.92a1.71,1.71,0,0,0,1.56-1.8,1.73,1.73,0,0,0-1.82-1.55l-.15-1.92a1.69,1.69,0,0,0,1.56-1.78,1.73,1.73,0,0,0-1.82-1.55l-.16-1.92a1.69,1.69,0,0,0,1.56-1.79,1.73,1.73,0,0,0-1.82-1.56l-.15-1.92a1.69,1.69,0,0,0,1.56-1.78,1.73,1.73,0,0,0-1.82-1.55l-.16-2,2.46-.17a1.42,1.42,0,0,0,0,.3A1.77,1.77,0,0,0,129,111a1.74,1.74,0,0,0,1.64-1.82,1,1,0,0,0-.07-.29l2.07-.15a1.51,1.51,0,0,0,0,.3,1.75,1.75,0,0,0,1.91,1.56,1.7,1.7,0,0,0,1.62-1.81.94.94,0,0,0-.06-.29l2.07-.15a1,1,0,0,0,0,.3,1.75,1.75,0,0,0,1.9,1.56,1.72,1.72,0,0,0,1.64-1.81.94.94,0,0,0-.06-.3l2.07-.14a1,1,0,0,0,0,.3,1.75,1.75,0,0,0,1.9,1.56,1.72,1.72,0,0,0,1.63-1.82,1.36,1.36,0,0,0-.06-.29l2.06-.15a1,1,0,0,0,0,.3,1.75,1.75,0,0,0,1.9,1.56,1.73,1.73,0,0,0,1.64-1.81,1.24,1.24,0,0,0-.06-.29l2.06-.15a1,1,0,0,0,0,.3,1.75,1.75,0,0,0,1.9,1.56,1.73,1.73,0,0,0,1.63-1.81.94.94,0,0,0-.07-.3l1.94-.13.15,2A1.7,1.7,0,0,0,158.87,110.53Z" fill="#fff"/><polygon points="160.15 147.56 130.93 149.64 128.04 112.98 157.27 110.9 160.15 147.56" fill="#26575e"/><path d="M145.6,128.9a5.66,5.66,0,1,1-1.16-7.92A5.65,5.65,0,0,1,145.6,128.9Z" fill="#f56a58"/><path d="M152.44,138.84a5.66,5.66,0,1,1-1.17-7.92A5.66,5.66,0,0,1,152.44,138.84Z" fill="#f56a58"/><path d="M145.92,124.7c-.28.19-.95-.31-1.52-1.11s-.79-1.61-.51-1.8,1,.3,1.51,1.1S146.2,124.5,145.92,124.7Z" fill="#44182c"/><path d="M151.11,132.06c-.12.32-1,.29-1.87-.07s-1.56-.89-1.44-1.2,1-.29,1.88.07S151.23,131.75,151.11,132.06Z" fill="#44182c"/><path d="M51.64,132a.37.37,0,0,1,.29.1.4.4,0,0,1,.16.31.41.41,0,0,1-.18.38l-.27.25a4.19,4.19,0,0,0-.62.7,12.87,12.87,0,0,0,1.64,0,8.72,8.72,0,0,0,1.47-.23,6.36,6.36,0,0,0,1.17-.43,4.26,4.26,0,0,0,.89-.57,3.23,3.23,0,0,0,.6-.69.38.38,0,0,1,.14-.14.36.36,0,0,1,.17-.07.34.34,0,0,1,.3.12.43.43,0,0,1,.13.29.41.41,0,0,1-.05.26,4.31,4.31,0,0,1-.63.78,4.49,4.49,0,0,1-1,.71,6.63,6.63,0,0,1-1.37.55,7.5,7.5,0,0,1-1.75.3,14,14,0,0,1-2.24,0,5.3,5.3,0,0,0-.39.9,4.79,4.79,0,0,0-.26,1.07,10.12,10.12,0,0,0-.1,2.08c0,.73.08,1.48.12,2.23s.07,1.52.07,2.27a9.52,9.52,0,0,1-.25,2.2,6.46,6.46,0,0,1-.54,1.51,4.94,4.94,0,0,1-.92,1.24,4.65,4.65,0,0,1-3,1.29,5.82,5.82,0,0,1-2.87-.46,6,6,0,0,1-2.35-2l-.1-.16a.44.44,0,0,1-.07-.21.56.56,0,0,1,.08-.32.37.37,0,0,1,.29-.17.34.34,0,0,1,.22.05.44.44,0,0,1,.16.14,5.41,5.41,0,0,0,2,1.79,4.92,4.92,0,0,0,2.6.43,4.29,4.29,0,0,0,1.4-.32,3.42,3.42,0,0,0,1.07-.7,3.85,3.85,0,0,0,.77-1,6,6,0,0,0,.49-1.37,8.43,8.43,0,0,0,.19-1.9c0-.71,0-1.46-.08-2.23s-.07-1.55-.09-2.32a12.28,12.28,0,0,1,.13-2.22,5.46,5.46,0,0,1,.24-1,9.18,9.18,0,0,1,.34-.89,27.22,27.22,0,0,1-2.91-.58l-2.84-.73c-.92-.23-1.81-.42-2.67-.58a9.43,9.43,0,0,0-2.39-.14,5.41,5.41,0,0,0-1.85.45,4.46,4.46,0,0,0-1.43,1,4.1,4.1,0,0,0-.87,1.45,4.42,4.42,0,0,0-.21,1.8,3.6,3.6,0,0,0,.32,1.29,3.23,3.23,0,0,0,.72,1,3,3,0,0,0,1,.61,3.16,3.16,0,0,0,1.24.15,3.09,3.09,0,0,0,1.22-.32,4.15,4.15,0,0,0,.92-.63,4.39,4.39,0,0,0,.66-.79,5.52,5.52,0,0,0,.42-.77,7.63,7.63,0,0,0,.32-.83.38.38,0,0,1,.13-.22.4.4,0,0,1,.23-.1.34.34,0,0,1,.3.12.47.47,0,0,1,.14.3V137s0,0,0,.06,0,.13-.1.32a5.38,5.38,0,0,1-.28.71,8,8,0,0,1-.51.91,4.71,4.71,0,0,1-1.9,1.68,4,4,0,0,1-1.49.37,3.71,3.71,0,0,1-1.53-.2A3.76,3.76,0,0,1,35,140a4.11,4.11,0,0,1-.91-1.24,4.5,4.5,0,0,1-.41-1.63A5.3,5.3,0,0,1,33.9,135a4.82,4.82,0,0,1,1-1.73,5,5,0,0,1,1.66-1.19,6.24,6.24,0,0,1,2.15-.54,9.22,9.22,0,0,1,1.74,0,14.86,14.86,0,0,1,1.79.3q.91.19,1.86.45l1.91.52c.65.18,1.31.34,2,.48a17.52,17.52,0,0,0,2,.33,6.27,6.27,0,0,1,.49-.68,6,6,0,0,1,.43-.49,4.13,4.13,0,0,1,.33-.31l.15-.12A.4.4,0,0,1,51.64,132Z" fill="#44182c"/><path d="M58,146.5a1.88,1.88,0,0,1-.48,0,3.48,3.48,0,0,1-.33.67,2.89,2.89,0,0,1-.48.56,2.47,2.47,0,0,1-.64.4,2.35,2.35,0,0,1-.78.18,2.06,2.06,0,0,1-.93-.12,2.27,2.27,0,0,1-.77-.48,2.51,2.51,0,0,1-.54-.79,3.11,3.11,0,0,1-.25-1,3,3,0,0,1,.15-1.31,3.34,3.34,0,0,1,.5-1,2.43,2.43,0,0,1,.6-.6,1,1,0,0,1,.46-.21.31.31,0,0,1,.28.08.42.42,0,0,1,.12.27.39.39,0,0,1-.09.31,1.59,1.59,0,0,1-.27.21,2.14,2.14,0,0,0-.35.29,1.72,1.72,0,0,0-.32.45,2.28,2.28,0,0,0-.23.62,2.53,2.53,0,0,0,0,.79,2.3,2.3,0,0,0,.16.71,1.73,1.73,0,0,0,.35.55,1.54,1.54,0,0,0,.51.33,1.44,1.44,0,0,0,.63.09,1.58,1.58,0,0,0,1-.39,2,2,0,0,0,.56-.83,2.87,2.87,0,0,1-1.12-.94,2.82,2.82,0,0,1-.51-1.46,1.75,1.75,0,0,1,.21-1.1.9.9,0,0,1,.74-.48,1.08,1.08,0,0,1,.56.11,1.43,1.43,0,0,1,.49.44,3,3,0,0,1,.38.82,6,6,0,0,1,.21,1.21,3.55,3.55,0,0,1,0,.79H58a2.41,2.41,0,0,0,.64-.14,1.91,1.91,0,0,0,.51-.32,2.26,2.26,0,0,0,.38-.51,4.59,4.59,0,0,0,.31-.7.29.29,0,0,1,.13-.14.48.48,0,0,1,.21-.09.39.39,0,0,1,.27.11.42.42,0,0,1,.15.31.88.88,0,0,1,0,.21c0,.07-.05.14-.07.2a5.16,5.16,0,0,1-.37.7,2.54,2.54,0,0,1-.53.6,2.77,2.77,0,0,1-.7.44A2.82,2.82,0,0,1,58,146.5Zm-2.05-2.79a2,2,0,0,0,.09.46,2.14,2.14,0,0,0,.2.47,2.61,2.61,0,0,0,.31.43,1.53,1.53,0,0,0,.42.34,3.84,3.84,0,0,0,0-.48c0-.21,0-.42-.09-.64a4,4,0,0,0-.17-.58,1.89,1.89,0,0,0-.23-.43.34.34,0,0,0-.29-.15s-.1,0-.17.12A.68.68,0,0,0,55.91,143.71Z" fill="#44182c"/><path d="M82.94,133.66a.4.4,0,0,1-.12.26.31.31,0,0,1-.23.11.37.37,0,0,1-.32-.11.47.47,0,0,1-.14-.3,1.93,1.93,0,0,1,0-.34,1.93,1.93,0,0,0,0-.34,2.55,2.55,0,0,0-.59-1.48,3.81,3.81,0,0,0-1.45-1,8,8,0,0,0-2.19-.54,14.78,14.78,0,0,0-2.84,0,16.11,16.11,0,0,0-2.37.34,16.28,16.28,0,0,0-2.28.66,12.43,12.43,0,0,0-2,1,7.75,7.75,0,0,0-1.59,1.24,5,5,0,0,0-1,1.49,3.55,3.55,0,0,0-.28,1.72,2.58,2.58,0,0,0,.38,1.23,2.82,2.82,0,0,0,.84.88A4.41,4.41,0,0,0,68,139a9.27,9.27,0,0,0,1.49.37c.53.09,1.08.15,1.65.19s1.14.07,1.71.08l1.66,0c.83,0,1.57,0,2.22.08a13.29,13.29,0,0,1,1.74.2,3.86,3.86,0,0,1,1.89.83,2.36,2.36,0,0,1,.71,1.63,3.14,3.14,0,0,1-.38,1.81,4.24,4.24,0,0,1-1.31,1.4,6.92,6.92,0,0,1-2,.94,11.6,11.6,0,0,1-2.53.46,14,14,0,0,1-2.61,0,13.48,13.48,0,0,1-1.9-.34,7.35,7.35,0,0,1-1.19-.4,4.55,4.55,0,0,1-.45-.21.43.43,0,0,1-.22-.36.39.39,0,0,1,.11-.32.41.41,0,0,1,.27-.15.37.37,0,0,1,.22.06l.38.17a6.9,6.9,0,0,0,1.1.37,12.86,12.86,0,0,0,1.79.31,13.26,13.26,0,0,0,2.46,0,10.71,10.71,0,0,0,2.42-.43,5.92,5.92,0,0,0,1.73-.81,3.24,3.24,0,0,0,1-1.1,2.39,2.39,0,0,0,.28-1.31,1.6,1.6,0,0,0-.19-.69,1.46,1.46,0,0,0-.41-.48A2,2,0,0,0,79,141a5.19,5.19,0,0,0-.73-.2,7.93,7.93,0,0,0-.89-.13c-.31,0-.64-.06-1-.07s-.66,0-1,0l-1,0-1.66,0a22.46,22.46,0,0,1-3.44-.29,9.2,9.2,0,0,1-2.48-.76,4.1,4.1,0,0,1-1.54-1.27,3.55,3.55,0,0,1-.62-1.84,4.38,4.38,0,0,1,.3-2,5.65,5.65,0,0,1,1.12-1.73,8,8,0,0,1,1.75-1.41,12.61,12.61,0,0,1,2.18-1.07,17.26,17.26,0,0,1,2.44-.73A18.5,18.5,0,0,1,75,129a15.37,15.37,0,0,1,2.72,0,10.85,10.85,0,0,1,2,.37,5.91,5.91,0,0,1,1.4.63,5.08,5.08,0,0,1,.9.74,3.45,3.45,0,0,1,.93,2.14A4.15,4.15,0,0,1,82.94,133.66Z" fill="#44182c"/><path d="M90.86,142.08c0,.06-.07.2-.15.4s-.17.44-.29.71-.26.54-.43.83a4.74,4.74,0,0,1-.56.82,3.2,3.2,0,0,1-.7.63,1.62,1.62,0,0,1-.81.29,1.4,1.4,0,0,1-1.08-.36,2.53,2.53,0,0,1-.69-1,3.51,3.51,0,0,1-.79,1.12,1.7,1.7,0,0,1-1,.46,1.52,1.52,0,0,1-1.3-.5,2,2,0,0,1-.4-.65,2.66,2.66,0,0,1-.19-.82,4.17,4.17,0,0,1,.17-1.62,3.56,3.56,0,0,1,.63-1.21,2.89,2.89,0,0,1,.92-.77,2.46,2.46,0,0,1,1-.31,1.8,1.8,0,0,1,.62.05,2.52,2.52,0,0,1,.49.18,1.68,1.68,0,0,1,.32.19l.13.1a.58.58,0,0,1,.14.31.46.46,0,0,1-.09.32.41.41,0,0,1-.27.15.36.36,0,0,1-.3-.11l-.1-.08-.22-.11a1.25,1.25,0,0,0-.31-.1,1.34,1.34,0,0,0-.41,0,1.78,1.78,0,0,0-.69.22,2.1,2.1,0,0,0-.65.55,2.92,2.92,0,0,0-.45.9,3.29,3.29,0,0,0-.12,1.25,2.41,2.41,0,0,0,.08.44,1.32,1.32,0,0,0,.18.4.84.84,0,0,0,.31.28.85.85,0,0,0,.46.09.9.9,0,0,0,.43-.18,1.65,1.65,0,0,0,.45-.46,3.07,3.07,0,0,0,.36-.77,4,4,0,0,0,.19-1.06.4.4,0,0,1,.12-.29.43.43,0,0,1,.27-.13.36.36,0,0,1,.27.11.47.47,0,0,1,.14.28c0,.15,0,.36.09.62a4.36,4.36,0,0,0,.2.79,2.14,2.14,0,0,0,.39.66.75.75,0,0,0,.64.24.91.91,0,0,0,.5-.19,2.29,2.29,0,0,0,.46-.43,4.08,4.08,0,0,0,.42-.61,7.17,7.17,0,0,0,.35-.67c.11-.23.2-.45.28-.65s.14-.39.19-.54a.46.46,0,0,1,.14-.21.47.47,0,0,1,.22-.09.34.34,0,0,1,.3.12.49.49,0,0,1,.14.3A.5.5,0,0,1,90.86,142.08Z" fill="#44182c"/><path d="M92.66,144.15q.14-.39.33-.87c.13-.32.27-.64.41-1s.31-.66.47-1,.35-.63.53-.93a2.25,2.25,0,0,1,.58-.63,1.3,1.3,0,0,1,.58-.23.92.92,0,0,1,.86.38,2.1,2.1,0,0,1,.35,1.08c0,.1,0,.22,0,.36v.47c0,.16,0,.33,0,.49s0,.33,0,.47a4.46,4.46,0,0,0,.06.54,1.75,1.75,0,0,0,.14.44.72.72,0,0,0,.23.28.58.58,0,0,0,.38.09,1.21,1.21,0,0,0,.76-.4,4.48,4.48,0,0,0,.65-.87,7.18,7.18,0,0,0,.5-1c.13-.34.23-.61.3-.82a.39.39,0,0,1,.14-.21.32.32,0,0,1,.21-.08.37.37,0,0,1,.31.12.51.51,0,0,1,.13.3.3.3,0,0,1,0,.16c0,.07-.07.2-.14.4s-.17.43-.29.69-.26.55-.42.84a6.21,6.21,0,0,1-.56.82,3.77,3.77,0,0,1-.69.64,1.59,1.59,0,0,1-.8.29,1.39,1.39,0,0,1-.79-.15,1.36,1.36,0,0,1-.51-.5,2.36,2.36,0,0,1-.29-.71,5.52,5.52,0,0,1-.12-.8c0-.12,0-.25,0-.4s0-.31,0-.47,0-.33,0-.49,0-.32,0-.47a.83.83,0,0,0-.15-.49c-.08-.09-.14-.13-.2-.12a.63.63,0,0,0-.38.24,4.12,4.12,0,0,0-.41.6c-.15.24-.29.52-.44.82s-.28.6-.4.9-.24.58-.35.85-.19.49-.24.67a1.93,1.93,0,0,1-.38.69.74.74,0,0,1-.43.2.64.64,0,0,1-.51-.17.8.8,0,0,1-.23-.56,2.38,2.38,0,0,1,0-.32c0-.16,0-.35,0-.58s0-.46,0-.72v-.76c0-.25,0-.49,0-.71s0-.4,0-.55,0-.38-.07-.55-.06-.29-.11-.32a1.4,1.4,0,0,0-.31.46,9.12,9.12,0,0,0-.52,1.46.41.41,0,0,1-.15.21.37.37,0,0,1-.22.08.34.34,0,0,1-.3-.11.52.52,0,0,1-.13-.3,1.11,1.11,0,0,1,0-.17,8.59,8.59,0,0,1,.77-1.9c.25-.41.52-.63.8-.65a.66.66,0,0,1,.42.1,1,1,0,0,1,.3.33,2.53,2.53,0,0,1,.19.48,5.07,5.07,0,0,1,.09.54c0,.14,0,.36,0,.66v2C92.67,143.65,92.66,143.93,92.66,144.15Z" fill="#44182c"/><path d="M107.9,132.37a.41.41,0,0,1-.09.31.43.43,0,0,1-.28.13l-5.43.4v.13a12.64,12.64,0,0,1,0,1.52c0,.54-.07,1.08-.14,1.62s-.16,1.06-.26,1.58-.21,1-.33,1.42a10.54,10.54,0,0,1-.35,1.14,4.58,4.58,0,0,1-.33.74,6.57,6.57,0,0,0,.41,1,4.42,4.42,0,0,0,.49.77,2.35,2.35,0,0,0,.56.5,1,1,0,0,0,.61.15,1.11,1.11,0,0,0,.72-.4,4.3,4.3,0,0,0,.62-.86,8.39,8.39,0,0,0,.49-1c.13-.33.23-.6.29-.8a.36.36,0,0,1,.35-.3.4.4,0,0,1,.31.11.51.51,0,0,1,.13.3.3.3,0,0,1,0,.16c0,.06-.06.19-.13.39a6.05,6.05,0,0,1-.27.7c-.11.26-.24.54-.4.84a4.52,4.52,0,0,1-.53.81,3.92,3.92,0,0,1-.65.64,1.52,1.52,0,0,1-.78.29,1.91,1.91,0,0,1-1.36-.43,4,4,0,0,1-1.11-1.39,9.49,9.49,0,0,1-.8-2.18,18.71,18.71,0,0,1-.42-2.81q0-.39-.06-.9c0-.35,0-.71,0-1.1s0-.78,0-1.19,0-.81.09-1.2l-3.84.28a.39.39,0,0,1-.3-.09.4.4,0,0,1-.14-.28.37.37,0,0,1,.1-.31.39.39,0,0,1,.28-.13l4-.3a5.39,5.39,0,0,1,.19-.79,3.07,3.07,0,0,1,.29-.63,1.48,1.48,0,0,1,.39-.43.86.86,0,0,1,.49-.18.72.72,0,0,1,.48.11,1.3,1.3,0,0,1,.37.37,2.69,2.69,0,0,1,.26.59,6.56,6.56,0,0,1,.18.76l5.46-.41a.49.49,0,0,1,.3.09A.39.39,0,0,1,107.9,132.37Zm-7.51,7.84a16.64,16.64,0,0,0,.46-1.7c.13-.6.23-1.21.31-1.83s.14-1.21.16-1.8a14.13,14.13,0,0,0,0-1.61l-1.26.1a14.42,14.42,0,0,0-.11,1.8c0,.71,0,1.57.1,2.59,0,.57.1,1,.15,1.42A10.33,10.33,0,0,0,100.39,140.21Zm.34-8.77c-.06,0-.15.09-.26.25a2.58,2.58,0,0,0-.3.85l1-.08a3.8,3.8,0,0,0-.21-.76C100.9,131.52,100.82,131.44,100.73,131.44Z" fill="#44182c"/><path d="M113.24,140.41c0,.07-.07.2-.14.41s-.18.43-.3.7-.26.55-.42.84a5.88,5.88,0,0,1-.57.81,3.4,3.4,0,0,1-.69.63,1.66,1.66,0,0,1-.82.29,1.38,1.38,0,0,1-1.07-.35,2.49,2.49,0,0,1-.7-1,3.26,3.26,0,0,1-.79,1.12,1.62,1.62,0,0,1-1,.46,1.58,1.58,0,0,1-.73-.1,1.55,1.55,0,0,1-.58-.4,2.17,2.17,0,0,1-.4-.64,2.72,2.72,0,0,1-.18-.83,4.2,4.2,0,0,1,.16-1.62,3.76,3.76,0,0,1,.64-1.21,3,3,0,0,1,.91-.77,2.67,2.67,0,0,1,1-.31,2,2,0,0,1,.61,0,4.61,4.61,0,0,1,.5.18,2.61,2.61,0,0,1,.32.2,1.06,1.06,0,0,1,.12.1.48.48,0,0,1,.15.3.51.51,0,0,1-.1.32.32.32,0,0,1-.27.15.38.38,0,0,1-.3-.1s0,0-.1-.08a1,1,0,0,0-.21-.12,2,2,0,0,0-.32-.1,1.29,1.29,0,0,0-.4,0,1.76,1.76,0,0,0-.69.21,2,2,0,0,0-.65.56,2.92,2.92,0,0,0-.46.9,3.25,3.25,0,0,0-.11,1.24,2.34,2.34,0,0,0,.07.45,1.44,1.44,0,0,0,.18.4.92.92,0,0,0,.31.28.85.85,0,0,0,.46.08,1.07,1.07,0,0,0,.44-.17,1.54,1.54,0,0,0,.44-.47A3.36,3.36,0,0,0,108,142a4.11,4.11,0,0,0,.18-1.07.47.47,0,0,1,.12-.28.39.39,0,0,1,.27-.13.33.33,0,0,1,.27.11.51.51,0,0,1,.15.28,6.1,6.1,0,0,0,.09.62,3.73,3.73,0,0,0,.2.78,1.81,1.81,0,0,0,.39.66.71.71,0,0,0,.64.25,1,1,0,0,0,.5-.19,3.12,3.12,0,0,0,.46-.44,4.51,4.51,0,0,0,.41-.6,7.45,7.45,0,0,0,.36-.68c.1-.22.19-.44.27-.65s.15-.39.2-.54a.46.46,0,0,1,.14-.21.36.36,0,0,1,.52,0,.51.51,0,0,1,.13.3A.3.3,0,0,1,113.24,140.41Z" fill="#44182c"/><path d="M70.72,97.31a64.89,64.89,0,0,1,.06,15.32c-.76,5.07-2.71,10.09-6.32,13.72a11.89,11.89,0,0,1-4,2.77l-.45.16-.22.06a10.11,10.11,0,0,1-8.85-1.87c-.25-.19-.49-.38-.71-.58l-.1-.09a17.77,17.77,0,0,1-5-9.26c-1.35-5.82-.71-12.23,2.48-17.28s9.1-7.62,15.06-7.94c7.34-.39,16.85,4.6,16.85,4.6Z" fill="#bc606d"/><path d="M52.08,116.26a45.86,45.86,0,0,0-1.14,11.21c-.25-.19-.49-.38-.71-.58A47.63,47.63,0,0,1,51.4,116.1a.34.34,0,0,1,.42-.26A.36.36,0,0,1,52.08,116.26Z" fill="#44182c"/><path d="M60.46,129.12l-.45.16-.22.06a59,59,0,0,1-.22-11.66.33.33,0,0,1,.37-.32.34.34,0,0,1,.32.38A58.45,58.45,0,0,0,60.46,129.12Z" fill="#44182c"/><path d="M150.29,89.14a64.89,64.89,0,0,1,.06,15.32c-.76,5.07-2.71,10.09-6.32,13.72a11.89,11.89,0,0,1-4,2.77l-.45.16-.22.06a10.11,10.11,0,0,1-8.85-1.87c-.25-.19-.49-.38-.71-.58l-.1-.09a17.77,17.77,0,0,1-5-9.26c-1.35-5.82-.71-12.23,2.48-17.28s9.1-7.62,15.06-7.94c7.34-.39,16.85,4.6,16.85,4.6Z" fill="#bc606d"/><path d="M131.65,108.09a45.86,45.86,0,0,0-1.14,11.21c-.25-.19-.49-.38-.71-.58A47.63,47.63,0,0,1,131,107.93a.34.34,0,0,1,.42-.26A.36.36,0,0,1,131.65,108.09Z" fill="#44182c"/><path d="M140,121l-.45.16-.22.06a59,59,0,0,1-.22-11.66.33.33,0,0,1,.37-.32.34.34,0,0,1,.32.38A58.45,58.45,0,0,0,140,121Z" fill="#44182c"/><path d="M97.07,210H5.49V178.1a33.2,33.2,0,0,1,5.43-3.56,29.63,29.63,0,0,1,9.58-3.15c.43-.06.87-.12,1.3-.16.8-.08,1.61-.13,2.41-.14s1.67,0,2.5.06a27,27,0,0,1,9.22,2.24,22.84,22.84,0,0,1,3.59,2q.7.47,1.38,1a28.13,28.13,0,0,1,3-2.9A28.43,28.43,0,0,1,55,167.71a26.2,26.2,0,0,1,5.35-.8,24.1,24.1,0,0,1,5.92.49,30.32,30.32,0,0,1,3.39.93h0l.34.12a31.39,31.39,0,0,1,3.83,1.62,34.66,34.66,0,0,1,5.69,3.55q.9.67,1.77,1.44a35.87,35.87,0,0,1,3,2.89,40.62,40.62,0,0,1,4.35,5.52q.72,1.11,1.38,2.25A44.44,44.44,0,0,1,92.22,190c.3.67.59,1.34.85,2a55.19,55.19,0,0,1,2.74,9.13q.24,1.09.42,2.19c.19,1,.35,2.08.47,3.12,0,.27.08.54.1.81.08.62.14,1.24.19,1.86C97,209.38,97.05,209.67,97.07,210Z" fill="#fff"/><path d="M185.58,146.52V210H106.41c2.6-8.16,10.29-13.6,18.42-16.34,3.92-1.33,8.44-1.83,12,.2-.45-9.19,3.73-17.51,10.18-24.07A33.87,33.87,0,0,1,172,159.8C172.78,153.44,179,148.51,185.58,146.52Z" fill="#fff"/><path d="M101.14,210H5.49V174.05a24.52,24.52,0,0,1,5.2.44l.23,0c4.27.88,8.52,3.11,10.7,6.83.16.28.32.58.46.88a19.32,19.32,0,0,1,3.11-2.34,23.91,23.91,0,0,1,8.61-3.15,26.69,26.69,0,0,1,5.05-.33,25.21,25.21,0,0,1,9.38,2l.32.13a27.92,27.92,0,0,1,3.33,1.77,29.18,29.18,0,0,1,3.27,2.36,32.7,32.7,0,0,1,3.63,3.53c.24.28.48.56.71.85.7.84,1.35,1.71,2,2.61h0A38.33,38.33,0,0,1,66.07,199l.16-.08a43.67,43.67,0,0,1,6.56-2.71,28.28,28.28,0,0,1,4.83-1.09h0a18.59,18.59,0,0,1,6.36.19l.71.17.12,0h0a15,15,0,0,1,3.08,1.25,29,29,0,0,1,4.61,3.16c.88.72,1.75,1.48,2.58,2.28q.57.54,1.11,1.11c.62.64,1.22,1.31,1.78,2,.29.34.56.68.83,1a28.58,28.58,0,0,1,1.75,2.63C100.78,209.29,101,209.63,101.14,210Z" fill="#26575e"/><path d="M185.58,165.65V210h-60a35.93,35.93,0,0,1,1.94-8.42c1.53-4.25,4.44-8.19,8.56-10a18.65,18.65,0,0,1,11-.78c1.62-11.53,8.44-22.23,19.49-25.88A27.73,27.73,0,0,1,185.58,165.65Z" fill="#26575e"/><path d="M59,40a.38.38,0,0,1-.26-.11L48.4,29.57a.37.37,0,0,1,.53-.53L59.27,39.38a.37.37,0,0,1,0,.53A.39.39,0,0,1,59,40Z" fill="#f7f0e7"/><path d="M53.83,42.16a.38.38,0,0,1-.37-.38V27.16a.38.38,0,1,1,.75,0V41.78A.38.38,0,0,1,53.83,42.16Z" fill="#f7f0e7"/><path d="M48.66,40a.38.38,0,0,1-.26-.11.37.37,0,0,1,0-.53L58.74,29a.37.37,0,0,1,.53.53L48.93,39.91A.39.39,0,0,1,48.66,40Z" fill="#f7f0e7"/><path d="M61.15,34.85H46.52a.37.37,0,0,1-.37-.38.36.36,0,0,1,.37-.37H61.15a.37.37,0,0,1,.37.37A.38.38,0,0,1,61.15,34.85Z" fill="#f7f0e7"/><path d="M32.79,85a.34.34,0,0,1-.26-.11L22.19,74.5a.37.37,0,0,1,0-.53.39.39,0,0,1,.53,0L33.06,84.31a.39.39,0,0,1,0,.53A.36.36,0,0,1,32.79,85Z" fill="#f7f0e7"/><path d="M27.62,87.09a.36.36,0,0,1-.37-.37V72.1a.37.37,0,0,1,.37-.38.38.38,0,0,1,.38.38V86.72A.37.37,0,0,1,27.62,87.09Z" fill="#f7f0e7"/><path d="M22.45,85a.34.34,0,0,1-.26-.11.37.37,0,0,1,0-.53L32.53,74a.37.37,0,0,1,.53.53L22.72,84.84A.36.36,0,0,1,22.45,85Z" fill="#f7f0e7"/><path d="M34.93,79.78H20.31a.38.38,0,1,1,0-.75H34.93a.38.38,0,1,1,0,.75Z" fill="#f7f0e7"/><path d="M170.66,82.23a.38.38,0,0,1-.26-.11L160.06,71.78a.37.37,0,1,1,.53-.53l10.34,10.34a.38.38,0,0,1-.27.64Z" fill="#f7f0e7"/><path d="M165.49,84.37a.38.38,0,0,1-.37-.37V69.37a.38.38,0,0,1,.75,0V84A.38.38,0,0,1,165.49,84.37Z" fill="#f7f0e7"/><path d="M160.32,82.23a.38.38,0,0,1-.26-.11.37.37,0,0,1,0-.53L170.4,71.25a.37.37,0,0,1,.53,0,.39.39,0,0,1,0,.53L160.59,82.12A.39.39,0,0,1,160.32,82.23Z" fill="#f7f0e7"/><path d="M172.8,77.06H158.18a.38.38,0,0,1,0-.75H172.8a.38.38,0,1,1,0,.75Z" fill="#f7f0e7"/><path d="M173.05,189.12a.35.35,0,0,1-.27-.11l-10.34-10.34a.37.37,0,1,1,.53-.53l10.34,10.34a.37.37,0,0,1,0,.53A.34.34,0,0,1,173.05,189.12Z" fill="#f7f0e7"/><path d="M167.88,191.26a.37.37,0,0,1-.38-.37V176.27a.38.38,0,1,1,.75,0v14.62A.37.37,0,0,1,167.88,191.26Z" fill="#f7f0e7"/><path d="M162.71,189.12a.35.35,0,0,1-.27-.11.39.39,0,0,1,0-.53l10.34-10.34a.39.39,0,0,1,.53,0,.37.37,0,0,1,0,.53L163,189A.34.34,0,0,1,162.71,189.12Z" fill="#f7f0e7"/><path d="M175.19,184H160.56a.38.38,0,0,1,0-.75h14.63a.38.38,0,0,1,0,.75Z" fill="#f7f0e7"/><path d="M40.28,194.23a.4.4,0,0,1-.27-.11L29.67,183.78a.39.39,0,0,1,0-.53.38.38,0,0,1,.54,0l10.34,10.34a.39.39,0,0,1,0,.53A.4.4,0,0,1,40.28,194.23Z" fill="#f7f0e7"/><path d="M35.11,196.37a.37.37,0,0,1-.37-.37V181.37a.37.37,0,0,1,.37-.37.38.38,0,0,1,.38.37V196A.38.38,0,0,1,35.11,196.37Z" fill="#f7f0e7"/><path d="M29.94,194.23a.4.4,0,0,1-.27-.11.39.39,0,0,1,0-.53L40,183.25a.38.38,0,0,1,.54,0,.39.39,0,0,1,0,.53L30.21,194.12A.4.4,0,0,1,29.94,194.23Z" fill="#f7f0e7"/><path d="M42.42,189.06H27.8a.38.38,0,1,1,0-.75H42.42a.38.38,0,1,1,0,.75Z" fill="#f7f0e7"/></g></svg>