<svg xmlns="http://www.w3.org/2000/svg" viewBox="0 0 195.78 216.36"><g id="OBJECTS"><path d="M8.47,216.36a6,6,0,0,1-6-6V98.79A96.61,96.61,0,0,1,5.64,74,6.42,6.42,0,0,1,.93,64.34a17.22,17.22,0,0,0,1.76-4.15s.07-.3.09-.38a16.47,16.47,0,0,0,.51-5.28,6.41,6.41,0,0,1,5.83-6.84,12.2,12.2,0,0,0,3.64-.89l.4-.16a13.76,13.76,0,0,0,3.72-2.44l.14-.12.05-.06a14,14,0,0,0,2.15-2.56l.08-.13a6.44,6.44,0,0,1,4.13-2.7A96.85,96.85,0,0,1,44.69,18.88a6.4,6.4,0,0,1,2.79-1.83c.73-.46,1.47-.92,2.22-1.37a14.63,14.63,0,0,0,2.79-3.79l.12-.23.1-.21a13.7,13.7,0,0,0,1-2.78,6.39,6.39,0,0,1,6.23-4.9,7,7,0,0,1,1.21.12,11,11,0,0,0,1.93.2h.39a14.22,14.22,0,0,0,8-2.76A6.32,6.32,0,0,1,75.39,0a6.43,6.43,0,0,1,5.84,3.77A97.27,97.27,0,0,1,99.11,2.11a96.67,96.67,0,0,1,96.67,96.68V210.32a6,6,0,0,1-6,6Z" fill="#fff"/><path d="M190.26,98.79V210.32H9V98.79a90.64,90.64,0,0,1,181.28,0Z" fill="#fe99bf"/><path d="M185.5,130.1l-5.92.51-.41-4.77-.63-7.34-.6-6.94-.64-7.33-.6-6.94-.62-7.35-.54-6.22-.43-5.07a9.82,9.82,0,0,0-.46-2.22,9.3,9.3,0,0,0-2.51-3.94,9.49,9.49,0,0,0-6.8-2.61h-.28a10.26,10.26,0,0,0-2.16.35A9.68,9.68,0,0,0,157,75a9.47,9.47,0,0,0-1,3.34,9,9,0,0,0,0,2l.5,5.38.37,4-5.91.55L150.44,85l-.38-4a16.08,16.08,0,0,1,.05-3.33,15.51,15.51,0,0,1,3.68-8.29c.19-.22.38-.43.58-.63a15.33,15.33,0,0,1,6.23-3.93,16,16,0,0,1,4.16-.79,16.47,16.47,0,0,1,3.31.18A15.49,15.49,0,0,1,180.8,76.55c.11.52.17,1,.23,1.59l.49,5.69.57,6.58.62,7.35.6,6.94.63,7.33.6,6.94.64,7.35Z" fill="#f7f0e7"/><polygon points="182.71 97.76 176.7 97.29 176.08 89.94 182.09 90.41 182.71 97.76" fill="#a7cbcc"/><path d="M181.52,83.83l-6-.11-.43-5.07a9.82,9.82,0,0,0-.46-2.22l6.15.12c.11.52.17,1,.23,1.59Z" fill="#a7cbcc"/><path d="M174.77,67l-2.63,5.54a9.49,9.49,0,0,0-6.8-2.61l2.73-5.75A15.42,15.42,0,0,1,174.77,67Z" fill="#a7cbcc"/><path d="M158.27,73.19A9.72,9.72,0,0,0,157,75l-2.65-6.35a15.33,15.33,0,0,1,6.23-3.93l2.3,5.49A9.66,9.66,0,0,0,158.27,73.19Z" fill="#a7cbcc"/><path d="M156,80.37l.5,5.38-6-.78-.38-4a16.08,16.08,0,0,1,.05-3.33l5.89.77A9,9,0,0,0,156,80.37Z" fill="#a7cbcc"/><polygon points="183.94 112.03 177.94 111.56 177.3 104.22 183.31 104.7 183.94 112.03" fill="#a7cbcc"/><polygon points="185.18 126.31 179.17 125.84 178.54 118.5 184.54 118.97 185.18 126.31" fill="#a7cbcc"/><path d="M17.73,146.21l5.92.51.41-4.77.63-7.35.6-6.93.63-7.34.6-6.94.63-7.34.54-6.22.43-5.07a10,10,0,0,1,.46-2.23,9.27,9.27,0,0,1,2.51-3.93A9.49,9.49,0,0,1,37.88,86a2.81,2.81,0,0,1,.29,0,9.66,9.66,0,0,1,2.16.36,9.52,9.52,0,0,1,4.62,3,8.36,8.36,0,0,1,1.25,1.83,9.23,9.23,0,0,1,1,3.33,9,9,0,0,1,0,2l-.49,5.38-.38,4,5.91.55.5-5.34.37-4a15.39,15.39,0,0,0-3.73-11.61c-.18-.22-.38-.43-.57-.63a15.19,15.19,0,0,0-6.24-3.93,15.56,15.56,0,0,0-4.15-.79,15.74,15.74,0,0,0-3.31.17A15.52,15.52,0,0,0,22.42,92.66c-.1.52-.17,1-.22,1.59l-.49,5.69-.57,6.58-.63,7.34-.59,6.94-.63,7.34-.6,6.93-.64,7.35Z" fill="#f7f0e7"/><polygon points="20.51 113.86 26.52 113.39 27.15 106.05 21.14 106.52 20.51 113.86" fill="#a7cbcc"/><path d="M21.71,99.94l6-.11.43-5.07a10,10,0,0,1,.46-2.23l-6.16.13c-.1.52-.17,1-.22,1.59Z" fill="#a7cbcc"/><path d="M28.45,83.06l2.64,5.54A9.49,9.49,0,0,1,37.88,86l-2.72-5.75A15.52,15.52,0,0,0,28.45,83.06Z" fill="#a7cbcc"/><path d="M45,89.3a8.36,8.36,0,0,1,1.25,1.83l2.66-6.35a15.19,15.19,0,0,0-6.24-3.93l-2.29,5.49A9.52,9.52,0,0,1,45,89.3Z" fill="#a7cbcc"/><path d="M47.25,96.47l-.49,5.38,6-.78.37-4a15.43,15.43,0,0,0,0-3.33l-5.89.77A9,9,0,0,1,47.25,96.47Z" fill="#a7cbcc"/><polygon points="19.29 128.13 25.29 127.67 25.93 120.33 19.91 120.8 19.29 128.13" fill="#a7cbcc"/><polygon points="18.05 142.42 24.06 141.95 24.69 134.6 18.69 135.07 18.05 142.42" fill="#a7cbcc"/><path d="M51,44a6.81,6.81,0,1,1-3.9-8.8A6.81,6.81,0,0,1,51,44Z" fill="#f56a58"/><path d="M62.12,53.3a6.81,6.81,0,1,1-3.9-8.81A6.8,6.8,0,0,1,62.12,53.3Z" fill="#f56a58"/><path d="M50,39c-.26.31-1.2,0-2.11-.79s-1.44-1.61-1.18-1.93,1.21,0,2.11.8S50.27,38.69,50,39Z" fill="#44182c"/><path d="M58.4,45.87c0,.41-1,.64-2.19.53s-2.09-.54-2.05-.94,1-.64,2.19-.52S58.44,45.47,58.4,45.87Z" fill="#44182c"/><path d="M76.25,24.34a20.11,20.11,0,0,0-2.79,5.88c0,.15-.08.3-.12.45a19.2,19.2,0,0,0-.67,4.65.38.38,0,0,1-.45.35,20.65,20.65,0,0,0-7.51.2l-1.63.29h0c-.94.18-1.86.36-2.79.51a14.93,14.93,0,0,0-6.35,2.39.44.44,0,0,1-.27.09h0a.38.38,0,0,1-.33-.38s0,0,0,0a23.22,23.22,0,0,0-1-7.78h0c-.14-.52-.29-1-.46-1.54-.32-1.06-.67-2.09-1-3.11a20.81,20.81,0,0,0-1.17-3,.38.38,0,0,1,.27-.56,8.18,8.18,0,0,0,4-2.29l.32-.29s0,0,0,0a20.5,20.5,0,0,0,4.1-5.54c.1-.17.18-.34.26-.51h0a20,20,0,0,0,1.44-4,.36.36,0,0,1,.43-.28,18,18,0,0,0,3,.31h.51a20.11,20.11,0,0,0,11.59-4,.38.38,0,0,1,.62.3,23.31,23.31,0,0,0,.9,6.09,3.26,3.26,0,0,0,.15.44,22.29,22.29,0,0,0,3.2,6.53.36.36,0,0,1-.08.52,18.22,18.22,0,0,0-3.9,3.94Z" fill="#26575e"/><path d="M67.3,17.35a.25.25,0,0,1-.17,0,.21.21,0,0,1-.13-.11l0-.09-3.39-7h.51l3.2,6.62.14.29A.24.24,0,0,1,67.3,17.35Z" fill="#44182c"/><path d="M77.33,13l-6.92.55-.1,0a.23.23,0,0,1-.15-.2.25.25,0,0,1,.21-.24l.44,0,6.37-.5A3.26,3.26,0,0,0,77.33,13Z" fill="#44182c"/><path d="M63,23.21a.21.21,0,0,1-.19,0,.28.28,0,0,1-.13-.11l0-.1-4.21-8.4c.1-.17.18-.34.26-.51l4.25,8.49.17.32A.23.23,0,0,1,63,23.21Z" fill="#44182c"/><path d="M76.55,23.94l-.3.4L64.43,21.29h0a.23.23,0,0,1-.14-.27.23.23,0,0,1,.29-.17l.15,0Z" fill="#44182c"/><path d="M58.34,30.12a.23.23,0,0,1-.18,0A.25.25,0,0,1,58,30v0l-4.09-9.5.32-.29s0,0,0,0l4,9.34.14.33A.22.22,0,0,1,58.34,30.12Z" fill="#44182c"/><path d="M73.34,30.67,59.53,28.41l-.14,0h0a.23.23,0,0,1-.14-.25.24.24,0,0,1,.26-.2l.35.06,13.65,2.23C73.41,30.37,73.38,30.52,73.34,30.67Z" fill="#44182c"/><path d="M64.71,35.87l-1.63.29h0l-7.56-.79-.24,0h-.06a.24.24,0,0,1-.11-.09l0,0-2.74-4.27h0c-.14-.52-.29-1-.46-1.54l3.46,5.35.1.17.31,0Z" fill="#44182c"/><path d="M53.14,39.76h0a.24.24,0,0,1-.12-.31c5.5-12.26,14.14-22.77,22.5-32.94a.23.23,0,0,1,.33,0,.23.23,0,0,1,0,.32c-8.34,10.14-17,20.63-22.44,32.84A.23.23,0,0,1,53.14,39.76Z" fill="#44182c"/><path d="M16,52.21a20.28,20.28,0,0,0,5.46-3.55l.34-.32a19.58,19.58,0,0,0,3-3.61.38.38,0,0,1,.57-.07,20.48,20.48,0,0,0,6.5,3.76l1.54.61h0c.88.35,1.77.68,2.64,1a15,15,0,0,0,6.66,1.29.44.44,0,0,1,.28.07h0a.37.37,0,0,1,.08.49s0,0,0,0a23.07,23.07,0,0,0-3.22,7.14v0c-.14.51-.29,1-.42,1.55-.27,1.07-.51,2.13-.75,3.18A21.93,21.93,0,0,0,38.13,67a.38.38,0,0,1-.52.33,8.15,8.15,0,0,0-4.6-.14l-.43.08s0,0,0,0a20.15,20.15,0,0,0-6.41,2.57,4.8,4.8,0,0,0-.48.3h0a20,20,0,0,0-3.31,2.65.35.35,0,0,1-.51,0A16.64,16.64,0,0,0,19.38,71c-.14-.09-.28-.18-.43-.26A20.16,20.16,0,0,0,7,68a.37.37,0,0,1-.37-.57A22.82,22.82,0,0,0,9,61.8c.05-.15.08-.3.12-.46a22.35,22.35,0,0,0,.68-7.24.38.38,0,0,1,.35-.4,18.19,18.19,0,0,0,5.38-1.31Z" fill="#26575e"/><path d="M20,62.85a.26.26,0,0,1,.15.09.25.25,0,0,1,.05.16v.1L19.38,71c-.14-.09-.28-.18-.43-.26l.74-7.32,0-.32A.25.25,0,0,1,20,62.85Z" fill="#44182c"/><path d="M9.14,61.34l6.17,3.16a.19.19,0,0,1,.08.07.25.25,0,0,1,0,.24.24.24,0,0,1-.31.1l-.39-.2L9,61.8C9.07,61.65,9.1,61.5,9.14,61.34Z" fill="#44182c"/><path d="M26.74,60.12a.22.22,0,0,1,.17.09.3.3,0,0,1,.05.16v.11l-.82,9.37a4.8,4.8,0,0,0-.48.3l.82-9.46,0-.36A.23.23,0,0,1,26.74,60.12Z" fill="#44182c"/><path d="M15.55,52.39l.46-.18L24.48,61h0a.22.22,0,0,1,0,.3.22.22,0,0,1-.32,0L24,61.2Z" fill="#44182c"/><path d="M34.3,56.66a.19.19,0,0,1,.15.09.23.23,0,0,1,0,.17v0L33,67.18l-.43.08s0,0,0,0L34,57.2l0-.35A.22.22,0,0,1,34.3,56.66Z" fill="#44182c"/><path d="M21.81,48.34l10.58,9.15.11.1a.05.05,0,0,1,0,0,.23.23,0,0,1,0,.29.22.22,0,0,1-.32,0l-.27-.22L21.47,48.66Z" fill="#44182c"/><path d="M31.88,48.42l1.54.61h0l6,4.63.19.15,0,0a.22.22,0,0,1,0,.13V54l.11,5.06v0c-.14.51-.29,1-.42,1.55l-.14-6.37v-.19L39,53.92Z" fill="#44182c"/><path d="M43.78,51.17h0a.24.24,0,0,1-.06.32c-11.11,7.57-24,12-36.42,16.29A.22.22,0,0,1,7,67.64a.23.23,0,0,1,.14-.29c12.41-4.28,25.25-8.7,36.31-16.23A.22.22,0,0,1,43.78,51.17Z" fill="#44182c"/><polygon points="118.25 138.29 64.69 138.29 69.72 103.08 70.84 95.25 112.42 93.64 112.76 96.19 118.25 138.29" fill="#44182c"/><g opacity="0.15"><path d="M112.76,96.19a105.39,105.39,0,0,1-42.13,7,5.69,5.69,0,0,1-.91-.08l1.12-7.82,41.58-1.62Z" fill="#f56a58"/></g><path d="M58.82,66.81l2.07-21a2.86,2.86,0,0,1,4.47-2.07l13.85,9.61Z" fill="#44182c"/><path d="M61.91,64.51l1.41-14.2a1.75,1.75,0,0,1,2.78-1.37l8.52,6.57Z" fill="#fe99bf"/><path d="M125.21,66.81l-2.08-21a2.85,2.85,0,0,0-4.46-2.07l-13.85,9.61Z" fill="#44182c"/><path d="M122.07,64.39l-1.42-14.2a1.74,1.74,0,0,0-2.77-1.37l-8.52,6.57Z" fill="#fe99bf"/><path d="M130.79,79.07c0,13.14-19,19.78-39.14,19.78S53.36,92.57,53.36,79.44,71.51,51.28,91.65,51.28,130.79,65.93,130.79,79.07Z" fill="#44182c"/><path d="M90,84.71a1.06,1.06,0,0,1-.56-.16c-1.18-.67-1.69-3.5-1.72-3.62a.24.24,0,0,1,.47-.08c.14.76.66,2.82,1.49,3.29a.62.62,0,0,0,.56,0c1.09-.4,1.75-4.52,1.91-7a.24.24,0,0,1,.25-.22.25.25,0,0,1,.23.26c-.05.69-.49,6.78-2.22,7.42A1,1,0,0,1,90,84.71Z" fill="#fe99bf"/><path d="M94.67,84.71a1,1,0,0,1-.41-.08C92.52,84,92.08,77.9,92,77.21a.24.24,0,0,1,.22-.26.24.24,0,0,1,.25.22c.17,2.5.83,6.62,1.91,7a.64.64,0,0,0,.57,0c.82-.47,1.35-2.53,1.48-3.29a.25.25,0,0,1,.28-.19.23.23,0,0,1,.19.27c0,.12-.53,2.95-1.71,3.62A1.09,1.09,0,0,1,94.67,84.71Z" fill="#fe99bf"/><path d="M86,73c0,5-4,9.19-9.33,10a11.3,11.3,0,0,1-1.76.13c-6.12,0-11.09-4.52-11.09-10.09s5-10.08,11.09-10.08c.31,0,.62,0,.92,0C81.49,63.39,86,67.73,86,73Z" fill="#f7f0e7"/><path d="M86,73c0,5-4,9.19-9.33,10a12,12,0,0,1-.84-20C81.49,63.39,86,67.73,86,73Z" fill="#ffc97d"/><path d="M121.32,73c0,5-4,9.19-9.33,10a11.27,11.27,0,0,1-1.75.13c-6.13,0-11.09-4.52-11.09-10.09s5-10.08,11.09-10.08c.31,0,.61,0,.92,0C116.85,63.39,121.32,67.73,121.32,73Z" fill="#f7f0e7"/><path d="M121.32,73c0,5-4,9.19-9.33,10a12,12,0,0,1-.83-20C116.85,63.39,121.32,67.73,121.32,73Z" fill="#ffc97d"/><path d="M89.34,75.61h5.71L93,78a.83.83,0,0,1-1.21,0Z" fill="#fe99bf"/><path d="M122.44,130.05a1.9,1.9,0,0,1-.46-3.74,18.12,18.12,0,0,0,13.45-20.69,38.63,38.63,0,0,0-1.71-5.89c-.2-.59-.41-1.18-.6-1.77A36.18,36.18,0,0,1,131,87.4a19.21,19.21,0,0,1,2.76-10.86,18.51,18.51,0,0,1,9-7.09,28.34,28.34,0,0,1,11-1.66,1.91,1.91,0,0,1-.11,3.81,24.71,24.71,0,0,0-9.52,1.4A14.61,14.61,0,0,0,137,78.58a15.67,15.67,0,0,0-2.17,8.72,32.47,32.47,0,0,0,1.92,9.46c.19.58.39,1.15.59,1.72a41.81,41.81,0,0,1,1.85,6.48,21.91,21.91,0,0,1-16.27,25A1.85,1.85,0,0,1,122.44,130.05Z" fill="#44182c"/><rect x="38.79" y="107.71" width="128.16" height="102.27" fill="#f56a58"/><path d="M66.31,125.34l0,0-.18-.28L55.17,107.71h-.35l11.12,17.58.07.12-.07.11L52.85,144.25,39.71,125.41l11.19-17.7h-.36L39.39,125.34a.12.12,0,0,0,0,.16l13.28,19.05,0,0a.16.16,0,0,0,.12.05.12.12,0,0,0,.12-.05l.06-.06,13.08-18.76.19-.26v0A.12.12,0,0,0,66.31,125.34Z" fill="#f7f0e7"/><path d="M92.82,125.34l-.1-.15-11-17.48h-.35l11.19,17.7L79.37,144.25,66.3,125.52l-.08-.11.07-.11L77.4,107.71h-.34L66.11,125l-.17.27,0,0a.12.12,0,0,0,0,.16v0l.17.26,13.1,18.77,0,0a.17.17,0,0,0,.13.05s.09,0,.11-.05l.06-.06,13.18-18.9.1-.14A.12.12,0,0,0,92.82,125.34Z" fill="#f7f0e7"/><path d="M119.53,125.34l-.11-.19-11-17.44h-.35l11.19,17.7-13.15,18.84L92.93,125.41l11.19-17.7h-.35l-11,17.48-.08.15a.1.1,0,0,0,0,.16l.08.14,13.2,18.9,0,.06a.12.12,0,0,0,.12.05.15.15,0,0,0,.12-.05l0,0,13.17-18.87.11-.18A.12.12,0,0,0,119.53,125.34Z" fill="#f7f0e7"/><path d="M135.07,107.71h-.35l8.86,14v-.56Zm-2.32,36.54-13.16-18.84,11.19-17.7h-.33l-11,17.44-.12.19a.15.15,0,0,0,0,.16l.12.18,13.18,18.87,0,0a.17.17,0,0,0,.24,0l0,0,10.67-15.28v-.53Z" fill="#f7f0e7"/><path d="M66.31,164.34l0-.05-.18-.27L53.75,144.44h-.36l12.55,19.84.07.13-.07.11L52.85,183.25,39.71,164.41l12.61-20H52l-12.58,19.9a.13.13,0,0,0,0,.16l13.28,19,0,.06a.17.17,0,0,0,.12.06.13.13,0,0,0,.12-.06l.06-.07,13.08-18.75.19-.26v0A.12.12,0,0,0,66.31,164.34Z" fill="#f7f0e7"/><path d="M92.82,164.34l-.1-.15L80.26,144.44H79.9l12.63,20L79.37,183.25,66.3,164.52l-.08-.11.07-.12,12.54-19.85h-.35L66.11,164l-.17.26,0,.06a.13.13,0,0,0,0,.16v0l.17.26,13.1,18.76,0,.06a.18.18,0,0,0,.13.06.11.11,0,0,0,.11-.06l.06-.07,13.18-18.89.1-.14A.12.12,0,0,0,92.82,164.34Z" fill="#f7f0e7"/><path d="M119.53,164.34l-.11-.19L107,144.44h-.36l12.62,20-13.15,18.84L92.93,164.41l12.63-20h-.36L92.72,164.19l-.08.15s0,.1,0,.16l.08.14,13.2,18.89,0,.07a.13.13,0,0,0,.12.06.16.16,0,0,0,.12-.06l0-.06,13.17-18.87.11-.17A.12.12,0,0,0,119.53,164.34Z" fill="#f7f0e7"/><path d="M133.63,144.44h-.34l10.29,16.29v-.56Zm-.88,38.81-13.16-18.84,12.63-20h-.35l-12.45,19.71-.12.19a.15.15,0,0,0,0,.16l.12.17,13.18,18.87,0,.06a.15.15,0,0,0,.24,0l0-.06,10.67-15.27v-.54Z" fill="#f7f0e7"/><path d="M66.31,203.34l0,0-.18-.29L53.75,183.44h-.36l12.55,19.84.07.12-.07.13L61.42,210h.36l4.33-6.21.19-.24v0A.12.12,0,0,0,66.31,203.34Zm-14-19.9H52l-12.58,19.9a.13.13,0,0,0,0,.16L43.94,210h.36l-4.59-6.58Z" fill="#f7f0e7"/><path d="M92.82,203.34l-.1-.16L80.26,183.44H79.9l12.63,20L87.93,210h.36l4.43-6.35.1-.13A.12.12,0,0,0,92.82,203.34Zm-26.6.06.07-.1,12.54-19.86h-.35L66.11,203l-.17.27,0,.06a.13.13,0,0,0,0,.16v0l.17.24L70.44,210h.36l-4.5-6.45Z" fill="#f7f0e7"/><path d="M119.53,203.34l-.11-.19L107,183.44h-.36l12.62,20L114.65,210H115l4.4-6.31.11-.17A.12.12,0,0,0,119.53,203.34Zm-14-19.9h-.36L92.72,203.18l-.08.16s0,.1,0,.16l.08.13L97.16,210h.37l-4.6-6.58Z" fill="#f7f0e7"/><path d="M133.63,183.44h-.34l10.29,16.28v-.56ZM141.3,210h.38l1.9-2.71v-.54Zm-9.08-26.54h-.35l-12.45,19.71-.12.19a.15.15,0,0,0,0,.16l.12.17,4.41,6.31h.35l-4.59-6.58Z" fill="#f7f0e7"/><rect x="142.44" y="107.71" width="24.52" height="102.27" fill="#44182c"/><rect x="83.7" y="107.71" width="7.77" height="102.19" fill="#f7f0e7"/><rect x="99.15" y="98.45" width="7.08" height="127.87" transform="translate(265.08 59.69) rotate(90)" fill="#f7f0e7"/><path d="M60,105.64c-2.39,2.94-2.85,6.71-2.9,10.3a27.39,27.39,0,0,0,1.74,11.11,8.26,8.26,0,0,0,4.43,4.84,8,8,0,0,0,6.76-.81,11.52,11.52,0,0,0,4.22-4.83c2.07-4.12,2.44-8.73,2.15-13.21-.2-3.19-.79-9.41-5-10.81C67.56,100.91,62.31,102.84,60,105.64Z" fill="#44182c"/><path d="M106,105.64c-2.4,2.94-2.86,6.71-2.91,10.3a27.57,27.57,0,0,0,1.75,11.11,8.25,8.25,0,0,0,4.42,4.84,8,8,0,0,0,6.76-.81,11.46,11.46,0,0,0,4.22-4.83c2.08-4.12,2.44-8.73,2.16-13.21-.2-3.19-.79-9.41-5-10.81C113.51,100.91,108.26,102.84,106,105.64Z" fill="#44182c"/><path d="M100.38,43.23S117.86,28.1,130,32.14,143.35,66,143.35,66L100.79,43.39" fill="#f56a58"/><polygon points="131.49 60.02 134.53 47.4 129.19 59.9 131.49 60.02" fill="#44182c"/><path d="M92,51.28s12,.85,21.3,6.19,16.63,15.29,16.63,15.29,9.9-6.48,7.4-13c-1.21-3.15-17.11-12.51-27.91-17.59C92.9,34.41,92.29,45.58,92,51.28Z" fill="#fff"/><path d="M150.43,69.06a5.65,5.65,0,1,1-5.65-5.64A5.64,5.64,0,0,1,150.43,69.06Z" fill="#f7f0e7"/><path d="M190.26,157.69v52.63H101.52l0-2.38c2.86-9.88,13.56-16.8,23.73-15.37,1.85-10.39,7.7-20.46,17-25.43s22.13-3.7,29,4.33a22.47,22.47,0,0,1,15.61-13.3A19.9,19.9,0,0,1,190.26,157.69Z" fill="#a7cbcc"/><path d="M93.59,210.32H9V162.07c4.14-.86,8.91.8,10.42,4.7.44-5,4-9.18,8.14-11.9,4.43-2.9,9.94-4.45,15.12-3.36,6.12,1.29,11.07,6.1,13.86,11.69s3.72,11.91,4.18,18.15c3.93-6,12.46-7.35,19-4.53s11,9.3,12.89,16.18A48.22,48.22,0,0,1,93.59,210.32Z" fill="#a7cbcc"/><path d="M110.94,210.32H9v-25.4c5.54-.93,11.56.65,15.35,4.75A27.87,27.87,0,0,1,37.63,176a22.75,22.75,0,0,1,18.86-.28c5.26,2.41,9.3,7,12.07,12.06s4.41,10.68,6,16.25a24.24,24.24,0,0,1,36.41,6.3Z" fill="#f7f0e7"/><path d="M190.26,177.79v32.53h-77a24.13,24.13,0,0,1,7.3-7.74c3.79-2.65,8.8-3.81,13.17-2.29a23.47,23.47,0,0,1,41.6-8.06c2.8-5.27,6.73-10.07,11.92-13A20.81,20.81,0,0,1,190.26,177.79Z" fill="#f7f0e7"/><path d="M145.45,190.75a6.81,6.81,0,1,1,2.18-9.38A6.82,6.82,0,0,1,145.45,190.75Z" fill="#f56a58"/><path d="M148.72,204.89a6.81,6.81,0,1,1,2.18-9.38A6.81,6.81,0,0,1,148.72,204.89Z" fill="#f56a58"/><path d="M147.66,186.18c-.4.1-.94-.76-1.21-1.9s-.18-2.15.22-2.25.93.76,1.21,1.91S148.05,186.09,147.66,186.18Z" fill="#44182c"/><path d="M150.22,196.72c-.27.3-1.2-.1-2.07-.9s-1.35-1.69-1.07-2,1.2.11,2.07.91S150.5,196.42,150.22,196.72Z" fill="#44182c"/><path d="M177.44,190.27a20,20,0,0,0-5.77,3l-.37.28a19.68,19.68,0,0,0-3.33,3.31.38.38,0,0,1-.58,0,20.52,20.52,0,0,0-6.11-4.36l-1.48-.75h0c-.85-.43-1.7-.84-2.53-1.27a14.85,14.85,0,0,0-6.51-1.92.41.41,0,0,1-.27-.1h0a.38.38,0,0,1,0-.51s0,0,0,0a23.54,23.54,0,0,0,3.89-6.81h0c.2-.5.38-1,.56-1.51.38-1,.72-2.07,1.06-3.09a21.78,21.78,0,0,0,.84-3.07.38.38,0,0,1,.55-.28,8.25,8.25,0,0,0,4.56.58l.44,0h0a20.16,20.16,0,0,0,6.61-1.95l.52-.25h0a19.7,19.7,0,0,0,3.55-2.32.35.35,0,0,1,.51,0,17.83,17.83,0,0,0,2.25,2.08l.41.29a20.08,20.08,0,0,0,11.66,3.79.38.38,0,0,1,.31.61,23.36,23.36,0,0,0-2.94,5.4,4,4,0,0,0-.15.45,22.33,22.33,0,0,0-1.37,7.14.38.38,0,0,1-.38.37,18.23,18.23,0,0,0-5.49.79Z" fill="#26575e"/><path d="M174.5,179.3a.22.22,0,0,1-.14-.11.23.23,0,0,1,0-.16l0-.09,1.52-7.65.41.29-1.43,7.22-.06.32A.25.25,0,0,1,174.5,179.3Z" fill="#44182c"/><path d="M185.15,181.83l-5.85-3.73a.16.16,0,0,1-.07-.07.25.25,0,0,1,0-.25.24.24,0,0,1,.31-.07l.37.24,5.39,3.43A4,4,0,0,0,185.15,181.83Z" fill="#44182c"/><path d="M167.51,181.38a.26.26,0,0,1-.16-.11.23.23,0,0,1,0-.16V181l1.7-9.25.52-.25-1.72,9.34-.06.35A.23.23,0,0,1,167.51,181.38Z" fill="#44182c"/><path d="M177.91,190.13l-.47.14-7.6-9.55v0h0a.22.22,0,0,1,.06-.29.22.22,0,0,1,.32,0l.1.12Z" fill="#44182c"/><path d="M159.65,184.11a.26.26,0,0,1-.14-.11.2.2,0,0,1,0-.17v0l2.45-10,.44,0h0L160,183.59l-.08.35A.23.23,0,0,1,159.65,184.11Z" fill="#44182c"/><path d="M171.3,193.57l-9.67-10.11-.1-.11,0,0a.24.24,0,0,1,.37-.29l.24.25,9.56,10Z" fill="#44182c"/><path d="M161.28,192.53l-1.48-.75h0l-5.56-5.18-.18-.17a.07.07,0,0,1,0-.05.25.25,0,0,1,0-.13v-.05l.38-5.06h0c.2-.5.38-1,.56-1.51l-.46,6.35,0,.2.23.21Z" fill="#44182c"/><path d="M149.69,188.67h0a.23.23,0,0,1,.09-.31c11.77-6.48,25-9.68,37.8-12.76a.23.23,0,0,1,.28.17.24.24,0,0,1-.17.28c-12.77,3.07-26,6.26-37.69,12.71A.24.24,0,0,1,149.69,188.67Z" fill="#44182c"/><path d="M112.56,176.26a20,20,0,0,0,6.49.45l.46-.05a19.24,19.24,0,0,0,4.57-1.07.38.38,0,0,1,.5.29,20.59,20.59,0,0,0,2.93,6.92l.86,1.41h0c.5.8,1,1.6,1.5,2.41a14.93,14.93,0,0,0,4.54,5,.36.36,0,0,1,.17.22h0a.38.38,0,0,1-.23.44l0,0a23.06,23.06,0,0,0-6.87,3.76h0c-.43.32-.85.65-1.28,1-.86.69-1.69,1.39-2.51,2.08a21.79,21.79,0,0,0-2.33,2.18.38.38,0,0,1-.61,0,8.15,8.15,0,0,0-3.59-2.88l-.39-.19,0,0a20.52,20.52,0,0,0-6.66-1.8,5.25,5.25,0,0,0-.57-.05h0a20.07,20.07,0,0,0-4.24.12.36.36,0,0,1-.41-.3,16.66,16.66,0,0,0-.83-3c-.06-.15-.12-.31-.19-.46a20.15,20.15,0,0,0-8-9.34.38.38,0,0,1,.05-.68,23,23,0,0,0,5.33-3.06l.37-.3a22.61,22.61,0,0,0,4.91-5.37.37.37,0,0,1,.51-.11,18.11,18.11,0,0,0,5.09,2.19Z" fill="#26575e"/><path d="M109.32,187.15a.25.25,0,0,1,.06.16.22.22,0,0,1,0,.16l-.07.07-5.3,5.72c-.06-.15-.12-.31-.19-.46l5-5.4.22-.24A.25.25,0,0,1,109.32,187.15Z" fill="#44182c"/><path d="M101.57,179.42l3,6.24a.16.16,0,0,1,0,.1.24.24,0,0,1-.13.21.23.23,0,0,1-.3-.11l-.19-.39-2.8-5.75Z" fill="#44182c"/><path d="M116.36,189a.2.2,0,0,1,.08.17.25.25,0,0,1-.06.16l-.07.08-6.29,7a5.25,5.25,0,0,0-.57-.05l6.35-7.06.24-.27A.23.23,0,0,1,116.36,189Z" fill="#44182c"/><path d="M112.08,176.13l.48.13L114,188.38v0h0a.23.23,0,0,1-.2.22.22.22,0,0,1-.26-.2l0-.16Z" fill="#44182c"/><path d="M124.48,190.82a.23.23,0,0,1,.07.17.21.21,0,0,1-.07.16v0l-7.35,7.28-.39-.19,0,0,7.23-7.17.25-.25A.22.22,0,0,1,124.48,190.82Z" fill="#44182c"/><path d="M119.51,176.66l2.95,13.68,0,.14a.43.43,0,0,1,0,.05.23.23,0,0,1-.19.22.22.22,0,0,1-.27-.17l-.08-.34-2.91-13.53Z" fill="#44182c"/><path d="M127.51,182.8l.86,1.41h0l2,7.32.06.23a.15.15,0,0,1,0,.07.22.22,0,0,1,0,.13l0,0-3,4.11h0c-.43.32-.85.65-1.28,1l3.73-5.17.12-.16-.09-.3Z" fill="#44182c"/><path d="M135.36,192.15h0a.24.24,0,0,1-.24.22c-13.43-.64-26.37-4.85-38.89-8.92a.23.23,0,1,1,.14-.43c12.49,4.05,25.4,8.25,38.77,8.89A.24.24,0,0,1,135.36,192.15Z" fill="#44182c"/><path d="M164.45,54.08a.36.36,0,0,1-.27-.11L153.77,43.56a.39.39,0,0,1,0-.53.38.38,0,0,1,.54,0l10.41,10.41a.39.39,0,0,1,0,.53A.36.36,0,0,1,164.45,54.08Z" fill="#f7f0e7"/><path d="M159.25,56.24a.38.38,0,0,1-.38-.38V41.14a.38.38,0,1,1,.75,0V55.86A.38.38,0,0,1,159.25,56.24Z" fill="#f7f0e7"/><path d="M154,54.08a.36.36,0,0,1-.27-.11.39.39,0,0,1,0-.53L164.18,43a.38.38,0,0,1,.54,0,.39.39,0,0,1,0,.53L154.31,54A.36.36,0,0,1,154,54.08Z" fill="#f7f0e7"/><path d="M166.61,48.88H151.89a.38.38,0,0,1,0-.76h14.72a.38.38,0,0,1,0,.76Z" fill="#f7f0e7"/><path d="M164.62,134.61a.4.4,0,0,1-.27-.11L154,124.09a.37.37,0,1,1,.53-.53L164.89,134a.38.38,0,0,1,0,.54A.4.4,0,0,1,164.62,134.61Z" fill="#f7f0e7"/><path d="M159.42,136.76a.38.38,0,0,1-.38-.37V121.67a.38.38,0,0,1,.38-.38.37.37,0,0,1,.37.38v14.72A.37.37,0,0,1,159.42,136.76Z" fill="#f7f0e7"/><path d="M154.21,134.61A.38.38,0,0,1,154,134l10.4-10.4a.38.38,0,0,1,.54,0,.37.37,0,0,1,0,.53L154.48,134.5A.39.39,0,0,1,154.21,134.61Z" fill="#f7f0e7"/><path d="M166.78,129.4H152.06a.38.38,0,1,1,0-.75h14.72a.38.38,0,0,1,0,.75Z" fill="#f7f0e7"/><path d="M27.73,174.36a.39.39,0,0,1-.27-.11L17.05,163.84a.38.38,0,0,1,0-.54.4.4,0,0,1,.54,0L28,173.71a.38.38,0,0,1-.26.65Z" fill="#f7f0e7"/><path d="M22.52,176.51a.37.37,0,0,1-.37-.38V161.42a.37.37,0,0,1,.37-.38.38.38,0,0,1,.38.38v14.71A.38.38,0,0,1,22.52,176.51Z" fill="#f7f0e7"/><path d="M17.32,174.36a.4.4,0,0,1-.27-.11.38.38,0,0,1,0-.54L27.46,163.3a.39.39,0,0,1,.53,0,.38.38,0,0,1,0,.54l-10.4,10.41A.4.4,0,0,1,17.32,174.36Z" fill="#f7f0e7"/><path d="M29.88,169.15H15.16a.38.38,0,0,1,0-.75H29.88a.38.38,0,1,1,0,.75Z" fill="#f7f0e7"/><path d="M100.84,31.08a.38.38,0,0,1-.26-.11L90.17,20.56A.37.37,0,0,1,90.7,20l10.41,10.41a.37.37,0,0,1,0,.53A.39.39,0,0,1,100.84,31.08Z" fill="#f7f0e7"/><path d="M95.64,33.24a.38.38,0,0,1-.38-.38V18.14a.38.38,0,1,1,.76,0V32.86A.38.38,0,0,1,95.64,33.24Z" fill="#f7f0e7"/><path d="M90.43,31.08a.38.38,0,0,1-.26-.11.37.37,0,0,1,0-.53L100.58,20a.37.37,0,0,1,.53.53L90.7,31A.39.39,0,0,1,90.43,31.08Z" fill="#f7f0e7"/><path d="M103,25.88H88.28a.38.38,0,0,1,0-.76H103a.38.38,0,1,1,0,.76Z" fill="#f7f0e7"/></g></svg>