<svg xmlns="http://www.w3.org/2000/svg" viewBox="0 0 198.82 204.19"><g id="OBJECTS"><path d="M6.75,204.19a6,6,0,0,1-6-6V151.48c0-6.11-.19-12.48-.37-18.64-.85-29.07-1.74-59.13,14.88-85.4C30.69,23,57.36,5.75,86.61,1.19A98.53,98.53,0,0,1,101.84,0a93.08,93.08,0,0,1,33.8,6.22c37.2,14.42,63.18,52.39,63.18,92.33v99.64a6,6,0,0,1-6,6Z" fill="#fff"/><path d="M193.73,99V198.6H7.66V99A92.44,92.44,0,0,1,8.93,83.61c0-.27.07-.53.12-.8.11-.67.25-1.33.37-2,.06-.27.11-.53.16-.78A92.94,92.94,0,0,1,41.77,27h0l.1-.07a1.81,1.81,0,0,1,.3-.25c1.39-1.13,2.82-2.23,4.28-3.28l.32-.23q2-1.44,4.15-2.78c.15-.1.31-.21.47-.3a88.13,88.13,0,0,1,8.46-4.7A92,92,0,0,1,73.61,9.93c1.15-.36,2.3-.68,3.46-1,1.36-.35,2.73-.68,4.11-1q2.79-.6,5.64-1c1.51-.22,3-.41,4.56-.56l.83-.08,1.69-.14,2-.13c1.6-.07,3.2-.11,4.81-.11a92.91,92.91,0,0,1,31.64,5.52c.43.15.86.31,1.28.48s.55.2.82.31c.43.16.85.33,1.28.51A92.7,92.7,0,0,1,160,27.29c1,.8,1.92,1.63,2.86,2.48q.56.48,1.08,1c.41.37.81.75,1.21,1.13l1.31,1.28c1.19,1.19,2.34,2.4,3.46,3.66.6.66,1.19,1.34,1.76,2l.62.73c.65.79,1.29,1.59,1.92,2.39l.6.77c.6.8,1.19,1.6,1.77,2.42a.1.1,0,0,1,0,.05c.39.56.8,1.15,1.19,1.73,0,0,0,0,0,0l.48.72.39.59c1.11,1.71,2.16,3.46,3.15,5.23a0,0,0,0,1,0,0A92.56,92.56,0,0,1,193.73,99Z" fill="#bc606d"/><path d="M75.19,12.17,73.61,9.93c1.15-.36,2.3-.68,3.46-1,1.36-.35,2.73-.68,4.11-1a.91.91,0,0,1-.16.11l-3.34,2.34Z" fill="#fff"/><path d="M96.88,15.38a11.65,11.65,0,0,1-4,7.56,10.17,10.17,0,0,1-1,.74l-3.55,2.46L84.23,29l-4.59,3.16-4.33,3L70.73,38.3l-4.33,3-4.58,3.18-2.36,1.63-2.56-3.7,3-2,4.59-3.17,4.33-3L73.37,31l4.33-3,4.58-3.17,3.88-2.68L89.33,20a7.46,7.46,0,0,0,1.29-1.14,7,7,0,0,0,1.63-3.12,7.15,7.15,0,0,0-.82-5.44,1.18,1.18,0,0,1-.11-.19,7.7,7.7,0,0,0-1-1.28,7.31,7.31,0,0,0-3.45-1.88c1.51-.22,3-.41,4.56-.56l.83-.08,1.69-.14a10.3,10.3,0,0,1,1.19,1.53,12.72,12.72,0,0,1,1.13,2.24A11.71,11.71,0,0,1,96.88,15.38Z" fill="#fff"/><polygon points="79.64 32.15 77.7 28.03 82.28 24.86 84.23 28.98 79.64 32.15" fill="#ffc97d"/><path d="M88.33,26.14l-2.17-4L89.33,20a7.78,7.78,0,0,0,1.28-1.13l2.23,4.08a10.17,10.17,0,0,1-1,.74Z" fill="#ffc97d"/><path d="M96.88,15.38l-4.63.35a7.15,7.15,0,0,0-.83-5.44l4.8-.37A11.79,11.79,0,0,1,96.88,15.38Z" fill="#ffc97d"/><path d="M92.21,6.3,90.27,8.82a7.31,7.31,0,0,0-3.45-1.88c1.51-.22,3-.41,4.56-.56Z" fill="#ffc97d"/><path d="M81.18,8a.91.91,0,0,1-.16.11l-3.34,2.34-.61-1.48C78.43,8.59,79.8,8.26,81.18,8Z" fill="#ffc97d"/><polygon points="70.73 38.3 68.79 34.19 73.37 31.02 75.31 35.14 70.73 38.3" fill="#ffc97d"/><polygon points="61.83 44.47 59.88 40.35 64.47 37.19 66.41 41.3 61.83 44.47" fill="#ffc97d"/><polygon points="138.61 94.61 116.67 103.12 116.66 103.12 113.45 104.37 100.89 109.25 100.08 109.56 75.19 119.22 52.9 127.88 46.22 113.43 41.68 103.59 40.23 100.46 37.78 95.18 37.43 94.4 29.96 78.24 25.81 69.27 71.97 49.33 72.78 48.99 113.05 31.59 116.72 40.63 124.34 59.41 124.67 60.21 125.88 63.19 127.17 66.39 138.61 94.61" fill="#fe99bf"/><path d="M114.5,61.72a.32.32,0,0,1-.22-.1l-8.93-8.92a.34.34,0,0,1,0-.46.32.32,0,0,1,.46,0l8.92,8.92a.32.32,0,0,1,0,.46A.33.33,0,0,1,114.5,61.72Z" fill="#ffc97d"/><path d="M110,63.56a.32.32,0,0,1-.32-.32V50.62a.32.32,0,0,1,.32-.32.32.32,0,0,1,.33.32V63.24A.32.32,0,0,1,110,63.56Z" fill="#ffc97d"/><path d="M105.58,61.72a.37.37,0,0,1-.23-.1.34.34,0,0,1,0-.46l8.93-8.92a.31.31,0,0,1,.45,0,.32.32,0,0,1,0,.46l-8.92,8.92A.34.34,0,0,1,105.58,61.72Z" fill="#ffc97d"/><path d="M116.35,57.25H103.73a.32.32,0,1,1,0-.64h12.62a.32.32,0,1,1,0,.64Z" fill="#ffc97d"/><path d="M127.28,89.33a.35.35,0,0,1-.23-.09l-8.92-8.93a.33.33,0,0,1,.46-.46l8.92,8.93a.32.32,0,0,1,0,.46A.32.32,0,0,1,127.28,89.33Z" fill="#ffc97d"/><path d="M122.82,91.18a.32.32,0,0,1-.32-.33V78.24a.32.32,0,0,1,.32-.33.33.33,0,0,1,.33.33V90.85A.33.33,0,0,1,122.82,91.18Z" fill="#ffc97d"/><path d="M118.36,89.33a.33.33,0,0,1-.23-.09.34.34,0,0,1,0-.46l8.92-8.93a.34.34,0,0,1,.46,0,.32.32,0,0,1,0,.46l-8.92,8.93A.33.33,0,0,1,118.36,89.33Z" fill="#ffc97d"/><path d="M129.13,84.87H116.51a.33.33,0,0,1,0-.65h12.62a.33.33,0,1,1,0,.65Z" fill="#ffc97d"/><path d="M99.52,83.16a.35.35,0,0,1-.23-.09l-8.92-8.93a.31.31,0,0,1,0-.45.32.32,0,0,1,.46,0l8.92,8.92a.32.32,0,0,1,0,.46A.33.33,0,0,1,99.52,83.16Z" fill="#ffc97d"/><path d="M95.06,85a.32.32,0,0,1-.32-.32V72.07a.32.32,0,1,1,.64,0V84.69A.32.32,0,0,1,95.06,85Z" fill="#ffc97d"/><path d="M90.6,83.16a.33.33,0,0,1-.23-.09.32.32,0,0,1,0-.46l8.92-8.92a.32.32,0,0,1,.46,0,.31.31,0,0,1,0,.45l-8.92,8.93A.33.33,0,0,1,90.6,83.16Z" fill="#ffc97d"/><path d="M101.37,78.7H88.75a.33.33,0,0,1,0-.65h12.62a.33.33,0,0,1,0,.65Z" fill="#ffc97d"/><path d="M93.79,108.13a.35.35,0,0,1-.23-.09l-8.92-8.93a.33.33,0,0,1,0-.45.32.32,0,0,1,.46,0L94,107.58a.32.32,0,0,1,0,.46A.32.32,0,0,1,93.79,108.13Z" fill="#ffc97d"/><path d="M89.33,110a.32.32,0,0,1-.32-.32V97a.32.32,0,0,1,.32-.33.33.33,0,0,1,.33.33v12.62A.32.32,0,0,1,89.33,110Z" fill="#ffc97d"/><path d="M84.87,108.13a.33.33,0,0,1-.23-.09.34.34,0,0,1,0-.46l8.92-8.92a.32.32,0,0,1,.46,0,.31.31,0,0,1,0,.45L85.1,108A.33.33,0,0,1,84.87,108.13Z" fill="#ffc97d"/><path d="M95.64,103.67H83a.32.32,0,0,1-.32-.32A.32.32,0,0,1,83,103H95.64a.33.33,0,0,1,.33.33A.32.32,0,0,1,95.64,103.67Z" fill="#ffc97d"/><path d="M47.38,81.69a.32.32,0,0,1-.23-.09l-8.93-8.93a.33.33,0,0,1,0-.45.32.32,0,0,1,.46,0l8.93,8.92a.34.34,0,0,1,0,.46A.35.35,0,0,1,47.38,81.69Z" fill="#ffc97d"/><path d="M42.92,83.54a.32.32,0,0,1-.33-.32V70.6a.33.33,0,1,1,.65,0V83.22A.32.32,0,0,1,42.92,83.54Z" fill="#ffc97d"/><path d="M38.45,81.69a.35.35,0,0,1-.23-.09.34.34,0,0,1,0-.46l8.93-8.92a.32.32,0,0,1,.46,0,.33.33,0,0,1,0,.45L38.68,81.6A.32.32,0,0,1,38.45,81.69Z" fill="#ffc97d"/><path d="M49.23,77.23H36.61a.32.32,0,0,1-.33-.32.33.33,0,0,1,.33-.33H49.23a.33.33,0,0,1,.32.33A.32.32,0,0,1,49.23,77.23Z" fill="#ffc97d"/><path d="M71.25,89.11A.32.32,0,0,1,71,89l-8.93-8.93a.33.33,0,0,1,.46-.46l8.93,8.93a.34.34,0,0,1,0,.46A.35.35,0,0,1,71.25,89.11Z" fill="#ffc97d"/><path d="M66.78,91a.33.33,0,0,1-.32-.33V78a.33.33,0,1,1,.65,0V90.63A.33.33,0,0,1,66.78,91Z" fill="#ffc97d"/><path d="M62.32,89.11a.35.35,0,0,1-.23-.09.34.34,0,0,1,0-.46L71,79.63a.33.33,0,0,1,.46.46L62.55,89A.32.32,0,0,1,62.32,89.11Z" fill="#ffc97d"/><path d="M73.09,84.65H60.48a.33.33,0,1,1,0-.65H73.09a.33.33,0,1,1,0,.65Z" fill="#ffc97d"/><path d="M63.61,112.91a.34.34,0,0,1-.23-.1l-8.92-8.92a.32.32,0,0,1,0-.46.31.31,0,0,1,.45,0l8.93,8.92a.34.34,0,0,1,0,.46A.37.37,0,0,1,63.61,112.91Z" fill="#ffc97d"/><path d="M59.15,114.75a.32.32,0,0,1-.33-.32V101.81a.32.32,0,0,1,.33-.32.32.32,0,0,1,.32.32v12.62A.32.32,0,0,1,59.15,114.75Z" fill="#ffc97d"/><path d="M54.69,112.91a.33.33,0,0,1-.23-.1.32.32,0,0,1,0-.46l8.92-8.92a.32.32,0,0,1,.46,0,.34.34,0,0,1,0,.46l-8.93,8.92A.32.32,0,0,1,54.69,112.91Z" fill="#ffc97d"/><path d="M65.46,108.44H52.84a.32.32,0,1,1,0-.64H65.46a.32.32,0,1,1,0,.64Z" fill="#ffc97d"/><path d="M83.36,65.53a.31.31,0,0,1-.22-.09l-8.93-8.92a.34.34,0,0,1,0-.46.32.32,0,0,1,.46,0L83.59,65a.32.32,0,0,1,0,.46A.32.32,0,0,1,83.36,65.53Z" fill="#ffc97d"/><path d="M78.9,67.38a.32.32,0,0,1-.32-.32V54.44a.32.32,0,0,1,.32-.32.32.32,0,0,1,.33.32V67.06A.32.32,0,0,1,78.9,67.38Z" fill="#ffc97d"/><path d="M74.44,65.53a.35.35,0,0,1-.23-.09.34.34,0,0,1,0-.46l8.93-8.92a.31.31,0,0,1,.45,0,.32.32,0,0,1,0,.46l-8.92,8.92A.33.33,0,0,1,74.44,65.53Z" fill="#ffc97d"/><path d="M85.21,61.07H72.59a.32.32,0,1,1,0-.64H85.21a.32.32,0,1,1,0,.64Z" fill="#ffc97d"/><polygon points="116.72 40.63 96.71 49.3 95.26 49.93 86.92 53.55 85.43 54.19 79.22 56.88 78.58 57.16 76.93 57.88 76.63 58.02 76.13 58.22 75.99 58.29 43.24 72.49 42.59 72.76 40.24 73.78 39.6 74.06 29.96 78.24 25.81 69.27 71.97 49.33 71.97 49.33 72.78 48.99 113.05 31.59 116.72 40.63" fill="#44182c"/><polygon points="100.89 109.25 100.08 109.56 84.62 76.42 84.58 76.34 84.24 75.62 84.24 75.61 84.22 75.56 84.21 75.56 79.22 64.86 78.58 63.48 77.95 62.15 77.67 61.52 77.45 61.07 77.15 60.42 76.31 58.61 76.13 58.22 75.5 56.89 71.97 49.33 71.97 49.33 72.78 48.99 76.93 57.88 77.3 58.69 78.1 60.41 78.11 60.42 78.32 60.87 78.41 61.07 78.58 61.42 78.61 61.49 79.22 62.81 84.77 74.7 84.77 74.7 84.86 74.89 84.99 75.16 84.99 75.17 85.02 75.24 85.39 76.02 85.58 76.42 85.66 76.61 85.69 76.66 86.25 77.86 100.89 109.25" fill="#f7f0e7"/><polygon points="124.67 60.21 95.37 72 94.74 72.25 90.93 73.79 90.3 74.04 87.45 75.19 86.86 75.42 86.1 75.73 85.94 75.8 85.39 76.02 84.92 76.21 84.58 76.34 84.54 76.36 68.91 82.65 67.38 83.27 67.11 83.38 66.53 83.61 66.46 83.64 65.87 83.87 65.56 84 63.96 84.65 37.78 95.18 37.43 94.4 61.65 84.65 63.26 84 65.22 83.21 65.86 82.95 66.46 82.71 67.11 82.45 68.94 81.71 70.46 81.1 84.21 75.56 84.22 75.56 84.25 75.55 84.77 75.33 85.02 75.24 85.79 74.93 85.8 74.92 85.81 74.92 86.21 74.76 87.6 74.2 124.34 59.41 124.67 60.21" fill="#f7f0e7"/><rect x="78.24" y="102.54" width="93.86" height="60.16" fill="#a7cbcc"/><polygon points="95.28 102.54 78.24 110.15 78.24 109.44 93.69 102.54 95.28 102.54" fill="#f7f0e7"/><polygon points="112.64 102.54 78.24 117.91 78.24 117.19 111.05 102.54 112.64 102.54" fill="#f7f0e7"/><polygon points="130.01 102.54 129.59 102.73 78.24 125.65 78.24 124.96 128.42 102.54 130.01 102.54" fill="#f7f0e7"/><polygon points="147.36 102.54 78.24 133.41 78.24 132.71 145.78 102.54 147.36 102.54" fill="#f7f0e7"/><polygon points="164.73 102.54 78.24 141.17 78.24 140.46 163.15 102.54 164.73 102.54" fill="#f7f0e7"/><polygon points="172.1 106.29 172.1 107 78.24 148.93 78.24 148.21 172.1 106.29" fill="#f7f0e7"/><polygon points="172.1 114.05 172.1 114.75 78.24 156.68 78.24 155.98 172.1 114.05" fill="#f7f0e7"/><polygon points="172.1 121.81 172.1 122.51 82.17 162.69 80.56 162.69 172.1 121.81" fill="#f7f0e7"/><polygon points="172.1 129.56 172.1 130.27 99.52 162.69 97.92 162.69 172.1 129.56" fill="#f7f0e7"/><polygon points="172.1 137.31 172.1 138.03 116.88 162.69 115.3 162.69 172.1 137.31" fill="#f7f0e7"/><polygon points="172.1 145.07 172.1 145.78 134.24 162.69 132.66 162.69 172.1 145.07" fill="#f7f0e7"/><polygon points="172.1 152.83 172.1 153.54 151.61 162.69 150.02 162.69 172.1 152.83" fill="#f7f0e7"/><rect x="159.55" y="102.54" width="12.56" height="60.16" fill="#44182c"/><rect x="129.59" y="102.54" width="0.86" height="60.16" fill="#fff"/><rect x="78.24" y="134.35" width="93.86" height="0.86" fill="#fff"/><path d="M130.36,135a.57.57,0,0,1-.41.15,1.18,1.18,0,0,1-.18,0l-.12,0-.25-.09-.48-.17-1-.34-1.93-.69-3.86-1.45c-2.54-1-5.09-2.08-7.57-3.33a40.15,40.15,0,0,1-3.66-2.06,18.7,18.7,0,0,1-3.38-2.71,8.65,8.65,0,0,1-2.37-4.08,5.57,5.57,0,0,1,0-2.61,6.66,6.66,0,0,1,1-2.31,5.52,5.52,0,0,1,.84-1l.51-.45a4.08,4.08,0,0,1,.61-.36,4.45,4.45,0,0,1,1.35-.49,6.41,6.41,0,0,1,1.38-.06,9.51,9.51,0,0,1,4.37,1.82,25.6,25.6,0,0,1,3.27,2.82,41.2,41.2,0,0,1,2.8,3.13,73.55,73.55,0,0,1,4.86,6.73c.74,1.16,1.46,2.34,2.15,3.52l1,1.79.49.91.24.46.12.23.06.11,0,0a.73.73,0,0,1,.07.17A.62.62,0,0,1,130.36,135Zm-.68-.53a.33.33,0,0,0-.12.29.5.5,0,0,0,0,.12v0l-.08-.1-.14-.21-.3-.41-.6-.83-1.19-1.66c-.81-1.1-1.63-2.18-2.47-3.25-1.65-2.14-3.36-4.24-5.17-6.23a33.36,33.36,0,0,0-5.8-5.28,7.34,7.34,0,0,0-3.11-1.31,2.33,2.33,0,0,0-2.21,1.23,3.76,3.76,0,0,0-.72,2.84,6.9,6.9,0,0,0,1.54,3,25.58,25.58,0,0,0,6,5.06,52.32,52.32,0,0,0,7.18,3.8c1.24.55,2.5,1.07,3.78,1.54.64.23,1.28.47,1.92.68l1,.31.49.15.24.08.13,0s.09,0-.06,0A.32.32,0,0,0,129.68,134.44Z" fill="#fff"/><path d="M130.51,134.44a.3.3,0,0,0-.28-.18c-.15,0-.07,0-.06,0l.12,0,.25-.08L131,134l1-.31c.65-.21,1.29-.45,1.92-.68,1.28-.47,2.54-1,3.78-1.54a52.43,52.43,0,0,0,7.19-3.8,26,26,0,0,0,6-5.06,7.12,7.12,0,0,0,1.54-3,3.8,3.8,0,0,0-.72-2.84,2.33,2.33,0,0,0-2.21-1.23,7.34,7.34,0,0,0-3.11,1.31,33.41,33.41,0,0,0-5.81,5.28c-1.8,2-3.51,4.09-5.17,6.23-.84,1.07-1.66,2.15-2.46,3.25l-1.2,1.66-.6.83-.29.41-.15.21-.07.1,0,0a.4.4,0,0,0,0-.12A.36.36,0,0,0,130.51,134.44Zm-.67.53a.56.56,0,0,1-.06-.4.46.46,0,0,1,.07-.17v0l.06-.11L130,134l.24-.46.49-.91,1-1.79c.7-1.18,1.41-2.36,2.15-3.52a75.51,75.51,0,0,1,4.86-6.73,41.34,41.34,0,0,1,2.81-3.13,24.93,24.93,0,0,1,3.27-2.82,9.46,9.46,0,0,1,4.37-1.82,6.44,6.44,0,0,1,1.38.06,4.55,4.55,0,0,1,1.35.49,4,4,0,0,1,.6.36l.52.45a5.52,5.52,0,0,1,.84,1,6.83,6.83,0,0,1,1,2.31,7.12,7.12,0,0,1,.18,1.31,9.4,9.4,0,0,1-.14,1.3,8.82,8.82,0,0,1-2.37,4.08,18.76,18.76,0,0,1-3.39,2.71,38.86,38.86,0,0,1-3.66,2.06c-2.48,1.25-5,2.31-7.57,3.33l-3.85,1.45-1.94.69-1,.34-.49.17-.24.09-.12,0s0,0-.19,0A.56.56,0,0,1,129.84,135Z" fill="#fff"/><path d="M84.73,76.22a.6.6,0,0,1-.33-.29c-.07-.18,0-.14-.05-.17l0-.13,0-.25-.09-.51-.18-1-.35-2L83,67.76c-.36-2.72-.69-5.46-.82-8.23a36.78,36.78,0,0,1,0-4.2,17.77,17.77,0,0,1,.69-4.28A8.71,8.71,0,0,1,85.29,47a7.39,7.39,0,0,1,1.07-.76,6.65,6.65,0,0,1,3.75-.72,5.38,5.38,0,0,1,1.27.25L92,46a5.54,5.54,0,0,1,.62.36,4.34,4.34,0,0,1,1.08.93,6.05,6.05,0,0,1,.74,1.17,9.44,9.44,0,0,1,.55,4.7,24.11,24.11,0,0,1-.84,4.24,41.38,41.38,0,0,1-1.35,4,74.62,74.62,0,0,1-3.47,7.54q-1,1.81-2,3.6l-1,1.78-.56.87-.28.43-.14.22-.07.11,0,0a.54.54,0,0,1-.11.14A.58.58,0,0,1,84.73,76.22Zm.13-.85a.32.32,0,0,0-.31,0l-.09.09,0,0,0-.11.11-.23.22-.46.42-.93.86-1.85Q87,70,87.76,68.13c1.06-2.49,2-5,2.89-7.56a33.3,33.3,0,0,0,1.74-7.66A7.4,7.4,0,0,0,92,49.56a2.37,2.37,0,0,0-2.16-1.32A3.78,3.78,0,0,0,87,49a6.94,6.94,0,0,0-1.87,2.82,25.67,25.67,0,0,0-1.46,7.7,52.5,52.5,0,0,0,.22,8.12c.13,1.36.3,2.71.52,4,.11.67.22,1.34.35,2l.2,1,.11.5.06.24,0,.13s0,.09,0,0A.31.31,0,0,0,84.86,75.37Z" fill="#fff"/><path d="M85.27,76.09a.34.34,0,0,0,0-.34c-.09-.12,0,0,0,0l.09.09.18.18.37.35.75.69c.5.46,1,.9,1.54,1.34,1,.88,2.11,1.72,3.2,2.54a52.85,52.85,0,0,0,6.83,4.39A26.06,26.06,0,0,0,105.57,88a7,7,0,0,0,3.38-.14,3.81,3.81,0,0,0,2.12-2,2.33,2.33,0,0,0,0-2.53,7.3,7.3,0,0,0-2.67-2.06,33.08,33.08,0,0,0-7.45-2.47c-2.61-.59-5.28-1.05-8-1.44-1.34-.2-2.69-.39-4-.55l-2-.22-1-.12-.51,0-.25,0H85l.12,0A.32.32,0,0,0,85.27,76.09Zm-.8-.33a.62.62,0,0,1,.33-.24l.18,0h.42l.52,0,1,0,2.06,0c1.38,0,2.75.07,4.13.14a74.64,74.64,0,0,1,8.25.93,37.15,37.15,0,0,1,4.1.91,23.83,23.83,0,0,1,4.06,1.46,9.43,9.43,0,0,1,3.74,2.91,5.67,5.67,0,0,1,.62,1.23,4.31,4.31,0,0,1,.24,1.41,4.15,4.15,0,0,1,0,.71l-.14.67a5.19,5.19,0,0,1-.44,1.22,6.9,6.9,0,0,1-1.5,2,7.55,7.55,0,0,1-1.06.8,7.46,7.46,0,0,1-1.2.51,8.76,8.76,0,0,1-4.72-.05,18.78,18.78,0,0,1-4-1.62,38.09,38.09,0,0,1-3.59-2.18c-2.31-1.55-4.48-3.24-6.62-5L87.68,79l-1.56-1.34-.77-.68L85,76.59l-.19-.18-.1-.08s0,0-.12-.14A.64.64,0,0,1,84.47,75.76Z" fill="#fff"/><path d="M164,30.76a6.15,6.15,0,0,1-5.13-1.43l0,0,1.21-2c1,.8,1.92,1.63,2.86,2.48Q163.43,30.25,164,30.76Z" fill="#f56a58"/><path d="M181.88,53.51v.34c0,.13,0,.26,0,.4s0,.26,0,.39c0,.52-.09,1-.16,1.58,0,.27-.08.54-.13.81-.11.6-.24,1.22-.39,1.79a24.16,24.16,0,0,1-1.3,3.73c-.16.35-.33.71-.51,1.05s-.22.42-.34.63c0,0,0,.07-.06.11a.61.61,0,0,1-.07.14l-.09.14c-.16.3-.34.58-.52.87h0c-.37.57-.75,1.13-1.15,1.66s-.84,1-1.29,1.55h0c-.23.24-.45.48-.69.72-.47.47-1,.93-1.47,1.36-.1.1-.2.18-.3.27l-.32.25-.63.49c-.14.11-.26.2-.4.29l-.39.28c-.4.27-.8.53-1.22.77a4.25,4.25,0,0,1-.46.27,4.31,4.31,0,0,1-.47.26h0c-.26.16-.53.29-.81.43h0a4.53,4.53,0,0,1-.59.28c-.4.18-.8.36-1.21.52a6.5,6.5,0,0,1-.62.22c-.41.15-.84.29-1.26.42-.64.18-1.29.34-1.93.48-.44.08-.87.16-1.32.22h0c-.65.1-1.33.17-2,.21a24.59,24.59,0,0,1-3.43,0c-.7-.07-1.39-.16-2.09-.28a24.27,24.27,0,0,1-4.44-1.23,22.52,22.52,0,0,1-3.05-1.46,19.71,19.71,0,0,1-1.87-1.18q-.47-.32-.9-.66c-.44-.34-.88-.7-1.29-1.07s-.79-.73-1.17-1.12a23.66,23.66,0,0,1-1.85-2.14c-.05,0-.09-.12-.14-.18l-.14-.18c-.19-.24-.37-.5-.54-.76a19.7,19.7,0,0,1-1.14-1.86c-.12-.22-.24-.43-.35-.65s-.23-.47-.34-.71h0c-.25-.56-.49-1.11-.71-1.68a23.51,23.51,0,0,1-1.5-9.51,25.16,25.16,0,0,1,.34-2.95,23.56,23.56,0,0,1,3.28-8.47,24,24,0,0,1,3.34-4.15c.18-.18.37-.37.56-.54a22.66,22.66,0,0,1,2.55-2c.23-.17.47-.32.71-.47a23.68,23.68,0,0,1,16.91-3.42l.44.09q.56.48,1.08,1c.41.37.81.75,1.21,1.13l1.31,1.28c1.19,1.19,2.34,2.4,3.46,3.66.6.66,1.19,1.34,1.76,2l.62.73c.65.79,1.29,1.59,1.92,2.39l.6.77c.6.8,1.19,1.6,1.77,2.42a.1.1,0,0,1,0,.05c.39.56.8,1.15,1.19,1.73,0,0,0,0,0,0l.48.72.39.59C179.84,50,180.89,51.74,181.88,53.51Z" fill="#ffc97d"/><path d="M171.69,38.85l.62.73A75,75,0,0,1,160,38.19a77.27,77.27,0,0,1-15.18-4.62c.23-.17.47-.32.71-.47A77.09,77.09,0,0,0,171.69,38.85Z" fill="#f7f0e7"/><path d="M169.47,73.68c-.27.15-.54.29-.83.43a99,99,0,0,0-29.3-7.2c-.2-.25-.37-.5-.55-.76A99.45,99.45,0,0,1,169.47,73.68Z" fill="#f7f0e7"/><path d="M174.83,42.74a159.87,159.87,0,0,1-18.7-2.18l-.12,0a65.26,65.26,0,0,1-14.31-4.37c.18-.18.37-.37.56-.54a64.82,64.82,0,0,0,13.89,4.21l.11,0a151.77,151.77,0,0,0,18,2.12Z" fill="#f7f0e7"/><path d="M173.67,70.81l-.63.51a86,86,0,0,0-35.74-7.68c-.12-.23-.23-.47-.35-.72A87,87,0,0,1,173.67,70.81Z" fill="#f7f0e7"/><path d="M181.88,53.51v.34c0,.13,0,.26,0,.4s0,.26,0,.39c0,.52-.09,1-.16,1.58,0,.27-.08.54-.13.81-.11.6-.24,1.22-.39,1.79a24.16,24.16,0,0,1-1.3,3.73c-.16.35-.33.71-.51,1.05s-.22.42-.34.63c0,0,0,.07-.06.11a.61.61,0,0,1-.07.14l-.09.14c-2.09-.5-4.2-1-6.3-1.46A376,376,0,0,0,135,56.76a23.31,23.31,0,0,1-.29-5,25.16,25.16,0,0,1,.34-2.95,23.56,23.56,0,0,1,3.28-8.47,163.21,163.21,0,0,0,40,7.38l.39.59C179.84,50,180.89,51.74,181.88,53.51Z" fill="#f7f0e7"/><polygon points="153.75 51.69 160.33 48.97 165.41 53.73 158.81 56.03 153.75 51.69" fill="#ffc97d"/><polygon points="165.61 53.68 172.19 50.96 177.27 55.72 170.68 58.02 165.61 53.68" fill="#ffc97d"/><path d="M181.15,58.82l-3.68-3.16,4.41-1.81a27.06,27.06,0,0,1-.34,3.18C181.43,57.63,181.3,58.23,181.15,58.82Z" fill="#ffc97d"/><polygon points="141.72 49.58 148.31 46.86 153.39 51.62 146.79 53.92 141.72 49.58" fill="#ffc97d"/><path d="M141.46,49.53l-6.6,2.3-.12-.1a27.49,27.49,0,0,1,.34-2.95,22.71,22.71,0,0,1,1-3.91l.24-.1Z" fill="#ffc97d"/><path d="M181.89,53.52c0,.11,0,.22,0,.33s0,.26,0,.4,0,.26,0,.39c0,.52-.09,1-.16,1.58,0,.27-.08.54-.13.81-.11.6-.24,1.22-.39,1.79a24.16,24.16,0,0,1-1.3,3.73c-.16.35-.33.71-.51,1.05s-.22.42-.34.63c0,0,0,.07-.06.11a.61.61,0,0,1-.07.14s-.05.1-.08.14c-.17.3-.34.58-.53.87h0c-.36.57-.74,1.13-1.15,1.66s-.84,1-1.29,1.55h0c-.23.24-.45.48-.69.72a18.8,18.8,0,0,1-1.46,1.37l-.31.26-.32.26-.63.48c-.14.11-.26.2-.4.29l-.39.28c-.4.27-.8.53-1.22.77a4.25,4.25,0,0,1-.46.27l-.47.26h0c-.26.16-.53.29-.81.43h0a4.53,4.53,0,0,1-.59.28c-.4.18-.8.36-1.21.52a6.5,6.5,0,0,1-.62.22c-.41.15-.84.29-1.26.42-.64.18-1.29.34-1.93.48-.44.08-.87.16-1.32.22h0c-.65.1-1.33.17-2,.21a24.59,24.59,0,0,1-3.43,0c-.7-.06-1.39-.16-2.09-.27a24.06,24.06,0,0,1-4.44-1.24,22.52,22.52,0,0,1-3.05-1.46,19.71,19.71,0,0,1-1.87-1.18q-.47-.32-.9-.66c-.44-.34-.88-.7-1.29-1.07s-.79-.73-1.17-1.12a23.66,23.66,0,0,1-1.85-2.14c-.05,0-.09-.12-.14-.18l-.13-.18c-.19-.24-.37-.5-.55-.76a19.7,19.7,0,0,1-1.14-1.86l-.34-.65c-.12-.23-.24-.48-.35-.71h0c-.25-.56-.49-1.11-.71-1.68.43.58.9,1.14,1.38,1.68.22.25.45.5.69.73a23.05,23.05,0,0,0,3.22,2.77h0c.43.31.85.59,1.31.87h0a23.7,23.7,0,0,0,15.58,3.23c.54-.08,1.07-.17,1.59-.28a23.43,23.43,0,0,0,5.47-1.88l0,0a8.46,8.46,0,0,0,.79-.41l.08-.05a22.93,22.93,0,0,0,3.49-2.31c.21-.16.42-.34.63-.52a20.49,20.49,0,0,0,1.95-1.89,22.62,22.62,0,0,0,3.16-4.29,23.91,23.91,0,0,0,1.49-3.1.5.5,0,0,0,.05-.13h0a24.62,24.62,0,0,0,.82-2.56c.16-.58.29-1.18.4-1.79a25.71,25.71,0,0,0,.33-3c1.11,1.71,2.16,3.46,3.15,5.23A0,0,0,0,1,181.89,53.52Z" fill="#44182c"/><path d="M87.74,141.34c-11.24-13-29,7.21-29.62,7.92-1.77-2.45-16.84-22.51-28.95-11.36C17.48,148.67,48.7,184.32,54.6,190.85a1.12,1.12,0,0,0,1.57.08C62.1,185.65,97.79,153,87.74,141.34Z" fill="#f56a58"/><path d="M82.18,140A10.52,10.52,0,0,1,86,142.84c6.58,7.64-14.41,31.23-30.47,45.58-12.46-13.9-33-41.23-24.79-48.82,3.21-2.95,6.85-3.5,11.15-1.7,7.1,3,13.21,11.12,14.36,12.72a2.31,2.31,0,0,0,1,.77,2.17,2.17,0,0,0,.8.18,2.28,2.28,0,0,0,1.85-.79C60,150.63,72.82,136,82.18,140m.29-.71c-9.87-4.15-23.06,10.88-23.19,11a1.53,1.53,0,0,1-1.23.53,1.41,1.41,0,0,1-.53-.12,1.47,1.47,0,0,1-.65-.51c-1.18-1.63-7.4-9.91-14.69-13-4.61-1.93-8.52-1.33-12,1.85-8.84,8.14,12.1,35.93,25.25,50.47,12.33-10.93,39-38,31.11-47.17a11.18,11.18,0,0,0-4.1-3.1Z" fill="#f7f0e7"/><path d="M58.34,149.68a.29.29,0,0,1-.27-.2c-.39-1.1-9.56-27.11-4.65-36.13A5.44,5.44,0,0,1,57,110.48a3.54,3.54,0,0,1,3.58.89c5.92,6-1.67,36.78-2,38.09a.3.3,0,0,1-.26.22Zm-.19-38.76a4.37,4.37,0,0,0-1,.12,4.92,4.92,0,0,0-3.24,2.59c-4.27,7.85,2.74,29.9,4.36,34.72,1.26-5.36,7-31.38,1.92-36.57A2.76,2.76,0,0,0,58.15,110.92Z" fill="#44182c"/><path d="M56.7,173.49a.33.33,0,0,1-.29-.36l1.76-17.72a.33.33,0,0,1,.36-.29.32.32,0,0,1,.3.36L57.07,173.2A.34.34,0,0,1,56.7,173.49Z" fill="#f7f0e7"/><path d="M64.65,165.34l-14.13-1.41a.34.34,0,0,1-.3-.36.34.34,0,0,1,.37-.3l14.12,1.41a.33.33,0,0,1,.3.36A.33.33,0,0,1,64.65,165.34Z" fill="#f7f0e7"/><path d="M59.87,167.81a.33.33,0,0,1-.23-.14l-4.4-5.87a.32.32,0,0,1,.07-.46.33.33,0,0,1,.46.06l4.4,5.88a.33.33,0,0,1-.06.46A.42.42,0,0,1,59.87,167.81Z" fill="#f7f0e7"/><path d="M54.74,167.07a.34.34,0,0,1-.23-.13.34.34,0,0,1,.06-.47l5.88-4.39a.33.33,0,1,1,.39.53L55,167A.33.33,0,0,1,54.74,167.07Z" fill="#f7f0e7"/><path d="M36.62,121.09S17,104,9.93,106.8a.82.82,0,0,0-.46,1.11c.47,1,1.77,2.79,5.39,4.71,5.31,2.82,21.75,8.49,21.75,8.49" fill="#26575e"/><path d="M27.11,102.51s-1.42-23.82,6.54-23.34S27.11,102.51,27.11,102.51Z" fill="#26575e"/><path d="M44.59,134.46l-.06-.07c-15.6-24.23-18.7-30.95-22.08-47.91a.32.32,0,0,1,.25-.38.33.33,0,0,1,.38.25c3.36,16.86,6.44,23.55,22,47.7a.31.31,0,0,1-.09.44A.33.33,0,0,1,44.59,134.46Z" fill="#44182c"/><path d="M30.67,111.45l0,0c-3.63-3.94-7.45-7.51-11-10.78h0a.33.33,0,0,1,.44-.48c3.6,3.29,7.43,6.87,11.07,10.83a.32.32,0,0,1,0,.45A.32.32,0,0,1,30.67,111.45Z" fill="#44182c"/><path d="M35.93,120.63a.34.34,0,0,1-.1-.16,49.26,49.26,0,0,1-.11-20.41.33.33,0,0,1,.38-.25.32.32,0,0,1,.25.38,48.47,48.47,0,0,0,.11,20.14.32.32,0,0,1-.53.3Z" fill="#44182c"/><path d="M30.39,122.6a.33.33,0,0,1-.07-.38.33.33,0,0,1,.43-.15,99.07,99.07,0,0,1,10.38,5.77.32.32,0,0,1,.1.44.31.31,0,0,1-.44.1,97.08,97.08,0,0,0-10.32-5.73Z" fill="#44182c"/><path d="M23.36,88.17a3,3,0,1,0-.57-4.25A3,3,0,0,0,23.36,88.17Z" fill="#fff"/><path d="M16.69,91.47a3,3,0,1,0-.58-4.25A3,3,0,0,0,16.69,91.47Z" fill="#fff"/><path d="M18.91,82.51a3,3,0,1,0-.57-4.25A3,3,0,0,0,18.91,82.51Z" fill="#fff"/><path d="M34.4,102.23A3,3,0,1,0,33.83,98,3,3,0,0,0,34.4,102.23Z" fill="#fff"/><path d="M16.91,102.25A3,3,0,1,0,16.34,98,3,3,0,0,0,16.91,102.25Z" fill="#fff"/><path d="M28.75,125a3,3,0,1,0-.57-4.25A3,3,0,0,0,28.75,125Z" fill="#fff"/><path d="M37.56,122.07s2.78-22.22,8.4-19.31S37.56,122.07,37.56,122.07Z" fill="#26575e"/><path d="M158,182.1s23.92-10.37,29.77-5.55a.82.82,0,0,1,.1,1.19c-.74.78-2.53,2.12-6.55,2.86-5.93,1.09-23.31,1.52-23.31,1.52" fill="#26575e"/><path d="M172.73,167.26s8.55-22.28.81-24.23S172.73,167.26,172.73,167.26Z" fill="#26575e"/><path d="M146.42,192.44l.07-.05c22.2-18.38,27.18-23.85,35.53-39a.33.33,0,0,0-.13-.44.32.32,0,0,0-.44.13c-8.3,15.06-13.25,20.5-35.37,38.82a.32.32,0,0,0-.05.45A.34.34,0,0,0,146.42,192.44Z" fill="#44182c"/><path d="M166.63,174.71h0c4.64-2.66,9.37-4.91,13.78-6.95h0a.31.31,0,0,0,.15-.43.31.31,0,0,0-.42-.15c-4.43,2-9.16,4.3-13.83,7a.32.32,0,0,0-.12.44A.32.32,0,0,0,166.63,174.71Z" fill="#44182c"/><path d="M158.85,181.88a.47.47,0,0,0,.14-.14,49,49,0,0,0,6.27-19.41.32.32,0,1,0-.64-.07,48.33,48.33,0,0,1-6.19,19.16.32.32,0,0,0,.12.44A.32.32,0,0,0,158.85,181.88Z" fill="#44182c"/><path d="M163.53,185.42a.31.31,0,0,0,.18-.33.32.32,0,0,0-.36-.28,98,98,0,0,0-11.64,2.36.33.33,0,0,0-.23.4.31.31,0,0,0,.39.22,96.75,96.75,0,0,1,11.57-2.34Z" fill="#44182c"/><circle cx="179.61" cy="151.87" r="3.03" transform="translate(-34.26 249.78) rotate(-64.82)" fill="#fff"/><path d="M186,159.89a3,3,0,1,1,1.83-3.88A3,3,0,0,1,186,159.89Z" fill="#fff"/><path d="M186.58,150.67a3,3,0,1,1,1.83-3.88A3,3,0,0,1,186.58,150.67Z" fill="#fff"/><path d="M165.86,164.79a3,3,0,1,1,1.83-3.88A3,3,0,0,1,165.86,164.79Z" fill="#fff"/><path d="M182.53,170.09a3,3,0,1,1,1.83-3.88A3,3,0,0,1,182.53,170.09Z" fill="#fff"/><path d="M164.37,188.2a3,3,0,1,1,1.83-3.88A3,3,0,0,1,164.37,188.2Z" fill="#fff"/><path d="M156.85,182.75s4.07-22-2.17-20.94S156.85,182.75,156.85,182.75Z" fill="#26575e"/><path d="M45.12,48.72a.31.31,0,0,1-.22-.09l-8.71-8.71a.32.32,0,0,1,.45-.45l8.7,8.71a.32.32,0,0,1-.22.54Z" fill="#fff"/><path d="M40.77,50.53a.32.32,0,0,1-.32-.32V37.89a.32.32,0,0,1,.63,0V50.21A.31.31,0,0,1,40.77,50.53Z" fill="#fff"/><path d="M36.41,48.72a.31.31,0,0,1-.22-.09.33.33,0,0,1,0-.45l8.71-8.71a.31.31,0,0,1,.44,0,.31.31,0,0,1,0,.45l-8.7,8.71A.35.35,0,0,1,36.41,48.72Z" fill="#fff"/><path d="M46.92,44.37H34.61a.32.32,0,1,1,0-.63H46.92a.32.32,0,1,1,0,.63Z" fill="#fff"/><path d="M183.89,90a.31.31,0,0,1-.22-.09L175,81.21a.32.32,0,0,1,.45-.45l8.71,8.71a.33.33,0,0,1,0,.45A.32.32,0,0,1,183.89,90Z" fill="#fff"/><path d="M179.54,91.81a.32.32,0,0,1-.32-.31V79.18a.32.32,0,0,1,.64,0V91.5A.32.32,0,0,1,179.54,91.81Z" fill="#fff"/><path d="M175.19,90a.33.33,0,0,1-.23-.09.33.33,0,0,1,0-.45l8.71-8.71a.32.32,0,0,1,.45.45l-8.71,8.71A.31.31,0,0,1,175.19,90Z" fill="#fff"/><path d="M185.7,85.66H173.38a.32.32,0,0,1,0-.64H185.7a.32.32,0,0,1,0,.64Z" fill="#fff"/><path d="M125.12,183.2a.3.3,0,0,1-.23-.1l-8.71-8.71a.31.31,0,0,1,0-.44.31.31,0,0,1,.45,0l8.71,8.71a.31.31,0,0,1,0,.44A.28.28,0,0,1,125.12,183.2Z" fill="#fff"/><path d="M120.76,185a.31.31,0,0,1-.31-.32V172.37a.32.32,0,1,1,.63,0v12.31A.32.32,0,0,1,120.76,185Z" fill="#fff"/><path d="M116.41,183.2a.32.32,0,0,1-.23-.1.31.31,0,0,1,0-.44l8.71-8.71a.31.31,0,0,1,.45,0,.31.31,0,0,1,0,.44l-8.71,8.71A.28.28,0,0,1,116.41,183.2Z" fill="#fff"/><path d="M126.92,178.84H114.6a.32.32,0,0,1,0-.63h12.32a.32.32,0,1,1,0,.63Z" fill="#fff"/><path d="M31.64,183.2a.28.28,0,0,1-.22-.1l-8.71-8.71a.31.31,0,0,1,0-.44.31.31,0,0,1,.45,0l8.71,8.71a.31.31,0,0,1,0,.44A.3.3,0,0,1,31.64,183.2Z" fill="#fff"/><path d="M27.29,185a.32.32,0,0,1-.32-.32V172.37a.32.32,0,0,1,.64,0v12.31A.32.32,0,0,1,27.29,185Z" fill="#fff"/><path d="M22.94,183.2a.29.29,0,0,1-.23-.1.31.31,0,0,1,0-.44L31.42,174a.31.31,0,0,1,.45,0,.31.31,0,0,1,0,.44l-8.71,8.71A.28.28,0,0,1,22.94,183.2Z" fill="#fff"/><path d="M33.45,178.84H21.13a.32.32,0,0,1,0-.63H33.45a.32.32,0,0,1,0,.63Z" fill="#fff"/><path d="M20.91,143.69a2.37,2.37,0,1,1-2.37-2.37A2.36,2.36,0,0,1,20.91,143.69Z" fill="#fff"/><path d="M126,19.11a2.37,2.37,0,1,1-2.36-2.37A2.36,2.36,0,0,1,126,19.11Z" fill="#fff"/><path d="M158.39,87.06A2.37,2.37,0,1,1,156,84.7,2.36,2.36,0,0,1,158.39,87.06Z" fill="#fff"/><path d="M186.49,120.61a2.37,2.37,0,1,1-2.36-2.37A2.36,2.36,0,0,1,186.49,120.61Z" fill="#fff"/><circle cx="92.95" cy="183.4" r="2.37" fill="#fff"/></g></svg>