<svg xmlns="http://www.w3.org/2000/svg" viewBox="0 0 201.5 206.94"><g id="OBJECTS"><path d="M6.84,206.94a6.08,6.08,0,0,1-6.08-6.08V153.53c0-6.2-.19-12.66-.37-18.9C-.48,105.17-1.38,74.7,15.47,48.08,31.1,23.35,58.13,5.83,87.77,1.2A100.09,100.09,0,0,1,103.21,0a94.45,94.45,0,0,1,34.26,6.3c37.7,14.62,64,53.1,64,93.58v101a6.08,6.08,0,0,1-6.08,6.08Z" fill="#fff"/><path d="M195.5,100.31v101H6.93V154c0-34.43-5.63-71.55,13.76-102.2C35.63,28.14,61.29,11.94,88.8,7.64a90.55,90.55,0,0,1,46.56,4.76C170.93,26.19,195.5,62.19,195.5,100.31Z" fill="#a7cbcc"/><path d="M27.16,181.05l5,10.5c1,2.19,3.49,2.09,4.41-.19l4.21-10.31Z" fill="#44182c"/><path d="M99.61,181.05l5,10.5c1,2.19,3.48,2.09,4.41-.19l4.21-10.31Z" fill="#44182c"/><path d="M157.6,176l5,10.51c1,2.19,3.49,2.08,4.41-.19L171.2,176Z" fill="#44182c"/><path d="M178.12,170.1a8.83,8.83,0,0,1-7.9,8.66l-56.41,5.93-.76.08-.79.08c-.5.05-1,.08-1.49.08H31.82a8.59,8.59,0,0,1-8.16-5.87,2.3,2.3,0,0,1-.12-.34l-.41-.17-2.76-1.2a8.62,8.62,0,0,1-5.14-7.08c-1.2-12.2-3.43-42.73,3.22-51.59A6.42,6.42,0,0,1,19,118a5.86,5.86,0,0,1,.62-.6c6.83-5.59,37.24-7.29,41-7.49l.39,0s0-.13,0-.37c.34-5.68,5-74.23,26.17-75.67l.46,0a2.42,2.42,0,0,1,.26-.26h0c1.47-1.3,9.33-6.65,36.73-4.14,27.87,2.56,37.81,9.91,39.56,11.38l.29.27.38,0c1.74-.15,9.05-.38,11.78,6C179.35,53.15,178.46,142.79,178.12,170.1Z" fill="#f56a58"/><path d="M124.11,127.26h0l-54.25-2a.38.38,0,0,1-.27-.14.34.34,0,0,1-.09-.29c.37-3.13,9.16-76.84,17.9-91.24a.39.39,0,0,1,.53-.12A.37.37,0,0,1,88,34c-8.32,13.71-17,84.45-17.75,90.52l53.84,2a.38.38,0,0,1,0,.76Z" fill="#44182c"/><path d="M153.52,70.38c-.15.73-.3,1.47-.44,2.22-.73,3.66-1.4,7.42-2,11.17-.85,5.08-1.58,10.14-2.21,14.86-.5,3.78-.94,7.34-1.3,10.52-1,8.47-1.49,14.28-1.51,14.49a.39.39,0,0,1-.33.34l-1.83.25c-3.35.49-7.74,1.17-12.42,2-2,.36-4,.72-6,1.11-5.9,1.13-11.76,2.42-16.17,3.73h0l-1.7-.22-.76-.1-.16,0c-2.47-.34-4.92-.74-7.38-1.18a33.34,33.34,0,0,0-8.94-.81c-1.47.16-2.89.52-4.34.73l-.26,0a22.22,22.22,0,0,1-3.49.19,2.06,2.06,0,0,1-1.52-3.39c1.54-1.85,3.69-3.38,5.07-5.4,2.91-4.19,2.33-10.1,3.59-14.44.39-1.32.74-2.66,1.07-4,.12-.46.23-.94.34-1.4A91.9,91.9,0,0,0,93,73.39L92.3,63.6a1.08,1.08,0,0,1,.07-.62,1.05,1.05,0,0,1,.74-.4c3.62-.7,7.07,1.09,10.57,2.47a27.55,27.55,0,0,0,2.69.92,21.21,21.21,0,0,0,3.81.64,59,59,0,0,0,6.38.07q3.61-.09,7.25-.09c2.19,0,4.39,0,6.58.12A103.21,103.21,0,0,1,143.8,68a67.58,67.58,0,0,1,8,1.81,10.37,10.37,0,0,1,1,.31Z" fill="#ffc97d"/><path d="M115.08,77l-.1.1L103.75,87.94l-.65.62-.62-.89L94.21,75.84l9.47-10.79a24.39,24.39,0,0,0,2.69.92,20.36,20.36,0,0,0,3.81.64L115,76.69Z" fill="#f7f0e7"/><path d="M135.7,77.94l-.25.24L124.36,88.92l-.64.63-.62-.9L115,77.05l-.15-.22.13-.14,8.85-10.1c2.19,0,4.39,0,6.57.12l5.1,10.79Z" fill="#f7f0e7"/><path d="M153.08,72.6c-.73,3.66-1.4,7.42-2,11.17l-1,.94-5.37,5.2-.64.62-.62-.89-8-11.47-.25-.35.28-.33L143.8,68a67.58,67.58,0,0,1,8,1.81l.73,1.55Z" fill="#f7f0e7"/><path d="M110.88,103l-.1.09L99.15,114.37h0l0,0-.2.19-8.5-12.15c.12-.47.24-.94.35-1.41l11.72-13.38.74-.84.53,1.11,7,14.8Z" fill="#f7f0e7"/><polygon points="110.63 102.88 123.84 87.82 131.5 103.99 119.52 115.6 110.63 102.88" fill="#f7f0e7"/><path d="M148.86,98.63c-.5,3.78-.94,7.34-1.3,10.52l-.9.87-6.51,6.32-.09.08,0,0-.15.13-8.63-12.36-.25-.36.27-.31,12.19-13.91.74-.84.52,1.11,3.5,7.4Z" fill="#f7f0e7"/><path d="M106.8,130.53l-.09.09-.09.08c-2.47-.34-4.93-.74-7.38-1.17a32.54,32.54,0,0,0-8.94-.81c-1.47.15-2.9.51-4.35.73v0l13.15-15,.06-.06,7.53,15.89Z" fill="#f7f0e7"/><path d="M125.1,126.6l.33.72c-5.9,1.13-11.76,2.42-16.17,3.73h0l-1.7-.22-.76-.1-.07-.11-.15-.21.12-.15,13-14.82,0,0,0,0Z" fill="#f7f0e7"/><path d="M143.89,124.23c-3.35.49-7.74,1.17-12.42,2l.81-.91,7.76-8.85,0,0,.08-.09h0l3.4,7.18Z" fill="#f7f0e7"/><path d="M113.81,184.69l-.76.08c.08-7.93.44-45.72,0-48-.48-2.42-2.45-3.5-6.36-3.5-3.59,0-4.71,1.22-4.84,1.37l0,0a.37.37,0,0,1-.53.1.39.39,0,0,1-.15-.41.37.37,0,0,1,0-.11l0,0c.15-.2,1-1.19,3.49-1.55,0,0,0,0,0,0a13.89,13.89,0,0,1,2-.14c4.29,0,6.55,1.31,7.11,4.11C114.25,139,113.9,176.43,113.81,184.69Z" fill="#44182c"/><path d="M98.4,166.76h0l-75.9-2.24a.39.39,0,0,1-.37-.39.4.4,0,0,1,.39-.37L98.41,166a.38.38,0,0,1,.37.39A.37.37,0,0,1,98.4,166.76Z" fill="#44182c"/><path d="M23.54,179.1a.39.39,0,0,1-.38-.33c-2.28-15.71-1.88-35.46,3.38-41.11,6.6-7.1,38.88-12.48,43.05-13.15-2.32-10.74-8.65-14.25-8.71-14.29a.37.37,0,0,1-.16-.51.38.38,0,0,1,.51-.16c.28.15,6.86,3.78,9.19,15.2a.43.43,0,0,1-.06.29.44.44,0,0,1-.26.16c-.36.06-36.28,5.74-43,13-5.09,5.47-5.44,24.94-3.18,40.48a.38.38,0,0,1-.32.43Z" fill="#44182c"/><path d="M100.85,138.1a.38.38,0,0,1-.37.37h-.31l-72.06-1.19h-.44a.38.38,0,0,1-.36-.33s0,0,0,0-1.43-15.33-7.19-17.8a5.54,5.54,0,0,0-1.66-.44A6.42,6.42,0,0,1,19,118a6.22,6.22,0,0,1,1.37.44c5.66,2.41,7.32,15.29,7.62,18,0,0,0,.08,0,.12l1.13,0,71.14,1.18h.18A.38.38,0,0,1,100.85,138.1Z" fill="#44182c"/><path d="M164.75,41.38c-4.55,2.81-8.31,14.91-11.23,29-.15.73-.3,1.47-.44,2.22-.73,3.66-1.4,7.42-2,11.17-.85,5.08-1.58,10.14-2.21,14.86-.5,3.78-.94,7.34-1.3,10.52-1,8.47-1.49,14.28-1.51,14.49a.39.39,0,0,1-.33.34l-1.83.25c-3.35.49-7.74,1.17-12.42,2-2,.36-4,.72-6,1.11-5.9,1.13-11.76,2.42-16.17,3.73h0c-4,1.21-6.81,2.44-7.39,3.59-2.53,5-3.74,50.1-3.75,50.55a.39.39,0,0,1-.39.38h0a.37.37,0,0,1-.36-.4c0-1.86,1.23-45.68,3.83-50.87.58-1.17,3-2.34,6.37-3.47a150.75,150.75,0,0,1,17.56-4.23c2.46-.47,4.89-.91,7.18-1.3,4.79-.82,8.91-1.44,11.27-1.78l1.77-.25c.12-1.41.56-6.38,1.34-13.25.43-3.76,1-8.09,1.57-12.71.55-4,1.17-8.3,1.87-12.6.72-4.46,1.52-9,2.4-13.32.09-.41.17-.83.26-1.24,3-14.23,6.84-26.49,11.6-29.42a.39.39,0,0,1,.53.13A.37.37,0,0,1,164.75,41.38Z" fill="#44182c"/><path d="M38.38,129.19s2.44-35.14,1.79-36.71S36,85.64,38,84.31s7.4.7,7.4.7a98.76,98.76,0,0,1,27.36-3.62c16.28,0,23.24,2,23.24,2s6.14-3.16,7.14-2.58c2,1.13.56,5.5.38,7.3-.15,1.59-2.37,30.44-3.15,34.05s2.21,6.48.26,8.59c-.71.77-5.47-.61-6.51-.3s-45.61,2.3-48.71,1.88-8.71,3.23-9,1.84S38.38,129.19,38.38,129.19Z" fill="#fe99bf"/><ellipse cx="52.42" cy="47.4" rx="6.01" ry="5.72" transform="translate(-8.95 82.45) rotate(-71.85)" fill="#f56a58"/><path d="M69.14,53.23a6,6,0,0,1-6.42,5.38,5.73,5.73,0,0,1-5-6.52,6,6,0,0,1,6.42-5.39A5.74,5.74,0,0,1,69.14,53.23Z" fill="#f56a58"/><path d="M56.31,44c-.15.32-1,.24-1.9-.18s-1.5-1-1.36-1.35,1-.25,1.9.18S56.45,43.67,56.31,44Z" fill="#44182c"/><path d="M64.58,47.83c0,.35-.71.78-1.69,1s-1.82,0-1.87-.31.7-.78,1.69-1S64.53,47.48,64.58,47.83Z" fill="#44182c"/><path d="M80.43,29.38a17.55,17.55,0,0,0-2.07,5.37c0,.13-.06.27-.08.4A16.83,16.83,0,0,0,78,39.28a.34.34,0,0,1-.37.35,18,18,0,0,0-6.6.67l-1.41.36h0l-2.42.63a13.37,13.37,0,0,0-5.44,2.52.31.31,0,0,1-.23.09h0a.34.34,0,0,1-.32-.31s0,0,0,0a20.65,20.65,0,0,0-1.39-6.77h0c-.16-.45-.32-.89-.5-1.34-.36-.9-.73-1.78-1.11-2.66A17.26,17.26,0,0,0,57,30.26a.34.34,0,0,1,.21-.51,7.2,7.2,0,0,0,3.35-2.28l.27-.28,0,0A18,18,0,0,0,64.06,22a4.73,4.73,0,0,0,.2-.47h0a17.23,17.23,0,0,0,1-3.61.33.33,0,0,1,.37-.27,14.27,14.27,0,0,0,2.7.07l.44,0a17.72,17.72,0,0,0,9.94-4.29.33.33,0,0,1,.56.22,20.48,20.48,0,0,0,1.2,5.3c0,.13.1.26.15.38a20.06,20.06,0,0,0,3.26,5.54.32.32,0,0,1,0,.46A16.37,16.37,0,0,0,80.66,29Z" fill="#26575e"/><path d="M72.09,23.82a.23.23,0,0,1-.16,0,.23.23,0,0,1-.12-.09l0-.07-3.45-6,.44,0L72,23.29l.14.25A.21.21,0,0,1,72.09,23.82Z" fill="#a7cbcc"/><path d="M80.61,19.29l-6,.94a.13.13,0,0,1-.09,0,.22.22,0,0,1-.15-.16.22.22,0,0,1,.17-.23l.38,0,5.58-.87C80.5,19,80.56,19.17,80.61,19.29Z" fill="#a7cbcc"/><path d="M68.66,29.28a.2.2,0,0,1-.17,0,.21.21,0,0,1-.11-.08l-.06-.09L64.06,22a4.73,4.73,0,0,0,.2-.47l4.3,7.19.17.27A.22.22,0,0,1,68.66,29.28Z" fill="#a7cbcc"/><path d="M80.66,29l-.23.37-10.61-1.9h0a.19.19,0,0,1-.14-.22.2.2,0,0,1,.24-.17l.14,0Z" fill="#a7cbcc"/><path d="M65.05,35.66a.18.18,0,0,1-.16,0,.16.16,0,0,1-.12-.09v0l-4.24-8.09.27-.28,0,0,4.16,8,.15.28A.2.2,0,0,1,65.05,35.66Z" fill="#a7cbcc"/><path d="M78.28,35.15,66,34.08l-.13,0h0a.19.19,0,0,1-.14-.21.2.2,0,0,1,.22-.19l.3,0,12.17,1.06C78.33,34.88,78.3,35,78.28,35.15Z" fill="#a7cbcc"/><path d="M71,40.3l-1.41.36h0l-6.71-.2h-.27a.16.16,0,0,1-.09-.07l0,0-2.69-3.56h0c-.16-.45-.32-.89-.5-1.34l3.39,4.49.1.14h.28Z" fill="#a7cbcc"/><path d="M61.11,44.49h0a.21.21,0,0,1-.13-.26c4-11.16,10.94-21,17.62-30.49a.21.21,0,0,1,.28-.05.2.2,0,0,1,0,.29c-6.66,9.48-13.56,19.28-17.57,30.38A.19.19,0,0,1,61.11,44.49Z" fill="#a7cbcc"/><path d="M31.62,52.53a17.85,17.85,0,0,0,5.37-2l.35-.21a17.27,17.27,0,0,0,3.27-2.56.33.33,0,0,1,.5.05A18.22,18.22,0,0,0,46,52.23l1.21.81h0c.7.46,1.41.91,2.09,1.37a13.15,13.15,0,0,0,5.51,2.36.33.33,0,0,1,.22.11h0a.34.34,0,0,1,0,.44l0,0a20.31,20.31,0,0,0-4.12,5.56h0c-.23.42-.44.83-.65,1.26-.44.87-.85,1.74-1.25,2.6a18.48,18.48,0,0,0-1,2.61.34.34,0,0,1-.52.18,7.25,7.25,0,0,0-3.93-1h-.44a18.11,18.11,0,0,0-6,1,4.43,4.43,0,0,0-.47.17h0a17.17,17.17,0,0,0-3.35,1.67.31.31,0,0,1-.44-.09,14.89,14.89,0,0,0-1.76-2c-.11-.1-.21-.21-.33-.31a17.77,17.77,0,0,0-9.82-4.53.33.33,0,0,1-.21-.56,20.77,20.77,0,0,0,3.13-4.43c.07-.13.13-.25.19-.38A20,20,0,0,0,25.93,53a.33.33,0,0,1,.37-.28,16,16,0,0,0,4.89-.12Z" fill="#26575e"/><path d="M33.06,62.45a.23.23,0,0,1,.11.11.25.25,0,0,1,0,.15l0,.08L31,69.34c-.11-.1-.21-.21-.33-.31l2-6.17.09-.28A.22.22,0,0,1,33.06,62.45Z" fill="#a7cbcc"/><path d="M24,59.13,28.73,63a.18.18,0,0,1,.05.08.25.25,0,0,1,0,.22.23.23,0,0,1-.29,0l-.29-.25L23.8,59.51C23.87,59.38,23.93,59.26,24,59.13Z" fill="#a7cbcc"/><path d="M39.4,61.36a.2.2,0,0,1,.13.11.25.25,0,0,1,0,.15l0,.09-2.45,7.93a4.43,4.43,0,0,0-.47.17l2.47-8,.09-.31A.21.21,0,0,1,39.4,61.36Z" fill="#a7cbcc"/><path d="M31.19,52.61l.43-.08,5.67,9.16v0h0a.2.2,0,0,1-.08.25.2.2,0,0,1-.28-.07l-.07-.11Z" fill="#a7cbcc"/><path d="M46.57,59.78a.2.2,0,0,1,.11.11.21.21,0,0,1,0,.16v0L43.5,68.62h-.44L46.2,60.2l.11-.3A.2.2,0,0,1,46.57,59.78Z" fill="#a7cbcc"/><path d="M37.34,50.28l7.43,9.86.07.11,0,0a.22.22,0,0,1-.07.25.19.19,0,0,1-.28,0l-.19-.24L37,50.49Z" fill="#a7cbcc"/><path d="M46,52.23l1.21.81h0l4.34,5.11.14.16,0,0a.17.17,0,0,1,0,.12v0l-.86,4.39h0c-.23.42-.44.83-.65,1.26l1.06-5.52,0-.17-.18-.21Z" fill="#a7cbcc"/><path d="M55.77,56.82h0a.19.19,0,0,1-.11.26c-11,4.46-22.92,5.88-34.45,7.26a.21.21,0,0,1-.05-.41c11.51-1.37,23.41-2.79,34.35-7.23A.21.21,0,0,1,55.77,56.82Z" fill="#a7cbcc"/><path d="M27.36,97c.42-1,.9-2,1.41-3,1-2,2.17-3.89,3.12-5.91a8,8,0,0,0,1-4.46,1.88,1.88,0,0,0-.4-1,1.51,1.51,0,0,0-1.83-.13A3.83,3.83,0,0,0,29.39,84a22.79,22.79,0,0,0-2.53,8.23c-.26,2-.16,4.14-.26,6.2-.34-2.68-.78-5.6-1.33-8.63-.39-4.83-.2-9.73-1.24-14.45a7,7,0,0,0-1.1-2.75,1.58,1.58,0,0,0-1.12-.72,1.28,1.28,0,0,0-1.11.67,2.92,2.92,0,0,0-.34,1.3,14.64,14.64,0,0,0,.8,5.06c1,3.36,2.13,6.67,3.31,10,.43,2.25.79,4.46,1.1,6.56-.31-.77-.7-1.53-1-2.2a44.1,44.1,0,0,0-2.05-4A42.88,42.88,0,0,0,17.26,82c-.41-.46-1-.94-1.54-.79a1.11,1.11,0,0,0-.66.56,2.85,2.85,0,0,0,.5,2.74A46,46,0,0,0,21,91.27c1,1.06,1.92,2.14,2.81,3.27.36.46,1.38,1.5,1.95,2.23.48,3.48.81,6.62,1,9.11-.34-1-.88-2-1.26-2.87a44.1,44.1,0,0,0-2.05-4,43.37,43.37,0,0,0-5.26-7.23c-.41-.45-1-.93-1.54-.78a1.11,1.11,0,0,0-.66.56,2.87,2.87,0,0,0,.49,2.74A46.76,46.76,0,0,0,22,101.08c1,1.06,1.92,2.14,2.81,3.27.4.5,1.56,1.68,2.08,2.41.25,3,.32,4.93.32,5a.3.3,0,0,0,.32.29.3.3,0,0,0,.3-.32s-.11-2.75-.5-6.95c.33-.62.8-1.24,1.08-1.68a32.26,32.26,0,0,1,2-2.68c1.38-1.75,2.87-3.41,4.18-5.21A8.06,8.06,0,0,0,36.38,91a1.8,1.8,0,0,0-.21-1,1.51,1.51,0,0,0-1.77-.49,3.85,3.85,0,0,0-1.53,1.22,22.63,22.63,0,0,0-4.06,7.59c-.68,2.07-1,4.27-1.51,6.37-.16-1.74-.38-3.72-.65-5.88C26.86,98.11,27.17,97.45,27.36,97Z" fill="#f7f0e7"/><path d="M178.1,99.75c-.41-1-.89-2-1.4-3-1-2-2.17-3.89-3.12-5.91a7.94,7.94,0,0,1-1-4.46,1.81,1.81,0,0,1,.4-1,1.51,1.51,0,0,1,1.83-.13,3.73,3.73,0,0,1,1.27,1.48A22.61,22.61,0,0,1,178.61,95c.26,2,.15,4.14.25,6.2.35-2.68.78-5.6,1.34-8.63.38-4.83.19-9.73,1.24-14.45a6.9,6.9,0,0,1,1.1-2.75,1.56,1.56,0,0,1,1.12-.72,1.31,1.31,0,0,1,1.11.67,3.06,3.06,0,0,1,.34,1.3,14.89,14.89,0,0,1-.81,5.06c-1,3.36-2.12,6.67-3.3,10-.43,2.25-.8,4.46-1.11,6.56.32-.77.71-1.53,1-2.2a41.59,41.59,0,0,1,2-4,42.94,42.94,0,0,1,5.27-7.22c.41-.46.95-.94,1.54-.79a1.11,1.11,0,0,1,.66.56,2.87,2.87,0,0,1-.5,2.74A46.1,46.1,0,0,1,184.45,94c-1,1.06-1.92,2.14-2.81,3.27-.36.46-1.38,1.5-1.94,2.23-.49,3.48-.81,6.62-1,9.11.34-1,.87-2,1.26-2.87a41.59,41.59,0,0,1,2-4,43.42,43.42,0,0,1,5.27-7.23c.41-.45.95-.93,1.54-.78a1.11,1.11,0,0,1,.66.56,2.87,2.87,0,0,1-.5,2.74,46.1,46.1,0,0,1-5.46,6.77c-1,1.06-1.92,2.14-2.81,3.27-.39.5-1.56,1.68-2.07,2.41-.25,3-.33,4.93-.33,5a.3.3,0,0,1-.32.29.42.42,0,0,1-.15,0,.3.3,0,0,1-.14-.28s.1-2.75.5-7c-.34-.62-.8-1.24-1.08-1.68-.61-.93-1.27-1.82-2-2.68-1.38-1.75-2.87-3.41-4.19-5.21a8,8,0,0,1-1.84-4.19,1.79,1.79,0,0,1,.2-1.05,1.52,1.52,0,0,1,1.77-.49,3.81,3.81,0,0,1,1.54,1.22,22.43,22.43,0,0,1,4.05,7.59c.69,2.07,1,4.27,1.52,6.37.16-1.74.37-3.72.64-5.88C178.61,100.87,178.29,100.21,178.1,99.75Z" fill="#f7f0e7"/><path d="M150.44,116.05l-.31.07h0l0-.05A27.71,27.71,0,0,0,140,110.82a24,24,0,0,0-3.32-.6c.49,2.59,9.74,5.29,12.69,6.09-3.31.76-13.08,3-15.43,2.81s-6.61-1-7.26-5a8.45,8.45,0,0,1,.24-3.48c1.78-7.1,4.17-7.52,8.79-7.1a8.47,8.47,0,0,1,3.58,1.64c4.11,2.84,9.14,8.51,10.69,10.31C150.27,115.84,150.44,116.05,150.44,116.05Z" fill="#fff"/><path d="M149.35,116.31c-3.31.76-13.08,3-15.43,2.81s-6.61-1-7.26-5c.07-3.48,5-4.47,10-3.9C137.15,112.81,146.4,115.51,149.35,116.31Z" fill="#44182c"/><path d="M150.1,116.05l.3.07h0l0-.05a27.61,27.61,0,0,1,10.12-5.25,24.14,24.14,0,0,1,3.33-.6c-.5,2.59-9.74,5.29-12.69,6.09,3.3.76,13.08,3,15.43,2.81s6.61-1,7.25-5a8.42,8.42,0,0,0-.23-3.48c-1.78-7.1-4.18-7.52-8.8-7.1a8.44,8.44,0,0,0-3.57,1.64c-4.11,2.84-9.14,8.51-10.69,10.31C150.27,115.84,150.1,116.05,150.1,116.05Z" fill="#fff"/><path d="M151.19,116.31c3.3.76,13.08,3,15.43,2.81s6.61-1,7.25-5c-.06-3.48-5-4.47-10-3.9C163.38,112.81,154.14,115.51,151.19,116.31Z" fill="#44182c"/><path d="M148.53,115.66a1.58,1.58,0,0,0,.41,1.12,1.41,1.41,0,0,0,.88.29,9,9,0,0,0,1.8-.06,1.09,1.09,0,0,0,.7-.28,1.65,1.65,0,0,0,.33-1c.16-1.47-.68-2.38-1.89-2.11-.5.11-1.15,0-1.58.38A2.05,2.05,0,0,0,148.53,115.66Z" fill="#fff"/><rect x="119.98" y="116.19" width="71.65" height="36.28" fill="#a7cbcc"/><polygon points="160.12 116.19 191.63 146.41 191.63 145.89 160.67 116.19 160.12 116.19" fill="#fff"/><polygon points="153.67 116.19 191.5 152.47 191.63 152.47 191.63 152.07 154.22 116.19 153.67 116.19" fill="#fff"/><polygon points="147.23 116.19 185.06 152.47 185.6 152.47 147.77 116.19 147.23 116.19" fill="#fff"/><polygon points="140.78 116.19 178.61 152.47 179.16 152.47 141.32 116.19 140.78 116.19" fill="#fff"/><polygon points="134.33 116.19 172.17 152.47 172.72 152.47 134.89 116.19 134.33 116.19" fill="#fff"/><polygon points="127.88 116.19 165.72 152.47 166.27 152.47 128.43 116.19 127.88 116.19" fill="#fff"/><polygon points="121.44 116.19 159.27 152.47 159.81 152.47 121.98 116.19 121.44 116.19" fill="#fff"/><polygon points="119.98 120.45 119.98 120.97 152.83 152.47 153.38 152.47 119.98 120.45" fill="#fff"/><polygon points="119.98 126.64 119.98 127.16 146.38 152.47 146.92 152.47 119.98 126.64" fill="#fff"/><polygon points="119.98 132.81 119.98 133.34 139.93 152.47 140.48 152.47 119.98 132.81" fill="#fff"/><polygon points="119.98 138.99 119.98 139.52 133.49 152.47 134.03 152.47 119.98 138.99" fill="#fff"/><polygon points="119.98 145.18 119.98 145.7 127.04 152.47 127.58 152.47 119.98 145.18" fill="#fff"/><rect x="169.09" y="116.19" width="22.54" height="36.28" transform="translate(360.72 268.66) rotate(180)" fill="#44182c"/><path d="M181.06,135h0a.08.08,0,0,0,.07-.05l10.57-18.69a.09.09,0,0,0,0-.12.1.1,0,0,0-.13,0l-10.49,18.57-11.89-18.57a.11.11,0,0,0-.13,0,.09.09,0,0,0,0,.13l12,18.69A.1.1,0,0,0,181.06,135Z" fill="#a7cbcc"/><path d="M191.63,152.56h0a.11.11,0,0,0,.05-.12l-8.56-20.95a.09.09,0,1,0-.16.06l8.55,21A.09.09,0,0,0,191.63,152.56Z" fill="#a7cbcc"/><path d="M169.09,152.56a.08.08,0,0,0,.08-.05l9.53-21.2a.09.09,0,1,0-.16-.07L169,152.44a.08.08,0,0,0,.05.11Z" fill="#a7cbcc"/><rect x="141.6" y="116.19" width="4.03" height="36.28" fill="#fff"/><rect x="111.04" y="151.92" width="78.06" height="41.41" fill="#ffc97d"/><path d="M152.5,162.59a.07.07,0,0,0,0,.09h0l.1.14,7,10.06,0,0a.06.06,0,0,0,.06,0,.07.07,0,0,0,.06,0l0,0,7.12-10.22a.06.06,0,0,0,0-.09l-6.75-10.67H160l6.77,10.71-7.06,10.11-7-10.05,0-.06,0-.07,6.73-10.64h-.19l-6.63,10.5-.1.15Z" fill="#fff"/><path d="M138.27,162.59a.07.07,0,0,0,0,.09l0,.07,7.08,10.14,0,0a.07.07,0,0,0,.06,0,.09.09,0,0,0,.07,0l0,0,7-10.07.09-.14h0a.1.1,0,0,0,0-.09l0,0-.09-.14L146,151.92h-.19l6.73,10.65,0,.06,0,.06-7,10.05-7.06-10.11,6.78-10.71H145l-6.69,10.59Z" fill="#fff"/><path d="M123.94,162.59a.07.07,0,0,0,0,.09l.07.09,7.06,10.13,0,0a.09.09,0,0,0,.06,0,.09.09,0,0,0,.07,0l0,0,7.07-10.14.05-.07a.06.06,0,0,0,0-.09l-.05-.08-6.68-10.59h-.2l6.78,10.71-7.07,10.11-7.05-10.11,6.77-10.71h-.19L124,162.49Z" fill="#fff"/><path d="M111,164.42v.28l5.72,8.2,0,0a.07.07,0,0,0,.06,0,.06.06,0,0,0,.06,0l0,0L124,162.77l.06-.09a.14.14,0,0,0,0-.09l-.06-.1-6.69-10.57h-.18l6.77,10.71-7.06,10.11Zm0-4.07v.31l5.52-8.74h-.18Z" fill="#fff"/><path d="M152.5,184.18a.07.07,0,0,0,0,.09h0l.1.14,6.22,8.91H159l-6.32-9.05,0-.06,0-.07,7-11.1,7.06,11.17-6.36,9.11h.19l6.32-9.06a.06.06,0,0,0,0-.09l-7.13-11.28,0,0a.07.07,0,0,0-.13,0l0,0-7,11.12-.1.15Z" fill="#fff"/><path d="M138.27,184.18a.07.07,0,0,0,0,.09l0,.07,6.28,9h.19l-6.36-9.11,7.06-11.17,7,11.11,0,.06,0,.06-6.31,9.05h.18l6.23-8.91.09-.14h0a.1.1,0,0,0,0-.09l0,0-.09-.14-7-11.11,0,0a.08.08,0,0,0-.14,0l0,0-7.08,11.21Z" fill="#fff"/><path d="M123.94,184.18a.07.07,0,0,0,0,.09l.07.09,6.25,9h.19l-6.35-9.11,7.05-11.17,7.07,11.17-6.36,9.11H132l6.28-9,.05-.07a.06.06,0,0,0,0-.09l-.05-.08-7.07-11.21,0,0a.08.08,0,0,0-.14,0l0,0L124,184.08Z" fill="#fff"/><path d="M111,186v.28l4.92,7h.19Zm0-4.07v.3l5.81-9.19,7.06,11.17-6.36,9.11h.19l6.27-9,.06-.09a.14.14,0,0,0,0-.09l-.06-.1-7.07-11.18,0,0a.07.07,0,0,0-.12,0l0,0Z" fill="#fff"/><rect x="167.12" y="151.92" width="21.99" height="41.41" transform="translate(356.22 345.26) rotate(180)" fill="#44182c"/><path d="M135.38,31.41a.38.38,0,0,1-.26-.11L124.64,20.82a.38.38,0,0,1,0-.54.37.37,0,0,1,.53,0l10.48,10.48a.38.38,0,0,1,0,.54A.39.39,0,0,1,135.38,31.41Z" fill="#fff"/><path d="M130.14,33.58a.39.39,0,0,1-.38-.38V18.38a.39.39,0,0,1,.38-.38.38.38,0,0,1,.38.38V33.2A.38.38,0,0,1,130.14,33.58Z" fill="#fff"/><path d="M124.91,31.41a.39.39,0,0,1-.27-.11.38.38,0,0,1,0-.54l10.48-10.48a.37.37,0,0,1,.53,0,.38.38,0,0,1,0,.54L125.17,31.3A.38.38,0,0,1,124.91,31.41Z" fill="#fff"/><path d="M137.56,26.17H122.73a.38.38,0,1,1,0-.76h14.83a.38.38,0,0,1,0,.76Z" fill="#fff"/><path d="M21.53,139.05a.36.36,0,0,1-.27-.11L10.78,128.46a.37.37,0,0,1,0-.53.38.38,0,0,1,.54,0L21.8,138.41a.37.37,0,0,1,0,.53A.35.35,0,0,1,21.53,139.05Z" fill="#fff"/><path d="M16.29,141.22a.38.38,0,0,1-.38-.38V126a.38.38,0,1,1,.76,0v14.82A.38.38,0,0,1,16.29,141.22Z" fill="#fff"/><path d="M11.05,139.05a.36.36,0,0,1-.27-.11.37.37,0,0,1,0-.53l10.48-10.48a.38.38,0,0,1,.54,0,.37.37,0,0,1,0,.53L11.32,138.94A.35.35,0,0,1,11.05,139.05Z" fill="#fff"/><path d="M23.7,133.81H8.88a.38.38,0,0,1,0-.76H23.7a.38.38,0,1,1,0,.76Z" fill="#fff"/><path d="M164,139.4a.4.4,0,0,1-.27-.11l-10.48-10.48a.38.38,0,0,1,.54-.54l10.48,10.48a.38.38,0,0,1,0,.54A.39.39,0,0,1,164,139.4Z" fill="#fff"/><path d="M158.78,141.57a.38.38,0,0,1-.38-.38V126.37a.38.38,0,0,1,.76,0v14.82A.38.38,0,0,1,158.78,141.57Z" fill="#fff"/><path d="M153.54,139.4a.4.4,0,0,1-.27-.11.38.38,0,0,1,0-.54l10.48-10.48a.38.38,0,0,1,.54.54l-10.48,10.48A.39.39,0,0,1,153.54,139.4Z" fill="#fff"/><path d="M166.19,134.16H151.37a.38.38,0,0,1,0-.76h14.82a.38.38,0,0,1,0,.76Z" fill="#fff"/><path d="M107.37,20.27a3.8,3.8,0,1,1-3.79-3.79A3.8,3.8,0,0,1,107.37,20.27Z" fill="#fff"/><path d="M19.05,188a3.8,3.8,0,1,1-3.79-3.8A3.79,3.79,0,0,1,19.05,188Z" fill="#fff"/><circle cx="188.45" cy="155.17" r="3.8" fill="#fff"/></g></svg>