<svg xmlns="http://www.w3.org/2000/svg" viewBox="0 0 203.19 208.77"><g id="OBJECTS"><path d="M6.39,208.7A6.46,6.46,0,0,1,3,207.59C.75,206,.53,202.75.51,200Q.27,165.4,0,130.83c-.12-18.1-.23-36.38,3.65-54.07C15.21,24.13,72.24-9.42,124.07,2.35c33.44,7.6,62.2,33.53,72.82,66.13,6.6,20.29,6.45,42.07,6.22,63.4q-.36,34.11-.71,68.24c0,2.76-.27,5.94-2.51,7.55-1.49,1.06-3.45,1.1-5.27,1.1H8.46C7.78,208.77,7.08,208.76,6.39,208.7Z" fill="#fff"/><path d="M196.62,143v59.19H6.37V150.53c0-29.76-4.25-61.95,8.61-89.86,23.45-50.88,87.77-69.53,134.93-42l.73.43.33.2c.53.31,1.05.63,1.57,1,1.93,1.2,3.83,2.5,5.69,3.87a91.09,91.09,0,0,1,12.93,11.58c.38.41.75.81,1.12,1.23q1.6,1.8,3.11,3.68c.34.41.67.83,1,1.25a97.8,97.8,0,0,1,20.25,58.42v.25C196.8,114.66,196.62,128.82,196.62,143Z" fill="#26575e"/><rect x="73.45" y="176.12" width="1.98" height="26.03" fill="#44182c"/><path d="M137.37,191.73l-56.9-2.57-10.7.17-58.86,4.12L26,170.16l.58-.9,10-15.38-18.62,3.31,4.45-6.5.72-1.06,19.52-28.51-13.94,3.79a97.45,97.45,0,0,0,6.24-10.19c.17-.31.34-.62.53-.93L38.08,109h0c.21-.37.41-.74.61-1.11,5.77-10.6,11.73-22.08,11.73-22.08L36.64,89.92,44.28,76l.51-.93,5.3-9.66h0l.82-1.5,21-38.27,11.17,19,.51.84h0L102.5,77.59l.55.93,6,10.27L95.44,85.3s.86,1.56,2.26,4l.49.89c3.37,6,9.19,16.24,13.8,23.88.18.31.37.62.55.91a77.62,77.62,0,0,0,5.61,8.48l-14.06-3.34,5.74,7.84.62.84,19.45,26.6-18.7-2.73,12.74,19,.61.92Z" fill="#a7cbcc"/><path d="M83.56,45.42h0a258,258,0,0,1-32.2,19.33l-1.27.62.82-1.5a258.3,258.3,0,0,0,32.14-19.3Z" fill="#f7f0e7"/><path d="M103.05,78.52a137.29,137.29,0,0,1-17.67,1.07c-14,0-27.94-1.75-41.1-3.61l.51-.93c18.4,2.59,38.37,5,57.71,2.54Z" fill="#f7f0e7"/><path d="M98.19,90.24A234.63,234.63,0,0,1,38.08,109c.21-.37.41-.74.61-1.11a232.6,232.6,0,0,0,59-18.54Z" fill="#f7f0e7"/><path d="M112.54,115c-10.55,1.73-21.33,1.82-31.89,1.82H78.93c-14.48,0-29.41,0-44-2.13.17-.31.34-.62.53-.93,14.41,2,29.16,2.06,43.48,2.07,10.94,0,22.14,0,33.06-1.74C112.17,114.43,112.36,114.74,112.54,115Z" fill="#f7f0e7"/><path d="M110.45,128.85C82,138.62,52.74,148,22.38,150.69l.72-1.06c29.85-2.72,58.7-12,86.73-21.62Z" fill="#f7f0e7"/><path d="M124.55,172.62A313.55,313.55,0,0,1,83,175.38a311,311,0,0,1-57-5.22l.58-.9a312.6,312.6,0,0,0,97.36,2.44Z" fill="#f7f0e7"/><polygon points="71.83 16.34 73.93 20.61 78.64 21.29 75.23 24.61 76.04 29.29 71.83 27.08 67.62 29.29 68.43 24.61 65.02 21.29 69.73 20.61 71.83 16.34" fill="#ffc97d"/><path d="M68.64,37.66v0s-3.52,3.32-1.91,6.92c1.46,3.25,1.6,3.57,1.62,3.6h0s0,0,1.71-3.48S68.82,37.86,68.64,37.66Z" fill="#bc606d"/><path d="M88.21,59.75v0S84.69,63,86.3,66.64c1.46,3.24,1.6,3.56,1.62,3.59h0s0,0,1.71-3.48S88.38,60,88.21,59.75Z" fill="#bc606d"/><path d="M94.11,100.06v0s-3.52,3.32-1.9,6.92l1.61,3.6h0s0,0,1.71-3.48S94.29,100.26,94.11,100.06Z" fill="#bc606d"/><path d="M94.11,149.81v0s-3.52,3.32-1.9,6.92c1.45,3.24,1.6,3.56,1.61,3.6h0s0,0,1.71-3.48S94.29,150,94.11,149.81Z" fill="#bc606d"/><path d="M38.33,176.24v0s-3.52,3.32-1.9,6.92c1.46,3.25,1.6,3.57,1.61,3.6h0s0,0,1.72-3.48S38.51,176.44,38.33,176.24Z" fill="#bc606d"/><path d="M55,126.53v0s-3.52,3.31-1.91,6.92c1.46,3.24,1.6,3.56,1.62,3.59h0s0,0,1.71-3.47S55.16,126.73,55,126.53Z" fill="#bc606d"/><path d="M58.69,84.71v0S55.18,88,56.79,91.59c1.46,3.25,1.6,3.57,1.62,3.6h0s0,0,1.71-3.48S58.87,84.91,58.69,84.71Z" fill="#bc606d"/><circle cx="66.52" cy="66.76" r="2.28" fill="#ffc97d"/><circle cx="90.8" cy="127.8" r="2.28" fill="#ffc97d"/><circle cx="59.1" cy="155.46" r="2.28" fill="#ffc97d"/><circle cx="111.54" cy="182.1" r="2.28" fill="#ffc97d"/><circle cx="58.76" cy="110.43" r="2.28" fill="#ffc97d"/><path d="M150.64,19.07l-.73-.43-.06.42-.18,1.13c-.58,3.68-1.24,7.84-1.95,12.38,0,.14-.05.28-.07.42s-.07.44-.1.66l-.18,1.13c-.21,1.36-.43,2.76-.66,4.19,0,.3-.09.59-.14.89l-.09.58-.06.4q-.49,3.15-1,6.47l-.06.36,0,.18,0,.19-.18,1.13c-.79,5.1-1.63,10.47-2.51,16,0,.38-.11.75-.17,1.13-.2,1.28-.4,2.58-.61,3.88h0c-.46,3-.94,6-1.42,9.11-.06.37-.12.75-.17,1.13-.89,5.66-1.79,11.42-2.7,17.23l-.18,1.13c-.87,5.6-1.74,11.22-2.62,16.82l-.18,1.13c-.84,5.45-1.69,10.86-2.52,16.18l-.06.41-.09.59-.18,1.13c0,.16,0,.32-.07.48s-.07.46-.11.69q-.61,3.93-1.21,7.77l-.24,1.52c-.3,2-.6,3.87-.9,5.78,0,.37-.11.75-.17,1.12-.1.62-.19,1.25-.29,1.87l-.21,1.35c-.14.87-.27,1.74-.41,2.6h0q-.75,4.86-1.46,9.43c-.2,1.26-.39,2.5-.58,3.71l-.18,1.12c-1.1,7.14-2.11,13.62-3,19.19l-.18,1.14c-.54,3.5-1,6.62-1.44,9.29h1.15l1.43-9.25q.09-.56.18-1.14c.86-5.48,1.86-11.95,3-19.13.06-.37.12-.75.17-1.13q.19-1.23.39-2.49.93-5.94,1.93-12.4h0c.12-.74.24-1.49.35-2.24.07-.41.13-.82.2-1.23,0-.19,0-.37.08-.56l.18-1.12c.37-2.4.75-4.85,1.14-7.33l.24-1.53q.36-2.37.75-4.77,0-.3.09-.6l.3-1.94c.06-.37.12-.75.17-1.13a0,0,0,0,0,0,0c0-.18.05-.35.08-.53.86-5.49,1.73-11.09,2.61-16.72l.18-1.14c.86-5.58,1.74-11.2,2.61-16.78l.18-1.13c.9-5.79,1.8-11.54,2.68-17.19l.18-1.13q.78-5,1.53-9.81c.17-1.07.33-2.13.5-3.19l.18-1.13c.87-5.6,1.72-11,2.52-16.15l.18-1.13c0-.21.07-.42.1-.64a.11.11,0,0,1,0-.05c0-.1,0-.2,0-.3.28-1.75.55-3.48.81-5.16v0l.21-1.38h0c.06-.33.11-.65.16-1s.08-.55.13-.82c.2-1.31.4-2.6.6-3.86l.06-.37.12-.76c0-.16.05-.32.08-.48h0c.75-4.81,1.44-9.19,2-13l.15-.94Z" fill="#bc606d"/><path d="M175.39,40.6c.34.41.67.83,1,1.25-.29,2.43-.61,5-.93,7.55-.05.38-.09.76-.14,1.14-.75,6.1-1.55,12.58-2.39,19.3,0,.38-.09.76-.14,1.14l-1.59,13c-.05.38-.1.75-.14,1.13q-.45,3.55-.88,7.14h0c0,.38-.1.76-.14,1.14q-.44,3.51-.88,7.05c0,.25,0,.49-.09.74h0a.28.28,0,0,1,0,.09l-.12,1a.88.88,0,0,1,0,.17c-.28,2.29-.56,4.56-.83,6.85h0a2.57,2.57,0,0,0,0,.4c-.08.58-.15,1.16-.22,1.74,0,.14,0,.28-.05.42-.27,2.16-.53,4.31-.8,6.45,0,.38-.09.76-.14,1.13q-.18,1.5-.36,3-.44,3.59-.87,7.11c-.43,3.44-.84,6.84-1.26,10.19,0,.38-.09.76-.14,1.14-.6,4.92-1.19,9.74-1.76,14.38,0,.38-.09.76-.14,1.13-.78,6.35-1.52,12.39-2.21,18,0,.38-.09.76-.13,1.13-.81,6.54-1.53,12.43-2.15,17.44,0,.38-.09.76-.13,1.13-.38,3.1-.72,5.85-1,8.17h-1.15c.29-2.39.63-5.13,1-8.2,0-.37.09-.75.13-1.14.63-5.09,1.35-11,2.15-17.5,0-.37.09-.75.14-1.13l2.21-18c0-.38.09-.75.13-1.13.58-4.68,1.17-9.51,1.78-14.45.05-.38.09-.76.14-1.14q.68-5.46,1.36-11.06c.22-1.83.45-3.66.68-5.51.14-1.19.29-2.39.44-3.59,0-.38.09-.76.14-1.14.18-1.45.35-2.9.53-4.35,0,0,0,0,0,0a1,1,0,0,1,0-.17l.3-2.46c0-.14,0-.28,0-.42s.07-.53.1-.8,0-.26,0-.4c.08-.69.17-1.38.26-2.07h0c0-.23.05-.46.08-.69.18-1.5.37-3,.56-4.51,0-.38.09-.75.14-1.13a.22.22,0,0,1,0-.08c0-.29.07-.58.1-.87s.05-.45.08-.67c.3-2.4.59-4.8.89-7.19,0-.38.09-.76.14-1.15l.51-4.16.12-1c0-.37.09-.75.14-1.12s.09-.75.14-1.13l.09-.72c0-.14,0-.28.05-.43q.74-6,1.46-11.84c0-.38.09-.76.14-1.13.82-6.69,1.62-13.13,2.37-19.19.05-.38.09-.76.14-1.13Q174.85,44.82,175.39,40.6Z" fill="#bc606d"/><path d="M150.64,19.07h-.79L145.06,19h0a.57.57,0,0,0-.57.56.56.56,0,0,0,.56.58l4.63.07,1.15,0,1.72,0c-.52-.34-1-.66-1.57-1Z" fill="#bc606d"/><path d="M171.16,35.69c.38.41.75.81,1.12,1.23l-23.32-2-.4,0h-.05l-1.14-.1-.73-.06-.39,0-3.58-.31a.58.58,0,0,1-.52-.62.57.57,0,0,1,.62-.52l3.76.32.43,0,.59,0,.94.08.2,0,.21,0Z" fill="#bc606d"/><path d="M178.51,50.68h0l-38.7-1.75a.57.57,0,0,1-.55-.6.59.59,0,0,1,.6-.54l38.7,1.75a.56.56,0,0,1,.54.59A.57.57,0,0,1,178.51,50.68Z" fill="#bc606d"/><path d="M177.06,71.63H177l-39.86-6.11a.57.57,0,1,1,.17-1.13l39.86,6.11a.57.57,0,0,1-.08,1.14Z" fill="#bc606d"/><path d="M174.44,85.59h-.09l-38.7-5.82a.57.57,0,0,1,.17-1.13l38.7,5.82a.57.57,0,0,1,.48.65A.56.56,0,0,1,174.44,85.59Z" fill="#bc606d"/><path d="M172.11,102.76h-.06L131,98.1a.57.57,0,1,1,.13-1.13l41,4.65a.58.58,0,0,1,.51.64A.57.57,0,0,1,172.11,102.76Z" fill="#bc606d"/><path d="M169.78,119.64h0l-39.29-3.2a.59.59,0,0,1-.52-.62.58.58,0,0,1,.62-.52l39.28,3.2a.57.57,0,0,1-.05,1.14Z" fill="#bc606d"/><path d="M171.24,142h-.1l-44.52-7.86a.57.57,0,1,1,.2-1.12l44.52,7.85a.57.57,0,0,1,.46.66A.57.57,0,0,1,171.24,142Z" fill="#bc606d"/><path d="M167.16,156.88h-.06l-42.48-4.95a.56.56,0,0,1-.5-.63.57.57,0,0,1,.63-.5l42.48,4.95a.57.57,0,0,1-.07,1.13Z" fill="#bc606d"/><path d="M164.55,175.8h-.05L119.69,172a.57.57,0,1,1,.09-1.13l44.81,3.78a.57.57,0,0,1,0,1.14Z" fill="#bc606d"/><path d="M162.22,194.13h0l-45.39-1.46a.56.56,0,0,1-.55-.59.6.6,0,0,1,.58-.55l45.4,1.46a.57.57,0,0,1,.55.59A.58.58,0,0,1,162.22,194.13Z" fill="#bc606d"/><path d="M150.2,65.58c-.17.58-1.67,1.54-3.91,2.64a113.19,113.19,0,0,1-13.6,5.37c-6,1.92-11.31,3.13-12.12,2.1-1.79-2.29,2.16-7,4.18-9.82a6.41,6.41,0,0,0,.57-1,6.21,6.21,0,0,0,.59-3.21l-.58-7.14-.18-2.3-.1-1.27-.36-4.44,22.93-6s.47,2.63,1,6.2h0l0,.17c.46,3,1,6.55,1.32,9.82C150.43,60.69,150.63,64.2,150.2,65.58Z" fill="#f56a58"/><polygon points="148.72 46.72 148.65 46.74 125.33 54.54 125.05 50.97 148.65 46.73 148.72 46.72" fill="#44182c"/><path d="M122.28,47.93l.66,3.12a1.63,1.63,0,0,0,2,1.26l24.38-5.53a1.63,1.63,0,0,0,1.22-2l-1-4a1.62,1.62,0,0,0-2-1.19L123.45,46A1.63,1.63,0,0,0,122.28,47.93Z" fill="#f7f0e7"/><path d="M132.69,73.59c-6,1.92-11.31,3.13-12.12,2.1-1.79-2.29,2.16-7,4.18-9.82a6.41,6.41,0,0,0,.57-1A11,11,0,0,1,132,70.76,5.61,5.61,0,0,1,132.69,73.59Z" fill="#f7f0e7"/><path d="M150.2,65.58c-.17.58-1.67,1.54-3.91,2.64a7.83,7.83,0,0,1-.31-2.55,13.36,13.36,0,0,1,2-6.77,6.92,6.92,0,0,1,2-2.17C150.43,60.69,150.63,64.2,150.2,65.58Z" fill="#f7f0e7"/><path d="M140.53,61.42a.15.15,0,0,1-.13-.05l-5.22-5.22a.18.18,0,0,1,0-.27.19.19,0,0,1,.26,0l5.22,5.22a.18.18,0,0,1,0,.27A.15.15,0,0,1,140.53,61.42Z" fill="#f7f0e7"/><path d="M137.92,62.51a.19.19,0,0,1-.19-.19V54.93a.19.19,0,0,1,.19-.19.2.2,0,0,1,.19.19v7.39A.2.2,0,0,1,137.92,62.51Z" fill="#f7f0e7"/><path d="M135.31,61.42a.15.15,0,0,1-.13-.05.18.18,0,0,1,0-.27l5.22-5.22a.19.19,0,0,1,.26,0,.18.18,0,0,1,0,.27l-5.22,5.22A.15.15,0,0,1,135.31,61.42Z" fill="#f7f0e7"/><path d="M141.61,58.81h-7.38a.18.18,0,0,1-.19-.19.18.18,0,0,1,.19-.18h7.38a.18.18,0,0,1,.19.18A.18.18,0,0,1,141.61,58.81Z" fill="#f7f0e7"/><path d="M148.9,33.77a2.28,2.28,0,0,0-.13-.5h0a1.58,1.58,0,0,0-.17-.29,1,1,0,0,0-.86-.4h0a1.25,1.25,0,0,0-.91.49,2.17,2.17,0,0,0-.28.5,4.35,4.35,0,0,0-.28,1.13,20.81,20.81,0,0,0,.16,5.21c0,.19.05.37.07.54l.06.37c.14.92.27,1.57.29,1.66a.21.21,0,0,0,.19.16h0a.2.2,0,0,0,.19-.13s.09-.25.18-.56v0c.08-.25.18-.55.29-.91h0c.13-.42.28-.92.42-1.44a22.86,22.86,0,0,0,.84-4.64A5.19,5.19,0,0,0,148.9,33.77Zm-1,5-.21.82h0l-.29,1h0c-.11.37-.22.72-.32,1,0-.25-.09-.56-.15-.91s-.09-.58-.13-.91-.07-.54-.1-.83a18,18,0,0,1-.07-4.25A3.37,3.37,0,0,1,147,33.6a.92.92,0,0,1,.17-.29.77.77,0,0,1,.52-.32l.11,0h0a.58.58,0,0,1,.49.24,1.24,1.24,0,0,1,.21.52,3.53,3.53,0,0,1,.08.78c0,.12,0,.25,0,.38A20.91,20.91,0,0,1,147.91,38.74Z" fill="#f7f0e7"/><path d="M151.21,109.73c-.15.6.64,2.19,2,4.29a113.8,113.8,0,0,0,8.88,11.63c4.1,4.71,8.06,8.51,9.28,8,2.72-1,1.77-7.1,1.5-10.56A6.47,6.47,0,0,1,174,119l4.18-5.81,1.34-1.88.75-1,2.6-3.61-16.53-17s-1.76,2-4.08,4.78h0l-.11.13c-1.93,2.3-4.22,5.1-6.21,7.72C153.54,105.43,151.56,108.34,151.21,109.73Z" fill="#f56a58"/><polygon points="162.22 94.35 162.27 94.41 178.2 113.14 180.29 110.22 162.28 94.4 162.22 94.35" fill="#44182c"/><path d="M184.24,109.05l-2.18,2.33a1.62,1.62,0,0,1-2.32.07l-18-17.33a1.64,1.64,0,0,1,0-2.33l2.9-2.92a1.63,1.63,0,0,1,2.33,0l17.29,17.91A1.64,1.64,0,0,1,184.24,109.05Z" fill="#f7f0e7"/><path d="M162.07,125.65c4.1,4.71,8.06,8.51,9.28,8,2.72-1,1.77-7.1,1.5-10.56a6.2,6.2,0,0,1,0-1.14,11,11,0,0,0-8.78,1.56A5.48,5.48,0,0,0,162.07,125.65Z" fill="#f7f0e7"/><path d="M151.21,109.73c-.15.6.64,2.19,2,4.29a7.69,7.69,0,0,0,1.59-2,13.28,13.28,0,0,0,1.79-6.82,6.85,6.85,0,0,0-.62-2.91C153.54,105.43,151.56,108.34,151.21,109.73Z" fill="#f7f0e7"/><path d="M161.64,111.18a.22.22,0,0,0,.14,0l7.17-1.77a.2.2,0,0,0,.14-.23.18.18,0,0,0-.23-.14l-7.17,1.77a.2.2,0,0,0-.14.23A.22.22,0,0,0,161.64,111.18Z" fill="#f7f0e7"/><path d="M163.31,113.45a.19.19,0,0,0,.26-.06l3.82-6.32a.19.19,0,0,0-.07-.26.18.18,0,0,0-.26.06l-3.81,6.32A.19.19,0,0,0,163.31,113.45Z" fill="#f7f0e7"/><path d="M166.11,113.87a.14.14,0,0,0,.14,0,.18.18,0,0,0,.14-.22l-1.77-7.17a.2.2,0,0,0-.23-.14.19.19,0,0,0-.14.23l1.77,7.17A.17.17,0,0,0,166.11,113.87Z" fill="#f7f0e7"/><path d="M162.06,108.38l6.32,3.82a.19.19,0,0,0,.2-.33l-6.32-3.81a.19.19,0,1,0-.2.32Z" fill="#f7f0e7"/><path d="M170.91,83.64a1.22,1.22,0,0,0-.54-.9l-.18-.1a1,1,0,0,0-.77,0,2.46,2.46,0,0,0-1,.91,10,10,0,0,0-.6,1.06,26.28,26.28,0,0,0-1.42,3.94c-.15.52-.28,1-.39,1.43-.22.85-.34,1.44-.36,1.53a.2.2,0,0,0,.1.22.15.15,0,0,0,.09,0,.2.2,0,0,0,.15-.06c.06-.06.5-.55,1.11-1.27l.58-.71A29.06,29.06,0,0,0,169.65,87a11,11,0,0,0,1-2,3.69,3.69,0,0,0,.25-1.12A2.53,2.53,0,0,0,170.91,83.64ZM169.77,86a25.25,25.25,0,0,1-2.33,3.37c-.2.26-.4.5-.58.72l-.61.71c.08-.32.16-.68.27-1.06s.17-.66.27-1a25.07,25.07,0,0,1,1.49-4.09,5,5,0,0,1,.63-1.06,1.64,1.64,0,0,1,.67-.61.62.62,0,0,1,.23,0,.63.63,0,0,1,.33.1,0,0,0,0,0,0,0,.8.8,0,0,1,.36.61,1,1,0,0,1,0,.17,3.17,3.17,0,0,1-.25,1.12A9.06,9.06,0,0,1,169.77,86Z" fill="#f7f0e7"/><path d="M150.62,160.12c.15.59-.64,2.19-2,4.28A112.85,112.85,0,0,1,139.76,176c-4.1,4.72-8.06,8.52-9.29,8.05-2.72-1-1.76-7.1-1.49-10.56a7.23,7.23,0,0,0,0-1.14,6.35,6.35,0,0,0-1.16-3l-4.18-5.81-1.34-1.88-.74-1L118.93,157l16.53-17s1.77,2,4.09,4.78h0l.12.13c1.92,2.3,4.21,5.11,6.2,7.72C148.29,155.82,150.27,158.72,150.62,160.12Z" fill="#f56a58"/><polygon points="139.6 144.74 139.55 144.79 123.62 163.52 121.54 160.61 139.55 144.78 139.6 144.74" fill="#44182c"/><path d="M117.59,159.43l2.18,2.34a1.63,1.63,0,0,0,2.32.06l18-17.33a1.62,1.62,0,0,0,0-2.32l-2.91-2.92a1.63,1.63,0,0,0-2.33,0L117.6,157.19A1.62,1.62,0,0,0,117.59,159.43Z" fill="#f7f0e7"/><path d="M139.76,176c-4.1,4.72-8.06,8.52-9.29,8.05-2.72-1-1.76-7.1-1.49-10.56a7.23,7.23,0,0,0,0-1.14,11,11,0,0,1,8.78,1.56A5.48,5.48,0,0,1,139.76,176Z" fill="#f7f0e7"/><path d="M150.62,160.12c.15.59-.64,2.19-2,4.28a8,8,0,0,1-1.59-2,13.43,13.43,0,0,1-1.78-6.83,6.83,6.83,0,0,1,.61-2.91C148.29,155.82,150.27,158.72,150.62,160.12Z" fill="#f7f0e7"/><path d="M140.19,161.56a.24.24,0,0,1-.15,0l-7.16-1.77a.19.19,0,0,1,.09-.37l7.17,1.77a.19.19,0,0,1,.13.23A.2.2,0,0,1,140.19,161.56Z" fill="#f7f0e7"/><path d="M138.51,163.83a.18.18,0,0,1-.26-.06l-3.81-6.32a.19.19,0,1,1,.32-.2l3.82,6.32A.19.19,0,0,1,138.51,163.83Z" fill="#f7f0e7"/><path d="M135.72,164.26a.22.22,0,0,1-.14,0,.18.18,0,0,1-.14-.23l1.77-7.17a.19.19,0,0,1,.23-.14.2.2,0,0,1,.14.23l-1.77,7.17A.27.27,0,0,1,135.72,164.26Z" fill="#f7f0e7"/><path d="M139.77,158.77l-6.33,3.81a.21.21,0,0,1-.26-.06.19.19,0,0,1,.07-.26l6.32-3.82a.19.19,0,0,1,.26.07A.21.21,0,0,1,139.77,158.77Z" fill="#f7f0e7"/><path d="M135.78,140.37c-.11-.43-.24-.92-.39-1.44a27.53,27.53,0,0,0-1.19-3.41,9.39,9.39,0,0,0-.65-1.27,4.26,4.26,0,0,0-.46-.66,1.84,1.84,0,0,0-.69-.56A.83.83,0,0,0,132,133a1,1,0,0,0-.58.17,1.19,1.19,0,0,0-.49.67,1.44,1.44,0,0,0-.05.24,2.36,2.36,0,0,0,.1.92h0a6.49,6.49,0,0,0,.51,1.29,13.6,13.6,0,0,0,.92,1.57c.53.81,1.13,1.6,1.66,2.27l.58.71c.61.72,1,1.21,1.11,1.27a.18.18,0,0,0,.15.07l.09,0a.22.22,0,0,0,.11-.23C136.12,141.81,136,141.21,135.78,140.37Zm-.82.14c-.18-.22-.38-.46-.58-.72a30.21,30.21,0,0,1-1.85-2.57,10.17,10.17,0,0,1-.9-1.66,4.36,4.36,0,0,1-.2-.53,2.38,2.38,0,0,1-.12-.95.79.79,0,0,1,.06-.22.75.75,0,0,1,.3-.4.6.6,0,0,1,.3-.1H132a.5.5,0,0,1,.23.05,2,2,0,0,1,.76.72l0,0h0a7.79,7.79,0,0,1,.69,1.27,27.53,27.53,0,0,1,1.31,3.72c.1.35.19.69.27,1s.19.74.27,1.06Z" fill="#f7f0e7"/><path d="M30.28,69.84c.88-.63,1.81-1.21,2.76-1.76,1.9-1.11,3.86-2.1,5.72-3.29A7.94,7.94,0,0,0,42,61.61a1.75,1.75,0,0,0,.19-1,1.48,1.48,0,0,0-1.45-1.07,3.71,3.71,0,0,0-1.85.56,22.34,22.34,0,0,0-6.45,5.53c-1.3,1.57-2.32,3.37-3.48,5,1.12-2.41,2.3-5.08,3.43-7.9,2.23-4.23,5-8.21,6.59-12.71a6.78,6.78,0,0,0,.53-2.87,1.58,1.58,0,0,0-.55-1.19,1.3,1.3,0,0,0-1.28,0,2.91,2.91,0,0,0-1,.91,14.64,14.64,0,0,0-2,4.64c-1,3.32-1.75,6.69-2.5,10.06-.83,2.11-1.69,4.14-2.53,6,.14-.81.21-1.64.32-2.36a43.3,43.3,0,0,0,.39-4.4A42.62,42.62,0,0,0,29.76,52c-.1-.59-.3-1.28-.87-1.46a1.11,1.11,0,0,0-.85.12,2.84,2.84,0,0,0-1,2.55,46.18,46.18,0,0,0,1,8.52c.24,1.39.47,2.79.62,4.2.06.58.36,2,.44,2.89-1.43,3.16-2.81,6-3.94,8.14.24-1,.33-2.13.46-3.06a43.32,43.32,0,0,0,.4-4.4,42.52,42.52,0,0,0-.58-8.8c-.1-.59-.3-1.28-.88-1.47a1.08,1.08,0,0,0-.84.12,2.84,2.84,0,0,0-1,2.55,47,47,0,0,0,1,8.52c.25,1.4.48,2.8.63,4.21.06.62.41,2.22.46,3.1-1.4,2.68-2.34,4.29-2.36,4.33a.31.31,0,0,0,.11.41.3.3,0,0,0,.41-.11S24.25,80,26.14,76.3c.6-.34,1.32-.62,1.79-.84,1-.45,2-.84,3-1.2,2.08-.72,4.19-1.33,6.24-2.14A8,8,0,0,0,41,69.6a1.78,1.78,0,0,0,.38-1,1.51,1.51,0,0,0-1.22-1.34,3.62,3.62,0,0,0-1.92.21,22.24,22.24,0,0,0-7.39,4.19c-1.66,1.36-3.06,3-4.62,4.51.78-1.53,1.65-3.3,2.56-5.24C29.27,70.52,29.88,70.13,30.28,69.84Z" fill="#a7cbcc"/><path d="M182.47,174.14c.44-1,.95-2,1.48-2.92,1.08-1.92,2.26-3.78,3.26-5.74a7.86,7.86,0,0,0,1.14-4.36,1.77,1.77,0,0,0-.37-1,1.5,1.5,0,0,0-1.8-.19,3.74,3.74,0,0,0-1.3,1.43,22.29,22.29,0,0,0-2.76,8c-.32,2-.28,4.08-.44,6.1-.26-2.65-.6-5.54-1.05-8.55-.23-4.77.11-9.6-.77-14.29a6.84,6.84,0,0,0-1-2.74,1.6,1.6,0,0,0-1.09-.75,1.27,1.27,0,0,0-1.11.62,2.85,2.85,0,0,0-.38,1.28,14.51,14.51,0,0,0,.63,5c.86,3.35,1.89,6.65,3,9.94.35,2.24.64,4.42.88,6.5-.29-.77-.64-1.53-.92-2.2a41.55,41.55,0,0,0-1.89-4,42.15,42.15,0,0,0-5-7.3c-.38-.45-.91-1-1.49-.82a1.09,1.09,0,0,0-.67.54,2.81,2.81,0,0,0,.41,2.71,45.23,45.23,0,0,0,5.17,6.85c.91,1.08,1.82,2.16,2.66,3.31.35.46,1.32,1.52,1.85,2.26.37,3.45.59,6.55.73,9-.3-1-.8-2-1.15-2.88-.56-1.36-1.2-2.69-1.89-4a43,43,0,0,0-5-7.29c-.39-.46-.91-.95-1.49-.82a1.05,1.05,0,0,0-.67.53,2.83,2.83,0,0,0,.4,2.72A46.34,46.34,0,0,0,177,178c.92,1.08,1.83,2.17,2.67,3.31.37.51,1.49,1.71,2,2.45.15,3,.17,4.87.17,4.92a.3.3,0,0,0,.3.3.33.33,0,0,0,.15,0,.32.32,0,0,0,.15-.27s0-2.72-.27-6.87c.35-.6.82-1.2,1.12-1.63.62-.89,1.31-1.75,2-2.58,1.42-1.68,2.94-3.27,4.3-5a7.86,7.86,0,0,0,2-4.07,1.77,1.77,0,0,0-.17-1,1.5,1.5,0,0,0-1.73-.53,3.65,3.65,0,0,0-1.55,1.15,22.09,22.09,0,0,0-4.24,7.36c-.74,2-1.1,4.18-1.7,6.23-.1-1.72-.25-3.68-.45-5.82C181.94,175.23,182.27,174.59,182.47,174.14Z" fill="#a7cbcc"/><path d="M30.78,202.2l-4.05,0,0-3.26,0-5,0-4.74,0-5,0-4.74,0-5,0-4.25,0-3.46a6.9,6.9,0,0,0-.17-1.53,6.52,6.52,0,0,0-5.9-5l-.19,0a6.67,6.67,0,0,0-1.49.11A6.5,6.5,0,0,0,15.87,162a5.92,5.92,0,0,0-1,1.16,6.35,6.35,0,0,0-.9,2.2,6.67,6.67,0,0,0-.14,1.36v6.41h-4v-6.41a10.55,10.55,0,0,1,3.25-7.63l.43-.4a10.67,10.67,0,0,1,7.33-2.55,10.81,10.81,0,0,1,2.23.33,10.51,10.51,0,0,1,7.86,9.2,9.83,9.83,0,0,1,0,1.09l0,3.89,0,4.49,0,5,0,4.74,0,5,0,4.74,0,5Z" fill="#f7f0e7"/><polygon points="30.9 180.12 26.85 179.42 26.89 174.41 30.93 175.1 30.9 180.12" fill="#f56a58"/><path d="M31,170.61l-4-.45,0-3.46a6.9,6.9,0,0,0-.17-1.53l4.16.46a9.83,9.83,0,0,1,0,1.09Z" fill="#f56a58"/><path d="M27.43,158.75l-2.13,3.59a6.48,6.48,0,0,0-4.44-2.19l2.2-3.72A10.55,10.55,0,0,1,27.43,158.75Z" fill="#f56a58"/><path d="M15.87,162a5.92,5.92,0,0,0-1,1.16l-1.4-4.47A10.5,10.5,0,0,1,18,156.38l1.21,3.86A6.5,6.5,0,0,0,15.87,162Z" fill="#f56a58"/><path d="M13.86,166.68v3.67l-4-.9v-2.77a10.48,10.48,0,0,1,.24-2.25l3.94.89A6.67,6.67,0,0,0,13.86,166.68Z" fill="#f56a58"/><polygon points="30.84 189.86 26.81 189.17 26.83 184.16 30.87 184.85 30.84 189.86" fill="#f56a58"/><polygon points="30.79 199.61 26.75 198.92 26.78 193.91 30.82 194.6 30.79 199.61" fill="#f56a58"/><path d="M114.94,33.89a.38.38,0,0,1-.26-.11l-9.84-10.45a.4.4,0,0,1,0-.54.33.33,0,0,1,.5,0l9.85,10.45a.4.4,0,0,1,0,.54A.36.36,0,0,1,114.94,33.89Z" fill="#f7f0e7"/><path d="M110,36.05a.37.37,0,0,1-.35-.38V20.89a.36.36,0,1,1,.71,0V35.67A.37.37,0,0,1,110,36.05Z" fill="#f7f0e7"/><path d="M105.09,33.89a.36.36,0,0,1-.25-.11.4.4,0,0,1,0-.54l9.84-10.45a.35.35,0,0,1,.51,0,.4.4,0,0,1,0,.54l-9.85,10.45A.36.36,0,0,1,105.09,33.89Z" fill="#f7f0e7"/><path d="M117,28.66H103.05a.38.38,0,0,1,0-.76H117a.38.38,0,0,1,0,.76Z" fill="#f7f0e7"/><path d="M191.79,136.53a.33.33,0,0,1-.25-.12L181.69,126a.39.39,0,0,1,0-.53.33.33,0,0,1,.5,0L192,135.88a.39.39,0,0,1,0,.53A.33.33,0,0,1,191.79,136.53Z" fill="#f7f0e7"/><path d="M186.86,138.69a.37.37,0,0,1-.35-.38V123.53a.36.36,0,1,1,.71,0v14.78A.37.37,0,0,1,186.86,138.69Z" fill="#f7f0e7"/><path d="M181.94,136.53a.33.33,0,0,1-.25-.12.39.39,0,0,1,0-.53l9.85-10.45a.33.33,0,0,1,.5,0,.39.39,0,0,1,0,.53l-9.85,10.45A.33.33,0,0,1,181.94,136.53Z" fill="#f7f0e7"/><path d="M193.83,131.3H179.9a.38.38,0,0,1,0-.76h13.93a.38.38,0,0,1,0,.76Z" fill="#f7f0e7"/><path d="M24.3,112.27a.36.36,0,0,1-.25-.11L14.2,101.71a.4.4,0,0,1,0-.54.33.33,0,0,1,.5,0l9.85,10.45a.4.4,0,0,1,0,.54A.36.36,0,0,1,24.3,112.27Z" fill="#f7f0e7"/><path d="M19.37,114.43a.37.37,0,0,1-.35-.37V99.28a.36.36,0,1,1,.71,0v14.78A.37.37,0,0,1,19.37,114.43Z" fill="#f7f0e7"/><path d="M14.45,112.27a.36.36,0,0,1-.25-.11.4.4,0,0,1,0-.54l9.85-10.45a.33.33,0,0,1,.5,0,.4.4,0,0,1,0,.54L14.7,112.16A.36.36,0,0,1,14.45,112.27Z" fill="#f7f0e7"/><path d="M26.34,107H12.41a.38.38,0,0,1,0-.75H26.34a.38.38,0,0,1,0,.75Z" fill="#f7f0e7"/><circle cx="49.55" cy="37.24" r="3.19" fill="#f7f0e7"/><circle cx="116.57" cy="98.64" r="3.19" fill="#f7f0e7"/><circle cx="184.99" cy="77.45" r="3.19" fill="#f7f0e7"/><circle cx="18.91" cy="141.92" r="3.19" fill="#f7f0e7"/><circle cx="150.14" cy="192.47" r="3.19" fill="#f7f0e7"/></g></svg>