<svg xmlns="http://www.w3.org/2000/svg" viewBox="0 0 211.66 221.46"><g id="OBJECTS"><path d="M18.12,221.46a6,6,0,0,1-6-6v-66a6,6,0,0,1,.65-2.72V99.21c0-.23,0-.46,0-.69,0,0,0-1,0-1.08,0-1.61.1-3.28.24-5.44,0-.1,0-.47,0-.47.15-2,.36-3.92.62-5.87,0-.15,0-.31.08-.5.1-.78.22-1.54.35-2.31a6.47,6.47,0,0,1,.17-.89c.27-1.08.55-2.17.85-3.24a6.92,6.92,0,0,1-.25-3.47c.34-1.67,1.29-5.22,2.07-8.08a107.88,107.88,0,0,1-5.22-16.43L3.26,46.38A6,6,0,0,1,.72,38.19L8.31,24.13A6,6,0,0,1,13.6,21a5.91,5.91,0,0,1,2.75.67l10,5.19a10.9,10.9,0,0,1,2.5-5.26,8,8,0,0,1,5.6-2.77l.44,0c2.8,0,5.78,1.3,11,7l1.14-1a96.09,96.09,0,0,1,12.54-9.26c.54-.34,1.08-.67,1.63-1l.49-.27c2.54-1.5,5.22-2.93,8-4.24A103.35,103.35,0,0,1,90.14,2.82,100.72,100.72,0,0,1,113.67,0l2.26,0c.83,0,1.72.05,2.61.09h.08A92.82,92.82,0,0,1,136,2.64c2.56.63,5,1.36,7.44,2.16A94.05,94.05,0,0,1,158,11.08c1.68.9,3.24,1.78,4.75,2.7l.72.45c1.86,1.15,3.74,2.41,5.6,3.73s3.58,2.66,5.27,4c.42.34.88.72,1.33,1.11a104.24,104.24,0,0,1,14.64,15.2c.63.81,1.24,1.61,1.84,2.43l.19.24c1.71,2.33,3.36,4.8,4.9,7.33.66,1.07,1.34,2.23,2,3.43a100.26,100.26,0,0,1,5.7,12A95.79,95.79,0,0,1,211,88.07s0,.18,0,.19c.08.66.14,1.26.18,1.88a.2.2,0,0,0,0,.07c.27,2.92.41,6,.41,9V215.46a6,6,0,0,1-6,6Z" fill="#fff"/><path d="M205.15,99.21V215.46H18.26V99.21c0-.18,0-.35,0-.53,0-.38,0-.76,0-1.14,0-1.73.12-3.45.23-5.16,0-.17,0-.33,0-.5q.21-2.76.59-5.48a1.87,1.87,0,0,1,0-.25c.11-.82.23-1.63.37-2.44a1.87,1.87,0,0,1,0-.25C20,81.7,20.5,80,21,78.23c.57-2,1.17-3.9,1.82-5.82a117,117,0,0,1,6.05-14.65c.35-.73.72-1.45,1.1-2.16s.65-1.22,1-1.83a88.65,88.65,0,0,1,4.83-7.84c.45-.67.91-1.33,1.39-2,.27-.37.54-.74.82-1.1s.32-.44.48-.65l.09-.12c1.07-1.4,2.18-2.76,3.34-4.1.15-.18.31-.37.49-.55.81-1,1.67-1.88,2.55-2.8l0,0c1-1,2-2,3-3l.83-.77c.55-.52,1.12-1,1.69-1.52a89.26,89.26,0,0,1,11.75-8.68c.5-.31,1-.62,1.51-.91l.39-.22c2.47-1.46,5-2.81,7.6-4.05A97.64,97.64,0,0,1,91,8.65,94.5,94.5,0,0,1,115.28,6c.85,0,1.69.05,2.53.09h0a86.66,86.66,0,0,1,16.24,2.35c2.34.58,4.66,1.25,6.94,2a87.69,87.69,0,0,1,13.65,5.89q2.26,1.2,4.46,2.53l.34.21.08.05.26.16c1.79,1.11,3.55,2.29,5.27,3.52s3.35,2.48,5,3.8c.41.33.82.67,1.22,1A97.77,97.77,0,0,1,185.07,42c.65.83,1.28,1.66,1.9,2.51h0c1.64,2.24,3.18,4.55,4.62,6.91.65,1.06,1.28,2.14,1.89,3.23A94.19,94.19,0,0,1,198.84,66a89.17,89.17,0,0,1,5.73,22.76l0,.25c.06.53.11,1.06.15,1.6v0h0C205,93.44,205.15,96.3,205.15,99.21Z" fill="#a284a3"/><path d="M33.84,141.11s9.21-25,8-31.74S19.79,78.84,20.27,76.42s2.67-10.18,2.67-10.18-7.76-20.84-5.82-23.5,14.3-5.58,14.3-5.58-1.22-12.11,2.9-12.35S51,42.74,51,42.74L69.7,49.28s-1.21,8.48-6.3,11.14c0,0,14.54,21.57,12.6,32.71s-12.36,60.1-12.36,60.1S47.89,160.25,33.84,141.11Z" fill="#ff8cae"/><g opacity="0.34"><path d="M33.84,141.11s9.21-25,8-31.74S19.79,78.84,20.27,76.42s2.67-10.18,2.67-10.18-7.76-20.84-5.82-23.5,14.3-5.58,14.3-5.58-1.22-12.11,2.9-12.35S51,42.74,51,42.74L69.7,49.28s-1.21,8.48-6.3,11.14c0,0,14.54,21.57,12.6,32.71s-12.36,60.1-12.36,60.1S47.89,160.25,33.84,141.11Z" fill="#3b1d3b"/></g><path d="M136.82,106.22l59.6-25.68s11.84,31.88-10.66,43.61C157.41,138.93,136.82,106.22,136.82,106.22Z" fill="#becce3"/><polygon points="136.82 106.22 79.15 74.72 80.36 70.84 141.66 104.77 136.82 106.22" fill="#becce3"/><polygon points="54.65 60.39 54.79 60.54 54.65 60.4 54.65 60.39" fill="#3b1d3b"/><path d="M84.24,67.93,82,71.74l-2,3.42L77.21,79.8,65,73.9a7.48,7.48,0,0,0,0-3.79,10.49,10.49,0,0,0-6.65-6L56.85,62.6c.6-.11,6.6-1.22,8.76-3.84l.45.21Z" fill="#3b1d3b"/><path d="M60.49,85.07c.06.09-.14.07-.19,0a8.61,8.61,0,0,1-1.2-4.91,6,6,0,0,1,2.38-4.38,8.07,8.07,0,0,1,3.31-1.21A22.06,22.06,0,0,1,60.49,85.07Z" fill="#ff8cae"/><path d="M56,44.24a4.54,4.54,0,0,0,1.27,3.94,8.47,8.47,0,0,0,3.71,2.1,9.23,9.23,0,0,0,4.23.4,5.3,5.3,0,0,0,3.57-2.15Z" fill="#ff8cae"/><path d="M53.81,48.92a4.82,4.82,0,0,0,1.36,4.19,9,9,0,0,0,3.94,2.23,9.8,9.8,0,0,0,4.49.43,5.69,5.69,0,0,0,3.8-2.29Z" fill="#ff8cae"/><path d="M22.94,66.6a.36.36,0,0,1-.33-.22C21.7,64.19,13.89,45,17.49,41.75S36.22,35,40.26,36.47a28.53,28.53,0,0,1,4.81,2.47,44,44,0,0,0,9.6,4.55c1.86.61,3.73,1.2,5.49,1.75,7.15,2.25,9.67,3.11,9.89,3.95.25,1-.88,4-1.11,4.58-.15.37-3.69,9.07-11.23,9.19a.36.36,0,1,1,0-.71c7.07-.12,10.54-8.66,10.58-8.74.5-1.27,1.23-3.52,1.07-4.15-.33-.59-5.15-2.11-9.41-3.44-1.76-.56-3.63-1.14-5.5-1.76a44.82,44.82,0,0,1-9.73-4.6A28.05,28.05,0,0,0,40,37.13c-3.8-1.38-18.64,2.08-22.06,5.14-2.73,2.45,2.9,18,5.3,23.83a.36.36,0,0,1-.19.47A.31.31,0,0,1,22.94,66.6Z" fill="#3b1d3b"/><path d="M22.86,65.79l-.1,0a.35.35,0,0,1-.25-.43c.24-.88,5.94-21.46,12.05-23,4.24-1.09,9.34,1.41,14.26,3.83A58,58,0,0,0,55,48.86C61,50.94,68.64,53.28,68.71,53.3a.35.35,0,0,1,.24.44.36.36,0,0,1-.45.24c-.07,0-7.7-2.37-13.78-4.45a56.09,56.09,0,0,1-6.21-2.76C43.7,44.42,38.72,42,34.74,43,29,44.47,23.26,65.32,23.2,65.53A.37.37,0,0,1,22.86,65.79Z" fill="#3b1d3b"/><path d="M26.93,71.56a.33.33,0,0,1-.21-.07.35.35,0,0,1-.07-.5c.47-.63,11.66-15.38,17.3-16.49s14.56,9,14.93,9.45a.35.35,0,1,1-.53.46c-.09-.1-9-10.26-14.27-9.21S27.33,71.27,27.22,71.42A.37.37,0,0,1,26.93,71.56Z" fill="#3b1d3b"/><path d="M59,86.71a4.72,4.72,0,0,1-2.76-1.26,9.77,9.77,0,0,1-3.07-10.22.36.36,0,0,1,.44-.25.37.37,0,0,1,.24.44,9.09,9.09,0,0,0,2.84,9.48c1.05.87,2.17,1.28,2.71,1,1.27-.63,4.35-7.33,5.24-12.07a7.13,7.13,0,0,0,0-3.59c-1.18-2.89-4.1-6.4-11.26-6.66-.4,0-.81,0-1.24,0C44.29,63.68,35.07,76.14,35,76.26a.36.36,0,1,1-.58-.42c.39-.52,9.53-12.87,17.73-13,.43,0,.86,0,1.28,0C61,63.16,64,66.89,65.3,70a7.69,7.69,0,0,1,0,4c-.9,4.84-4,11.77-5.62,12.58A1.66,1.66,0,0,1,59,86.71Z" fill="#3b1d3b"/><path d="M73.57,215.46h-56v-66a42.76,42.76,0,0,1,8.07-1.67l3.55-11.3,5.8,1.27,30.46,6.71,3.54.78,0,10.29s7.75,11.32,9.36,24.89C79.47,190,75.85,206.45,73.57,215.46Z" fill="#ff8cae"/><path d="M32,36.8,13.08,27,5.49,41l11.63,6S16,46,16.94,43.1,32,36.8,32,36.8Z" fill="#3b1d3b"/><path d="M64.89,140.35l9.71,73.79H181.32l13.79-75.32S64.38,139.84,64.89,140.35Z" fill="#3b1d3b"/><path d="M195.11,139c0,.58-1.93,1.18-5.42,1.74-10,1.61-32.89,2.94-59.6,2.94-25,0-46.71-.88-57.64-2.17-4.82-.57-7.55-1.22-7.55-1.91,0-2.26,29.18-4.09,65.19-4.09S195.11,136.73,195.11,139Z" fill="#f77168"/><path d="M189.69,140.73c-10,1.61-32.89,2.94-59.6,2.94-25,0-46.71-.88-57.64-2.17,3.31-2.13,28.39-3.79,58.84-3.79C161,137.71,185.46,138.77,189.69,140.73Z" fill="#f8ae61"/><path d="M70.33,164.58c-2.07,0-20.36-.26-23.94-4.47a2.85,2.85,0,0,1-.7-2.3c1-6,19.9-5.16,23.69-4.93l-.12,2c-8.43-.53-21.11.14-21.59,3.24a.79.79,0,0,0,.24.69c2.25,2.65,15,3.72,22.44,3.77Z" fill="#3b1d3b"/><path d="M190.79,162.43c5-.26,10.74-.88,14.36-2v2.07a74.62,74.62,0,0,1-14.74,1.92c-2.21.1-3.86.11-4.4.12v-2C187.44,162.57,189.07,162.52,190.79,162.43Z" fill="#3b1d3b"/><path d="M205.15,153.86v2a56.82,56.82,0,0,0-13-1.18c-1.78,0-3.52.06-5.11.16l-.13-2c1-.07,3.08-.17,5.61-.18A53.41,53.41,0,0,1,205.15,153.86Z" fill="#3b1d3b"/><path d="M72.57,148.09h.49A2.93,2.93,0,0,1,76,150.82l.78,11.74a2.93,2.93,0,0,1-3.17,3.11h0a2.93,2.93,0,0,1-2.65-2.6l-1.26-11.74A2.92,2.92,0,0,1,72.57,148.09Z" fill="#fde2d2"/><path d="M193.49,54.66A52.9,52.9,0,0,1,179.61,65c-9.17,4.86-19.26,7.63-29.09,11s-19.66,7.42-27.38,14.35a19.42,19.42,0,0,0-5.09,6.49,9.08,9.08,0,0,0,.09,8c3.3,5.83,12.44,4.46,17.58,8.75,3.75,3.12,4.54,8.78,3.19,13.47A41,41,0,0,1,132,140.4c2.5-4.4.65-10.23-2.9-13.84s-8.43-5.52-13.12-7.41-9.54-4-12.86-7.8a17.06,17.06,0,0,1-1.79-19.27c2.89-4.93,8.09-8,13.3-10.36s10.72-4.17,15.34-7.53a27.76,27.76,0,0,0,8-9.2,19.31,19.31,0,0,0,2.54-11.08c-.9-8.17-8.19-13.91-14.77-18.83S112.09,23.91,112,15.69A16.67,16.67,0,0,1,115.28,6c.85,0,1.69.05,2.53.09h0a86.66,86.66,0,0,1,16.24,2.35c2.34.58,4.66,1.25,6.94,2a9.11,9.11,0,0,0,5.41,5.8,15.45,15.45,0,0,0,6.84.26l1.4-.17q2.26,1.2,4.46,2.53l.34.21.08.05.26.16c1.79,1.11,3.55,2.29,5.27,3.52s3.35,2.48,5,3.8c.41.33.82.67,1.22,1A97.77,97.77,0,0,1,185.07,42c.65.83,1.28,1.66,1.9,2.51h0c1.64,2.24,3.18,4.55,4.62,6.91C192.25,52.49,192.88,53.57,193.49,54.66Z" fill="#fde2d2"/><path d="M70.63,206.41c-11.47,11.85-38.9,13.2-46.45-3.95a19.54,19.54,0,0,1,1-17.49,16.22,16.22,0,0,1,6.39-6.23l.74-.35a11.71,11.71,0,0,1,6.4-.79c2.91.36,5.8,1.38,8.91,1.49,4.13.15,8-1.23,12-1.76a17,17,0,0,1,6.6.27C79.8,181.11,78.76,198,70.63,206.41Z" fill="#f77168"/><path d="M60.66,178.41c0,.3-.29.53-.55.69a8,8,0,0,1-7.69.38A15.6,15.6,0,0,1,54.15,186c0,.9-.27,2.08-1.16,2.11-.62,0-1.07-.57-1.37-1.11A13.15,13.15,0,0,1,50,180a27.74,27.74,0,0,1-2.89,6.65A3.45,3.45,0,0,1,45.84,188a1.4,1.4,0,0,1-1.69-.3,2,2,0,0,1-.15-1.58,21.39,21.39,0,0,1,2.46-6.66,21.36,21.36,0,0,1-8.62,1c-.74-.06-1.7-.46-1.56-1.19.07-.37.42-.61.75-.8a10.5,10.5,0,0,1,1.72-.8c2.91.36,5.8,1.38,8.91,1.49,4.13.15,8-1.23,12-1.76a2.24,2.24,0,0,1,.72.54A.85.85,0,0,1,60.66,178.41Z" fill="#3b1d3b"/><path d="M66,181.52a2.4,2.4,0,0,0-.52,1.24,3.44,3.44,0,0,0,.61,2,15.47,15.47,0,0,0,2.48,3.21,6,6,0,0,0,1.87,1.34,2.56,2.56,0,0,0,2.23-.09,2.7,2.7,0,0,0,1.16-1.75c.48-2.11-.72-4.22-2-5.95A3.53,3.53,0,0,0,66,181.52Z" fill="#fde2d2"/><path d="M72.14,195.4a2.34,2.34,0,0,0,1,0,2.32,2.32,0,1,0-1,0Z" fill="#fde2d2"/><polygon points="120.26 190.99 116.94 182.43 127.41 182.43 123.96 190.99 120.26 190.99" fill="#a284a3"/><path d="M58,215.24s21.7-24.51,64.34-25,68.93,24.26,68.93,24.26Z" fill="#3b1d3b"/><g opacity="0.39"><path d="M58,215.24s21.7-24.51,64.34-25,68.93,24.26,68.93,24.26Z" fill="#a284a3"/></g><path d="M95,35.12l1.36.4a.33.33,0,0,1,0,.64l-1.34.42A7.09,7.09,0,0,0,90.44,41l-.62,1.78a.34.34,0,0,1-.64,0l-.42-1.43a7.11,7.11,0,0,0-4.83-4.82l-1.33-.39a.34.34,0,0,1,0-.65l1.33-.39a7.1,7.1,0,0,0,4.83-4.83L89.15,29a.34.34,0,0,1,.65,0l.39,1.33A7.1,7.1,0,0,0,95,35.12Z" fill="#fde2d2"/><path d="M91.06,113.12l1.36.4a.33.33,0,0,1,0,.64l-1.33.42A7.13,7.13,0,0,0,86.48,119l-.62,1.78a.34.34,0,0,1-.64,0l-.42-1.43A7.11,7.11,0,0,0,80,114.55l-1.34-.39a.34.34,0,0,1,0-.65l1.34-.39a7.11,7.11,0,0,0,4.82-4.83l.39-1.33a.34.34,0,0,1,.65,0l.39,1.33A7.1,7.1,0,0,0,91.06,113.12Z" fill="#fde2d2"/><path d="M190.63,78.9l1.37.4a.34.34,0,0,1,0,.65l-1.33.41a7.12,7.12,0,0,0-4.61,4.46l-.62,1.79a.34.34,0,0,1-.65,0l-.41-1.43a7.12,7.12,0,0,0-4.83-4.83l-1.33-.39a.34.34,0,0,1,0-.65l1.33-.39a7.11,7.11,0,0,0,4.83-4.82l.39-1.34a.34.34,0,0,1,.65,0l.39,1.34A7.11,7.11,0,0,0,190.63,78.9Z" fill="#fde2d2"/><path d="M195,179.24l1.37.4a.34.34,0,0,1,0,.65l-1.33.41a7.12,7.12,0,0,0-4.61,4.46l-.62,1.79a.34.34,0,0,1-.65,0l-.41-1.43a7.11,7.11,0,0,0-4.83-4.82l-1.33-.4a.33.33,0,0,1,0-.64l1.33-.4a7.11,7.11,0,0,0,4.83-4.82l.39-1.34a.34.34,0,0,1,.65,0l.39,1.34A7.11,7.11,0,0,0,195,179.24Z" fill="#fde2d2"/><path d="M34.89,113.37l1.36.4a.34.34,0,0,1,0,.65l-1.33.41a7.13,7.13,0,0,0-4.62,4.46l-.62,1.78a.34.34,0,0,1-.64,0l-.42-1.43a7.1,7.1,0,0,0-4.83-4.83l-1.33-.39a.34.34,0,0,1,0-.65l1.33-.39a7.11,7.11,0,0,0,4.83-4.82l.39-1.34a.34.34,0,0,1,.65,0l.39,1.34A7.11,7.11,0,0,0,34.89,113.37Z" fill="#fde2d2"/></g></svg>