<svg xmlns="http://www.w3.org/2000/svg" viewBox="0 0 198.89 221.47"><g id="OBJECTS"><path d="M6,221.47a6,6,0,0,1-6-6V99.22c0-.24,0-.47,0-.71,0,0,0-1,0-1.06,0-.93.05-1.85.09-2.77S.21,92.9.26,92l0-.34s0-.2,0-.24Q.42,90,.58,88.49c.1-.94.22-1.89.35-2.83,0-.14,0-.3.07-.49.11-.78.22-1.56.36-2.34a6,6,0,0,1,.14-.78c.91-3.63,1.92-7.14,3-10.48a122.79,122.79,0,0,1,6.72-16.48c.66-1.34,1.41-2.78,2.22-4.23a100.42,100.42,0,0,1,6.6-10.44c.5-.67,1-1.32,1.47-2A95.16,95.16,0,0,1,31.59,27.25c2.28-2.15,4.7-4.22,7.22-6.16,1.26-1,2.58-1.94,3.91-2.85s2.72-1.84,4.11-2.7c.55-.34,1.09-.68,1.65-1,2.75-1.63,5.58-3.14,8.43-4.5a103.09,103.09,0,0,1,44-10c1.63,0,3.27,0,4.89.12h.07a92.82,92.82,0,0,1,17.36,2.51A95.22,95.22,0,0,1,150,13.78l.73.45A102.59,102.59,0,0,1,161.56,22c.43.34.88.72,1.33,1.11a104.16,104.16,0,0,1,21.58,25.2,98.09,98.09,0,0,1,13.8,39.75s0,.23,0,.28a104.6,104.6,0,0,1,.58,10.87V215.47a6,6,0,0,1-6,6Z" fill="#fff"/><path d="M193.18,99.63V215.88H6.29V99.63c0-.18,0-.35,0-.53,0-.38,0-.76,0-1.14,0-1.73.12-3.45.23-5.16,0-.17,0-.33,0-.5q.21-2.76.59-5.48a1.87,1.87,0,0,1,0-.25c.11-.82.23-1.63.37-2.44a1.87,1.87,0,0,1,0-.25,125.92,125.92,0,0,1,9.28-25.7c.35-.73.72-1.45,1.1-2.16s.65-1.22,1-1.83a88.65,88.65,0,0,1,4.83-7.84c.45-.67.91-1.33,1.39-2s.92-1.25,1.39-1.87A87.64,87.64,0,0,1,50.28,21.05c.5-.31,1-.62,1.51-.91l.39-.22c2.47-1.46,5-2.81,7.6-4.05a97.64,97.64,0,0,1,19.27-6.8,94.07,94.07,0,0,1,26.79-2.54h0a86.66,86.66,0,0,1,16.24,2.35,89.27,89.27,0,0,1,25,10.44l.34.21.08,0,.26.16c1.79,1.11,3.55,2.29,5.27,3.52s3.35,2.48,5,3.8c.41.33.82.67,1.22,1A97.77,97.77,0,0,1,173.1,42.43c.65.83,1.28,1.66,1.9,2.51h0c1.64,2.24,3.18,4.55,4.62,6.91a93.37,93.37,0,0,1,7.24,14.54,88.62,88.62,0,0,1,5.73,22.76l0,.25c.06.53.11,1.06.15,1.6v0h0C193.05,93.86,193.18,96.72,193.18,99.63Z" fill="#8eb191"/><path d="M153.7,30.29A40.34,40.34,0,1,1,79.05,9.07a94.07,94.07,0,0,1,26.79-2.54h0a86.66,86.66,0,0,1,16.24,2.35,89.27,89.27,0,0,1,25,10.44l.34.21.08,0,.26.16c1.79,1.11,3.55,2.29,5.27,3.52A40.67,40.67,0,0,1,153.7,30.29Z" fill="#becce3"/><path d="M193.18,99.63v41a40.33,40.33,0,1,1-6.31-74.28,88.62,88.62,0,0,1,5.73,22.76l0,.25A96,96,0,0,1,193.18,99.63Z" fill="#becce3"/><path d="M47.82,95A40.34,40.34,0,0,1,7.48,135.31l-1.19,0V99.63c0-.18,0-.35,0-.53,0-.38,0-.76,0-1.14,0-1.73.12-3.45.23-5.16,0-.17,0-.33,0-.5q.21-2.76.59-5.48a1.87,1.87,0,0,1,0-.25c.11-.82.23-1.63.37-2.44a1.87,1.87,0,0,1,0-.25,125.92,125.92,0,0,1,9.28-25.7c.35-.73.72-1.45,1.1-2.16A40.34,40.34,0,0,1,47.82,95Z" fill="#becce3"/><rect x="6.29" y="135.48" width="186.89" height="80.4" fill="#3b1d3b"/><polygon points="189.03 160.05 8.91 160.05 21.34 132.88 181.78 132.88 189.03 160.05" fill="#f8ae61"/><path d="M179.34,157.9h-160a2.91,2.91,0,0,1-2.78-4.1l8.85-18.37a3.07,3.07,0,0,1,2.77-1.69h146a3,3,0,0,1,2.95,2.15l5.16,18.37A2.94,2.94,0,0,1,179.34,157.9Z" fill="none" stroke="#3b1d3b" stroke-miterlimit="10" stroke-width="0.49"/><path d="M8.91,160.05v3.71H189.05v-3.71S9.17,160.31,8.91,160.05Z" fill="#f77168"/><polygon points="99.74 141.92 182.56 139.61 184.45 149.79 99.92 152.09 99.74 141.92" fill="#fde2d2"/><path d="M99.92,152.09A62,62,0,0,0,84,153.92c-8.75,2.42-16.33,7.79-24.21,12.31a14.2,14.2,0,0,1-4.79,2c-1.44.21-3.2-.22-3.69-1.58s.34-2.49,1.13-3.5a34.32,34.32,0,0,1,9.64-8.4q-10.24,5.66-21,10.35a10.88,10.88,0,0,1-4.1,1.16,3.81,3.81,0,0,1-3.56-1.94c-.86-1.9.58-4,2.09-5.48,5.86-5.65,14-8.33,21.58-11.16a176.41,176.41,0,0,1-23.48,4,23.72,23.72,0,0,1-7.19-.2A3.18,3.18,0,0,1,24,149.9a2.67,2.67,0,0,1,.62-2.6c1.39-1.74,3.72-2.4,5.9-2.9A123.5,123.5,0,0,1,57,141.47a86,86,0,0,1-19.75-5.72,19.53,19.53,0,0,1-7.09-4.49,3.56,3.56,0,0,1-1.13-2.6c.17-1.83,2.47-2.58,4.31-2.56,4.88,0,9.44,2.27,13.9,4.27a169.23,169.23,0,0,0,20.15,7,89.49,89.49,0,0,1-19.31-11.49c-2.19-1.72-4.5-3.93-4.43-6.71,1.61-.7,3.45.06,5,.85,8.39,4.26,16,9.83,24.29,14.34s17.42,8,26.81,7.51C99.54,145.49,99.89,148.52,99.92,152.09Z" fill="#8eb191"/><path d="M99.92,152.09A62,62,0,0,0,84,153.92c-8.75,2.42-16.33,7.79-24.21,12.31a14.2,14.2,0,0,1-4.79,2c-1.44.21-3.2-.22-3.69-1.58s.34-2.49,1.13-3.5a34.32,34.32,0,0,1,9.64-8.4q-10.24,5.66-21,10.35a10.88,10.88,0,0,1-4.1,1.16,3.81,3.81,0,0,1-3.56-1.94c-.86-1.9.58-4,2.09-5.48,5.86-5.65,14-8.33,21.58-11.16a176.41,176.41,0,0,1-23.48,4,23.72,23.72,0,0,1-7.19-.2A3.18,3.18,0,0,1,24,149.9a2.67,2.67,0,0,1,.62-2.6c1.39-1.74,3.72-2.4,5.9-2.9A123.5,123.5,0,0,1,57,141.47a86,86,0,0,1-19.75-5.72,19.53,19.53,0,0,1-7.09-4.49,3.56,3.56,0,0,1-1.13-2.6c.17-1.83,2.47-2.58,4.31-2.56,4.88,0,9.44,2.27,13.9,4.27a169.23,169.23,0,0,0,20.15,7,89.49,89.49,0,0,1-19.31-11.49c-2.19-1.72-4.5-3.93-4.43-6.71,1.61-.7,3.45.06,5,.85,8.39,4.26,16,9.83,24.29,14.34s17.42,8,26.81,7.51C99.54,145.49,99.89,148.52,99.92,152.09Z" fill="#3b1d3b" opacity="0.41"/><path d="M65.59,111S76.46,153.76,126,166.35L72.32,105.11Z" fill="#becce3"/><path d="M65.59,111,31.28,71.6a4.84,4.84,0,0,1,.4-6.78h0a4.84,4.84,0,0,1,7,.47l33.69,39.82Z" fill="#3b1d3b"/><path d="M76.72,107.5v.35c0,.75,0,1.51,0,2.26-.09,7.27-.64,14.43-2.15,17.94a5.31,5.31,0,0,1-.58,1.09,2.62,2.62,0,0,1-.82.86,1.55,1.55,0,0,1-.84.29H72c-5.69-.07-6.44-9.39-7-13.21-.18-1.31-.71-4.54-1.33-8.24C63,104.16,62,98.71,61.44,95.44c0,0,0,0,0-.06-.31-1.76-.5-2.87-.5-2.87s-.06,2.16-.39,4.95a42.14,42.14,0,0,1-1.18,6.36,16.35,16.35,0,0,1-1.2,3.18c-.86,1.66-2,2.72-3.44,2.59l-.17,0A7.36,7.36,0,0,1,50,107.69c-.16-.16-.31-.33-.45-.49a5,5,0,0,1-1.07-2.27l-.44,0a16.32,16.32,0,0,1-5.71-.62h0a8,8,0,0,1-1.58-.7c-2.71-1.59-4.44-8.72-4.83-10.48,0-.12,0-.22-.06-.29s0-.07,0-.1-8-8-9.84-11.39c-1.48-2.75-1.92-25.24-2.17-35,.45-.67.91-1.33,1.39-2s.92-1.25,1.39-1.87A87.64,87.64,0,0,1,50.28,21.05c.5-.31,1-.62,1.51-.91l.39-.22c7,11.46,15.26,25.4,17.55,30.41,3.92,8.56,5.28,30.1,6.08,38.32,0,.06,0,.12,0,.18,0,.4.07.76.11,1.09C76.26,92.77,76.71,100,76.72,107.5Z" fill="#ff8cae"/><path d="M76.72,107.5v.35c0,.75,0,1.51,0,2.26-.09,7.27-.64,14.43-2.15,17.94a5.31,5.31,0,0,1-.58,1.09,2.62,2.62,0,0,1-.82.86,1.55,1.55,0,0,1-.84.29H72c-5.69-.07-6.44-9.39-7-13.21-.18-1.31-.71-4.54-1.33-8.24C63,104.16,62,98.71,61.44,95.44c0,0,0,0,0-.06-.31-1.76-.5-2.87-.5-2.87s-.06,2.16-.39,4.95a42.14,42.14,0,0,1-1.18,6.36,16.35,16.35,0,0,1-1.2,3.18c-.86,1.66-2,2.72-3.44,2.59l-.17,0A7.36,7.36,0,0,1,50,107.69c-.16-.16-.31-.33-.45-.49a5,5,0,0,1-1.07-2.27l-.44,0a16.32,16.32,0,0,1-5.71-.62h0a8,8,0,0,1-1.58-.7c-2.71-1.59-4.44-8.72-4.83-10.48,0-.12,0-.22-.06-.29s0-.07,0-.1-8-8-9.84-11.39c-1.48-2.75-1.92-25.24-2.17-35,.45-.67.91-1.33,1.39-2s.92-1.25,1.39-1.87A87.64,87.64,0,0,1,50.28,21.05c.5-.31,1-.62,1.51-.91l.39-.22c7,11.46,15.26,25.4,17.55,30.41,3.92,8.56,5.28,30.1,6.08,38.32,0,.06,0,.12,0,.18,0,.4.07.76.11,1.09C76.26,92.77,76.71,100,76.72,107.5Z" fill="#3b1d3b" opacity="0.4"/><path d="M45.4,75S47.6,103.25,48,104.8c0,0-4.33.2-6.66-.77-3.49-1.45-5-8.54-5.5-11.26s-2.07-20.44-2.07-20.44" fill="none" stroke="#3b1d3b" stroke-linecap="round" stroke-linejoin="round" stroke-width="0.76"/><path d="M48,104.8s2.33,5,6.38,4.79,6.21-6.38,6.21-13.71c0-7.51.18-7.34.18-7.34" fill="none" stroke="#3b1d3b" stroke-linecap="round" stroke-linejoin="round" stroke-width="0.76"/><path d="M59.81,80.18s1.46,13.19,2,18.89,4.14,25.36,5.09,27.77,3.54,4.23,6.21,3.2,4-5.7,3.62-22.43-2.24-35.8-2.84-38.82" fill="none" stroke="#3b1d3b" stroke-linecap="round" stroke-linejoin="round" stroke-width="0.76"/><path d="M69.12,128.4s1.73,1.29,5.44-.35c0,0,1.72-8.45-2.59-9S69.12,128.4,69.12,128.4Z" fill="#ff8cae"/><path d="M186.87,66.39a88.62,88.62,0,0,1,5.73,22.76l0,.25c.06.53.11,1.06.15,1.6v0h0c-.23.6-.48,1.19-.75,1.79-2.35,5.19-6.53,10.13-14.39,13.4-.58.24-1.14.5-1.67.78a21.75,21.75,0,0,0-2.86,1.8c-.29.22-.58.44-.85.67l-.46.4c-.41.36-.8.73-1.16,1.11-4.11,4.18-6.43,9.6-10.34,14.39-1.79,2.2-3.83,4.93-5.9,7.51l-.69.86c-1,1.26-2.05,2.47-3.06,3.54-.32.35-.65.69-1,1a17.15,17.15,0,0,1-2.74,2.31h0l-.3.2c-1.44.85-2.69.95-3.59-.09l-.07-.07a1.1,1.1,0,0,1-.17-.28,2.09,2.09,0,0,1-.11-.3c0-.08,0-.16-.05-.25a5.84,5.84,0,0,1,0-1.61,11.33,11.33,0,0,1,.22-1.14c.13-.55.3-1.15.5-1.78.09-.3.2-.61.31-.93v0l.21-.59c0-.12.09-.25.14-.38s.12-.32.19-.48q.2-.51.42-1c.13-.32.27-.64.41-1,.42-1,.89-2,1.38-3.08.37-.79.76-1.59,1.16-2.39s.66-1.33,1-2c2.68-5.25,5.7-10.57,7.85-14.24l.44-.76c1.11-1.88,1.92-3.23,2.24-3.75l.09-.15,0-.06a.43.43,0,0,0-.07.07l-1.07,1.07c-.11.1-.22.22-.34.34-3,3-9.66,9.83-12.23,13-1.1,1.36-2.2,4.23-3.32,7.48-.19.56-.38,1.12-.57,1.7l-.51,1.54-1.09,3.26h0c-.07.22-.15.44-.22.66,0,.06,0,.13-.07.2l-.09.26c-.16.45-.32.9-.49,1.34-.05.14-.1.28-.16.43l-.33.83c-.05.14-.1.27-.16.4l-.33.77a12.76,12.76,0,0,1-1.8,3.13,2.13,2.13,0,0,1-1.2.78,6.3,6.3,0,0,1-3.74-.64h0l-.48-.27a7.49,7.49,0,0,1-1.71-1.42,6.8,6.8,0,0,1-2.23,1.81,6.9,6.9,0,0,1-3.72.78,6.67,6.67,0,0,1-2.48-.61h0a4.82,4.82,0,0,1-1.48-1.1h0a3.24,3.24,0,0,1-.68-1.13c-1.37-.08-2.24-2.25-2.8-5.35,0-.28-.1-.57-.14-.86-1.16-7.55-.68-19.54-.68-21.48,0-2.85,12.16-27.44,16.3-32.09a5.5,5.5,0,0,1,.49-.47l.25-.2a7.94,7.94,0,0,1,1.08-.66l.36-.18.4-.19a17.59,17.59,0,0,1,1.83-.67l.47-.15,1.09-.3c.3-.08.61-.16.92-.22,1.77-.42,3.74-.78,5.78-1.11l1.32-.2,2.68-.41,2.35-.36c1.18-.19,2.35-.37,3.48-.57l1.12-.21c1.37-.26,2.68-.55,3.87-.87l.7-.2q.69-.2,1.32-.42a15.89,15.89,0,0,0,1.54-.63,3.78,3.78,0,0,0,.7-.43,8.52,8.52,0,0,0,1.75-1.68c.12-.14.23-.29.35-.44h0a11.77,11.77,0,0,0,.69-1h0l.6-.93c.2-.33.4-.66.59-1,.09-.18.19-.35.29-.53l.09-.15c.07-.13.14-.26.2-.4.19-.37.39-.75.58-1.14s.44-.9.65-1.37c.53-1.17,1-2.4,1.56-3.67l.3-.76c.3-.77.59-1.55.87-2.33.19-.52.38-1,.56-1.57,1-2.88,1.91-5.76,2.67-8.34.07-.21.13-.42.19-.62,1.64,2.24,3.18,4.55,4.62,6.91a93.37,93.37,0,0,1,7.24,14.54Z" fill="#ff8cae"/><path d="M192.63,89.4c.06.53.11,1.06.15,1.6v0q-.34.9-.75,1.8c-2.35,5.19-6.53,10.13-14.39,13.4-.58.24-1.14.5-1.67.78a20,20,0,0,0-4.17,2.87c-.41.36-.8.73-1.16,1.11-4.11,4.18-6.43,9.6-10.34,14.39-1.79,2.2-3.83,4.93-5.9,7.51l-.69.86c-2.38,2.93-4.75,5.56-6.77,6.86-1.58,1-2.95,1.23-3.91.11l-.07-.07a1.1,1.1,0,0,1-.17-.28,2.09,2.09,0,0,1-.11-.3c0-.08,0-.16-.05-.25a5.84,5.84,0,0,1,0-1.61,17,17,0,0,1,.57-2.43c.13-.45.29-.93.46-1.42v0l.21-.59h0c.09-.28.2-.56.32-.86.61-1.57,1.37-3.3,2.21-5.1.37-.79.76-1.59,1.16-2.39s.66-1.33,1-2c2.68-5.25,5.7-10.57,7.85-14.24l.44-.76c1.11-1.88,1.92-3.23,2.24-3.75l.09-.15,0-.06a.43.43,0,0,0-.07.07l-1.07,1.07-.34.34c-3,3-9.66,9.83-12.23,13-1.1,1.36-2.2,4.23-3.32,7.48-.72,2.11-1.44,4.37-2.17,6.5-.07.22-.15.44-.23.66,0,.06,0,.13-.07.2l-.09.26c-.16.45-.32.9-.49,1.34-.05.14-.1.28-.16.43l-.33.83c-.05.14-.1.27-.16.4l-.33.77a12.76,12.76,0,0,1-1.8,3.13,2.13,2.13,0,0,1-1.2.78,6.3,6.3,0,0,1-3.74-.64,7.52,7.52,0,0,1-2.21-1.69,6.8,6.8,0,0,1-2.23,1.81,6.9,6.9,0,0,1-3.72.78,6.67,6.67,0,0,1-2.48-.61h0a4.82,4.82,0,0,1-1.48-1.1h0a3.24,3.24,0,0,1-.68-1.13c-1.37-.08-2.24-2.25-2.8-5.35,0-.28-.1-.57-.14-.86-1.16-7.55-.68-19.54-.68-21.48,0-2.85,12.16-27.44,16.3-32.09,2.59-2.91,11.14-3.9,19-5.12,1.18-.19,2.35-.37,3.48-.57l1.12-.21a31.69,31.69,0,0,0,7.43-2.13,8.6,8.6,0,0,0,2.8-2.54h0a11.77,11.77,0,0,0,.69-1s0,0,0,0a36.52,36.52,0,0,0,2.35-4.16c.22-.44.44-.9.65-1.37.53-1.17,1-2.4,1.56-3.67l.3-.76c.3-.77.59-1.55.87-2.33.19-.52.38-1,.56-1.57,1-2.88,1.91-5.76,2.67-8.34l.18-.62c.08-.26.15-.51.22-.75l-.21.75c1.64,2.24,3.18,4.55,4.62,6.91a93.37,93.37,0,0,1,7.24,14.54,88.62,88.62,0,0,1,5.73,22.76Z" fill="#3b1d3b" opacity="0.4"/><path d="M130.12,138.4s1.44,1.61,5.4.72c0,0,3.34-8-.79-9.3S130.12,138.4,130.12,138.4Z" fill="#ff8cae"/><path d="M120.17,129.72c-.58,3.44-1.07,6.47-1.33,8.1l0,.25a2.84,2.84,0,0,1-1.47-.24s-2.3-8.49,1.54-8.47A2.35,2.35,0,0,1,120.17,129.72Z" fill="#ff8cae"/><path d="M151.76,91.86s-15.4,20.83-16.3,22.52c-.79,1.46-4.93,19.39-6,23.94a3.36,3.36,0,0,1-1.29,2,8.63,8.63,0,0,1-4.89,1.63,5.72,5.72,0,0,1-2.51-.43,3.43,3.43,0,0,1-2-3.44l0-.25c.26-1.63.75-4.66,1.33-8.1,1.18-6.92,2.75-15.51,3.65-17.67,1.55-3.76,18.37-26.14,18.37-26.14" fill="none" stroke="#3b1d3b" stroke-linecap="round" stroke-linejoin="round" stroke-width="0.76"/><path d="M119.64,139.44s1.44,1.6,5.4.72c0,0,3.34-8-.79-9.3S119.64,139.44,119.64,139.44Z" fill="#ff8cae"/><path d="M145.31,140.34a6.15,6.15,0,0,1-2.68-.52c-.21-1.18.22-3.11,1.05-5.47.73-.91,1.61-1.43,2.6-.84C149,135.16,145.31,140.34,145.31,140.34Z" fill="#ff8cae"/><path d="M124.36,186l26-4.21c.21-1.89.15-4,1-5.71a8.65,8.65,0,0,1,14.06-2.35c2.57-2,6.23-3.62,9.46-3.46s6.48,2.35,7.08,5.53c.5,2.65-.85,5.28-2.29,7.57a10.18,10.18,0,0,1,4.61-.62,6.75,6.75,0,0,1,5.21,5,7.65,7.65,0,0,1-2.1,7,9,9,0,0,1-7,2.46,1.5,1.5,0,0,1-1.23-.56,10.34,10.34,0,0,1,2.23,7,6.24,6.24,0,0,1-4.1,5.05,7.85,7.85,0,0,1-6.05-1,6.59,6.59,0,0,1-2.72-2.61,13.44,13.44,0,0,1-.92,5,8.78,8.78,0,0,1-2.79,3.44,9.09,9.09,0,0,1-5.07,2.19c-3.13.15-6-2.27-7-5.26a11,11,0,0,1,1.45-9c-1.16,1.34-3.49,2.5-5.19,2a6.23,6.23,0,0,1-3.84-3.44,9.23,9.23,0,0,1-.63-5.22,8.9,8.9,0,0,1,1.9-4.44Z" fill="#8eb191"/><path d="M124.36,186l26-4.21c.21-1.89.15-4,1-5.71a8.65,8.65,0,0,1,14.06-2.35c2.57-2,6.23-3.62,9.46-3.46s6.48,2.35,7.08,5.53c.5,2.65-.85,5.28-2.29,7.57a10.18,10.18,0,0,1,4.61-.62,6.75,6.75,0,0,1,5.21,5,7.65,7.65,0,0,1-2.1,7,9,9,0,0,1-7,2.46,1.5,1.5,0,0,1-1.23-.56,10.34,10.34,0,0,1,2.23,7,6.24,6.24,0,0,1-4.1,5.05,7.85,7.85,0,0,1-6.05-1,6.59,6.59,0,0,1-2.72-2.61,13.44,13.44,0,0,1-.92,5,8.78,8.78,0,0,1-2.79,3.44,9.09,9.09,0,0,1-5.07,2.19c-3.13.15-6-2.27-7-5.26a11,11,0,0,1,1.45-9c-1.16,1.34-3.49,2.5-5.19,2a6.23,6.23,0,0,1-3.84-3.44,9.23,9.23,0,0,1-.63-5.22,8.9,8.9,0,0,1,1.9-4.44Z" fill="#f8ae61" opacity="0.51"/><path d="M142.7,187.47h-.2a12.26,12.26,0,0,1-.67,2.09c-1.26,3-4.14,6.3-10.54,8-14.79,4-91.69-13.32-91.69-13.32l-.29-.28s29.09-6.5,54.9-10.39l.83-.12c2.42-.36,4.81-.7,7.13-1l.79-.1c2.56-.33,5-.62,7.41-.85l.79-.08c2.35-.23,4.59-.4,6.67-.52l.82,0c5.48-.26,9.82-.07,12.31.78,8.48,2.88,11.06,7.8,11.74,11.38A11.16,11.16,0,0,1,142.7,187.47Z" fill="#f77168"/><path d="M98.46,185.34a.38.38,0,0,1-.34.4h0a.37.37,0,0,1-.37-.34c-.32-3.72-1-8.31-3.5-11.8l.83-.12C97.45,177.08,98.14,181.63,98.46,185.34Z" fill="#3b1d3b"/><path d="M105.52,182.92a.37.37,0,0,1-.37.38.38.38,0,0,1-.38-.37,23.12,23.12,0,0,0-2.6-10.45l.79-.1A23.92,23.92,0,0,1,105.52,182.92Z" fill="#3b1d3b"/><path d="M113.85,182.27a.39.39,0,0,1-.36.39h0a.37.37,0,0,1-.37-.35,28.18,28.18,0,0,0-2.73-10.78l.79-.08A28.61,28.61,0,0,1,113.85,182.27Z" fill="#3b1d3b"/><path d="M121.36,182.67a.38.38,0,0,1-.37.38.38.38,0,0,1-.38-.38,27.12,27.12,0,0,0-2.78-11.74l.82,0A27.88,27.88,0,0,1,121.36,182.67Z" fill="#3b1d3b"/><path d="M69.42,198.68a11.05,11.05,0,0,1-5.15,7.08A14.66,14.66,0,0,1,57,207.49h-.61c-2.32,0-4.69-.25-7-.37-1.19-.06-2.37-.08-3.56-.07h-.51c-2.93,0-5.87.22-8.81.38l-.51,0c-2.45.13-4.89.23-7.33.17-.34,0-.69,0-1,0l-.68,0a19.27,19.27,0,0,1-6.9-1.36,12.59,12.59,0,0,1-7.17-10.51A14.11,14.11,0,0,1,18.24,184c5.5-4.41,13.41-4.43,19.36-8.22A9.91,9.91,0,0,0,41,172.33c.29-.52.45-1.25.68-1.71a.75.75,0,0,1,.36-.41.22.22,0,0,1,.16,0,.41.41,0,0,1,.17.05.71.71,0,0,1,.22.16,2.64,2.64,0,0,1,.28.29.47.47,0,0,1,.06.09h0l.06.06s0,0,0,0c.74,1,1.18,2.24,1.91,3.3a.12.12,0,0,0,.05.07,5.45,5.45,0,0,0,.37.47,17.9,17.9,0,0,0,3.32,2.89c3.21,2.19,6.91,3.51,10.41,5.2S66,186.67,68,190A12,12,0,0,1,69.42,198.68Z" fill="#fde2d2"/><path d="M42.19,170.19a5.53,5.53,0,0,1,0,.71,9.06,9.06,0,0,1-3.36,5.72,27.41,27.41,0,0,1-4.45,2.83,35.07,35.07,0,0,0-3.38,2,18.61,18.61,0,0,0-6.82,20.24,10.93,10.93,0,0,0,2.29,4.2,7.7,7.7,0,0,0,2.29,1.72c-.34,0-.69,0-1,0a7.51,7.51,0,0,1-1.63-1.35,11.5,11.5,0,0,1-2.4-4.39,18.89,18.89,0,0,1,7-20.8A36.38,36.38,0,0,1,34.09,179a27.4,27.4,0,0,0,4.38-2.77,8.49,8.49,0,0,0,3.2-5.62,4.85,4.85,0,0,0-.32-2.18l.14-.06.32-.12A5.48,5.48,0,0,1,42.19,170.19Z" fill="#3b1d3b"/><path d="M42.74,172.1a16.1,16.1,0,0,1-.61,4.59,43.87,43.87,0,0,1-2.33,6.1c-.3.67-.6,1.34-.88,2a40.77,40.77,0,0,0-3.41,13.33,26,26,0,0,0,1.05,9.3l-.51,0a26.26,26.26,0,0,1-1-9.35,41.23,41.23,0,0,1,3.45-13.5c.28-.67.58-1.35.88-2a42.15,42.15,0,0,0,2.31-6,14.92,14.92,0,0,0,.5-5.66q0-.35-.12-.69a8.7,8.7,0,0,0-.54-1.83,1.34,1.34,0,0,0-.07-.18l.46-.21a6.62,6.62,0,0,1,.24.62,8.89,8.89,0,0,1,.46,1.79A9.87,9.87,0,0,1,42.74,172.1Z" fill="#3b1d3b"/><path d="M45.88,207.06h-.51c1.17-7.67,2.23-16.13.46-24.07-.42-1.89-1-3.8-1.59-5.64s-1.08-3.47-1.5-5.25c-.15-.62-.28-1.24-.38-1.86s-.18-1.08-.24-1.63q-.06-.54-.09-1.08l.32,0h.18a23.87,23.87,0,0,0,.46,3.35s0,0,0,0,0,.22.06.33h0c.43,2,1.06,4,1.67,6s1.17,3.77,1.6,5.69C48.11,190.88,47.05,199.37,45.88,207.06Z" fill="#3b1d3b"/><path d="M60.62,196.42A20.83,20.83,0,0,1,57,207.49h-.61a20.41,20.41,0,0,0,3.69-11.08,17,17,0,0,0-5.47-12.91A31.89,31.89,0,0,0,51.18,181a31,31,0,0,1-3.51-2.58,16.19,16.19,0,0,1-4.62-7.18h0a2.64,2.64,0,0,1-.12-.4h0a15.78,15.78,0,0,1-.57-3.27c0-.12,0-.25,0-.37l.5,0a15.58,15.58,0,0,0,2.07,7,.12.12,0,0,0,.05.07A14.82,14.82,0,0,0,48,178a29.56,29.56,0,0,0,3.46,2.54A32.48,32.48,0,0,1,55,183.13,17.49,17.49,0,0,1,60.62,196.42Z" fill="#3b1d3b"/><path d="M79.56,32.17l1.37.4a.33.33,0,0,1,0,.64l-1.33.42A7.1,7.1,0,0,0,75,38.08l-.62,1.79a.34.34,0,0,1-.65,0l-.41-1.43a7.11,7.11,0,0,0-4.83-4.82l-1.33-.39a.34.34,0,0,1,0-.65l1.33-.39a7.1,7.1,0,0,0,4.83-4.83L73.7,26a.34.34,0,0,1,.65,0l.39,1.33A7.11,7.11,0,0,0,79.56,32.17Z" fill="#fde2d2"/><path d="M103.18,87.19l1.36.4a.34.34,0,0,1,0,.65l-1.33.41a7.09,7.09,0,0,0-4.61,4.46L98,94.89a.34.34,0,0,1-.65,0l-.42-1.43a7.11,7.11,0,0,0-4.82-4.82l-1.34-.39a.34.34,0,0,1,0-.65l1.34-.39a7.11,7.11,0,0,0,4.82-4.83L97.31,81A.34.34,0,0,1,98,81l.39,1.33A7.1,7.1,0,0,0,103.18,87.19Z" fill="#fde2d2"/><path d="M152.58,37.78l1.37.4a.34.34,0,0,1,0,.65l-1.33.41A7.12,7.12,0,0,0,148,43.7l-.62,1.79a.34.34,0,0,1-.64,0L146.33,44a7.12,7.12,0,0,0-4.83-4.83l-1.33-.39a.34.34,0,0,1,0-.65l1.33-.39A7.11,7.11,0,0,0,146.33,33l.39-1.34a.34.34,0,0,1,.65,0l.39,1.34A7.11,7.11,0,0,0,152.58,37.78Z" fill="#fde2d2"/><path d="M184.75,121.78l1.37.4a.34.34,0,0,1,0,.65l-1.33.41a7.12,7.12,0,0,0-4.61,4.46l-.62,1.79a.34.34,0,0,1-.64,0L178.5,128a7.12,7.12,0,0,0-4.83-4.83l-1.33-.39a.34.34,0,0,1,0-.65l1.33-.39A7.11,7.11,0,0,0,178.5,117l.39-1.34a.34.34,0,0,1,.65,0l.39,1.34A7.11,7.11,0,0,0,184.75,121.78Z" fill="#fde2d2"/><path d="M25.18,121.78l1.36.4a.34.34,0,0,1,0,.65l-1.33.41a7.12,7.12,0,0,0-4.61,4.46L20,129.49a.34.34,0,0,1-.65,0L18.92,128a7.13,7.13,0,0,0-4.82-4.83l-1.34-.39a.34.34,0,0,1,0-.65l1.34-.39A7.11,7.11,0,0,0,18.92,117l.39-1.34a.34.34,0,0,1,.65,0l.39,1.34A7.11,7.11,0,0,0,25.18,121.78Z" fill="#fde2d2"/></g></svg>