<svg xmlns="http://www.w3.org/2000/svg" viewBox="0 0 198.82 215.69"><g id="OBJECTS"><path d="M6.75,215.69a6,6,0,0,1-6-6V163c0-6.12-.19-12.49-.37-18.64-.85-29.08-1.74-59.14,14.88-85.41A102.49,102.49,0,0,1,59.9,20.67c0-.12,0-.24-.08-.35a14.77,14.77,0,0,1,.5-7.14C63.08,3.94,67.76,0,76,0c1,0,2.07.05,3.5.16A19,19,0,0,1,87.27,3a79.82,79.82,0,0,1,11.47,8.6c1,0,2.05-.05,3.07-.05h.45A76.58,76.58,0,0,1,113.66,3a19.12,19.12,0,0,1,7.8-2.81C122.9.05,124,0,125,0c8.22,0,12.9,3.94,15.66,13.18a15,15,0,0,1,.54,6.89c34.21,15.89,57.65,52.05,57.65,90v99.64a6,6,0,0,1-6,6Z" fill="#fff"/><path d="M192.8,110.05v99.64H6.73V163c0-34-5.55-70.6,13.58-100.84,14.74-23.3,40.05-39.3,67.2-43.53a89.24,89.24,0,0,1,45.94,4.7C168.55,36.92,192.8,72.44,192.8,110.05Z" fill="#26575e"/><path d="M191.54,138.65A38,38,0,0,1,185,155.38c-5.2,7.59-12.39,12.92-20.27,15a28.38,28.38,0,0,1-6.25.94l-1.28,0a31,31,0,0,1-16.09-4.58l2.41-4a26.22,26.22,0,0,0,15.4,3.86,24.46,24.46,0,0,0,4.63-.77c6.79-1.78,13-6.44,17.62-13.11a33.53,33.53,0,0,0,5.74-14.68c.69-5.61-.41-11.26-3-15.11a15.38,15.38,0,0,0-11.72-6.69,20,20,0,0,0-8.73,1.24,26.58,26.58,0,0,0-12.92,10.9l-3.93-2.49A30.66,30.66,0,0,1,164,112.48a24.24,24.24,0,0,1,8.68-.85,20.1,20.1,0,0,1,15.2,8.77C191,125.14,192.37,132,191.54,138.65Z" fill="#f56a58"/><path d="M158.94,166.63l-.44,4.67-1.28,0a31,31,0,0,1-16.09-4.58l2.41-4A26.22,26.22,0,0,0,158.94,166.63Z" fill="#44182c"/><path d="M164,112.48l-.46,5a26.58,26.58,0,0,0-12.92,10.9l-3.93-2.49A30.66,30.66,0,0,1,164,112.48Z" fill="#44182c"/><path d="M139.46,197.65l-65.56-.2a12.41,12.41,0,0,1-12.35-11.68L56.36,97.2H158.72l-6.85,89A12.41,12.41,0,0,1,139.46,197.65Z" fill="#f56a58"/><path d="M56.36,97.33l-.42.38a2.46,2.46,0,0,0,.78,4.11h0s24.17,1.42,53.66,1.6,48.16-1.78,48.16-1.78l.93-.09a2.21,2.21,0,0,0,.08-3.65l-.83-.57Z" fill="#fff"/><path d="M158.72,97.33c0,.42-1.38.81-3.87,1.18-7.69,1.11-26,1.89-47.31,1.89-25.33,0-46.37-1.1-50.46-2.56-.47-.16-.72-.33-.72-.51s.45-.47,1.3-.68c5.2-1.37,25.56-2.38,49.88-2.38,22.11,0,40.94.84,48.09,2C157.63,96.61,158.72,97,158.72,97.33Z" fill="#44182c"/><path d="M155.63,96.27a5.45,5.45,0,0,1-.78,2.24c-7.69,1.11-26,1.89-47.31,1.89-25.33,0-46.37-1.1-50.46-2.56.18-.41.37-.8.58-1.19a22.37,22.37,0,0,1,19-11.94A24.08,24.08,0,0,1,86.78,72.08a27.2,27.2,0,0,1,15.41-3.94,13.8,13.8,0,0,0,3.52-.09,3.68,3.68,0,0,0,2.72-2,3.38,3.38,0,0,0-.72-3.37,6.1,6.1,0,0,0-3.06-1.76,10.6,10.6,0,0,0-7.52.8,12.38,12.38,0,0,1,4.21-4.3,22.33,22.33,0,0,1,15.59-3.46,15.68,15.68,0,0,1,8.27,3.71,10.13,10.13,0,0,1,3.33,8.31,14.63,14.63,0,0,1,12.66,3.91,14.89,14.89,0,0,1,4.06,12.65c1.92.15,3.3,1.32,4.83,2.52a16.1,16.1,0,0,1,4.79,6.37A9.83,9.83,0,0,1,155.63,96.27Z" fill="#f7f0e7"/><path d="M124.09,67.44h0a1.16,1.16,0,0,1-1.58.42l-5.69-3.29A1.16,1.16,0,0,1,116.4,63h0a1.16,1.16,0,0,1,1.58-.42l5.69,3.29A1.16,1.16,0,0,1,124.09,67.44Z" fill="#fe99bf"/><path d="M124.09,93h0a1.16,1.16,0,0,1-1.58.43l-5.69-3.29a1.16,1.16,0,0,1-.42-1.58h0a1.16,1.16,0,0,1,1.58-.42l5.69,3.29A1.14,1.14,0,0,1,124.09,93Z" fill="#fe99bf"/><path d="M137.62,81h0a1.17,1.17,0,0,1-1.58.43l-5.69-3.29a1.17,1.17,0,0,1-.43-1.58h0a1.16,1.16,0,0,1,1.58-.42l5.7,3.29A1.14,1.14,0,0,1,137.62,81Z" fill="#a7cbcc"/><path d="M92.11,92.89h0a1.16,1.16,0,0,1-1.58.42L84.84,90a1.17,1.17,0,0,1-.43-1.58h0A1.16,1.16,0,0,1,86,88l5.69,3.28A1.16,1.16,0,0,1,92.11,92.89Z" fill="#a7cbcc"/><path d="M107.31,75.14h0a1.17,1.17,0,0,1,0,1.63l-4.65,4.65a1.16,1.16,0,0,1-1.64,0h0a1.16,1.16,0,0,1,0-1.64l4.65-4.64A1.16,1.16,0,0,1,107.31,75.14Z" fill="#ffc97d"/><path d="M145.69,89h0a1.15,1.15,0,0,1,0,1.63L141,95.28a1.16,1.16,0,0,1-1.64,0h0a1.18,1.18,0,0,1,0-1.64L144.05,89A1.16,1.16,0,0,1,145.69,89Z" fill="#ffc97d"/><path d="M70.92,90.73h0a1.15,1.15,0,0,1,0,1.63L66.27,97a1.15,1.15,0,0,1-1.63,0h0a1.15,1.15,0,0,1,0-1.63l4.65-4.65A1.15,1.15,0,0,1,70.92,90.73Z" fill="#ffc97d"/><path d="M102.27,124.31c-.41.6-.88,1.33-1.38,2.17s-1.06,1.8-1.63,2.84c-.49.88-1,1.81-1.45,2.79s-.93,2-1.36,2.93-.83,1.89-1.2,2.78-.68,1.67-1,2.35-.48,1.22-.63,1.63l-.24.62a.5.5,0,0,1-.51.36.52.52,0,0,1-.34-.12.57.57,0,0,1-.18-.31l-.14-.61c-.09-.4-.21-.93-.37-1.6s-.33-1.44-.52-2.31-.41-1.77-.62-2.72-.44-1.9-.66-2.88-.43-1.89-.62-2.76q-1,2.72-1.94,4.82a28.1,28.1,0,0,1-2,3.64,16.27,16.27,0,0,1-2.11,2.61,10.67,10.67,0,0,1-2.28,1.69,9.1,9.1,0,0,1-2.49.91,12.91,12.91,0,0,1-2.76.28,8.38,8.38,0,0,1-1.6-.17,8.84,8.84,0,0,1-1.69-.51,9.15,9.15,0,0,1-1.6-.86,6.67,6.67,0,0,1-1.36-1.24,5.7,5.7,0,0,1-.93-1.61,5.58,5.58,0,0,1-.35-2,4.77,4.77,0,0,1,.49-2.14,5.15,5.15,0,0,1,1.33-1.67,6.13,6.13,0,0,1,1.94-1.09,6.89,6.89,0,0,1,2.32-.39,7.8,7.8,0,0,1,1.61.15,7,7,0,0,1,1.26.38,5.44,5.44,0,0,1,.94.51c.26.18.47.35.65.5a2.46,2.46,0,0,1,.37.4.74.74,0,0,0,.13.16.64.64,0,0,1,.09.31.55.55,0,0,1-.15.37.5.5,0,0,1-.4.17.55.55,0,0,1-.46-.24l-.23-.27a3.37,3.37,0,0,0-.71-.55,5.38,5.38,0,0,0-1.26-.55,6.37,6.37,0,0,0-1.88-.24,5.75,5.75,0,0,0-1.91.31,4.71,4.71,0,0,0-1.57.87,4.3,4.3,0,0,0-1.07,1.33,3.69,3.69,0,0,0-.39,1.69,4.42,4.42,0,0,0,.3,1.66,4.66,4.66,0,0,0,.81,1.34,4.92,4.92,0,0,0,1.16,1,8,8,0,0,0,1.39.72,8.53,8.53,0,0,0,1.45.42,7.45,7.45,0,0,0,1.37.13,13.64,13.64,0,0,0,2.14-.16,7.77,7.77,0,0,0,2.06-.63,8.93,8.93,0,0,0,2-1.27,12.57,12.57,0,0,0,1.95-2.1A23.43,23.43,0,0,0,86,135a44.17,44.17,0,0,0,1.89-4.32c.19-.5.38-1,.56-1.62s.37-1.16.56-1.74c-.16-.85-.28-1.57-.35-2.16a13.38,13.38,0,0,1-.11-1.49,4.44,4.44,0,0,1,.1-1,1.69,1.69,0,0,1,.26-.57.65.65,0,0,1,.35-.24,1.49,1.49,0,0,1,.36,0,1,1,0,0,1,.32.06.77.77,0,0,1,.34.25,1.7,1.7,0,0,1,.25.57,3.88,3.88,0,0,1,.1,1,11,11,0,0,1-.13,1.6c-.09.6-.22,1.27-.39,2,.12.59.27,1.24.43,2s.33,1.47.51,2.24l.53,2.37.53,2.37c.18.76.34,1.5.5,2.2l.44,1.9L94,138c.38-.93.79-1.91,1.26-3s.94-2.11,1.46-3.19,1-2.1,1.58-3.06c.76-1.36,1.45-2.53,2.09-3.51s1.18-1.78,1.64-2.41.82-1.11,1.09-1.41l.42-.5a.56.56,0,0,1,.39-.15.52.52,0,0,1,.4.16.55.55,0,0,1,.15.38.65.65,0,0,1,0,.2s-.06.16-.17.43-.25.65-.42,1.12-.35,1-.55,1.68-.4,1.32-.59,2.06-.37,1.5-.52,2.3-.25,1.61-.32,2.4c0,.37,0,.75-.07,1.15s0,.8,0,1.2q0,1,.09,1.92a13.88,13.88,0,0,0,.28,1.86,10,10,0,0,0,.55,1.68,5.67,5.67,0,0,0,.85,1.37,3.87,3.87,0,0,0,1.21.95,3.72,3.72,0,0,0,1.62.39.47.47,0,0,1,.36.2.58.58,0,0,1,.14.38.5.5,0,0,1-.16.36.49.49,0,0,1-.37.16,3.42,3.42,0,0,1-.46,0,5,5,0,0,1-3.2-1.73,5.77,5.77,0,0,1-1-1.52,9.93,9.93,0,0,1-.61-1.84,13.56,13.56,0,0,1-.33-2c-.06-.71-.09-1.42-.09-2.14a24.57,24.57,0,0,1,.13-2.57c.08-.85.2-1.69.34-2.5s.32-1.59.51-2.35S102.07,125,102.27,124.31Z" fill="#f7f0e7"/><path d="M109.45,141.29a2.38,2.38,0,0,0,.77.67,2.59,2.59,0,0,0,1.17.25,2.52,2.52,0,0,0,1.28-.34,4.22,4.22,0,0,0,1.06-.89,7.34,7.34,0,0,0,.85-1.22c.25-.45.47-.91.67-1.36a.52.52,0,0,1,.21-.23.46.46,0,0,1,.28-.08.48.48,0,0,1,.4.17.55.55,0,0,1,.15.37.53.53,0,0,1,0,.13l0,.1a10.47,10.47,0,0,1-2.16,3.3,3.91,3.91,0,0,1-2.66,1.14,3.38,3.38,0,0,1-2.79-1.32,4.25,4.25,0,0,1-.66-1.31,5.33,5.33,0,0,1-.21-1.47,4.86,4.86,0,0,1,.18-1.36,3.59,3.59,0,0,1,.51-1.08,2.51,2.51,0,0,1,.81-.72,2.13,2.13,0,0,1,1-.26,1.74,1.74,0,0,1,.66.14,1.85,1.85,0,0,1,.58.39,1.93,1.93,0,0,1,.58,1.43,3.17,3.17,0,0,1-.2,1.11,3.55,3.55,0,0,1-.56,1,4.72,4.72,0,0,1-.84.83A7.07,7.07,0,0,1,109.45,141.29Zm-.44-.94a3.92,3.92,0,0,0,.82-.48,3.75,3.75,0,0,0,.63-.63,3.06,3.06,0,0,0,.4-.73,2.28,2.28,0,0,0,.14-.77.93.93,0,0,0-.21-.66.7.7,0,0,0-.51-.22,1,1,0,0,0-.66.22,1.69,1.69,0,0,0-.45.56,3,3,0,0,0-.25.77,4.78,4.78,0,0,0-.08.84,3.51,3.51,0,0,0,0,.55C108.92,140,109,140.18,109,140.35Z" fill="#f7f0e7"/><path d="M116.77,137a7.22,7.22,0,0,1-.15.73c-.05.22-.11.42-.16.59s-.1.3-.14.41a1.47,1.47,0,0,1-.07.17.52.52,0,0,1-.51.33.57.57,0,0,1-.37-.15.47.47,0,0,1-.17-.38.23.23,0,0,1,0-.13l.08-.18a3.22,3.22,0,0,0,.15-.43c.05-.2.13-.51.21-.93l-.5,0a1.41,1.41,0,0,1-.48-.1.85.85,0,0,1-.37-.27.82.82,0,0,1-.15-.52,2.35,2.35,0,0,1,.14-.67,4.24,4.24,0,0,1,.37-.82,2.84,2.84,0,0,1,.52-.69.81.81,0,0,1,.57-.3.68.68,0,0,1,.54.24,1.93,1.93,0,0,1,.33.6,4.64,4.64,0,0,1,.16.74,4.44,4.44,0,0,1,0,.68h.94a1.88,1.88,0,0,1,1.25.36,1.45,1.45,0,0,1,.44,1.18,5.6,5.6,0,0,1,0,.69c0,.24-.06.49-.1.74s-.07.51-.1.76a6.06,6.06,0,0,0,0,.73,2.31,2.31,0,0,0,.14.86,1.59,1.59,0,0,0,.36.54,1.19,1.19,0,0,0,.46.28,1.34,1.34,0,0,0,.45.08,2,2,0,0,0,1.17-.4,5.75,5.75,0,0,0,1-1,10.34,10.34,0,0,0,.83-1.21c.24-.42.44-.79.61-1.11a.53.53,0,0,1,.47-.27.52.52,0,0,1,.41.17.56.56,0,0,1,.14.36.53.53,0,0,1-.06.26c-.22.4-.47.84-.77,1.34a9.58,9.58,0,0,1-1,1.39,5.68,5.68,0,0,1-1.26,1.09,2.79,2.79,0,0,1-1.53.45,2.45,2.45,0,0,1-1-.2,2.15,2.15,0,0,1-.8-.56,2.56,2.56,0,0,1-.54-.91,3.3,3.3,0,0,1-.21-1.21,7,7,0,0,1,.15-1.44,7.3,7.3,0,0,0,.14-1.36.61.61,0,0,0-.12-.41.74.74,0,0,0-.54-.14h-.44Zm-1-1.07c0-.07,0-.16,0-.27s0-.21,0-.32,0-.2-.06-.27,0-.12-.08-.12-.07,0-.11.11l-.14.26c0,.1-.09.21-.13.32s-.06.21-.08.29Z" fill="#f7f0e7"/><path d="M125.72,137a7.22,7.22,0,0,1-.15.73c0,.22-.11.42-.16.59s-.1.3-.14.41a1.47,1.47,0,0,1-.07.17.52.52,0,0,1-.51.33.55.55,0,0,1-.37-.15.47.47,0,0,1-.17-.38.23.23,0,0,1,0-.13l.08-.18a3.22,3.22,0,0,0,.15-.43c0-.2.13-.51.21-.93l-.5,0a1.53,1.53,0,0,1-.49-.1.88.88,0,0,1-.36-.27.82.82,0,0,1-.15-.52,2.35,2.35,0,0,1,.14-.67,4.24,4.24,0,0,1,.37-.82,2.84,2.84,0,0,1,.52-.69.81.81,0,0,1,.57-.3.68.68,0,0,1,.54.24,1.93,1.93,0,0,1,.33.6,4.64,4.64,0,0,1,.16.74,4.44,4.44,0,0,1,0,.68h.94a1.88,1.88,0,0,1,1.25.36,1.45,1.45,0,0,1,.44,1.18,5.6,5.6,0,0,1-.05.69c0,.24-.06.49-.1.74s-.07.51-.1.76a6.06,6.06,0,0,0,0,.73,2.31,2.31,0,0,0,.14.86,1.59,1.59,0,0,0,.36.54,1.19,1.19,0,0,0,.46.28,1.34,1.34,0,0,0,.45.08,2,2,0,0,0,1.17-.4,5.75,5.75,0,0,0,1-1,10.34,10.34,0,0,0,.83-1.21c.24-.42.44-.79.61-1.11a.53.53,0,0,1,.47-.27.52.52,0,0,1,.41.17.56.56,0,0,1,.14.36.53.53,0,0,1-.06.26c-.22.4-.47.84-.77,1.34a9.58,9.58,0,0,1-1,1.39,5.68,5.68,0,0,1-1.26,1.09,2.79,2.79,0,0,1-1.53.45,2.45,2.45,0,0,1-1-.2,2.15,2.15,0,0,1-.8-.56,2.73,2.73,0,0,1-.55-.91,3.53,3.53,0,0,1-.2-1.21,7,7,0,0,1,.15-1.44,7.3,7.3,0,0,0,.14-1.36.61.61,0,0,0-.12-.41.74.74,0,0,0-.54-.14h-.44Zm-1-1.07c0-.07,0-.16,0-.27s0-.21,0-.32,0-.2-.06-.27,0-.12-.08-.12-.07,0-.11.11l-.14.26c0,.1-.09.21-.13.32s-.06.21-.08.29Z" fill="#f7f0e7"/><path d="M138.51,143.07c.34-.33.68-.68,1-1s.68-.72,1-1.1.63-.79.91-1.2a9.26,9.26,0,0,0,.76-1.34.5.5,0,0,1,.2-.23.49.49,0,0,1,.29-.08.51.51,0,0,1,.4.17.56.56,0,0,1,.15.39.5.5,0,0,1,0,.21,10,10,0,0,1-1,1.72c-.38.52-.79,1-1.21,1.48s-.85.91-1.28,1.35-.85.88-1.24,1.32a16.68,16.68,0,0,0,0,2c0,.66,0,1.37,0,2.12s0,1.23,0,1.85-.1,1.2-.19,1.76a11.85,11.85,0,0,1-.35,1.58,5.13,5.13,0,0,1-.57,1.27,2.8,2.8,0,0,1-.81.86,2,2,0,0,1-1.08.3,1.86,1.86,0,0,1-1.57-.7,3.13,3.13,0,0,1-.55-2,8,8,0,0,1,.15-1.48,14.25,14.25,0,0,1,.43-1.64,17.87,17.87,0,0,1,.65-1.7c.26-.58.53-1.14.83-1.69s.62-1.07.95-1.56a14,14,0,0,1,1-1.35q0-.69.06-1.44c0-.49.05-1,.08-1.37a3.35,3.35,0,0,1-.93,1.07,2.07,2.07,0,0,1-1.22.4,2.11,2.11,0,0,1-1.71-.74,3,3,0,0,1-.62-2,7.48,7.48,0,0,1,.18-1.71,10.38,10.38,0,0,1,.39-1.33,5.56,5.56,0,0,1,.38-.85c.12-.19.17-.29.17-.28a.52.52,0,0,1,.45-.24.54.54,0,0,1,.4.16.55.55,0,0,1,.15.38.48.48,0,0,1-.09.29l-.14.24a4.83,4.83,0,0,0-.33.73,8,8,0,0,0-.33,1.14,6.52,6.52,0,0,0-.15,1.45,2.3,2.3,0,0,0,.29,1.24,1,1,0,0,0,.93.45c.55,0,1-.41,1.49-1.22a12.72,12.72,0,0,0,1.12-3.54.5.5,0,0,1,.18-.31.5.5,0,0,1,.34-.12.55.55,0,0,1,.55.55s0,.2-.06.51-.08.73-.14,1.25-.1,1.12-.16,1.8S138.55,142.29,138.51,143.07Zm-1.15,3.06a18.39,18.39,0,0,0-1.19,2,19.58,19.58,0,0,0-.93,2.06,14.41,14.41,0,0,0-.6,2,7.24,7.24,0,0,0-.22,1.67,2.3,2.3,0,0,0,.25,1.18.83.83,0,0,0,.78.42,1.07,1.07,0,0,0,.84-.46,4.19,4.19,0,0,0,.62-1.34,12.13,12.13,0,0,0,.38-2.09,25.83,25.83,0,0,0,.13-2.76c0-.42,0-.84,0-1.26S137.37,146.61,137.36,146.13Z" fill="#f7f0e7"/><path d="M100.58,169a.66.66,0,0,1-.18.45.51.51,0,0,1-.45.16,9.88,9.88,0,0,1-2.61-.53,8.14,8.14,0,0,1-2-1.07,8.54,8.54,0,0,1-1.61-1.57,16.57,16.57,0,0,1-1.33-2q-.61-1.11-1.2-2.43c-.38-.88-.79-1.81-1.2-2.8-1.86,1.81-3.78,3.59-5.78,5.34s-4.09,3.48-6.28,5.17l-.35.29-.24.18-.18.09a.58.58,0,0,1-.19,0,.57.57,0,0,1-.43-.19.58.58,0,0,1-.19-.44.59.59,0,0,1,.11-.34.28.28,0,0,1,.06-.08l.09-.08.18-.15.35-.27c2.23-1.73,4.36-3.49,6.41-5.29s4-3.62,5.91-5.47a.17.17,0,0,1,0-.11.22.22,0,0,0,0-.11c-.47-1.07-.91-2.1-1.32-3.1s-.82-1.93-1.25-2.8a20,20,0,0,0-1.36-2.39,8.51,8.51,0,0,0-1.67-1.85,7.11,7.11,0,0,0-2.16-1.2,8.36,8.36,0,0,0-2.82-.43,7.33,7.33,0,0,0-1.89.25,9.27,9.27,0,0,0-1.88.7,9.82,9.82,0,0,0-1.72,1.1,7.9,7.9,0,0,0-1.44,1.45,6.71,6.71,0,0,0-1,1.74,5.46,5.46,0,0,0-.36,2,4.9,4.9,0,0,0,.28,1.66,4.13,4.13,0,0,0,.78,1.3,3.51,3.51,0,0,0,2.63,1.14,4.46,4.46,0,0,0,1.55-.26,6.63,6.63,0,0,0,1.19-.56,5.53,5.53,0,0,0,.76-.57,1.84,1.84,0,0,1,.29-.27.6.6,0,0,1,.44-.18.59.59,0,0,1,.43.19A.62.62,0,0,1,79,156a.61.61,0,0,1-.18.45l-.39.35a4.78,4.78,0,0,1-.95.69,8.83,8.83,0,0,1-1.44.66,5.58,5.58,0,0,1-1.88.3,4.65,4.65,0,0,1-1.94-.4A4.58,4.58,0,0,1,70.68,157a5.3,5.3,0,0,1-1-1.68,5.9,5.9,0,0,1-.38-2.14,6.81,6.81,0,0,1,.38-2.25,8.76,8.76,0,0,1,1-2,9.41,9.41,0,0,1,1.57-1.71A10.29,10.29,0,0,1,76.41,145a9.16,9.16,0,0,1,2.31-.3,10.5,10.5,0,0,1,3.12.43,8.09,8.09,0,0,1,2.38,1.21,8.66,8.66,0,0,1,1.83,1.89,19.67,19.67,0,0,1,1.51,2.48c.47.9.92,1.88,1.36,2.94s.92,2.16,1.44,3.32q3.27-3.3,6-6.58a81.15,81.15,0,0,0,5-6.5.64.64,0,0,1,1-.07.64.64,0,0,1,.17.42.53.53,0,0,1-.11.36c-1.54,2.23-3.26,4.48-5.18,6.75s-4,4.55-6.32,6.85L92,160.8c.36.84.73,1.62,1.1,2.35a16,16,0,0,0,1.21,2,8.12,8.12,0,0,0,1.44,1.58,7,7,0,0,0,1.83,1.09,7.53,7.53,0,0,0,2.35.49.73.73,0,0,1,.45.19A.59.59,0,0,1,100.58,169Z" fill="#f7f0e7"/><path d="M103.82,167.61c.16-.33.38-.74.63-1.23s.53-1,.81-1.48.56-1,.83-1.41a9.05,9.05,0,0,1,.69-1,3,3,0,0,1,1-.83,2.13,2.13,0,0,1,.94-.25,1.45,1.45,0,0,1,.74.18,1.56,1.56,0,0,1,.5.49,2.41,2.41,0,0,1,.3.71,3.46,3.46,0,0,1,.1.87q0,.27,0,.69c0,.29,0,.6,0,.93s0,.67,0,1,0,.69,0,1l.57-1.1.63-1.2c.22-.4.42-.77.62-1.12a8.48,8.48,0,0,1,.55-.85,4.48,4.48,0,0,1,1.33-1.31,2.39,2.39,0,0,1,1.1-.33,1.82,1.82,0,0,1,.92.21,1.46,1.46,0,0,1,.57.53,1.92,1.92,0,0,1,.29.72,3.42,3.42,0,0,1,.09.76,8,8,0,0,1-.09,1.17,12.2,12.2,0,0,0-.08,1.46q0,.34,0,.69a2.1,2.1,0,0,0,.15.61.94.94,0,0,0,.33.43,1,1,0,0,0,.63.17,1.77,1.77,0,0,0,.85-.22,3.87,3.87,0,0,0,.79-.59,6.61,6.61,0,0,0,.72-.83c.22-.31.43-.61.62-.92s.35-.61.49-.89.26-.52.35-.72a.71.71,0,0,1,.23-.28.64.64,0,0,1,.33-.1.57.57,0,0,1,.46.21.7.7,0,0,1,.17.44.5.5,0,0,1,0,.23l-.26.55a9.94,9.94,0,0,1-.53,1c-.22.36-.48.74-.77,1.13a7.28,7.28,0,0,1-1,1.1,4.75,4.75,0,0,1-1.14.83,2.68,2.68,0,0,1-1.29.32,2.4,2.4,0,0,1-1.18-.25,2,2,0,0,1-.73-.69,2.86,2.86,0,0,1-.37-1,6.45,6.45,0,0,1-.1-1.17,13.87,13.87,0,0,1,.08-1.5,8.76,8.76,0,0,0,.09-1.07,2.05,2.05,0,0,0-.08-.63.7.7,0,0,0-.18-.3.34.34,0,0,0-.21-.1H115a1.24,1.24,0,0,0-.83.44,7.11,7.11,0,0,0-.9,1.16c-.31.49-.63,1-1,1.66s-.66,1.24-1,1.88c-.18.36-.34.65-.47.88a2.52,2.52,0,0,1-.36.54,1.22,1.22,0,0,1-.34.29.86.86,0,0,1-.36.08.77.77,0,0,1-.66-.3,1.33,1.33,0,0,1-.22-.78c0-.16,0-.38,0-.66s0-.58,0-.91,0-.67.05-1,0-.69,0-1,0-.61,0-.87,0-.44,0-.58a1,1,0,0,0-.15-.62.45.45,0,0,0-.35-.19.8.8,0,0,0-.4.14,2,2,0,0,0-.52.51,10.38,10.38,0,0,0-.59.87q-.36.57-.75,1.26c-.27.46-.53.94-.79,1.42s-.48.92-.67,1.31a2.67,2.67,0,0,1-.69,1,1.16,1.16,0,0,1-.68.26.86.86,0,0,1-.71-.29,1.18,1.18,0,0,1-.23-.77s0-.23,0-.6,0-.8.06-1.33,0-1.08.08-1.68.05-1.15.07-1.67a4.69,4.69,0,0,0,0-.76c0-.23-.08-.37-.14-.41s-.26.23-.52.61a13.2,13.2,0,0,0-1,2,.68.68,0,0,1-.25.28.62.62,0,0,1-.35.1.55.55,0,0,1-.44-.19.66.66,0,0,1-.17-.44.79.79,0,0,1,0-.25,11.36,11.36,0,0,1,1.42-2.6,1.85,1.85,0,0,1,1.33-.84,1.07,1.07,0,0,1,.63.18,1.24,1.24,0,0,1,.41.44,2.06,2.06,0,0,1,.21.62,3.27,3.27,0,0,1,.07.68c0,1,0,1.88-.07,2.7S103.87,166.78,103.82,167.61Z" fill="#f7f0e7"/><path d="M134.42,164.47l-.27.55c-.14.28-.31.61-.53,1s-.46.74-.75,1.14a7.72,7.72,0,0,1-1,1.09,5,5,0,0,1-1.14.82,2.68,2.68,0,0,1-1.29.32,2.24,2.24,0,0,1-1.61-.61,3.44,3.44,0,0,1-1-1.54,4.9,4.9,0,0,1-1.34,1.5,2.67,2.67,0,0,1-1.56.55,2.6,2.6,0,0,1-1.1-.22,2.33,2.33,0,0,1-.85-.63,2.94,2.94,0,0,1-.54-.95,3.76,3.76,0,0,1-.19-1.19,5.54,5.54,0,0,1,.44-2.27,5.22,5.22,0,0,1,1.12-1.65,4.55,4.55,0,0,1,1.5-1A4.18,4.18,0,0,1,126,161a3.16,3.16,0,0,1,1,.14,4.21,4.21,0,0,1,.73.31,2.77,2.77,0,0,1,.47.3l.19.16a.68.68,0,0,1,.18.45.6.6,0,0,1-.18.43.59.59,0,0,1-.43.19.61.61,0,0,1-.45-.18l-.15-.12a1.68,1.68,0,0,0-.31-.19,2.41,2.41,0,0,0-.48-.18,2.79,2.79,0,0,0-.62-.07,3,3,0,0,0-1.09.23,3.29,3.29,0,0,0-1,.72,4.19,4.19,0,0,0-.81,1.22,4.44,4.44,0,0,0-.32,1.75,2.85,2.85,0,0,0,.07.64,1.64,1.64,0,0,0,.23.58,1.24,1.24,0,0,0,.45.43,1.31,1.31,0,0,0,.69.17,1.6,1.6,0,0,0,.69-.2,2.69,2.69,0,0,0,.74-.61,4.5,4.5,0,0,0,.64-1,5.13,5.13,0,0,0,.41-1.49.58.58,0,0,1,.21-.39.64.64,0,0,1,.43-.16.55.55,0,0,1,.41.18.65.65,0,0,1,.19.42c0,.21,0,.5.07.88a4.91,4.91,0,0,0,.22,1.13,2.71,2.71,0,0,0,.52,1,1.17,1.17,0,0,0,1,.41,1.6,1.6,0,0,0,.78-.21,3.59,3.59,0,0,0,.76-.57,7.15,7.15,0,0,0,.72-.81c.22-.31.43-.61.62-.92s.35-.61.49-.89.27-.54.37-.75a.6.6,0,0,1,.24-.28.64.64,0,0,1,.33-.1.57.57,0,0,1,.46.21.7.7,0,0,1,.17.44A.5.5,0,0,1,134.42,164.47Z" fill="#f7f0e7"/><path d="M135.12,163l-.24.59c-.1.22-.2.45-.33.69a1.6,1.6,0,0,1-.3.44.54.54,0,0,1-.41.16.6.6,0,0,1-.44-.17.58.58,0,0,1-.17-.41.59.59,0,0,1,0-.14,1.64,1.64,0,0,1,.08-.19,9.83,9.83,0,0,0,.64-1.45,10.14,10.14,0,0,0,.34-1.29,5.3,5.3,0,0,1-.17-.65,3.29,3.29,0,0,1,0-.54,1.59,1.59,0,0,1,.23-.89.74.74,0,0,1,.65-.34.69.69,0,0,1,.6.33,1.41,1.41,0,0,1,.23.81,3.07,3.07,0,0,1-.05.53c0,.18-.08.4-.14.66.26.63.51,1.19.76,1.67s.48.93.68,1.33a11.5,11.5,0,0,1,.49,1.14,3,3,0,0,1,.19,1.05,3.17,3.17,0,0,1-.28,1.33,2.54,2.54,0,0,1-.93,1.06h.33a3.56,3.56,0,0,0,1.74-.43,5.62,5.62,0,0,0,1.43-1.11,9.52,9.52,0,0,0,1.13-1.52A15.6,15.6,0,0,0,142,164c.11-.25.27-.38.46-.38a.53.53,0,0,1,.44.2.66.66,0,0,1,.16.43.7.7,0,0,1,0,.25c-.12.3-.28.64-.47,1a10.61,10.61,0,0,1-.7,1.17,10,10,0,0,1-.93,1.18,7.32,7.32,0,0,1-1.18,1,6,6,0,0,1-1.43.72,4.93,4.93,0,0,1-1.7.28,5.36,5.36,0,0,1-2.06-.39,3.38,3.38,0,0,1-1.55-1.28.55.55,0,0,1-.1-.32.65.65,0,0,1,.19-.44.63.63,0,0,1,.44-.19.6.6,0,0,1,.45.19.59.59,0,0,0,.11.1l.24.17a2.53,2.53,0,0,0,.33.16,1.32,1.32,0,0,0,.39.06,1.26,1.26,0,0,0,.67-.16,1.45,1.45,0,0,0,.44-.41,1.7,1.7,0,0,0,.24-.51,1.78,1.78,0,0,0,.07-.47,2.66,2.66,0,0,0-.13-.83,6.32,6.32,0,0,0-.34-.83c-.14-.27-.28-.56-.44-.85A9.54,9.54,0,0,1,135.12,163Z" fill="#f7f0e7"/><path d="M148.7,122.86a.19.19,0,0,1-.15-.07l-6.1-6.09a.23.23,0,0,1,0-.31.21.21,0,0,1,.31,0l6.1,6.09a.21.21,0,0,1,0,.31A.2.2,0,0,1,148.7,122.86Z" fill="#fff"/><path d="M145.66,124.12a.22.22,0,0,1-.23-.22v-8.62a.22.22,0,0,1,.23-.22.22.22,0,0,1,.22.22v8.62A.22.22,0,0,1,145.66,124.12Z" fill="#fff"/><path d="M142.61,122.86a.2.2,0,0,1-.16-.07.23.23,0,0,1,0-.31l6.1-6.09a.22.22,0,0,1,.31.31l-6.1,6.09A.19.19,0,0,1,142.61,122.86Z" fill="#fff"/><path d="M150,119.81h-8.62a.22.22,0,1,1,0-.44H150a.22.22,0,0,1,0,.44Z" fill="#fff"/><path d="M73.54,181.54a.26.26,0,0,1-.18-.07l-7.17-7.18a.25.25,0,0,1,0-.36.25.25,0,0,1,.37,0l7.17,7.17a.26.26,0,0,1-.19.44Z" fill="#fff"/><path d="M70,183a.26.26,0,0,1-.26-.26V172.62a.26.26,0,0,1,.26-.26.26.26,0,0,1,.26.26v10.15A.26.26,0,0,1,70,183Z" fill="#fff"/><path d="M66.37,181.54a.26.26,0,0,1-.18-.07.27.27,0,0,1,0-.37l7.17-7.17a.25.25,0,0,1,.37,0,.25.25,0,0,1,0,.36l-7.17,7.18A.26.26,0,0,1,66.37,181.54Z" fill="#fff"/><path d="M75,178H64.89a.26.26,0,0,1-.26-.26.25.25,0,0,1,.26-.26H75a.26.26,0,0,1,.26.26A.26.26,0,0,1,75,178Z" fill="#fff"/><path d="M112.72,115.71a.27.27,0,0,1-.18-.08l-7.17-7.17a.26.26,0,0,1,.37-.37l7.17,7.17a.27.27,0,0,1,0,.37A.27.27,0,0,1,112.72,115.71Z" fill="#fff"/><path d="M109.14,117.19a.26.26,0,0,1-.26-.26V106.79a.26.26,0,0,1,.52,0v10.14A.26.26,0,0,1,109.14,117.19Z" fill="#fff"/><path d="M105.55,115.71a.27.27,0,0,1-.18-.08.27.27,0,0,1,0-.37l7.17-7.17a.26.26,0,0,1,.37.37l-7.17,7.17A.27.27,0,0,1,105.55,115.71Z" fill="#fff"/><path d="M114.21,112.12H104.07a.26.26,0,0,1,0-.52h10.14a.26.26,0,0,1,0,.52Z" fill="#fff"/><path d="M114.32,189.27a.23.23,0,0,1-.18-.08L107,182a.25.25,0,0,1,0-.36.25.25,0,0,1,.37,0l7.17,7.17a.25.25,0,0,1,0,.36A.24.24,0,0,1,114.32,189.27Z" fill="#fff"/><path d="M110.74,190.76a.26.26,0,0,1-.26-.26V180.35a.26.26,0,0,1,.26-.26.26.26,0,0,1,.26.26V190.5A.26.26,0,0,1,110.74,190.76Z" fill="#fff"/><path d="M107.15,189.27a.23.23,0,0,1-.18-.08.25.25,0,0,1,0-.36l7.17-7.17a.25.25,0,0,1,.37,0,.25.25,0,0,1,0,.36l-7.17,7.17A.24.24,0,0,1,107.15,189.27Z" fill="#fff"/><path d="M115.81,185.69H105.67a.26.26,0,0,1-.26-.26.25.25,0,0,1,.26-.26h10.14a.26.26,0,0,1,.26.26A.26.26,0,0,1,115.81,185.69Z" fill="#fff"/><path d="M146.84,182.61a.27.27,0,0,1-.18-.08l-7.17-7.17a.26.26,0,0,1,.37-.37l7.17,7.17a.27.27,0,0,1,0,.37A.27.27,0,0,1,146.84,182.61Z" fill="#fff"/><path d="M143.26,184.09a.25.25,0,0,1-.26-.26V173.69a.26.26,0,0,1,.26-.26.26.26,0,0,1,.26.26v10.14A.26.26,0,0,1,143.26,184.09Z" fill="#fff"/><path d="M139.67,182.61a.25.25,0,0,1-.18-.08.27.27,0,0,1,0-.37l7.17-7.17a.26.26,0,0,1,.37.37l-7.17,7.17A.29.29,0,0,1,139.67,182.61Z" fill="#fff"/><path d="M148.33,179H138.19a.25.25,0,0,1-.26-.26.26.26,0,0,1,.26-.26h10.14a.26.26,0,0,1,.26.26A.26.26,0,0,1,148.33,179Z" fill="#fff"/><path d="M73.72,126.29a.24.24,0,0,1-.19-.08L66,118.68a.26.26,0,0,1,0-.38.27.27,0,0,1,.39,0l7.53,7.53a.28.28,0,0,1,0,.38A.27.27,0,0,1,73.72,126.29Z" fill="#fff"/><path d="M70,127.85a.28.28,0,0,1-.28-.27V116.93a.28.28,0,0,1,.28-.27.27.27,0,0,1,.27.27v10.65A.27.27,0,0,1,70,127.85Z" fill="#fff"/><path d="M66.19,126.29a.24.24,0,0,1-.19-.08.26.26,0,0,1,0-.38l7.53-7.53a.27.27,0,0,1,.39,0,.28.28,0,0,1,0,.38l-7.53,7.53A.27.27,0,0,1,66.19,126.29Z" fill="#fff"/><path d="M75.28,122.53H64.63a.28.28,0,0,1,0-.55H75.28a.28.28,0,1,1,0,.55Z" fill="#fff"/><path d="M61.28,51.39s-34.93,1.89-34.46,5.79,31.63-3.78,34.93-5.9" fill="#a7cbcc"/><path d="M71.31,41.83s-31-3.54-31.51,1.42S62.58,47.15,71.31,41.83Z" fill="#a7cbcc"/><path d="M71.67,41.48c.11-.41-9.09,26-3.9,27.62S70.13,46.79,71.67,41.48Z" fill="#a7cbcc"/><path d="M34.41,70.69a.35.35,0,0,1-.31-.18.35.35,0,0,1,.14-.47,143,143,0,0,0,50.42-45.4.36.36,0,0,1,.48-.09.34.34,0,0,1,.09.48A143.66,143.66,0,0,1,34.57,70.65.32.32,0,0,1,34.41,70.69Z" fill="#44182c"/><path d="M54.59,70.07a.34.34,0,0,1-.3-.51L68.14,44.85a.34.34,0,0,1,.47-.13.33.33,0,0,1,.13.47L54.89,69.9A.34.34,0,0,1,54.59,70.07Z" fill="#44182c"/><path d="M38.62,71a5,5,0,1,1-5-5A5,5,0,0,1,38.62,71Z" fill="#f56a58"/><circle cx="54.2" cy="70.99" r="4.96" fill="#f56a58"/><path d="M134.56,48.33S169.5,50.22,169,54.11s-31.63-3.77-34.94-5.9" fill="#a7cbcc"/><path d="M124.53,38.77s31-3.54,31.51,1.42S133.27,44.08,124.53,38.77Z" fill="#a7cbcc"/><path d="M124.18,38.42c-.12-.41,9.09,26,3.89,27.61S125.71,43.73,124.18,38.42Z" fill="#a7cbcc"/><path d="M161.44,67.63a.3.3,0,0,1-.16,0A143.49,143.49,0,0,1,110.61,22a.35.35,0,0,1,.57-.39A143,143,0,0,0,161.6,67a.35.35,0,0,1-.16.66Z" fill="#44182c"/><path d="M141.25,67a.33.33,0,0,1-.3-.18L127.1,42.13a.37.37,0,0,1,.13-.48.36.36,0,0,1,.48.14l13.84,24.7a.35.35,0,0,1-.13.48A.33.33,0,0,1,141.25,67Z" fill="#44182c"/><path d="M157.22,67.92a5,5,0,1,0,5-5A5,5,0,0,0,157.22,67.92Z" fill="#f56a58"/><path d="M138.14,64.42a5,5,0,1,0,7,0A4.95,4.95,0,0,0,138.14,64.42Z" fill="#f56a58"/><path d="M25.25,110.59c.88-.64,1.81-1.22,2.75-1.77,1.9-1.1,3.87-2.1,5.72-3.28a7.93,7.93,0,0,0,3.2-3.19,1.9,1.9,0,0,0,.19-1,1.51,1.51,0,0,0-1.46-1.08,3.71,3.71,0,0,0-1.84.57,22.18,22.18,0,0,0-6.45,5.52c-1.3,1.57-2.32,3.37-3.48,5,1.12-2.41,2.29-5.08,3.43-7.89,2.22-4.24,5-8.22,6.59-12.72a6.92,6.92,0,0,0,.53-2.86,1.58,1.58,0,0,0-.56-1.2,1.28,1.28,0,0,0-1.27,0,2.72,2.72,0,0,0-1,.91,14.45,14.45,0,0,0-2,4.64c-1,3.32-1.75,6.68-2.5,10.06-.83,2.1-1.69,4.13-2.54,6,.14-.81.22-1.65.32-2.37a43.32,43.32,0,0,0,.4-4.4,42.52,42.52,0,0,0-.58-8.8c-.1-.59-.3-1.29-.87-1.47a1.1,1.1,0,0,0-.85.12A2.84,2.84,0,0,0,22,94a47,47,0,0,0,1,8.52c.25,1.4.48,2.79.63,4.21.05.57.36,2,.44,2.89-1.43,3.16-2.81,5.94-3.94,8.13.24-1,.33-2.13.46-3.06a40.61,40.61,0,0,0,.39-4.4,41.85,41.85,0,0,0-.58-8.8c-.1-.59-.3-1.28-.87-1.47a1.15,1.15,0,0,0-.85.12,2.84,2.84,0,0,0-1,2.55,45.23,45.23,0,0,0,1,8.52c.24,1.4.48,2.8.62,4.21.07.62.41,2.23.46,3.11-1.4,2.67-2.33,4.28-2.35,4.32a.29.29,0,0,0,.11.41.28.28,0,0,0,.15,0,.29.29,0,0,0,.26-.15s1.37-2.35,3.26-6.06c.6-.34,1.31-.62,1.78-.83,1-.46,2-.85,3.05-1.21,2.07-.72,4.19-1.33,6.24-2.13a7.87,7.87,0,0,0,3.74-2.52,1.85,1.85,0,0,0,.39-1A1.51,1.51,0,0,0,35.09,108a3.77,3.77,0,0,0-1.93.21,22.2,22.2,0,0,0-7.38,4.19c-1.66,1.37-3.06,3-4.62,4.52.78-1.54,1.65-3.31,2.56-5.25C24.23,111.26,24.84,110.88,25.25,110.59Z" fill="#a7cbcc"/><path d="M176,105.48c-.89-.64-1.82-1.21-2.76-1.76-1.9-1.11-3.87-2.11-5.72-3.29a7.87,7.87,0,0,1-3.2-3.19,1.8,1.8,0,0,1-.18-1,1.49,1.49,0,0,1,1.45-1.08,3.71,3.71,0,0,1,1.84.57,22.35,22.35,0,0,1,6.46,5.52c1.29,1.57,2.31,3.38,3.48,5-1.13-2.41-2.3-5.08-3.44-7.9-2.22-4.23-5-8.22-6.58-12.71a6.79,6.79,0,0,1-.54-2.87,1.59,1.59,0,0,1,.56-1.19,1.27,1.27,0,0,1,1.28,0,2.88,2.88,0,0,1,1,.91,14.54,14.54,0,0,1,2,4.64c1,3.32,1.75,6.69,2.5,10.06.83,2.11,1.69,4.14,2.54,6-.14-.81-.22-1.65-.32-2.37a42.36,42.36,0,0,1,.18-13.2c.1-.59.31-1.28.88-1.46a1.07,1.07,0,0,1,.84.11,2.83,2.83,0,0,1,1,2.55,46.06,46.06,0,0,1-1,8.52c-.25,1.4-.48,2.8-.62,4.21-.06.57-.36,2-.45,2.89,1.43,3.16,2.81,5.94,3.95,8.13a29.83,29.83,0,0,1-.47-3,40.61,40.61,0,0,1-.39-4.4,41.94,41.94,0,0,1,.58-8.81c.1-.59.3-1.28.87-1.46a1.07,1.07,0,0,1,.85.12,2.83,2.83,0,0,1,1,2.55,45.12,45.12,0,0,1-1,8.51c-.24,1.4-.48,2.8-.62,4.21-.06.63-.41,2.23-.46,3.11,1.4,2.68,2.33,4.28,2.35,4.32a.3.3,0,0,1-.11.42.37.37,0,0,1-.15,0,.32.32,0,0,1-.26-.15s-1.37-2.36-3.25-6.07c-.61-.34-1.32-.61-1.79-.83-1-.46-2-.84-3-1.2-2.08-.73-4.2-1.33-6.25-2.14a7.92,7.92,0,0,1-3.74-2.52,1.74,1.74,0,0,1-.38-1,1.47,1.47,0,0,1,1.22-1.33,3.74,3.74,0,0,1,1.92.2,22.22,22.22,0,0,1,7.38,4.2c1.67,1.36,3.07,3.05,4.62,4.51-.78-1.53-1.65-3.3-2.56-5.25C177,106.15,176.38,105.77,176,105.48Z" fill="#a7cbcc"/><path d="M97.51,163.38c1.07-6.72-20.35-13-29.35-15.89a20.27,20.27,0,1,0-25.42,0c-9.11,2.68-29.91,7.75-29.68,15.14.24,7.76,21.31,8.53,21.31,8.53s-11.67,27.19-5.2,31,26-23.17,26-23.17v-.11c1.38,2,19,27.19,25.29,23.66,6.56-3.68-4.68-31.31-4.68-31.31S96.27,171.26,97.51,163.38Z" fill="#44182c"/><path d="M95.32,163.38c1.07-6.72-20.35-13-29.35-15.89a20.27,20.27,0,1,0-25.42,0c-9.11,2.68-29.91,7.75-29.68,15.14.24,7.76,21.31,8.53,21.31,8.53s-11.67,27.19-5.19,31S53,179,53,179v-.11c1.39,2,19,27.19,25.29,23.66,6.56-3.68-4.68-31.31-4.68-31.31S94.08,171.26,95.32,163.38Z" fill="#bc606d"/><polygon points="53.07 148.16 44.39 143.78 44.23 150.75 53.07 148.16" fill="#fe99bf"/><polygon points="52.58 148.16 61.26 143.78 61.42 150.75 52.58 148.16" fill="#fe99bf"/><path d="M50.82,133.12l4.62-.06s-1,4.92-2.25,4.86S50.82,133.12,50.82,133.12Z" fill="#f7f0e7"/><path d="M73.53,170.46c.2,0,19.87-.89,21-7.22.5-2.64-6.83-8-28.84-15a.77.77,0,0,1-.52-.58.74.74,0,0,1,.28-.72,19.52,19.52,0,1,0-24.48,0,.76.76,0,0,1-.26,1.31c-22.14,6.51-29.58,11.65-29.15,14.3.38,2.35,3.57,4.42,9.22,6a71,71,0,0,0,11.41,1.95.76.76,0,0,1,.59.35.76.76,0,0,1,0,.69c-3.17,7.4-10.34,27.21-5.5,30.09a2.11,2.11,0,0,0,.46.19c5,1.36,18-14.37,24.16-22.86l.33-.36c.21-.25.25-.29.42-.34a.77.77,0,0,1,.83.3c5.52,8,16.45,21.93,22.33,23.53a2.55,2.55,0,0,0,2-.1c4.9-2.75-1.94-22.85-5-30.37a.72.72,0,0,1,.06-.68A.77.77,0,0,1,73.53,170.46Zm-1.13,1.23c4.49,11.05,9.08,27.58,5.22,29.74a2.1,2.1,0,0,1-1.59.06c-5.74-1.56-16.56-15.4-22-23.34a1.3,1.3,0,0,0-1.39-.49,1.23,1.23,0,0,0-.66.49c-.08.1-.18.2-.33.37-6.82,9.41-19.27,23.89-23.65,22.7a1,1,0,0,1-.33-.15c-3.82-2.26,1-18.58,5.71-29.45a1.28,1.28,0,0,0-.83-1.71l-.23,0A69.5,69.5,0,0,1,21,167.94c-5.44-1.47-8.51-3.39-8.85-5.54-.3-1.87,5.42-6.87,28.79-13.74a1.28,1.28,0,0,0,.88-1,1.26,1.26,0,0,0-.44-1.22,19,19,0,1,1,23.84,0,1.26,1.26,0,0,0,.4,2.17c23.25,7.45,28.86,12.6,28.51,14.46-.82,4.38-13.06,6.51-20.57,6.81a1.26,1.26,0,0,0-1.12,1.73Z" fill="#f7f0e7"/><g opacity="0.23"><path d="M48.14,137a5,5,0,1,1-3.51-6.13A5,5,0,0,1,48.14,137Z" fill="#44182c"/></g><g opacity="0.23"><path d="M67.62,137.26a5,5,0,1,1-3.52-6.14A5,5,0,0,1,67.62,137.26Z" fill="#44182c"/></g><path d="M47.73,132.66a2.22,2.22,0,1,1-1.39-2.81A2.21,2.21,0,0,1,47.73,132.66Z" fill="#44182c"/><path d="M63,133a2.22,2.22,0,1,1-1.4-2.8A2.22,2.22,0,0,1,63,133Z" fill="#44182c"/><polygon points="91.86 15.12 91.84 15.09 91.86 15.09 91.86 15.12" fill="#44182c"/><path d="M99.33,21.84a98.22,98.22,0,0,0-9.87,17A103.94,103.94,0,0,0,84.1,55.65l5.16-5.1,3.6,5.62,8.31-33.61Z" fill="#f56a58"/><path d="M102.54,20.73a97.94,97.94,0,0,1,9.88,17,105.13,105.13,0,0,1,5.36,16.81l-5.17-5.1L109,55.06l-8.3-33.61Z" fill="#f56a58"/><path d="M100.71,21.58l-.45.09h0l0-.06a43.37,43.37,0,0,0-14.91-6.48,41,41,0,0,0-4.9-.74c.73,3.19,14.34,6.53,18.68,7.51-4.86,1-19.25,3.68-22.71,3.47S66.64,24.18,65.7,19.2A8.93,8.93,0,0,1,66,14.9C68.66,6.14,72.19,5.62,79,6.14a13.83,13.83,0,0,1,5.27,2c6,3.51,13.46,10.51,15.74,12.73Z" fill="#f56a58"/><path d="M99.09,21.9c-4.86,1-19.25,3.68-22.71,3.47S66.64,24.18,65.7,19.2c.09-4.29,7.38-5.51,14.71-4.81C81.14,17.58,94.75,20.92,99.09,21.9Z" fill="#44182c"/><path d="M100.2,21.58l.45.09h0l0-.06a43.37,43.37,0,0,1,14.91-6.48,40.53,40.53,0,0,1,4.89-.74c-.73,3.19-14.34,6.53-18.68,7.51,4.87,1,19.25,3.68,22.72,3.47s9.73-1.19,10.68-6.17a8.83,8.83,0,0,0-.35-4.3c-2.62-8.76-6.14-9.28-13-8.76a13.79,13.79,0,0,0-5.26,2c-6.05,3.51-13.46,10.51-15.75,12.73Z" fill="#f56a58"/><path d="M101.81,21.9c4.87,1,19.25,3.68,22.72,3.47s9.73-1.19,10.68-6.17c-.09-4.29-7.39-5.51-14.72-4.81C119.76,17.58,106.15,20.92,101.81,21.9Z" fill="#44182c"/><path d="M97.89,21.1a1.79,1.79,0,0,0,.61,1.39,2.32,2.32,0,0,0,1.29.35,16.86,16.86,0,0,0,2.66-.07,1.81,1.81,0,0,0,1-.34,1.81,1.81,0,0,0,.49-1.21,2.2,2.2,0,0,0-2.79-2.61,6.24,6.24,0,0,0-2.32.47A2.39,2.39,0,0,0,97.89,21.1Z" fill="#f56a58"/><path d="M179.83,191.4a.36.36,0,0,1-.27-.11L169.22,181a.37.37,0,0,1,.53-.53l10.34,10.34a.37.37,0,0,1,0,.53A.34.34,0,0,1,179.83,191.4Z" fill="#fff"/><path d="M174.66,193.55a.38.38,0,0,1-.38-.38V178.55a.38.38,0,1,1,.75,0v14.62A.38.38,0,0,1,174.66,193.55Z" fill="#fff"/><path d="M169.49,191.4a.36.36,0,0,1-.27-.11.39.39,0,0,1,0-.53l10.34-10.34a.39.39,0,0,1,.53,0,.37.37,0,0,1,0,.53l-10.34,10.34A.34.34,0,0,1,169.49,191.4Z" fill="#fff"/><path d="M182,186.23H167.35a.37.37,0,0,1-.38-.37.38.38,0,0,1,.38-.38H182a.37.37,0,0,1,.37.38A.36.36,0,0,1,182,186.23Z" fill="#fff"/><path d="M90.64,60a.39.39,0,0,1-.27-.11L80,49.55a.37.37,0,1,1,.53-.53L90.9,59.36a.37.37,0,0,1,0,.53A.38.38,0,0,1,90.64,60Z" fill="#fff"/><path d="M85.47,62.14a.38.38,0,0,1-.38-.37V47.14a.38.38,0,0,1,.75,0V61.77A.38.38,0,0,1,85.47,62.14Z" fill="#fff"/><path d="M80.3,60a.39.39,0,0,1-.27-.11.37.37,0,0,1,0-.53L90.37,49a.37.37,0,1,1,.53.53L80.56,59.89A.38.38,0,0,1,80.3,60Z" fill="#fff"/><path d="M92.78,54.83H78.15a.38.38,0,0,1,0-.75H92.78a.38.38,0,0,1,0,.75Z" fill="#fff"/><path d="M25.1,139.49a.38.38,0,0,1-.26-.11L14.5,129a.37.37,0,1,1,.53-.53l10.34,10.34a.37.37,0,0,1,0,.53A.39.39,0,0,1,25.1,139.49Z" fill="#fff"/><path d="M19.93,141.63a.38.38,0,0,1-.37-.37V126.63a.38.38,0,0,1,.75,0v14.63A.38.38,0,0,1,19.93,141.63Z" fill="#fff"/><path d="M14.76,139.49a.38.38,0,0,1-.26-.11.37.37,0,0,1,0-.53l10.34-10.34a.37.37,0,1,1,.53.53L15,139.38A.39.39,0,0,1,14.76,139.49Z" fill="#fff"/><path d="M27.25,134.32H12.62a.38.38,0,0,1,0-.75H27.25a.38.38,0,0,1,0,.75Z" fill="#fff"/><circle cx="176.7" cy="74.2" r="3.74" fill="#fff"/><path d="M50.74,88.16A3.75,3.75,0,1,1,47,84.41,3.73,3.73,0,0,1,50.74,88.16Z" fill="#fff"/><path d="M170.74,143.82a3.75,3.75,0,1,1-3.74-3.75A3.74,3.74,0,0,1,170.74,143.82Z" fill="#fff"/><path d="M20.27,184.67a3.74,3.74,0,1,1-3.74-3.75A3.73,3.73,0,0,1,20.27,184.67Z" fill="#fff"/><path d="M130.74,199.31a3.75,3.75,0,1,1-3.74-3.75A3.74,3.74,0,0,1,130.74,199.31Z" fill="#fff"/></g></svg>