<svg xmlns="http://www.w3.org/2000/svg" viewBox="0 0 196.27 211.72"><g id="OBJECTS"><path d="M5.67,211.72A5.67,5.67,0,0,1,0,206V98.13A98.36,98.36,0,0,1,64.88,5.79c2.74-1,5.58-1.88,8.44-2.62A98.48,98.48,0,0,1,98.13,0c3.18,0,6.34.15,9.38.45.41,0,.83.07,1.23.13a96.83,96.83,0,0,1,33.45,9.85,98,98,0,0,1,25.34,18.31c.78.78,1.55,1.59,2.3,2.4,1.29,1.37,2.56,2.81,3.75,4.24l.13.15q.33.39.63.78A97.8,97.8,0,0,1,190.17,64a94.28,94.28,0,0,1,3.17,10.27,98.1,98.1,0,0,1,2.93,23.85V206a5.68,5.68,0,0,1-5.68,5.68Z" fill="#fffdff"/><path d="M191.08,98.13V206H6.16V98.13a92.45,92.45,0,0,1,61.12-87q3.9-1.43,7.94-2.47a92.52,92.52,0,0,1,23.4-3,87.58,87.58,0,0,1,8.91.44c.33,0,.67,0,1,.1a91.41,91.41,0,0,1,31.59,9.29A92.4,92.4,0,0,1,164,32.75c.74.74,1.45,1.49,2.15,2.24,1.22,1.3,2.41,2.63,3.54,4,.24.29.47.56.69.84a92.41,92.41,0,0,1,15,26.16,89.9,89.9,0,0,1,3,9.65A92.6,92.6,0,0,1,191.08,98.13Z" fill="#aa4346"/><path d="M191.08,98.13V109.5a23,23,0,0,1-8.16,5.63c-6.91,2.73-15.9.84-19.72-5.54-4.53-7.55-.68-18.07-5.26-25.61-6-9.83-22.31-8.58-28.52-18.28-3.81-6-2.08-14.28,2.58-19.61,7.16-8.16,19.29-10.48,29.61-11,1.57-.09,3.09-.1,4.54-.06,1.22,1.3,2.41,2.63,3.54,4,.24.29.47.56.69.84a92.41,92.41,0,0,1,15,26.16,89.9,89.9,0,0,1,3,9.65A92.6,92.6,0,0,1,191.08,98.13Z" fill="#ff8878"/><path d="M34.3,206H6.16V166.75A10.73,10.73,0,0,1,13.08,171c2.65,3.31,3.69,7.7,3.77,12,.08,5.06-.59,11.27,3.65,14,2.3,1.5,5.32,1.34,7.85,2.43,2.7,1.17,4.61,3.69,5.84,6.37A1.53,1.53,0,0,1,34.3,206Z" fill="#ff8878"/><path d="M191.08,167.85V206H117.85a21.37,21.37,0,0,1-2.91-14.46c1.57-9,9.46-15.67,17.95-19,11.45-4.45,24.23-4.05,36.36-2.09,6,1,12.34,2.25,17.9-.16A14.7,14.7,0,0,0,191.08,167.85Z" fill="#f1bfc9"/><path d="M122.08,171.61,62.08,206H51.2a8.38,8.38,0,0,1-1.58-1.46L6.16,153.09v-21.5l18.75-14.87.52-12.48a10.19,10.19,0,0,1,.76-3.41,8.68,8.68,0,0,1,1.43-2.41c7.35-9,24.45-12.79,32.27-14.1a10,10,0,0,1,7.25,1.58l9.91,6.68,18-5.6a6.19,6.19,0,0,1,7.72,4l23.39,69.89A9.11,9.11,0,0,1,122.08,171.61Z" fill="#6f9aff"/><path d="M64,84.48l-3.63,29.9L26.19,100.83a9,9,0,0,1,1.43-2.42c7.36-9,24.45-12.78,32.27-14.09A9.91,9.91,0,0,1,64,84.48Z" fill="#3c2238"/><path d="M24.91,116.72l4.75,20.6s11.83-22.7,30.66-22.94c0,0,10.13-12.55,26.79-10.62A94.82,94.82,0,0,0,77.05,92.58" fill="none" stroke="#3c2238" stroke-linecap="round" stroke-linejoin="round" stroke-width="0.47"/><polyline points="51.62 115.83 73.83 162.43 89.53 154.22 68.28 107.87" fill="none" stroke="#3c2238" stroke-linecap="round" stroke-linejoin="round" stroke-width="0.47"/><path d="M67.32,123.2a2.78,2.78,0,1,1-2.78-2.78A2.78,2.78,0,0,1,67.32,123.2Z" fill="#fff0e1"/><path d="M73.83,136.47a2.78,2.78,0,1,1-2.77-2.77A2.77,2.77,0,0,1,73.83,136.47Z" fill="#fff0e1"/><path d="M80.23,149.63a2.78,2.78,0,1,1-2.78-2.78A2.78,2.78,0,0,1,80.23,149.63Z" fill="#fff0e1"/><path d="M181.53,164.34c-1.67,1.28-4,3-6.62,5-5.28,3.94-12,8.85-18.38,13.13-9.23,6.25-17.59,11.14-19.28,9.75-2.77-2.28,2.25-14.21,5.81-21.74,1.73-3.64,3.11-6.26,3.11-6.26l-4.57-11.28L139,146.43l-6.8-16.75,5.49-2,.45-.16,7-2.51.46-.18,5.18-1.86.44-.16,5.44-2,.44-.17,5.82-2.09.44-.16,4.46-1.59.44-.17,3.55-1.27,2.59,9.42.1.41,1.09,4,1.93,7,2.87,10.46,3.21,11.65A5.64,5.64,0,0,1,181.53,164.34Z" fill="#ffca63"/><path d="M174.52,125a.23.23,0,0,1-.13.3l-2.51,1-.44.16-4.1,1.55-.44.18-5.77,2.18-.44.17-5.29,2-.44.17-4.67,1.77-.44.16-6.6,2.51-.43.16-6.34,2.4-.08,0a.24.24,0,0,1-.22-.15.24.24,0,0,1,.13-.31l6.28-2.38.43-.17,6.6-2.49.45-.17,4.72-1.79.43-.17,5.28-2,.44-.17,5.8-2.19.44-.17,4.11-1.56.45-.17,2.48-.94A.24.24,0,0,1,174.52,125Z" fill="#fff0e1"/><polygon points="143.25 137.11 142.81 137.27 142.59 136.85 137.66 127.7 138.11 127.54 143.02 136.68 143.25 137.11" fill="#fff0e1"/><path d="M150.29,134.44l-.44.16c-.09-.14-.16-.28-.23-.41-1.6-3-3.12-6.07-4.52-9.16l.46-.18q2.08,4.65,4.51,9.17Z" fill="#fff0e1"/><path d="M155.4,132.5l-.44.17c-.05-.14-.12-.29-.17-.44-1.26-3.11-2.61-6.2-4-9.24l.44-.16c1.44,3,2.79,6.12,4,9.23C155.29,132.2,155.34,132.35,155.4,132.5Z" fill="#fff0e1"/><path d="M161.13,130.33l-.44.17a4.48,4.48,0,0,1-.19-.44c-.52-1.19-1-2.39-1.47-3.58-.74-1.87-1.49-3.77-2.41-5.6l.44-.17c.91,1.83,1.67,3.73,2.41,5.59.47,1.19.94,2.4,1.47,3.59A4.48,4.48,0,0,0,161.13,130.33Z" fill="#fff0e1"/><path d="M167.34,128l-.44.18c-.05-.16-.11-.31-.16-.45-1.15-3.08-2.44-6.12-3.86-9.08l.44-.16c1.42,3,2.71,6,3.86,9.07C167.24,127.68,167.28,127.82,167.34,128Z" fill="#fff0e1"/><path d="M171.88,126.26l-.44.16-.15-.45a67.31,67.31,0,0,0-3.51-9.1l.44-.17a69.26,69.26,0,0,1,3.52,9.1C171.79,126,171.83,126.11,171.88,126.26Z" fill="#fff0e1"/><path d="M156.53,182.45c-9.23,6.25-17.59,11.14-19.28,9.75-2.77-2.28,2.25-14.21,5.81-21.74a21.68,21.68,0,0,1,5.91,2.8,18.68,18.68,0,0,1,5.77,5.32A13,13,0,0,1,156.53,182.45Z" fill="#fff0e1"/><path d="M181.53,164.34c-1.67,1.28-4,3-6.62,5a16.71,16.71,0,0,1-1.69-9.29,22.68,22.68,0,0,1,4.45-11,6.92,6.92,0,0,1,2.68-2.36l3.21,11.65A5.64,5.64,0,0,1,181.53,164.34Z" fill="#fff0e1"/><path d="M147.22,142.48a10.57,10.57,0,0,0-8.25,4l2.63,6.49h.92a4.7,4.7,0,0,1,9.4,0h5.92A10.62,10.62,0,0,0,147.22,142.48Z" fill="#6f9aff"/><path d="M175.55,129.22a10.62,10.62,0,0,0-8.82,17.93l4.19-4.18a4.7,4.7,0,0,1,6.56-6.72Z" fill="#6f9aff"/><path d="M156.62,163.28a10.59,10.59,0,0,0,5.21,13.94l2.4-5.4a4.65,4.65,0,0,1-2.17-2.23,4.71,4.71,0,0,1,6-6.37l2.41-5.4A10.62,10.62,0,0,0,156.62,163.28Z" fill="#6f9aff"/><path d="M106.21,27.67l-5.75,7.92h0l-.24.31v0l-2.42,3.32-4.27,5.9-6.37,8.77-7.1,9.79a5.64,5.64,0,0,1-5.93,2.15c-2-.51-4.82-1.22-8-2.06-6.38-1.65-14.44-3.86-21.74-6.14-10.64-3.31-19.68-6.78-19.65-9,0-3.59,12.5-7.13,20.61-9,3.92-.92,6.83-1.48,6.83-1.48l5.94-10.62,3.43-6.11L65.15,15l2.13-3.82q3.9-1.43,7.94-2.47l.1.06.4.24,6.33,3.9.42.24L87.17,16l.39.24,4.92,3,.42.24,5.26,3.23.4.26,4,2.47.4.25Z" fill="#ffca63"/><path d="M100.45,35.81a.24.24,0,0,1-.32.09l-2.31-1.36-.41-.25-3.76-2.23-.42-.24-5.3-3.14-.41-.23-4.87-2.88-.41-.24L78,22.79l-.41-.25L71.46,19l-.39-.24-5.84-3.45-.07,0a.26.26,0,0,1,0-.27.23.23,0,0,1,.32-.09l5.78,3.42.4.23,6.08,3.6.41.24,4.34,2.57.4.23L87.74,28l.41.24,5.33,3.16.41.24,3.79,2.24.41.24,2.28,1.35A.24.24,0,0,1,100.45,35.81Z" fill="#fff0e1"/><polygon points="71.46 18.96 71.06 18.72 71.25 18.28 75.32 8.72 75.72 8.96 71.65 18.51 71.46 18.96" fill="#fff0e1"/><path d="M78,22.79l-.41-.25a4.28,4.28,0,0,1,.19-.43q2-4.71,4.33-9.26l.41.25q-2.31,4.53-4.33,9.25Z" fill="#fff0e1"/><path d="M82.65,25.57l-.41-.24.24-.41C84.12,22,85.69,19,87.16,16l.41.25c-1.47,3-3,6-4.69,8.92C82.81,25.29,82.73,25.43,82.65,25.57Z" fill="#fff0e1"/><path d="M87.93,28.68l-.41-.23c.07-.15.14-.28.22-.43.6-1.15,1.24-2.28,1.88-3.38,1-1.75,2-3.52,2.86-5.38l.41.24C92,21.35,91,23.13,90,24.87c-.63,1.11-1.28,2.23-1.88,3.39A4.23,4.23,0,0,0,87.93,28.68Z" fill="#fff0e1"/><path d="M93.65,32.06l-.42-.24a4.37,4.37,0,0,0,.25-.4c1.69-2.82,3.25-5.73,4.68-8.69l.4.25c-1.42,3-3,5.86-4.67,8.68Z" fill="#fff0e1"/><path d="M97.82,34.54l-.41-.25.27-.39a69,69,0,0,0,4.91-8.44l.4.25a67.51,67.51,0,0,1-4.9,8.43Z" fill="#fff0e1"/><path d="M44.36,57.66c-10.65-3.31-19.69-6.78-19.67-9,0-3.59,12.51-7.12,20.62-9A21.86,21.86,0,0,1,46.81,46a18.66,18.66,0,0,1-.55,7.83A13.26,13.26,0,0,1,44.36,57.66Z" fill="#fff0e1"/><path d="M74.12,65.86c-2-.51-4.82-1.21-8-2a16.66,16.66,0,0,1,6.2-7.13A22.75,22.75,0,0,1,83.63,53.3a7.08,7.08,0,0,1,3.52.62l-7.1,9.79A5.62,5.62,0,0,1,74.12,65.86Z" fill="#fff0e1"/><path d="M69.75,25.42a10.58,10.58,0,0,0-8.24-4l-3.43,6.11.58.72a4.71,4.71,0,0,1,5.87,7.35l3.71,4.61A10.61,10.61,0,0,0,69.75,25.42Z" fill="#6f9aff"/><path d="M90,34.37a10.62,10.62,0,0,0-11.71,9.19l5.88.66a4.7,4.7,0,0,1,9.35.93l4.27-5.9A10.6,10.6,0,0,0,90,34.37Z" fill="#6f9aff"/><path d="M59.38,45.74a10.62,10.62,0,0,0-7.63,12.79L57.47,57a4.71,4.71,0,0,1,9.1-2.38l5.72-1.48A10.64,10.64,0,0,0,59.38,45.74Z" fill="#6f9aff"/><path d="M89.47,70.34a17.35,17.35,0,0,0,4.44.07,23.58,23.58,0,0,1,8.54,1.29c1.12.39,2.34.87,3.45.47,1.65-.6,2.07-2.94,1.19-4.46a7.07,7.07,0,0,0-4.3-2.8,20.22,20.22,0,0,0-10.83,0c-1.55.43-3.8,1-5,2.15C85.39,68.44,88,70,89.47,70.34Z" fill="#3c2238"/><path d="M169,95.08,150.88,88.3l-.38-.14s-.17.11-.5.29c-3.63,2.15-26.58,15.29-34.32,9.29-8.42-6.53.15-14.35-10.84-23.92-10.67-9.27-18.24-5.41-18.26-6.1s3.88-4.25,12.74-5.81c7.35-1.29,10.78-2.69,11.75-3.13l.28-.14s20.35-37,50.06-17.79l.24.16C191.48,60.53,169,95.08,169,95.08Z" fill="#f1bfc9"/><path d="M159.13,79c-2.35,3.43-4.91,6.83-8.25,9.27l-.38-.14s-.17.11-.5.29L111.07,58.78l.28-.14s20.35-37,50.06-17.79A26.77,26.77,0,0,1,167,62.13C165.93,68.31,162.66,73.85,159.13,79Z" fill="#fff0e1"/><polygon points="137.15 53.57 147.25 47 142.89 57.66 150.63 64.08 140.07 61.94 136.12 70.28 135.72 60.23 125.3 60.92 133.74 56.42 128.9 49.2 137.15 53.57" fill="#ffca63"/><path d="M166,41.39a3.78,3.78,0,1,1-1.8-5A3.78,3.78,0,0,1,166,41.39Z" fill="#fff0e1"/><path d="M126.64,27.05l-2.37,1.11a4.84,4.84,0,0,0-2.36,2.36l-1.11,2.37a.32.32,0,0,1-.59,0l-1.11-2.37a4.84,4.84,0,0,0-2.36-2.36l-2.37-1.11a.33.33,0,0,1,0-.59l2.37-1.11A4.84,4.84,0,0,0,119.1,23l1.11-2.37a.33.33,0,0,1,.59,0L121.91,23a4.84,4.84,0,0,0,2.36,2.36l2.37,1.11A.32.32,0,0,1,126.64,27.05Z" fill="#fff0e1"/><path d="M121.27,192.77l-2.37,1.11a4.84,4.84,0,0,0-2.36,2.36l-1.11,2.37a.33.33,0,0,1-.59,0l-1.11-2.37a4.84,4.84,0,0,0-2.36-2.36L109,192.77a.32.32,0,0,1,0-.59l2.37-1.11a4.84,4.84,0,0,0,2.36-2.36l1.11-2.37a.32.32,0,0,1,.59,0l1.11,2.37a4.84,4.84,0,0,0,2.36,2.36l2.37,1.11A.33.33,0,0,1,121.27,192.77Z" fill="#fff0e1"/><path d="M184.68,183.44l-2.38,1.1a4.92,4.92,0,0,0-2.36,2.36l-1.1,2.38a.33.33,0,0,1-.59,0l-1.11-2.38a4.88,4.88,0,0,0-2.36-2.36l-2.38-1.1a.33.33,0,0,1,0-.6l2.38-1.1a4.88,4.88,0,0,0,2.36-2.36l1.11-2.38a.33.33,0,0,1,.59,0l1.1,2.38a4.92,4.92,0,0,0,2.36,2.36l2.38,1.1A.33.33,0,0,1,184.68,183.44Z" fill="#fff0e1"/><path d="M25,190.84,22.66,192a4.84,4.84,0,0,0-2.36,2.36l-1.11,2.37a.33.33,0,0,1-.59,0l-1.11-2.37A4.84,4.84,0,0,0,15.13,192l-2.37-1.11a.32.32,0,0,1,0-.59l2.37-1.11a4.84,4.84,0,0,0,2.36-2.36l1.11-2.37a.32.32,0,0,1,.59,0l1.11,2.37a4.84,4.84,0,0,0,2.36,2.36L25,190.25A.33.33,0,0,1,25,190.84Z" fill="#fff0e1"/><path d="M148.31,106.83l-2.38,1.11a4.88,4.88,0,0,0-2.36,2.36l-1.1,2.37a.33.33,0,0,1-.6,0l-1.1-2.37a4.88,4.88,0,0,0-2.36-2.36L136,106.83a.33.33,0,0,1,0-.59l2.38-1.11a4.88,4.88,0,0,0,2.36-2.36l1.1-2.37a.33.33,0,0,1,.6,0l1.1,2.37a4.88,4.88,0,0,0,2.36,2.36l2.38,1.11A.33.33,0,0,1,148.31,106.83Z" fill="#fff0e1"/><path d="M37.58,74.64l-2.37,1.11a4.84,4.84,0,0,0-2.36,2.36l-1.11,2.38a.33.33,0,0,1-.59,0L30,78.11a4.84,4.84,0,0,0-2.36-2.36l-2.37-1.11a.33.33,0,0,1,0-.59l2.37-1.11A4.84,4.84,0,0,0,30,70.58l1.11-2.37a.33.33,0,0,1,.59,0l1.11,2.37a4.84,4.84,0,0,0,2.36,2.36l2.37,1.11A.32.32,0,0,1,37.58,74.64Z" fill="#fff0e1"/></g></svg>