<svg xmlns="http://www.w3.org/2000/svg" viewBox="0 0 196.27 211.72"><g id="OBJECTS"><path d="M5.67,211.72A5.67,5.67,0,0,1,0,206V98.13A98.24,98.24,0,0,1,98.13,0c3.19,0,6.34.15,9.38.45.41,0,.83.07,1.24.13A97.68,97.68,0,0,1,166,27.27l.07.06,1.44,1.41c2.13,2.13,4.16,4.36,6,6.63l.14.17c.22.25.43.51.63.77A97.53,97.53,0,0,1,190.16,64a93,93,0,0,1,3.18,10.27,98.1,98.1,0,0,1,2.93,23.85V206a5.68,5.68,0,0,1-5.68,5.68Z" fill="#fffdff"/><path d="M190.61,98.13V206H5.69V98.13A92.47,92.47,0,0,1,98.15,5.67a87.63,87.63,0,0,1,8.92.44c.33,0,.67,0,1,.1a92.07,92.07,0,0,1,54.05,25.15h0l1.41,1.38q3,3,5.69,6.24c.23.29.47.56.69.84a92.65,92.65,0,0,1,15,26.16,87.65,87.65,0,0,1,3,9.65A92.12,92.12,0,0,1,190.61,98.13Z" fill="#ff80a6"/><path d="M162.12,31.36a11.66,11.66,0,0,0-2.15-1,13,13,0,0,0-10,1.29c-3.05,1.62-5.72,4.14-9.1,4.86-4,.88-8.36-1.12-10.86-4.4a16.53,16.53,0,0,1-2.89-11.74,20.14,20.14,0,0,1,3.17-9A92.52,92.52,0,0,1,162.12,31.36Z" fill="#f1bfc9"/><path d="M190.61,120.24v44.59l-.42,0a15.58,15.58,0,0,1-14.94-9.78c-1.65-4.47-1-9.5-2.39-14.07a8.62,8.62,0,0,0-3.42-5c-3.34-2-7.63-.22-11.13,1.53s-8,3.35-11.11,1a8.29,8.29,0,0,1-2.56-3.79c-2.44-6.46,3.91-12.4,8.48-16.27a26.92,26.92,0,0,1,21.37-5.67A35.09,35.09,0,0,1,190.61,120.24Z" fill="#ffca63"/><path d="M36.45,173c-.68,5.43-4.08,10.19-8.23,13.75-3.79,3.27-8.51,5.77-13.51,5.8a31.71,31.71,0,0,1-9-1.73V150.1a36.61,36.61,0,0,1,16,1.86C30.41,155.11,37.6,163.83,36.45,173Z" fill="#6f9aff"/><polygon points="153.51 132.8 63.7 161.47 48.1 131.11 46.5 85 46.48 84.58 45.45 54.98 45.44 54.56 44.73 34.13 120.63 15.16 126.44 35.93 126.55 36.34 131.57 54.33 131.69 54.73 153.51 132.8" fill="#6f9aff"/><polygon points="48.19 54.35 47.78 54.44 45.45 54.98 45.44 54.56 47.73 54.03 48.13 53.94 48.19 54.35" fill="#fff0e1"/><polygon points="113.24 38.97 113.33 39.38 112.93 39.47 55.72 52.62 55.31 52.72 55.26 52.31 55.66 52.21 112.84 39.06 113.24 38.97" fill="#fff0e1"/><polygon points="126.55 36.34 120.84 37.65 120.44 37.74 120.34 37.34 120.75 37.24 126.44 35.93 126.55 36.34" fill="#fff0e1"/><path d="M120.84,37.65l-.09-.41L116.6,19.33l0-.2-7.71,1.77,4,18.16.09.41,1.35,6.16,8-1.79Zm-7.51,1.72-.09-.4-3.9-17.75,6.91-1.6,4.09,17.72.1.4,1.34,5.8-7.18,1.59Z" fill="#fff0e1"/><path d="M55.72,52.62l-.06-.41L53.49,35.65l0-.21-7.84,1L47.73,54l.05.41.83,7,0,.2,8.12-1Zm-7.54,1.73,0-.41L46.08,36.83l7-.92,2.15,16.4.05.41,1,7.52-7.3.9Z" fill="#fff0e1"/><polygon points="66.23 30.97 100.17 23.38 105.02 48.26 70.02 56.06 66.23 30.97" fill="#aa4346"/><path d="M102.26,41.92l-.07-.41L98.91,24.73,68.08,31.62l-.19,0,2.6,17.14.06.41.83,5.5,31.79-7.09.2,0ZM71.72,54.21,71,49.12l-.07-.41L68.36,32l30.23-6.76,3.19,16.38.08.41,1,5.25Z" fill="#ff8878"/><polygon points="131.69 54.73 46.5 85 46.48 84.58 131.57 54.33 131.69 54.73" fill="#fff0e1"/><path d="M125.67,65.92l0-.22L63.21,86.64,63,86.7l14.61,47,0,.14,32.82,2.33h.09l25.36-23.67.08-.08Zm-15.24,69.82L78,133.44,63.53,87l61.79-20.73,10.25,46Z" fill="#fff0e1"/><path d="M122.88,72.65,69.55,90.71l11.5,36.17,28.47.86,21.77-18.4.1-.08Zm-13.5,54.66-28-.83-6.54-20.61-.14-.43L70.07,91l52.51-17.78,8.35,35.92Z" fill="#ffca63"/><path d="M110.68,91.7a24.51,24.51,0,0,0-8.06,6.9,13.77,13.77,0,0,0-2.21,4.87A15.82,15.82,0,0,0,95,101.35a27.51,27.51,0,0,0-10,.06c-3,.46-7.2,1.38-10.36,4a3.11,3.11,0,0,0-.28.23l.28.32a.75.75,0,0,1,.14-.12c3.08-2.67,7.34-3.59,10.28-4.05a27.44,27.44,0,0,1,9.86-.07,15.26,15.26,0,0,1,5.37,2.15,10.81,10.81,0,0,0,.14,4.91c.32,1.12,1.12,2.41,2.35,2.41h.08a2.17,2.17,0,0,0,1.86-2.2,4.45,4.45,0,0,0-1.14-2.7,12.18,12.18,0,0,0-2.83-2.61A13.62,13.62,0,0,1,103,98.83a24.17,24.17,0,0,1,7.94-6.77c5.68-3.33,10.59-4.55,15-3.74l.07-.41C121.46,87.08,116.46,88.32,110.68,91.7Zm-7.39,14.86a4,4,0,0,1,1,2.46,1.77,1.77,0,0,1-1.46,1.79h-.06c-1,0-1.67-1.13-1.94-2.12a10.21,10.21,0,0,1-.18-4.55A12.29,12.29,0,0,1,103.29,106.56Z" fill="#ffca63"/><path d="M97.84,203.31s-11.23.18-13.86-11.12a17.85,17.85,0,0,1,4.59-16.86c2.9-3,6.78-4.66,10.46-6.51,5.57-2.81,11.21-4.83,16-9s9-8.3,14.54-11.2c13.8-7.14,31.5-7.15,46.48-4.5,1.93.34,5.79.71,6.9,2.67a.69.69,0,0,1,.05.13c1.23,3.91-28.68,32.8-32.9,36.1S122.66,202.67,97.84,203.31Z" fill="#aa4346"/><path d="M148.46,181.53s-11.6,10.3-25.2,15-28.64,7.15-31.39-3.69a10.12,10.12,0,0,1-.28-3.3c.7-9.28,13.83-16.6,19.22-19.43,12.19-6.38,31.58-15.51,31.58-15.51L137,165l7.92,11.4Z" fill="#3c2238"/><path d="M140.82,155.74s18.66-11,33.22-12" fill="none" stroke="#3c2238" stroke-linecap="round" stroke-linejoin="round" stroke-width="0.47"/><path d="M147.68,152.4S161,159.6,162.75,171" fill="none" stroke="#3c2238" stroke-linecap="round" stroke-linejoin="round" stroke-width="0.47"/><path d="M148.46,181.53s-11.6,10.3-25.2,15-28.64,7.15-31.39-3.69a10.12,10.12,0,0,1-.28-3.3c.81.74,7.93,6.61,21.73,3,10.42-2.7,24.36-11.35,31.6-16.16Z" fill="#f1bfc9"/><path d="M165.23,79.81a17.17,17.17,0,0,0,1.22-6.38A17.45,17.45,0,0,0,149,56h-.1a2.21,2.21,0,0,0,1.32-2,2.23,2.23,0,1,0-2.91,2.11,17.41,17.41,0,0,0-13.81,25.3L121.34,91.73l.13.28A24.08,24.08,0,0,0,126,98l.22-.3.27-.36,6.33-8.58-5,9.84-.2.4-.17.34a26,26,0,0,0,12,5.7l.12-.38.11-.4,3.6-12-1.53,12.34-.05.41,0,.4a31.72,31.72,0,0,0,3.59.2,35,35,0,0,0,4.35-.27,57.32,57.32,0,0,0,8.88-1.77l-.08-.4-.06-.42-2-11.46L160.64,102l.15.39.16.4a35.5,35.5,0,0,0,10.89-5.86l-.25-.35-.26-.35-6.47-9L173,94.71l.32.28.32.3a15.58,15.58,0,0,0,2.54-3.11l.13-.26Zm-32.82-6.38a16.61,16.61,0,1,1,33.22,0,16.41,16.41,0,0,1-1.2,6.19c-.05.14-.11.28-.17.41s-.12.28-.19.42A16.6,16.6,0,0,1,134.82,82c-.08-.13-.16-.26-.23-.39s-.15-.26-.22-.4A16.48,16.48,0,0,1,132.41,73.43Z" fill="#fff0e1"/><path d="M148.08,52.89l-.28-7.64a3.4,3.4,0,0,1,3.4-3.53h0a3.4,3.4,0,0,1,3.38,3.76l-.23,2.3" fill="none" stroke="#fff0e1" stroke-miterlimit="10" stroke-width="0.41"/><path d="M67.62,62.08a17.41,17.41,0,0,0-25-14.37l-.09,0a2.24,2.24,0,1,0-1.39.76,17.42,17.42,0,0,0-1.42,28.79L33.3,91.93l.24.19a24,24,0,0,0,6.71,3.43l.07-.37.08-.43,2-10.49-.19,11v.84A26,26,0,0,0,55.41,96l-.07-.4-.07-.41-2-12.39,4,11.78.14.38.13.38A29.32,29.32,0,0,0,60.86,94a35.14,35.14,0,0,0,3.8-2.13,58.3,58.3,0,0,0,7.21-5.46l-.24-.33-.24-.35-6.76-9.46,8.52,7.79.31.29.31.28a35.18,35.18,0,0,0,7.25-10l-.38-.21-.38-.2-9.74-5.27,10.62,3.15.41.12.42.13a15.35,15.35,0,0,0,.92-3.9l0-.3ZM35.29,70.63A16.61,16.61,0,1,1,65.2,56.16a16.41,16.41,0,0,1,1.61,6.1,3.4,3.4,0,0,1,0,.45c0,.15,0,.3,0,.46A16.6,16.6,0,0,1,41.21,77.33l-.38-.26-.37-.26A16.48,16.48,0,0,1,35.29,70.63Z" fill="#fff0e1"/><path d="M40.46,45.32l-3.58-6.75a3.39,3.39,0,0,1,1.52-4.66h0a3.41,3.41,0,0,1,4.69,1.9L43.87,38" fill="none" stroke="#fff0e1" stroke-miterlimit="10" stroke-width="0.41"/><path d="M34.6,157.83c-8.28-13.72-16-28.1-19.27-43.79A92.79,92.79,0,0,1,14,86.31c.27-2.81.88-6,3.28-7.47,3-1.86,7,.11,9.37,2.77A27.62,27.62,0,0,1,32,92.22c2.82,9.42,3.26,19.36,4.24,29.15a259.53,259.53,0,0,0,8.24,43.78c1.2,4.31,3.27,15,7.41,17.21-2.56-4.06-6.28-7.68-9.07-11.69C39.92,166.5,37.22,162.18,34.6,157.83Z" fill="none" stroke="#ffca63" stroke-linecap="round" stroke-linejoin="round" stroke-width="0.95"/><path d="M58,183.35c2.21,1.34,4.23,4.58,5.78,6.62.93,1.23,1.81,2.48,2.65,3.77.06.09.11.18.17.26l-7.07,4.71c-3.1-3.39-6.33-6.66-9.41-10.06A75.39,75.39,0,0,0,57.62,200l-2.2,1.47s-6.76-7-9.9-14.25,2.66-10.38,2.66-10.38c7.73-9.18,23.18,14,23.18,14l-3.13,2.09A38.75,38.75,0,0,0,58,183.35Z" fill="#ffca63"/><path d="M81.44,171.89,79.06,173a4.88,4.88,0,0,0-2.36,2.36l-1.11,2.38a.33.33,0,0,1-.59,0l-1.1-2.38A4.88,4.88,0,0,0,71.54,173l-2.38-1.11a.33.33,0,0,1,0-.59l2.38-1.11a4.86,4.86,0,0,0,2.36-2.35l1.1-2.38a.33.33,0,0,1,.59,0l1.11,2.38a4.86,4.86,0,0,0,2.36,2.35l2.38,1.11A.33.33,0,0,1,81.44,171.89Z" fill="#fff0e1"/><path d="M183.15,186.7l-2.38,1.11a4.88,4.88,0,0,0-2.36,2.36l-1.1,2.37a.33.33,0,0,1-.6,0l-1.1-2.37a4.88,4.88,0,0,0-2.36-2.36l-2.38-1.11a.33.33,0,0,1,0-.59l2.38-1.11a4.88,4.88,0,0,0,2.36-2.36l1.1-2.37a.33.33,0,0,1,.6,0l1.1,2.37a4.88,4.88,0,0,0,2.36,2.36l2.38,1.11A.33.33,0,0,1,183.15,186.7Z" fill="#fff0e1"/><path d="M87.87,17.4,85.5,18.5a4.88,4.88,0,0,0-2.36,2.36L82,23.24a.33.33,0,0,1-.59,0l-1.11-2.38A4.88,4.88,0,0,0,78,18.5L75.6,17.4a.33.33,0,0,1,0-.6L78,15.7a4.88,4.88,0,0,0,2.36-2.36L81.44,11A.33.33,0,0,1,82,11l1.11,2.38A4.88,4.88,0,0,0,85.5,15.7l2.37,1.1A.33.33,0,0,1,87.87,17.4Z" fill="#fff0e1"/><path d="M182,70.23l-2.37,1.1a4.88,4.88,0,0,0-2.36,2.36l-1.11,2.38a.33.33,0,0,1-.59,0l-1.11-2.38a4.88,4.88,0,0,0-2.36-2.36l-2.38-1.1a.33.33,0,0,1,0-.59l2.38-1.11a4.88,4.88,0,0,0,2.36-2.36l1.11-2.38a.33.33,0,0,1,.59,0l1.11,2.38a4.88,4.88,0,0,0,2.36,2.36L182,69.64A.33.33,0,0,1,182,70.23Z" fill="#fff0e1"/><path d="M31.32,113.36,29,114.47a4.82,4.82,0,0,0-2.36,2.35l-1.11,2.38a.33.33,0,0,1-.59,0l-1.11-2.38a4.82,4.82,0,0,0-2.36-2.35l-2.37-1.11a.33.33,0,0,1,0-.59l2.37-1.11a4.84,4.84,0,0,0,2.36-2.36l1.11-2.38a.33.33,0,0,1,.59,0l1.11,2.38A4.84,4.84,0,0,0,29,111.66l2.37,1.11A.32.32,0,0,1,31.32,113.36Z" fill="#fff0e1"/></g></svg>